<?xml version="1.0" encoding="UTF-8" standalone="no"?>
<svg
   sodipodi:docname="bellsworne.svg"
   inkscape:version="1.2.2 (b0a8486541, 2022-12-01)"
   id="svg8"
   version="1.1"
   viewBox="0 0 1672.9581 782.6321"
   height="2957.9795"
   width="6322.9912"
   inkscape:export-filename="D:\Bellsworne\bellsworne-banner-v1.png"
   inkscape:export-xdpi="95.800003"
   inkscape:export-ydpi="95.800003"
   xmlns:inkscape="http://www.inkscape.org/namespaces/inkscape"
   xmlns:sodipodi="http://sodipodi.sourceforge.net/DTD/sodipodi-0.dtd"
   xmlns="http://www.w3.org/2000/svg"
   xmlns:svg="http://www.w3.org/2000/svg"
   xmlns:rdf="http://www.w3.org/1999/02/22-rdf-syntax-ns#"
   xmlns:cc="http://creativecommons.org/ns#"
   xmlns:dc="http://purl.org/dc/elements/1.1/">
  <defs
     id="defs2" />
  <sodipodi:namedview
     id="base"
     pagecolor="#ffffff"
     bordercolor="#666666"
     borderopacity="1.0"
     inkscape:pageopacity="0"
     inkscape:pageshadow="2"
     inkscape:zoom="0.034370457"
     inkscape:cx="-35844.737"
     inkscape:cy="-1862.0643"
     inkscape:document-units="px"
     inkscape:current-layer="layer8"
     inkscape:document-rotation="0"
     showgrid="false"
     inkscape:showpageshadow="false"
     showborder="false"
     units="px"
     inkscape:window-width="1920"
     inkscape:window-height="1016"
     inkscape:window-x="0"
     inkscape:window-y="0"
     inkscape:window-maximized="1"
     inkscape:snap-nodes="true"
     inkscape:snap-smooth-nodes="true"
     inkscape:snap-midpoints="false"
     inkscape:snap-intersection-paths="false"
     inkscape:object-paths="false"
     inkscape:snap-text-baseline="false"
     inkscape:snap-others="false"
     inkscape:object-nodes="false"
     inkscape:snap-bbox="false"
     inkscape:bbox-nodes="false"
     inkscape:snap-bbox-edge-midpoints="false"
     inkscape:snap-bbox-midpoints="false"
     inkscape:snap-global="true"
     inkscape:snap-object-midpoints="false"
     inkscape:pagecheckerboard="0"
     inkscape:deskcolor="#d1d1d1" />
  <metadata
     id="metadata5">
    <rdf:RDF>
      <cc:Work
         rdf:about="">
        <dc:format>image/svg+xml</dc:format>
        <dc:type
           rdf:resource="http://purl.org/dc/dcmitype/StillImage" />
        <dc:title />
      </cc:Work>
    </rdf:RDF>
  </metadata>
  <g
     inkscape:label="Layer 1"
     inkscape:groupmode="layer"
     id="layer1"
     transform="translate(9992.0911,2443.7277)">
    <rect
       style="fill:#2b2b2b;stroke-width:2.02921"
       id="rect1198"
       width="2224.6807"
       height="4715.4028"
       x="-10267.952"
       y="-2775.6255"
       ry="1.4313874" />
    <g
       id="g6027">
      <path
         id="path1144"
         style="fill:#845b3f;fill-opacity:1;stroke:none;stroke-width:9.24624;stroke-miterlimit:4;stroke-dasharray:none;stroke-dashoffset:0;stroke-opacity:1"
         d="m -9742.9682,-2027.2393 c -2.4326,0 -4.3917,1.9591 -4.3917,4.3917 v 65.8783 h -244.7312 l 127.1944,155.3912 -114.9903,140.4826 h 287.9419 c 2.4335,0 4.3925,-1.9591 4.3925,-4.3917 v -65.8783 h 1063.8813 v 65.8783 c 0,2.4326 1.9583,4.3917 4.3917,4.3917 h 287.9419 l -114.9903,-140.4826 127.1952,-155.3912 h -244.732 v -65.8783 c 0,-2.4326 -1.9583,-4.3917 -4.3917,-4.3917 z" />
      <g
         id="g1282"
         transform="matrix(2.9507281,0,0,2.9507281,-8761.9855,-2828.7805)"
         inkscape:export-xdpi="95.627701"
         inkscape:export-ydpi="95.627701"
         style="display:inline">
        <ellipse
           style="fill:#ff0000;fill-opacity:1;stroke:none;stroke-width:0.264583;stroke-miterlimit:4;stroke-dasharray:none;stroke-dashoffset:0;stroke-opacity:1"
           id="ellipse1200"
           cx="-131.78734"
           cy="308.16913"
           rx="64.215721"
           ry="39.6875" />
        <path
           style="fill:#b28261;fill-opacity:1;stroke:none;stroke-width:0.264583px;stroke-linecap:butt;stroke-linejoin:miter;stroke-opacity:1"
           d="m 21.054399,293.26613 -49.17887,28.39343 2.69965,-40.74249 39.15833,-0.79375 z"
           id="path1202" />
        <path
           style="fill:#b28261;fill-opacity:1;stroke:none;stroke-width:0.264583px;stroke-linecap:butt;stroke-linejoin:miter;stroke-opacity:1"
           d="m -287.85396,232.95585 42.38458,-24.47075 -1.67627,43.3278 -34.925,-6.61458 -5.78331,-12.24247"
           id="path1204" />
        <g
           id="g1218"
           transform="matrix(0.81558738,0,0,1,-629.26673,344.68165)">
          <g
             id="g1210"
             transform="matrix(1.3408274,0,0,1,-177.68592,6.7351921)"
             style="fill:#2b2b2b;fill-opacity:1;stroke:none">
            <path
               sodipodi:type="star"
               style="fill:#2b2b2b;fill-opacity:1;stroke:none;stroke-width:2.64583;stroke-miterlimit:4;stroke-dasharray:none"
               id="path1206"
               sodipodi:sides="6"
               sodipodi:cx="585.96167"
               sodipodi:cy="-88.305855"
               sodipodi:r1="123.04144"
               sodipodi:r2="106.55701"
               sodipodi:arg1="0.52359878"
               sodipodi:arg2="1.0471976"
               inkscape:flatsided="true"
               inkscape:rounded="0"
               inkscape:randomized="0"
               inkscape:transform-center-x="6.6571939e-06"
               inkscape:transform-center-y="1.7657093e-06"
               d="m 692.51868,-26.785133 -106.55701,61.520721 -106.55702,-61.520722 0,-123.041446 106.55702,-61.52072 106.55702,61.52072 z" />
            <path
               sodipodi:type="star"
               style="fill:#2b2b2b;fill-opacity:1;stroke:none;stroke-width:3.83878;stroke-miterlimit:4;stroke-dasharray:none"
               id="path1208"
               sodipodi:sides="6"
               sodipodi:cx="585.96167"
               sodipodi:cy="-88.305855"
               sodipodi:r1="130.40045"
               sodipodi:r2="112.93008"
               sodipodi:arg1="0.52359878"
               sodipodi:arg2="1.0471976"
               inkscape:flatsided="true"
               inkscape:rounded="0"
               inkscape:randomized="0"
               inkscape:transform-center-x="6.1697596e-06"
               inkscape:transform-center-y="1.6364255e-06"
               d="m 698.89177,-23.105628 -112.9301,65.200225 -112.9301,-65.200226 0,-130.400451 112.9301,-65.20023 112.9301,65.20023 z" />
          </g>
          <g
             id="g1216"
             transform="matrix(1.3408274,0,0,1,-177.68592,6.7351921)"
             style="stroke:#b28261;stroke-opacity:1">
            <path
               sodipodi:type="star"
               style="fill:none;stroke:#b28261;stroke-width:2.64583;stroke-miterlimit:4;stroke-dasharray:none;stroke-opacity:1"
               id="path1212"
               sodipodi:sides="6"
               sodipodi:cx="585.96167"
               sodipodi:cy="-88.305855"
               sodipodi:r1="123.04144"
               sodipodi:r2="106.55701"
               sodipodi:arg1="0.52359878"
               sodipodi:arg2="1.0471976"
               inkscape:flatsided="true"
               inkscape:rounded="0"
               inkscape:randomized="0"
               inkscape:transform-center-x="6.6571939e-06"
               inkscape:transform-center-y="1.7657093e-06"
               d="m 692.51868,-26.785133 -106.55701,61.520721 -106.55702,-61.520722 0,-123.041446 106.55702,-61.52072 106.55702,61.52072 z" />
            <path
               sodipodi:type="star"
               style="fill:none;stroke:#b28261;stroke-width:3.83878;stroke-miterlimit:4;stroke-dasharray:none;stroke-opacity:1"
               id="path1214"
               sodipodi:sides="6"
               sodipodi:cx="585.96167"
               sodipodi:cy="-88.305855"
               sodipodi:r1="130.40045"
               sodipodi:r2="112.93008"
               sodipodi:arg1="0.52359878"
               sodipodi:arg2="1.0471976"
               inkscape:flatsided="true"
               inkscape:rounded="0"
               inkscape:randomized="0"
               inkscape:transform-center-x="6.1697596e-06"
               inkscape:transform-center-y="1.6364255e-06"
               d="m 698.89177,-23.105628 -112.9301,65.200225 -112.9301,-65.200226 0,-130.400451 112.9301,-65.20023 112.9301,65.20023 z" />
          </g>
        </g>
        <path
           id="path1220"
           style="fill:#b28261;fill-opacity:1;stroke:none;stroke-width:0.936199"
           d="m -135.53273,185.65966 -2.54534,6.08342 -0.71672,4.37749 0.13338,1.64199 -6.56988,0.86486 -0.29616,-1.61999 -1.82483,-4.04288 -4.03372,-5.21859 -4.11966,1.10445 -0.8831,6.53513 0.44067,4.414 0.55217,1.55064 -6.12193,2.53607 -0.7058,-1.48838 -2.80859,-3.4321 -5.24777,-3.99531 -3.69181,2.13199 0.83743,6.54067 1.5671,4.14884 0.93619,1.35676 -5.25705,4.03195 -1.06596,-1.25444 -3.60221,-2.58727 -6.10179,-2.50145 -3.01521,3.01526 2.50143,6.10174 2.58739,3.60215 1.25431,1.06602 -4.03186,5.25699 -1.35671,-0.93619 -4.14895,-1.56704 -6.54059,-0.83747 -2.13208,3.69179 3.99529,5.24783 3.4321,2.80859 1.48847,0.70581 -2.53614,6.12188 -1.55064,-0.55403 -4.41399,-0.43883 -6.53513,0.88318 -1.10257,4.11964 5.21679,4.0337 4.0428,1.82486 1.62009,0.29617 -0.8649,6.56804 -1.64199,-0.13167 -4.37749,0.71681 -6.08353,2.54526 v 4.26413 l 6.08353,2.54528 4.37749,0.7186 1.64199,-0.13338 0.8649,6.56802 -1.62009,0.29793 -4.0428,1.82485 -5.21679,4.0337 1.10257,4.1178 6.53513,0.88502 4.41399,-0.44067 1.55064,-0.55223 2.53614,6.12005 -1.48847,0.70581 -3.4321,2.81043 -3.99529,5.24603 2.13208,3.69359 6.54059,-0.83747 4.14895,-1.56885 1.35671,-0.93438 4.03186,5.25519 -1.25431,1.06781 -2.58739,3.60219 -2.50143,6.10176 3.01521,3.0152 6.10179,-2.50139 3.60221,-2.58919 1.06596,-1.25436 5.25705,4.0337 -0.93619,1.35496 -1.5671,4.14887 -0.83743,6.54246 3.69181,2.13202 5.24777,-3.99711 2.80859,-3.43213 0.7058,-1.48659 6.12193,2.53434 -0.55217,1.5524 -0.44067,4.4122 0.8831,6.53694 4.11966,1.1026 4.03372,-5.21673 1.82483,-4.04286 0.29616,-1.62006 6.56988,0.86489 -0.13338,1.64199 0.71672,4.37565 2.54534,6.0853 h 4.26413 l 2.54712,-6.0853 0.71676,-4.37565 -0.13338,-1.64199 6.56809,-0.86489 0.29793,1.62006 1.82485,4.04286 4.0337,5.21673 4.11966,-1.1026 0.8832,-6.53694 -0.44067,-4.4122 -0.55227,-1.5524 6.12004,-2.53434 0.70769,1.48659 2.80859,3.43213 5.246009,3.99711 3.69357,-2.13202 -0.83743,-6.54246 -1.56888,-4.14887 -0.9343,-1.35496 5.25517,-4.0337 1.06781,1.25436 3.60213,2.58919 6.10179,2.50139 3.01521,-3.0152 -2.50143,-6.10176 -2.58914,-3.60219 -1.25434,-1.06781 4.0337,-5.25519 1.3549,0.93438 4.14892,1.56885 6.54248,0.83747 2.13201,-3.69359 -3.99533,-5.24603 -3.43388,-2.81043 -1.48662,-0.70581 2.53431,-6.12005 1.5524,0.55223 4.41224,0.44067 6.53688,-0.88502 1.10257,-4.1178 -5.21668,-4.0337 -4.04286,-1.82485 -1.6201,-0.29793 0.86492,-6.56802 1.64204,0.13338 4.37749,-0.7186 6.08342,-2.54528 V 260.978 l -6.08342,-2.54526 -4.37749,-0.71681 -1.64204,0.13167 -0.86492,-6.56804 1.6201,-0.29617 4.04286,-1.82486 5.21668,-4.0337 -1.10257,-4.11964 -6.53688,-0.88318 -4.41224,0.43883 -1.5524,0.55403 -2.53431,-6.12188 1.48662,-0.70581 3.43388,-2.80859 3.99533,-5.24783 -2.13201,-3.69179 -6.54248,0.83747 -4.14892,1.56704 -1.3549,0.93619 -4.0337,-5.25699 1.25434,-1.06602 2.58914,-3.60215 2.50143,-6.10174 -3.01521,-3.01526 -6.10179,2.50145 -3.60213,2.58727 -1.06781,1.25444 -5.25517,-4.03195 0.9343,-1.35676 1.56888,-4.14884 0.83743,-6.54067 -3.69357,-2.13199 -5.246009,3.99531 -2.80859,3.4321 -0.70769,1.48838 -6.12004,-2.53607 0.55227,-1.55064 0.44067,-4.414 -0.8832,-6.53513 -4.11966,-1.10445 -4.0337,5.21859 -1.82485,4.04288 -0.29793,1.61999 -6.56809,-0.86486 0.13338,-1.64199 -0.71676,-4.37749 -2.54712,-6.08342 z m 1.91445,19.19941 a 58.252468,58.252468 0 0 1 0.21763,0 58.252468,58.252468 0 0 1 58.252909,58.25105 58.252468,58.252468 0 0 1 -58.252909,58.25285 58.252468,58.252468 0 0 1 -58.25105,-58.25285 58.252468,58.252468 0 0 1 58.03346,-58.25105 z m 0.21763,2.31305 a 55.938467,55.938467 0 0 0 -55.938,55.93984 55.938467,55.938467 0 0 0 55.938,55.93796 55.938467,55.938467 0 0 0 55.939829,-55.93796 55.938467,55.938467 0 0 0 -55.939829,-55.93984 z m -0.29618,2.9786 a 52.959496,52.959496 0 0 1 0.29618,0 52.959496,52.959496 0 0 1 36.433259,14.52215 l -31.655309,31.65526 a 8.1854549,8.1854549 0 0 0 -4.45247,-1.31837 8.1854549,8.1854549 0 0 0 -4.84922,1.59083 l -31.91675,-31.91858 a 52.959496,52.959496 0 0 1 36.14424,-14.53129 z m -38.1318,16.51887 31.96056,31.96065 a 8.1854549,8.1854549 0 0 0 -1.39324,4.56581 8.1854549,8.1854549 0 0 0 1.3,4.42503 l -31.89841,31.89661 a 52.959496,52.959496 0 0 1 -14.50013,-36.40573 52.959496,52.959496 0 0 1 14.53122,-36.44237 z m 76.867109,0.0107 a 52.959496,52.959496 0 0 1 14.52214,36.43318 52.959496,52.959496 0 0 1 -14.5185,36.42588 l -31.508929,-31.509 a 8.1854549,8.1854549 0 0 0 1.57798,-4.83277 8.1854549,8.1854549 0 0 0 -1.65662,-4.93518 z m -43.021319,43.06705 a 8.1854549,8.1854549 0 0 0 4.90774,1.63649 8.1854549,8.1854549 0 0 0 4.54939,-1.38234 l 31.552859,31.55287 a 52.959496,52.959496 0 0 1 -36.427739,14.51843 52.959496,52.959496 0 0 1 -36.40753,-14.4983 z" />
        <g
           id="g1234"
           transform="translate(-741.97792,359.74642)">
          <g
             id="g1226"
             transform="matrix(0.50404175,0,0,0.50404175,263.25697,-0.91059354)">
            <path
               id="path1222"
               style="fill:#b28261;fill-opacity:1;stroke:none;stroke-width:4.35538;stroke-opacity:1"
               d="m 1890.6816,-1044.877 -6.5546,14.4805 -0.5,5.1348 1.2851,8.7539 -15.498,4.1523 -3.2637,-8.2246 -2.9981,-4.1953 -12.9179,-9.2637 -7.4512,4.3028 1.5625,15.8183 2.1348,4.6953 5.4902,6.9375 -11.3457,11.34575 -6.9375,-5.49024 -4.6953,-2.13476 -15.8184,-1.56255 -4.3027,7.45122 9.2637,12.91797 4.1953,2.99804 8.2246,3.26368 -4.1543,15.49804 -8.752,-1.28515 -5.1347,0.5 -14.4805,6.55468 v 8.60547 l 14.4805,6.55469 5.1347,0.49805 8.752,-1.28516 4.1543,15.49805 -8.2246,3.26367 -4.1953,3 -9.2637,12.91602 4.3027,7.45312 15.8184,-1.56445 4.6953,-2.13477 6.9375,-5.49023 11.3457,11.3457 -5.4902,6.9375 -2.1348,4.69727 -1.5625,15.8164 7.4512,4.30274 12.9179,-9.26172 2.9981,-4.19727 3.2637,-8.22265 15.498,4.15234 -1.2851,8.75195 0.5,5.13477 6.5546,14.48047 h 8.6036 l 6.5566,-14.48047 0.498,-5.13477 -1.2851,-8.75195 15.498,-4.15234 3.2637,8.22265 3,4.19727 12.916,9.26172 7.4512,-4.30274 -1.5625,-15.8164 -2.1348,-4.69727 -5.4902,-6.9375 11.3457,-11.3457 6.9375,5.49023 4.6973,2.13477 15.8164,1.56445 4.3027,-7.45312 -9.2617,-12.91602 -4.1973,-3 -8.2226,-3.26367 4.1523,-15.49805 8.752,1.28516 5.1347,-0.49805 14.4805,-6.55469 v -8.60547 l -14.4805,-6.55468 -5.1347,-0.5 -8.752,1.28515 -4.1523,-15.49804 8.2226,-3.26368 4.1973,-2.99804 9.2617,-12.91797 -4.3027,-7.45122 -15.8164,1.56255 -4.6973,2.13476 -6.9375,5.49024 -11.3457,-11.34575 5.4902,-6.9375 2.1348,-4.6953 1.5625,-15.8183 -7.4512,-4.3028 -12.916,9.2637 -3,4.1953 -3.2637,8.2246 -15.498,-4.1523 1.2851,-8.7539 -0.498,-5.1348 -6.5566,-14.4805 z m 3.9122,43.4512 a 53.499999,53.499999 0 0 1 0.3906,0 53.499999,53.499999 0 0 1 53.5,53.50002 53.499999,53.499999 0 0 1 -53.5,53.5 53.499999,53.499999 0 0 1 -53.5,-53.5 53.499999,53.499999 0 0 1 53.1094,-53.50002 z"
               transform="scale(0.26458333)" />
            <path
               id="path1224"
               style="fill:#b28261;fill-opacity:1;stroke:none;stroke-width:0.0643235;stroke-miterlimit:4;stroke-dasharray:none;stroke-dashoffset:0;stroke-opacity:1"
               d="m 505.11177,-250.80563 a 3.7307554,3.7307554 0 0 1 -3.73076,3.73076 3.7307554,3.7307554 0 0 1 -3.73075,-3.73076 3.7307554,3.7307554 0 0 1 3.73075,-3.73075 3.7307554,3.7307554 0 0 1 3.73076,3.73075 z" />
          </g>
          <g
             id="g1232"
             transform="matrix(0.50404175,0,0,0.50404175,448.46542,-0.91059354)">
            <path
               id="path1228"
               style="fill:#b28261;fill-opacity:1;stroke:none;stroke-width:4.35538;stroke-opacity:1"
               d="m 1890.6816,-1044.877 -6.5546,14.4805 -0.5,5.1348 1.2851,8.7539 -15.498,4.1523 -3.2637,-8.2246 -2.9981,-4.1953 -12.9179,-9.2637 -7.4512,4.3028 1.5625,15.8183 2.1348,4.6953 5.4902,6.9375 -11.3457,11.34575 -6.9375,-5.49024 -4.6953,-2.13476 -15.8184,-1.56255 -4.3027,7.45122 9.2637,12.91797 4.1953,2.99804 8.2246,3.26368 -4.1543,15.49804 -8.752,-1.28515 -5.1347,0.5 -14.4805,6.55468 v 8.60547 l 14.4805,6.55469 5.1347,0.49805 8.752,-1.28516 4.1543,15.49805 -8.2246,3.26367 -4.1953,3 -9.2637,12.91602 4.3027,7.45312 15.8184,-1.56445 4.6953,-2.13477 6.9375,-5.49023 11.3457,11.3457 -5.4902,6.9375 -2.1348,4.69727 -1.5625,15.8164 7.4512,4.30274 12.9179,-9.26172 2.9981,-4.19727 3.2637,-8.22265 15.498,4.15234 -1.2851,8.75195 0.5,5.13477 6.5546,14.48047 h 8.6036 l 6.5566,-14.48047 0.498,-5.13477 -1.2851,-8.75195 15.498,-4.15234 3.2637,8.22265 3,4.19727 12.916,9.26172 7.4512,-4.30274 -1.5625,-15.8164 -2.1348,-4.69727 -5.4902,-6.9375 11.3457,-11.3457 6.9375,5.49023 4.6973,2.13477 15.8164,1.56445 4.3027,-7.45312 -9.2617,-12.91602 -4.1973,-3 -8.2226,-3.26367 4.1523,-15.49805 8.752,1.28516 5.1347,-0.49805 14.4805,-6.55469 v -8.60547 l -14.4805,-6.55468 -5.1347,-0.5 -8.752,1.28515 -4.1523,-15.49804 8.2226,-3.26368 4.1973,-2.99804 9.2617,-12.91797 -4.3027,-7.45122 -15.8164,1.56255 -4.6973,2.13476 -6.9375,5.49024 -11.3457,-11.34575 5.4902,-6.9375 2.1348,-4.6953 1.5625,-15.8183 -7.4512,-4.3028 -12.916,9.2637 -3,4.1953 -3.2637,8.2246 -15.498,-4.1523 1.2851,-8.7539 -0.498,-5.1348 -6.5566,-14.4805 z m 3.9122,43.4512 a 53.499999,53.499999 0 0 1 0.3906,0 53.499999,53.499999 0 0 1 53.5,53.50002 53.499999,53.499999 0 0 1 -53.5,53.5 53.499999,53.499999 0 0 1 -53.5,-53.5 53.499999,53.499999 0 0 1 53.1094,-53.50002 z"
               transform="scale(0.26458333)" />
            <path
               id="path1230"
               style="fill:#b28261;fill-opacity:1;stroke:none;stroke-width:0.0643235;stroke-miterlimit:4;stroke-dasharray:none;stroke-dashoffset:0;stroke-opacity:1"
               d="m 505.11177,-250.80563 a 3.7307554,3.7307554 0 0 1 -3.73076,3.73076 3.7307554,3.7307554 0 0 1 -3.73075,-3.73076 3.7307554,3.7307554 0 0 1 3.73075,-3.73075 3.7307554,3.7307554 0 0 1 3.73076,3.73075 z" />
          </g>
        </g>
        <g
           id="g1248"
           transform="translate(-741.97792,421.12975)">
          <g
             id="g1240"
             transform="matrix(0.50404175,0,0,0.50404175,263.25697,-0.91059354)">
            <path
               id="path1236"
               style="fill:#b28261;fill-opacity:1;stroke:none;stroke-width:4.35538;stroke-opacity:1"
               d="m 1890.6816,-1044.877 -6.5546,14.4805 -0.5,5.1348 1.2851,8.7539 -15.498,4.1523 -3.2637,-8.2246 -2.9981,-4.1953 -12.9179,-9.2637 -7.4512,4.3028 1.5625,15.8183 2.1348,4.6953 5.4902,6.9375 -11.3457,11.34575 -6.9375,-5.49024 -4.6953,-2.13476 -15.8184,-1.56255 -4.3027,7.45122 9.2637,12.91797 4.1953,2.99804 8.2246,3.26368 -4.1543,15.49804 -8.752,-1.28515 -5.1347,0.5 -14.4805,6.55468 v 8.60547 l 14.4805,6.55469 5.1347,0.49805 8.752,-1.28516 4.1543,15.49805 -8.2246,3.26367 -4.1953,3 -9.2637,12.91602 4.3027,7.45312 15.8184,-1.56445 4.6953,-2.13477 6.9375,-5.49023 11.3457,11.3457 -5.4902,6.9375 -2.1348,4.69727 -1.5625,15.8164 7.4512,4.30274 12.9179,-9.26172 2.9981,-4.19727 3.2637,-8.22265 15.498,4.15234 -1.2851,8.75195 0.5,5.13477 6.5546,14.48047 h 8.6036 l 6.5566,-14.48047 0.498,-5.13477 -1.2851,-8.75195 15.498,-4.15234 3.2637,8.22265 3,4.19727 12.916,9.26172 7.4512,-4.30274 -1.5625,-15.8164 -2.1348,-4.69727 -5.4902,-6.9375 11.3457,-11.3457 6.9375,5.49023 4.6973,2.13477 15.8164,1.56445 4.3027,-7.45312 -9.2617,-12.91602 -4.1973,-3 -8.2226,-3.26367 4.1523,-15.49805 8.752,1.28516 5.1347,-0.49805 14.4805,-6.55469 v -8.60547 l -14.4805,-6.55468 -5.1347,-0.5 -8.752,1.28515 -4.1523,-15.49804 8.2226,-3.26368 4.1973,-2.99804 9.2617,-12.91797 -4.3027,-7.45122 -15.8164,1.56255 -4.6973,2.13476 -6.9375,5.49024 -11.3457,-11.34575 5.4902,-6.9375 2.1348,-4.6953 1.5625,-15.8183 -7.4512,-4.3028 -12.916,9.2637 -3,4.1953 -3.2637,8.2246 -15.498,-4.1523 1.2851,-8.7539 -0.498,-5.1348 -6.5566,-14.4805 z m 3.9122,43.4512 a 53.499999,53.499999 0 0 1 0.3906,0 53.499999,53.499999 0 0 1 53.5,53.50002 53.499999,53.499999 0 0 1 -53.5,53.5 53.499999,53.499999 0 0 1 -53.5,-53.5 53.499999,53.499999 0 0 1 53.1094,-53.50002 z"
               transform="scale(0.26458333)" />
            <path
               id="path1238"
               style="fill:#b28261;fill-opacity:1;stroke:none;stroke-width:0.0643235;stroke-miterlimit:4;stroke-dasharray:none;stroke-dashoffset:0;stroke-opacity:1"
               d="m 505.11177,-250.80563 a 3.7307554,3.7307554 0 0 1 -3.73076,3.73076 3.7307554,3.7307554 0 0 1 -3.73075,-3.73076 3.7307554,3.7307554 0 0 1 3.73075,-3.73075 3.7307554,3.7307554 0 0 1 3.73076,3.73075 z" />
          </g>
          <g
             id="g1246"
             transform="matrix(0.50404175,0,0,0.50404175,448.46542,-0.91059354)">
            <path
               id="path1242"
               style="fill:#b28261;fill-opacity:1;stroke:none;stroke-width:4.35538;stroke-opacity:1"
               d="m 1890.6816,-1044.877 -6.5546,14.4805 -0.5,5.1348 1.2851,8.7539 -15.498,4.1523 -3.2637,-8.2246 -2.9981,-4.1953 -12.9179,-9.2637 -7.4512,4.3028 1.5625,15.8183 2.1348,4.6953 5.4902,6.9375 -11.3457,11.34575 -6.9375,-5.49024 -4.6953,-2.13476 -15.8184,-1.56255 -4.3027,7.45122 9.2637,12.91797 4.1953,2.99804 8.2246,3.26368 -4.1543,15.49804 -8.752,-1.28515 -5.1347,0.5 -14.4805,6.55468 v 8.60547 l 14.4805,6.55469 5.1347,0.49805 8.752,-1.28516 4.1543,15.49805 -8.2246,3.26367 -4.1953,3 -9.2637,12.91602 4.3027,7.45312 15.8184,-1.56445 4.6953,-2.13477 6.9375,-5.49023 11.3457,11.3457 -5.4902,6.9375 -2.1348,4.69727 -1.5625,15.8164 7.4512,4.30274 12.9179,-9.26172 2.9981,-4.19727 3.2637,-8.22265 15.498,4.15234 -1.2851,8.75195 0.5,5.13477 6.5546,14.48047 h 8.6036 l 6.5566,-14.48047 0.498,-5.13477 -1.2851,-8.75195 15.498,-4.15234 3.2637,8.22265 3,4.19727 12.916,9.26172 7.4512,-4.30274 -1.5625,-15.8164 -2.1348,-4.69727 -5.4902,-6.9375 11.3457,-11.3457 6.9375,5.49023 4.6973,2.13477 15.8164,1.56445 4.3027,-7.45312 -9.2617,-12.91602 -4.1973,-3 -8.2226,-3.26367 4.1523,-15.49805 8.752,1.28516 5.1347,-0.49805 14.4805,-6.55469 v -8.60547 l -14.4805,-6.55468 -5.1347,-0.5 -8.752,1.28515 -4.1523,-15.49804 8.2226,-3.26368 4.1973,-2.99804 9.2617,-12.91797 -4.3027,-7.45122 -15.8164,1.56255 -4.6973,2.13476 -6.9375,5.49024 -11.3457,-11.34575 5.4902,-6.9375 2.1348,-4.6953 1.5625,-15.8183 -7.4512,-4.3028 -12.916,9.2637 -3,4.1953 -3.2637,8.2246 -15.498,-4.1523 1.2851,-8.7539 -0.498,-5.1348 -6.5566,-14.4805 z m 3.9122,43.4512 a 53.499999,53.499999 0 0 1 0.3906,0 53.499999,53.499999 0 0 1 53.5,53.50002 53.499999,53.499999 0 0 1 -53.5,53.5 53.499999,53.499999 0 0 1 -53.5,-53.5 53.499999,53.499999 0 0 1 53.1094,-53.50002 z"
               transform="scale(0.26458333)" />
            <path
               id="path1244"
               style="fill:#b28261;fill-opacity:1;stroke:none;stroke-width:0.0643235;stroke-miterlimit:4;stroke-dasharray:none;stroke-dashoffset:0;stroke-opacity:1"
               d="m 505.11177,-250.80563 a 3.7307554,3.7307554 0 0 1 -3.73076,3.73076 3.7307554,3.7307554 0 0 1 -3.73075,-3.73076 3.7307554,3.7307554 0 0 1 3.73075,-3.73075 3.7307554,3.7307554 0 0 1 3.73076,3.73075 z" />
          </g>
        </g>
        <g
           id="g1270"
           transform="matrix(0.75995549,0,0,0.75995549,-589.51018,326.23848)">
          <rect
             style="fill:#b28261;fill-opacity:1;stroke:none;stroke-width:4.73305;stroke-miterlimit:4;stroke-dasharray:none"
             id="rect1250"
             width="406.48221"
             height="79.360283"
             x="396.93933"
             y="-122.7475" />
          <text
             xml:space="preserve"
             style="font-size:64.8035px;line-height:1.25;font-family:sans-serif;-inkscape-font-specification:sans-serif;letter-spacing:2.27706px;stroke-width:0.675035"
             x="600.18042"
             y="-59.25206"
             id="text1254"><tspan
               sodipodi:role="line"
               id="tspan1252"
               x="601.31897"
               y="-59.25206"
               style="font-style:normal;font-variant:normal;font-weight:normal;font-stretch:normal;font-size:64.8035px;font-family:'League Gothic';-inkscape-font-specification:'League Gothic';text-align:center;text-anchor:middle;stroke-width:0.675035">BELLSWORNE</tspan></text>
          <g
             id="g1268"
             transform="translate(-0.42398982,-0.51755261)">
            <g
               id="g1260"
               style="opacity:1">
              <path
                 style="color:#000000;font-style:normal;font-variant:normal;font-weight:normal;font-stretch:normal;font-size:medium;line-height:normal;font-family:sans-serif;font-variant-ligatures:normal;font-variant-position:normal;font-variant-caps:normal;font-variant-numeric:normal;font-variant-alternates:normal;font-variant-east-asian:normal;font-feature-settings:normal;font-variation-settings:normal;text-indent:0;text-align:start;text-decoration:none;text-decoration-line:none;text-decoration-style:solid;text-decoration-color:#000000;letter-spacing:normal;word-spacing:normal;text-transform:none;writing-mode:lr-tb;direction:ltr;text-orientation:mixed;dominant-baseline:auto;baseline-shift:baseline;text-anchor:start;white-space:normal;shape-padding:0;shape-margin:0;inline-size:0;clip-rule:nonzero;display:inline;overflow:visible;visibility:visible;isolation:auto;mix-blend-mode:normal;color-interpolation:sRGB;color-interpolation-filters:linearRGB;solid-color:#000000;solid-opacity:1;vector-effect:none;fill:#b28261;fill-opacity:1;fill-rule:nonzero;stroke:none;stroke-width:1.32292;stroke-linecap:butt;stroke-linejoin:miter;stroke-miterlimit:4;stroke-dasharray:5.29167, 2.64583;stroke-dashoffset:0;stroke-opacity:1;color-rendering:auto;image-rendering:auto;shape-rendering:auto;text-rendering:auto;enable-background:accumulate;stop-color:#000000;stop-opacity:1"
                 d="m 397.40416,-114.3 h 406.4"
                 id="path1256" />
              <path
                 style="color:#000000;font-style:normal;font-variant:normal;font-weight:normal;font-stretch:normal;font-size:medium;line-height:normal;font-family:sans-serif;font-variant-ligatures:normal;font-variant-position:normal;font-variant-caps:normal;font-variant-numeric:normal;font-variant-alternates:normal;font-variant-east-asian:normal;font-feature-settings:normal;font-variation-settings:normal;text-indent:0;text-align:start;text-decoration:none;text-decoration-line:none;text-decoration-style:solid;text-decoration-color:#000000;letter-spacing:normal;word-spacing:normal;text-transform:none;writing-mode:lr-tb;direction:ltr;text-orientation:mixed;dominant-baseline:auto;baseline-shift:baseline;text-anchor:start;white-space:normal;shape-padding:0;shape-margin:0;inline-size:0;clip-rule:nonzero;display:inline;overflow:visible;visibility:visible;isolation:auto;mix-blend-mode:normal;color-interpolation:sRGB;color-interpolation-filters:linearRGB;solid-color:#000000;solid-opacity:1;vector-effect:none;fill:#000000;fill-opacity:1;fill-rule:nonzero;stroke:none;stroke-linecap:butt;stroke-linejoin:miter;stroke-miterlimit:4;stroke-dasharray:5.29167, 2.64583;stroke-dashoffset:0;stroke-opacity:1;color-rendering:auto;image-rendering:auto;shape-rendering:auto;text-rendering:auto;enable-background:accumulate;stop-color:#000000;stop-opacity:1"
                 d="m 397.4043,-114.96094 v 1.32227 h 5.29101 v -1.32227 z m 7.9375,0 v 1.32227 h 5.29101 v -1.32227 z m 7.9375,0 v 1.32227 h 5.29101 v -1.32227 z m 7.9375,0 v 1.32227 h 5.29101 v -1.32227 z m 7.9375,0 v 1.32227 h 5.29101 v -1.32227 z m 7.9375,0 v 1.32227 h 5.29101 v -1.32227 z m 7.9375,0 v 1.32227 h 5.29101 v -1.32227 z m 7.9375,0 v 1.32227 h 5.29101 v -1.32227 z m 7.9375,0 v 1.32227 h 5.29101 v -1.32227 z m 7.9375,0 v 1.32227 h 5.29101 v -1.32227 z m 7.9375,0 v 1.32227 h 5.29101 v -1.32227 z m 7.9375,0 v 1.32227 h 5.29101 v -1.32227 z m 7.9375,0 v 1.32227 h 5.29101 v -1.32227 z m 7.9375,0 v 1.32227 h 5.29101 v -1.32227 z m 7.9375,0 v 1.32227 h 5.29101 v -1.32227 z m 7.9375,0 v 1.32227 h 5.29101 v -1.32227 z m 7.9375,0 v 1.32227 h 5.29101 v -1.32227 z m 7.9375,0 v 1.32227 h 5.29101 v -1.32227 z m 7.9375,0 v 1.32227 h 5.29101 v -1.32227 z m 7.9375,0 v 1.32227 h 5.29101 v -1.32227 z m 7.9375,0 v 1.32227 h 5.29101 v -1.32227 z m 7.9375,0 v 1.32227 h 5.29101 v -1.32227 z m 7.9375,0 v 1.32227 h 5.29101 v -1.32227 z m 7.9375,0 v 1.32227 h 5.29101 v -1.32227 z m 7.9375,0 v 1.32227 h 5.29101 v -1.32227 z m 7.9375,0 v 1.32227 h 5.29101 v -1.32227 z m 7.9375,0 v 1.32227 h 5.29101 v -1.32227 z m 7.9375,0 v 1.32227 h 5.29101 v -1.32227 z m 7.9375,0 v 1.32227 h 5.29101 v -1.32227 z m 7.9375,0 v 1.32227 h 5.29101 v -1.32227 z m 7.9375,0 v 1.32227 h 5.29101 v -1.32227 z m 7.9375,0 v 1.32227 h 5.29101 v -1.32227 z m 7.9375,0 v 1.32227 h 5.29101 v -1.32227 z m 7.9375,0 v 1.32227 h 5.29101 v -1.32227 z m 7.9375,0 v 1.32227 h 5.29101 v -1.32227 z m 7.9375,0 v 1.32227 h 5.29101 v -1.32227 z m 7.9375,0 v 1.32227 h 5.29101 v -1.32227 z m 7.9375,0 v 1.32227 h 5.29101 v -1.32227 z m 7.9375,0 v 1.32227 h 5.29101 v -1.32227 z m 7.9375,0 v 1.32227 h 5.29101 v -1.32227 z m 7.9375,0 v 1.32227 h 5.29101 v -1.32227 z m 7.9375,0 v 1.32227 h 5.29101 v -1.32227 z m 7.9375,0 v 1.32227 h 5.29101 v -1.32227 z m 7.9375,0 v 1.32227 h 5.29101 v -1.32227 z m 7.9375,0 v 1.32227 h 5.29101 v -1.32227 z m 7.9375,0 v 1.32227 h 5.29101 v -1.32227 z m 7.9375,0 v 1.32227 h 5.29101 v -1.32227 z m 7.9375,0 v 1.32227 h 5.29101 v -1.32227 z m 7.9375,0 v 1.32227 h 5.29101 v -1.32227 z m 7.9375,0 v 1.32227 h 5.29101 v -1.32227 z m 7.9375,0 v 1.32227 h 5.29101 v -1.32227 z m 7.9375,0 v 1.32227 h 1.58789 v -1.32227 z"
                 id="path1258" />
            </g>
            <g
               id="g1266"
               style="opacity:1"
               transform="translate(0,63.500003)">
              <path
                 style="color:#000000;font-style:normal;font-variant:normal;font-weight:normal;font-stretch:normal;font-size:medium;line-height:normal;font-family:sans-serif;font-variant-ligatures:normal;font-variant-position:normal;font-variant-caps:normal;font-variant-numeric:normal;font-variant-alternates:normal;font-variant-east-asian:normal;font-feature-settings:normal;font-variation-settings:normal;text-indent:0;text-align:start;text-decoration:none;text-decoration-line:none;text-decoration-style:solid;text-decoration-color:#000000;letter-spacing:normal;word-spacing:normal;text-transform:none;writing-mode:lr-tb;direction:ltr;text-orientation:mixed;dominant-baseline:auto;baseline-shift:baseline;text-anchor:start;white-space:normal;shape-padding:0;shape-margin:0;inline-size:0;clip-rule:nonzero;display:inline;overflow:visible;visibility:visible;isolation:auto;mix-blend-mode:normal;color-interpolation:sRGB;color-interpolation-filters:linearRGB;solid-color:#000000;solid-opacity:1;vector-effect:none;fill:#b28261;fill-opacity:1;fill-rule:nonzero;stroke:none;stroke-width:1.32292;stroke-linecap:butt;stroke-linejoin:miter;stroke-miterlimit:4;stroke-dasharray:5.29167, 2.64583;stroke-dashoffset:0;stroke-opacity:1;color-rendering:auto;image-rendering:auto;shape-rendering:auto;text-rendering:auto;enable-background:accumulate;stop-color:#000000;stop-opacity:1"
                 d="m 397.40416,-114.3 h 406.4"
                 id="path1262" />
              <path
                 style="color:#000000;font-style:normal;font-variant:normal;font-weight:normal;font-stretch:normal;font-size:medium;line-height:normal;font-family:sans-serif;font-variant-ligatures:normal;font-variant-position:normal;font-variant-caps:normal;font-variant-numeric:normal;font-variant-alternates:normal;font-variant-east-asian:normal;font-feature-settings:normal;font-variation-settings:normal;text-indent:0;text-align:start;text-decoration:none;text-decoration-line:none;text-decoration-style:solid;text-decoration-color:#000000;letter-spacing:normal;word-spacing:normal;text-transform:none;writing-mode:lr-tb;direction:ltr;text-orientation:mixed;dominant-baseline:auto;baseline-shift:baseline;text-anchor:start;white-space:normal;shape-padding:0;shape-margin:0;inline-size:0;clip-rule:nonzero;display:inline;overflow:visible;visibility:visible;isolation:auto;mix-blend-mode:normal;color-interpolation:sRGB;color-interpolation-filters:linearRGB;solid-color:#000000;solid-opacity:1;vector-effect:none;fill:#000000;fill-opacity:1;fill-rule:nonzero;stroke:none;stroke-linecap:butt;stroke-linejoin:miter;stroke-miterlimit:4;stroke-dasharray:5.29167, 2.64583;stroke-dashoffset:0;stroke-opacity:1;color-rendering:auto;image-rendering:auto;shape-rendering:auto;text-rendering:auto;enable-background:accumulate;stop-color:#000000;stop-opacity:1"
                 d="m 397.4043,-114.96094 v 1.32227 h 5.29101 v -1.32227 z m 7.9375,0 v 1.32227 h 5.29101 v -1.32227 z m 7.9375,0 v 1.32227 h 5.29101 v -1.32227 z m 7.9375,0 v 1.32227 h 5.29101 v -1.32227 z m 7.9375,0 v 1.32227 h 5.29101 v -1.32227 z m 7.9375,0 v 1.32227 h 5.29101 v -1.32227 z m 7.9375,0 v 1.32227 h 5.29101 v -1.32227 z m 7.9375,0 v 1.32227 h 5.29101 v -1.32227 z m 7.9375,0 v 1.32227 h 5.29101 v -1.32227 z m 7.9375,0 v 1.32227 h 5.29101 v -1.32227 z m 7.9375,0 v 1.32227 h 5.29101 v -1.32227 z m 7.9375,0 v 1.32227 h 5.29101 v -1.32227 z m 7.9375,0 v 1.32227 h 5.29101 v -1.32227 z m 7.9375,0 v 1.32227 h 5.29101 v -1.32227 z m 7.9375,0 v 1.32227 h 5.29101 v -1.32227 z m 7.9375,0 v 1.32227 h 5.29101 v -1.32227 z m 7.9375,0 v 1.32227 h 5.29101 v -1.32227 z m 7.9375,0 v 1.32227 h 5.29101 v -1.32227 z m 7.9375,0 v 1.32227 h 5.29101 v -1.32227 z m 7.9375,0 v 1.32227 h 5.29101 v -1.32227 z m 7.9375,0 v 1.32227 h 5.29101 v -1.32227 z m 7.9375,0 v 1.32227 h 5.29101 v -1.32227 z m 7.9375,0 v 1.32227 h 5.29101 v -1.32227 z m 7.9375,0 v 1.32227 h 5.29101 v -1.32227 z m 7.9375,0 v 1.32227 h 5.29101 v -1.32227 z m 7.9375,0 v 1.32227 h 5.29101 v -1.32227 z m 7.9375,0 v 1.32227 h 5.29101 v -1.32227 z m 7.9375,0 v 1.32227 h 5.29101 v -1.32227 z m 7.9375,0 v 1.32227 h 5.29101 v -1.32227 z m 7.9375,0 v 1.32227 h 5.29101 v -1.32227 z m 7.9375,0 v 1.32227 h 5.29101 v -1.32227 z m 7.9375,0 v 1.32227 h 5.29101 v -1.32227 z m 7.9375,0 v 1.32227 h 5.29101 v -1.32227 z m 7.9375,0 v 1.32227 h 5.29101 v -1.32227 z m 7.9375,0 v 1.32227 h 5.29101 v -1.32227 z m 7.9375,0 v 1.32227 h 5.29101 v -1.32227 z m 7.9375,0 v 1.32227 h 5.29101 v -1.32227 z m 7.9375,0 v 1.32227 h 5.29101 v -1.32227 z m 7.9375,0 v 1.32227 h 5.29101 v -1.32227 z m 7.9375,0 v 1.32227 h 5.29101 v -1.32227 z m 7.9375,0 v 1.32227 h 5.29101 v -1.32227 z m 7.9375,0 v 1.32227 h 5.29101 v -1.32227 z m 7.9375,0 v 1.32227 h 5.29101 v -1.32227 z m 7.9375,0 v 1.32227 h 5.29101 v -1.32227 z m 7.9375,0 v 1.32227 h 5.29101 v -1.32227 z m 7.9375,0 v 1.32227 h 5.29101 v -1.32227 z m 7.9375,0 v 1.32227 h 5.29101 v -1.32227 z m 7.9375,0 v 1.32227 h 5.29101 v -1.32227 z m 7.9375,0 v 1.32227 h 5.29101 v -1.32227 z m 7.9375,0 v 1.32227 h 5.29101 v -1.32227 z m 7.9375,0 v 1.32227 h 5.29101 v -1.32227 z m 7.9375,0 v 1.32227 h 1.58789 v -1.32227 z"
                 id="path1264" />
            </g>
          </g>
        </g>
        <g
           id="g1280"
           transform="translate(-741.38731,170.0566)">
          <text
             xml:space="preserve"
             style="font-size:17.8852px;line-height:1.25;font-family:sans-serif;-inkscape-font-specification:sans-serif;letter-spacing:3.24046px;fill:#ffffff;stroke-width:1.21945"
             id="text1274"
             x="570.44257"
             y="12.314691"><tspan
               id="tspan1272"
               style="font-style:normal;font-variant:normal;font-weight:normal;font-stretch:normal;font-family:'League Gothic';-inkscape-font-specification:'League Gothic';fill:#ffffff;stroke-width:1.21945">EST. 2020</tspan></text>
          <rect
             style="opacity:1;fill:#ffffff;fill-opacity:1;stroke:none;stroke-width:1.32292;stroke-miterlimit:4;stroke-dasharray:none;stroke-dashoffset:0;stroke-opacity:1"
             id="rect1276"
             width="8.9802551"
             height="2.9934187"
             x="555.8725"
             y="4.245172" />
          <rect
             style="fill:#ffffff;fill-opacity:1;stroke:none;stroke-width:1.32292;stroke-miterlimit:4;stroke-dasharray:none;stroke-dashoffset:0;stroke-opacity:1"
             id="rect1278"
             width="8.9802551"
             height="2.9934187"
             x="651.12231"
             y="4.245172" />
        </g>
      </g>
    </g>
  </g>
</svg>
