<?xml version="1.0" encoding="UTF-8" standalone="no"?>
<svg
   sodipodi:docname="banner-logo.svg"
   inkscape:version="1.2.2 (b0a8486541, 2022-12-01)"
   id="svg8"
   version="1.1"
   viewBox="0 0 1672.9581 782.6321"
   height="2957.9795"
   width="6322.9912"
   inkscape:export-filename="D:\Bellsworne\bellsworne-banner-v1.png"
   inkscape:export-xdpi="95.800003"
   inkscape:export-ydpi="95.800003"
   xmlns:inkscape="http://www.inkscape.org/namespaces/inkscape"
   xmlns:sodipodi="http://sodipodi.sourceforge.net/DTD/sodipodi-0.dtd"
   xmlns="http://www.w3.org/2000/svg"
   xmlns:svg="http://www.w3.org/2000/svg"
   xmlns:rdf="http://www.w3.org/1999/02/22-rdf-syntax-ns#"
   xmlns:cc="http://creativecommons.org/ns#"
   xmlns:dc="http://purl.org/dc/elements/1.1/">
  <defs
     id="defs2" />
  <sodipodi:namedview
     id="base"
     pagecolor="#ffffff"
     bordercolor="#666666"
     borderopacity="1.0"
     inkscape:pageopacity="0"
     inkscape:pageshadow="2"
     inkscape:zoom="0.08"
     inkscape:cx="4925"
     inkscape:cy="2762.5"
     inkscape:document-units="px"
     inkscape:current-layer="layer1"
     inkscape:document-rotation="0"
     showgrid="false"
     inkscape:showpageshadow="false"
     showborder="false"
     units="px"
     inkscape:window-width="1920"
     inkscape:window-height="1016"
     inkscape:window-x="0"
     inkscape:window-y="0"
     inkscape:window-maximized="1"
     inkscape:snap-nodes="true"
     inkscape:snap-smooth-nodes="true"
     inkscape:snap-midpoints="false"
     inkscape:snap-intersection-paths="false"
     inkscape:object-paths="false"
     inkscape:snap-text-baseline="false"
     inkscape:snap-others="false"
     inkscape:object-nodes="false"
     inkscape:snap-bbox="false"
     inkscape:bbox-nodes="false"
     inkscape:snap-bbox-edge-midpoints="false"
     inkscape:snap-bbox-midpoints="false"
     inkscape:snap-global="true"
     inkscape:snap-object-midpoints="false"
     inkscape:pagecheckerboard="0"
     inkscape:deskcolor="#d1d1d1" />
  <metadata
     id="metadata5">
    <rdf:RDF>
      <cc:Work
         rdf:about="">
        <dc:format>image/svg+xml</dc:format>
        <dc:type
           rdf:resource="http://purl.org/dc/dcmitype/StillImage" />
        <dc:title />
      </cc:Work>
    </rdf:RDF>
  </metadata>
  <g
     inkscape:label="Layer 1"
     inkscape:groupmode="layer"
     id="layer1"
     transform="translate(9992.0911,2443.7277)">
    <path
       id="path1144"
       style="fill:#845b3f;fill-opacity:1;stroke:none;stroke-width:9.24624;stroke-miterlimit:4;stroke-dasharray:none;stroke-dashoffset:0;stroke-opacity:1"
       d="m -9742.9682,-2027.2393 c -2.4326,0 -4.3917,1.9591 -4.3917,4.3917 v 65.8783 h -244.7312 l 127.1944,155.3912 -114.9903,140.4826 h 287.9419 c 2.4335,0 4.3925,-1.9591 4.3925,-4.3917 v -65.8783 h 1063.8813 v 65.8783 c 0,2.4326 1.9583,4.3917 4.3917,4.3917 h 287.9419 l -114.9903,-140.4826 127.1952,-155.3912 h -244.732 v -65.8783 c 0,-2.4326 -1.9583,-4.3917 -4.3917,-4.3917 z" />
    <path
       id="ellipse1200"
       style="fill:#ff0000;stroke-width:0.780712"
       d="m -8961.371,-1919.4572 a 189.48313,117.10702 0 0 1 -189.4831,117.107 189.48313,117.10702 0 0 1 -189.4831,-117.107 189.48313,117.10702 0 0 1 189.4831,-117.107 189.48313,117.10702 0 0 1 189.4831,117.107 z" />
    <path
       style="fill:#b28261;fill-opacity:1;stroke:none;stroke-width:0.780712px;stroke-linecap:butt;stroke-linejoin:miter;stroke-opacity:1"
       d="m -8699.8597,-1963.4319 -145.1135,83.7813 7.966,-120.22 115.5456,-2.3421 z"
       id="path1202" />
    <path
       style="fill:#b28261;fill-opacity:1;stroke:none;stroke-width:0.780712px;stroke-linecap:butt;stroke-linejoin:miter;stroke-opacity:1"
       d="m -9611.3643,-2141.3911 125.0654,-72.2066 -4.9462,127.8486 -103.0542,-19.5178 -17.065,-36.1242"
       id="path1204" />
    <g
       id="g1218"
       transform="matrix(2.4065766,0,0,2.9507281,-10618.781,-1811.7187)">
      <g
         id="g1210"
         transform="matrix(1.3408274,0,0,1,-177.68592,6.7351921)"
         style="fill:#2b2b2b;fill-opacity:1;stroke:none">
        <path
           id="path1206"
           style="stroke-width:2.64583"
           inkscape:transform-center-x="6.6571939e-06"
           inkscape:transform-center-y="1.7657093e-06"
           d="M 692.51868,-26.785133 585.96167,34.735588 479.40465,-26.785134 V -149.82658 l 106.55702,-61.52072 106.55702,61.52072 z" />
        <path
           id="path1208"
           style="stroke-width:3.83878"
           inkscape:transform-center-x="6.1697596e-06"
           inkscape:transform-center-y="1.6364255e-06"
           d="M 698.89177,-23.105628 585.96167,42.094597 473.03157,-23.105629 V -153.50608 l 112.9301,-65.20023 112.9301,65.20023 z" />
      </g>
      <g
         id="g1216"
         transform="matrix(1.3408274,0,0,1,-177.68592,6.7351921)"
         style="stroke:#b28261;stroke-opacity:1">
        <path
           id="path1212"
           style="fill:none;stroke-width:2.64583"
           inkscape:transform-center-x="6.6571939e-06"
           inkscape:transform-center-y="1.7657093e-06"
           d="M 692.51868,-26.785133 585.96167,34.735588 479.40465,-26.785134 V -149.82658 l 106.55702,-61.52072 106.55702,61.52072 z" />
        <path
           id="path1214"
           style="fill:none;stroke-width:3.83878"
           inkscape:transform-center-x="6.1697596e-06"
           inkscape:transform-center-y="1.6364255e-06"
           d="M 698.89177,-23.105628 585.96167,42.094597 473.03157,-23.105629 V -153.50608 l 112.9301,-65.20023 112.9301,65.20023 z" />
      </g>
    </g>
    <path
       id="path1220"
       style="fill:#b28261;fill-opacity:1;stroke:none;stroke-width:2.76247"
       d="m -9161.9057,-2280.9493 -7.5106,17.9505 -2.1149,12.9168 0.3936,4.845 -19.3859,2.552 -0.8739,-4.7801 -5.3846,-11.9295 -11.9024,-15.3986 -12.156,3.2589 -2.6058,19.2834 1.3003,13.0245 1.6293,4.5755 -18.0642,7.4833 -2.0826,-4.3918 -8.2874,-10.1272 -15.4847,-11.7891 -10.8935,6.2909 2.471,19.2998 4.6241,12.2421 2.7624,4.0034 -15.5121,11.8972 -3.1454,-3.7015 -10.6291,-7.6343 -18.0047,-7.3811 -8.8971,8.8972 7.381,18.0045 7.6347,10.629 3.7012,3.1455 -11.897,15.512 -4.0032,-2.7625 -12.2425,-4.6239 -19.2995,-2.4711 -6.2912,10.8935 11.7891,15.4849 10.1271,8.2874 4.3921,2.0826 -7.4834,18.064 -4.5756,-1.6348 -13.0244,-1.2948 -19.2834,2.606 -3.2534,12.1559 15.3933,11.9024 11.9292,5.3846 4.7805,0.874 -2.5521,19.3805 -4.8451,-0.3886 -12.9168,2.1151 -17.9508,7.5104 v 12.5823 l 17.9508,7.5104 12.9168,2.1204 4.8451,-0.3935 2.5521,19.3804 -4.7805,0.8791 -11.9292,5.3846 -15.3933,11.9024 3.2534,12.1505 19.2834,2.6115 13.0244,-1.3003 4.5756,-1.6295 7.4834,18.0586 -4.3921,2.0826 -10.1271,8.2929 -11.7891,15.4796 6.2912,10.8987 19.2995,-2.4711 12.2425,-4.6293 4.0032,-2.7571 11.897,15.5067 -3.7012,3.1508 -7.6347,10.6291 -7.381,18.0046 8.8971,8.8971 18.0047,-7.381 10.6291,-7.64 3.1454,-3.7012 15.5121,11.9023 -2.7624,3.9981 -4.6241,12.2422 -2.471,19.305 10.8935,6.2911 15.4847,-11.7944 8.2874,-10.1273 2.0826,-4.3865 18.0642,7.4781 -1.6293,4.5807 -1.3003,13.0192 2.6058,19.2888 12.156,3.2534 11.9024,-15.3931 5.3846,-11.9294 0.8739,-4.7804 19.3859,2.5521 -0.3936,4.8451 2.1149,12.9113 7.5106,17.9561 h 12.5823 l 7.5158,-17.9561 2.115,-12.9113 -0.3936,-4.8451 19.3807,-2.5521 0.8791,4.7804 5.3846,11.9294 11.9024,15.3931 12.156,-3.2534 2.606,-19.2888 -1.3003,-13.0192 -1.6296,-4.5807 18.0586,-7.4781 2.0882,4.3865 8.2874,10.1273 15.4795,11.7944 10.8988,-6.2911 -2.4711,-19.305 -4.6293,-12.2422 -2.7569,-3.9981 15.5066,-11.9023 3.1508,3.7012 10.6289,7.64 18.0048,7.381 8.897,-8.8971 -7.381,-18.0046 -7.6399,-10.6291 -3.7012,-3.1508 11.9024,-15.5067 3.9979,2.7571 12.2423,4.6293 19.3051,2.4711 6.291,-10.8987 -11.7891,-15.4796 -10.1325,-8.2929 -4.3866,-2.0826 7.4781,-18.0586 4.5807,1.6295 13.0193,1.3003 19.2886,-2.6115 3.2533,-12.1505 -15.393,-11.9024 -11.9293,-5.3846 -4.7805,-0.8791 2.5521,-19.3804 4.8452,0.3935 12.9168,-2.1204 17.9505,-7.5104 v -12.5823 l -17.9505,-7.5104 -12.9168,-2.1151 -4.8452,0.3886 -2.5521,-19.3805 4.7805,-0.874 11.9293,-5.3846 15.393,-11.9024 -3.2533,-12.1559 -19.2886,-2.606 -13.0193,1.2948 -4.5807,1.6348 -7.4781,-18.064 4.3866,-2.0826 10.1325,-8.2874 11.7891,-15.4849 -6.291,-10.8935 -19.3051,2.4711 -12.2423,4.6239 -3.9979,2.7625 -11.9024,-15.512 3.7012,-3.1455 7.6399,-10.629 7.381,-18.0045 -8.897,-8.8972 -18.0048,7.3811 -10.6289,7.6343 -3.1508,3.7015 -15.5066,-11.8972 2.7569,-4.0034 4.6293,-12.2421 2.4711,-19.2998 -10.8988,-6.2909 -15.4795,11.7891 -8.2874,10.1272 -2.0882,4.3918 -18.0586,-7.4833 1.6296,-4.5755 1.3003,-13.0245 -2.606,-19.2834 -12.156,-3.2589 -11.9024,15.3986 -5.3846,11.9295 -0.8791,4.7801 -19.3807,-2.552 0.3936,-4.845 -2.115,-12.9168 -7.5158,-17.9505 z m 5.649,56.6522 a 171.88719,171.88719 0 0 1 0.6422,0 171.88719,171.88719 0 0 1 171.8884,171.883 171.88719,171.88719 0 0 1 -171.8884,171.8883 171.88719,171.88719 0 0 1 -171.8831,-171.8883 171.88719,171.88719 0 0 1 171.241,-171.883 z m 0.6422,6.8252 a 165.05921,165.05921 0 0 0 -165.0579,165.0633 165.05921,165.05921 0 0 0 165.0579,165.0577 165.05921,165.05921 0 0 0 165.0632,-165.0577 165.05921,165.05921 0 0 0 -165.0632,-165.0633 z m -0.874,8.789 a 156.26907,156.26907 0 0 1 0.874,0 156.26907,156.26907 0 0 1 107.5046,42.851 l -93.4062,93.406 a 24.153052,24.153052 0 0 0 -13.138,-3.8901 24.153052,24.153052 0 0 0 -14.3088,4.6941 l -94.1776,-94.1831 a 156.26907,156.26907 0 0 1 106.6518,-42.8779 z m -112.5166,48.7427 94.307,94.3072 a 24.153052,24.153052 0 0 0 -4.1111,13.4725 24.153052,24.153052 0 0 0 3.8359,13.057 l -94.1235,94.1183 a 156.26907,156.26907 0 0 1 -42.7859,-107.4234 156.26907,156.26907 0 0 1 42.8776,-107.5316 z m 226.814,0.032 a 156.26907,156.26907 0 0 1 42.8509,107.5044 156.26907,156.26907 0 0 1 -42.8402,107.4829 l -92.9743,-92.9745 a 24.153052,24.153052 0 0 0 4.6562,-14.2602 24.153052,24.153052 0 0 0 -4.8882,-14.5624 z m -126.9442,127.0792 a 24.153052,24.153052 0 0 0 14.4814,4.8288 24.153052,24.153052 0 0 0 13.424,-4.0789 l 93.1039,93.1039 a 156.26907,156.26907 0 0 1 -107.4884,42.84 156.26907,156.26907 0 0 1 -107.4287,-42.7806 z" />
    <g
       id="g1234"
       transform="matrix(2.9507281,0,0,2.9507281,-10951.361,-1767.2666)">
      <g
         id="g1226"
         transform="matrix(0.50404175,0,0,0.50404175,263.25697,-0.91059354)">
        <path
           id="path1222"
           style="fill:#b28261;fill-opacity:1;stroke:none;stroke-width:4.35538;stroke-opacity:1"
           d="m 1890.6816,-1044.877 -6.5546,14.4805 -0.5,5.1348 1.2851,8.7539 -15.498,4.1523 -3.2637,-8.2246 -2.9981,-4.1953 -12.9179,-9.2637 -7.4512,4.3028 1.5625,15.8183 2.1348,4.6953 5.4902,6.9375 -11.3457,11.34575 -6.9375,-5.49024 -4.6953,-2.13476 -15.8184,-1.56255 -4.3027,7.45122 9.2637,12.91797 4.1953,2.99804 8.2246,3.26368 -4.1543,15.49804 -8.752,-1.28515 -5.1347,0.5 -14.4805,6.55468 v 8.60547 l 14.4805,6.55469 5.1347,0.49805 8.752,-1.28516 4.1543,15.49805 -8.2246,3.26367 -4.1953,3 -9.2637,12.91602 4.3027,7.45312 15.8184,-1.56445 4.6953,-2.13477 6.9375,-5.49023 11.3457,11.3457 -5.4902,6.9375 -2.1348,4.69727 -1.5625,15.8164 7.4512,4.30274 12.9179,-9.26172 2.9981,-4.19727 3.2637,-8.22265 15.498,4.15234 -1.2851,8.75195 0.5,5.13477 6.5546,14.48047 h 8.6036 l 6.5566,-14.48047 0.498,-5.13477 -1.2851,-8.75195 15.498,-4.15234 3.2637,8.22265 3,4.19727 12.916,9.26172 7.4512,-4.30274 -1.5625,-15.8164 -2.1348,-4.69727 -5.4902,-6.9375 11.3457,-11.3457 6.9375,5.49023 4.6973,2.13477 15.8164,1.56445 4.3027,-7.45312 -9.2617,-12.91602 -4.1973,-3 -8.2226,-3.26367 4.1523,-15.49805 8.752,1.28516 5.1347,-0.49805 14.4805,-6.55469 v -8.60547 l -14.4805,-6.55468 -5.1347,-0.5 -8.752,1.28515 -4.1523,-15.49804 8.2226,-3.26368 4.1973,-2.99804 9.2617,-12.91797 -4.3027,-7.45122 -15.8164,1.56255 -4.6973,2.13476 -6.9375,5.49024 -11.3457,-11.34575 5.4902,-6.9375 2.1348,-4.6953 1.5625,-15.8183 -7.4512,-4.3028 -12.916,9.2637 -3,4.1953 -3.2637,8.2246 -15.498,-4.1523 1.2851,-8.7539 -0.498,-5.1348 -6.5566,-14.4805 z m 3.9122,43.4512 a 53.499999,53.499999 0 0 1 0.3906,0 53.499999,53.499999 0 0 1 53.5,53.50002 53.499999,53.499999 0 0 1 -53.5,53.5 53.499999,53.499999 0 0 1 -53.5,-53.5 53.499999,53.499999 0 0 1 53.1094,-53.50002 z"
           transform="scale(0.26458333)" />
        <path
           id="path1224"
           style="fill:#b28261;fill-opacity:1;stroke:none;stroke-width:0.0643235;stroke-miterlimit:4;stroke-dasharray:none;stroke-dashoffset:0;stroke-opacity:1"
           d="m 505.11177,-250.80563 a 3.7307554,3.7307554 0 0 1 -3.73076,3.73076 3.7307554,3.7307554 0 0 1 -3.73075,-3.73076 3.7307554,3.7307554 0 0 1 3.73075,-3.73075 3.7307554,3.7307554 0 0 1 3.73076,3.73075 z" />
      </g>
      <g
         id="g1232"
         transform="matrix(0.50404175,0,0,0.50404175,448.46542,-0.91059354)">
        <path
           id="path1228"
           style="fill:#b28261;fill-opacity:1;stroke:none;stroke-width:4.35538;stroke-opacity:1"
           d="m 1890.6816,-1044.877 -6.5546,14.4805 -0.5,5.1348 1.2851,8.7539 -15.498,4.1523 -3.2637,-8.2246 -2.9981,-4.1953 -12.9179,-9.2637 -7.4512,4.3028 1.5625,15.8183 2.1348,4.6953 5.4902,6.9375 -11.3457,11.34575 -6.9375,-5.49024 -4.6953,-2.13476 -15.8184,-1.56255 -4.3027,7.45122 9.2637,12.91797 4.1953,2.99804 8.2246,3.26368 -4.1543,15.49804 -8.752,-1.28515 -5.1347,0.5 -14.4805,6.55468 v 8.60547 l 14.4805,6.55469 5.1347,0.49805 8.752,-1.28516 4.1543,15.49805 -8.2246,3.26367 -4.1953,3 -9.2637,12.91602 4.3027,7.45312 15.8184,-1.56445 4.6953,-2.13477 6.9375,-5.49023 11.3457,11.3457 -5.4902,6.9375 -2.1348,4.69727 -1.5625,15.8164 7.4512,4.30274 12.9179,-9.26172 2.9981,-4.19727 3.2637,-8.22265 15.498,4.15234 -1.2851,8.75195 0.5,5.13477 6.5546,14.48047 h 8.6036 l 6.5566,-14.48047 0.498,-5.13477 -1.2851,-8.75195 15.498,-4.15234 3.2637,8.22265 3,4.19727 12.916,9.26172 7.4512,-4.30274 -1.5625,-15.8164 -2.1348,-4.69727 -5.4902,-6.9375 11.3457,-11.3457 6.9375,5.49023 4.6973,2.13477 15.8164,1.56445 4.3027,-7.45312 -9.2617,-12.91602 -4.1973,-3 -8.2226,-3.26367 4.1523,-15.49805 8.752,1.28516 5.1347,-0.49805 14.4805,-6.55469 v -8.60547 l -14.4805,-6.55468 -5.1347,-0.5 -8.752,1.28515 -4.1523,-15.49804 8.2226,-3.26368 4.1973,-2.99804 9.2617,-12.91797 -4.3027,-7.45122 -15.8164,1.56255 -4.6973,2.13476 -6.9375,5.49024 -11.3457,-11.34575 5.4902,-6.9375 2.1348,-4.6953 1.5625,-15.8183 -7.4512,-4.3028 -12.916,9.2637 -3,4.1953 -3.2637,8.2246 -15.498,-4.1523 1.2851,-8.7539 -0.498,-5.1348 -6.5566,-14.4805 z m 3.9122,43.4512 a 53.499999,53.499999 0 0 1 0.3906,0 53.499999,53.499999 0 0 1 53.5,53.50002 53.499999,53.499999 0 0 1 -53.5,53.5 53.499999,53.499999 0 0 1 -53.5,-53.5 53.499999,53.499999 0 0 1 53.1094,-53.50002 z"
           transform="scale(0.26458333)" />
        <path
           id="path1230"
           style="fill:#b28261;fill-opacity:1;stroke:none;stroke-width:0.0643235;stroke-miterlimit:4;stroke-dasharray:none;stroke-dashoffset:0;stroke-opacity:1"
           d="m 505.11177,-250.80563 a 3.7307554,3.7307554 0 0 1 -3.73076,3.73076 3.7307554,3.7307554 0 0 1 -3.73075,-3.73076 3.7307554,3.7307554 0 0 1 3.73075,-3.73075 3.7307554,3.7307554 0 0 1 3.73076,3.73075 z" />
      </g>
    </g>
    <g
       id="g1248"
       transform="matrix(2.9507281,0,0,2.9507281,-10951.361,-1586.1411)">
      <g
         id="g1240"
         transform="matrix(0.50404175,0,0,0.50404175,263.25697,-0.91059354)">
        <path
           id="path1236"
           style="fill:#b28261;fill-opacity:1;stroke:none;stroke-width:4.35538;stroke-opacity:1"
           d="m 1890.6816,-1044.877 -6.5546,14.4805 -0.5,5.1348 1.2851,8.7539 -15.498,4.1523 -3.2637,-8.2246 -2.9981,-4.1953 -12.9179,-9.2637 -7.4512,4.3028 1.5625,15.8183 2.1348,4.6953 5.4902,6.9375 -11.3457,11.34575 -6.9375,-5.49024 -4.6953,-2.13476 -15.8184,-1.56255 -4.3027,7.45122 9.2637,12.91797 4.1953,2.99804 8.2246,3.26368 -4.1543,15.49804 -8.752,-1.28515 -5.1347,0.5 -14.4805,6.55468 v 8.60547 l 14.4805,6.55469 5.1347,0.49805 8.752,-1.28516 4.1543,15.49805 -8.2246,3.26367 -4.1953,3 -9.2637,12.91602 4.3027,7.45312 15.8184,-1.56445 4.6953,-2.13477 6.9375,-5.49023 11.3457,11.3457 -5.4902,6.9375 -2.1348,4.69727 -1.5625,15.8164 7.4512,4.30274 12.9179,-9.26172 2.9981,-4.19727 3.2637,-8.22265 15.498,4.15234 -1.2851,8.75195 0.5,5.13477 6.5546,14.48047 h 8.6036 l 6.5566,-14.48047 0.498,-5.13477 -1.2851,-8.75195 15.498,-4.15234 3.2637,8.22265 3,4.19727 12.916,9.26172 7.4512,-4.30274 -1.5625,-15.8164 -2.1348,-4.69727 -5.4902,-6.9375 11.3457,-11.3457 6.9375,5.49023 4.6973,2.13477 15.8164,1.56445 4.3027,-7.45312 -9.2617,-12.91602 -4.1973,-3 -8.2226,-3.26367 4.1523,-15.49805 8.752,1.28516 5.1347,-0.49805 14.4805,-6.55469 v -8.60547 l -14.4805,-6.55468 -5.1347,-0.5 -8.752,1.28515 -4.1523,-15.49804 8.2226,-3.26368 4.1973,-2.99804 9.2617,-12.91797 -4.3027,-7.45122 -15.8164,1.56255 -4.6973,2.13476 -6.9375,5.49024 -11.3457,-11.34575 5.4902,-6.9375 2.1348,-4.6953 1.5625,-15.8183 -7.4512,-4.3028 -12.916,9.2637 -3,4.1953 -3.2637,8.2246 -15.498,-4.1523 1.2851,-8.7539 -0.498,-5.1348 -6.5566,-14.4805 z m 3.9122,43.4512 a 53.499999,53.499999 0 0 1 0.3906,0 53.499999,53.499999 0 0 1 53.5,53.50002 53.499999,53.499999 0 0 1 -53.5,53.5 53.499999,53.499999 0 0 1 -53.5,-53.5 53.499999,53.499999 0 0 1 53.1094,-53.50002 z"
           transform="scale(0.26458333)" />
        <path
           id="path1238"
           style="fill:#b28261;fill-opacity:1;stroke:none;stroke-width:0.0643235;stroke-miterlimit:4;stroke-dasharray:none;stroke-dashoffset:0;stroke-opacity:1"
           d="m 505.11177,-250.80563 a 3.7307554,3.7307554 0 0 1 -3.73076,3.73076 3.7307554,3.7307554 0 0 1 -3.73075,-3.73076 3.7307554,3.7307554 0 0 1 3.73075,-3.73075 3.7307554,3.7307554 0 0 1 3.73076,3.73075 z" />
      </g>
      <g
         id="g1246"
         transform="matrix(0.50404175,0,0,0.50404175,448.46542,-0.91059354)">
        <path
           id="path1242"
           style="fill:#b28261;fill-opacity:1;stroke:none;stroke-width:4.35538;stroke-opacity:1"
           d="m 1890.6816,-1044.877 -6.5546,14.4805 -0.5,5.1348 1.2851,8.7539 -15.498,4.1523 -3.2637,-8.2246 -2.9981,-4.1953 -12.9179,-9.2637 -7.4512,4.3028 1.5625,15.8183 2.1348,4.6953 5.4902,6.9375 -11.3457,11.34575 -6.9375,-5.49024 -4.6953,-2.13476 -15.8184,-1.56255 -4.3027,7.45122 9.2637,12.91797 4.1953,2.99804 8.2246,3.26368 -4.1543,15.49804 -8.752,-1.28515 -5.1347,0.5 -14.4805,6.55468 v 8.60547 l 14.4805,6.55469 5.1347,0.49805 8.752,-1.28516 4.1543,15.49805 -8.2246,3.26367 -4.1953,3 -9.2637,12.91602 4.3027,7.45312 15.8184,-1.56445 4.6953,-2.13477 6.9375,-5.49023 11.3457,11.3457 -5.4902,6.9375 -2.1348,4.69727 -1.5625,15.8164 7.4512,4.30274 12.9179,-9.26172 2.9981,-4.19727 3.2637,-8.22265 15.498,4.15234 -1.2851,8.75195 0.5,5.13477 6.5546,14.48047 h 8.6036 l 6.5566,-14.48047 0.498,-5.13477 -1.2851,-8.75195 15.498,-4.15234 3.2637,8.22265 3,4.19727 12.916,9.26172 7.4512,-4.30274 -1.5625,-15.8164 -2.1348,-4.69727 -5.4902,-6.9375 11.3457,-11.3457 6.9375,5.49023 4.6973,2.13477 15.8164,1.56445 4.3027,-7.45312 -9.2617,-12.91602 -4.1973,-3 -8.2226,-3.26367 4.1523,-15.49805 8.752,1.28516 5.1347,-0.49805 14.4805,-6.55469 v -8.60547 l -14.4805,-6.55468 -5.1347,-0.5 -8.752,1.28515 -4.1523,-15.49804 8.2226,-3.26368 4.1973,-2.99804 9.2617,-12.91797 -4.3027,-7.45122 -15.8164,1.56255 -4.6973,2.13476 -6.9375,5.49024 -11.3457,-11.34575 5.4902,-6.9375 2.1348,-4.6953 1.5625,-15.8183 -7.4512,-4.3028 -12.916,9.2637 -3,4.1953 -3.2637,8.2246 -15.498,-4.1523 1.2851,-8.7539 -0.498,-5.1348 -6.5566,-14.4805 z m 3.9122,43.4512 a 53.499999,53.499999 0 0 1 0.3906,0 53.499999,53.499999 0 0 1 53.5,53.50002 53.499999,53.499999 0 0 1 -53.5,53.5 53.499999,53.499999 0 0 1 -53.5,-53.5 53.499999,53.499999 0 0 1 53.1094,-53.50002 z"
           transform="scale(0.26458333)" />
        <path
           id="path1244"
           style="fill:#b28261;fill-opacity:1;stroke:none;stroke-width:0.0643235;stroke-miterlimit:4;stroke-dasharray:none;stroke-dashoffset:0;stroke-opacity:1"
           d="m 505.11177,-250.80563 a 3.7307554,3.7307554 0 0 1 -3.73076,3.73076 3.7307554,3.7307554 0 0 1 -3.73075,-3.73076 3.7307554,3.7307554 0 0 1 3.73075,-3.73075 3.7307554,3.7307554 0 0 1 3.73076,3.73075 z" />
      </g>
    </g>
    <g
       id="g1270"
       transform="matrix(2.242422,0,0,2.242422,-10501.47,-1866.1394)">
      <path
         id="rect1250"
         style="fill:#b28261;stroke-width:4.73305"
         d="m 396.93933,-122.7475 h 406.48221 v 79.360285 H 396.93933 Z" />
      <g
         aria-label="BELLSWORNE"
         id="text1254"
         style="font-size:64.8035px;line-height:1.25;-inkscape-font-specification:sans-serif;letter-spacing:2.27706px;stroke-width:0.675035">
        <path
           d="m 476.91639,-59.25206 v -47.63057 h 7.12838 q 3.629,0 6.25354,1.29607 2.65694,1.26367 4.08262,3.98541 1.45808,2.721751 1.45808,7.031184 0,3.434585 -0.90725,5.994324 -0.87485,2.559738 -3.43459,4.179825 2.59214,1.425677 3.7262,4.536245 1.13407,3.078166 1.13407,7.128385 0,3.985415 -1.29607,7.031179 -1.26367,3.045764 -3.75861,4.763057 -2.46253,1.684891 -6.09153,1.684891 z m 6.99877,-6.933974 q 3.17538,0 4.17983,-1.879302 1.00445,-1.911703 1.00445,-5.443493 0,-3.596594 -1.00445,-5.443494 -1.00445,-1.879302 -4.17983,-1.879302 z m 0,-21.061137 q 2.94856,0 4.05022,-1.620087 1.13406,-1.620088 1.13406,-4.795459 0,-3.207773 -1.16646,-4.730655 -1.13406,-1.555284 -4.01782,-1.555284 z"
           style="font-family:'League Gothic';-inkscape-font-specification:'League Gothic';text-align:center;text-anchor:middle"
           id="path388" />
        <path
           d="m 502.78194,-59.25206 v -47.63057 h 16.00646 v 7.193188 h -9.00768 v 12.831092 h 6.48035 v 6.998778 h -6.48035 v 13.414324 h 9.00768 v 7.193188 z"
           style="font-family:'League Gothic';-inkscape-font-specification:'League Gothic';text-align:center;text-anchor:middle"
           id="path390" />
        <path
           d="m 526.24972,-59.25206 v -47.63057 h 6.99878 v 41.15022 h 9.2669 v 6.48035 z"
           style="font-family:'League Gothic';-inkscape-font-specification:'League Gothic';text-align:center;text-anchor:middle"
           id="path392" />
        <path
           d="m 547.64382,-59.25206 v -47.63057 h 6.99878 v 41.15022 h 9.2669 v 6.48035 z"
           style="font-family:'League Gothic';-inkscape-font-specification:'League Gothic';text-align:center;text-anchor:middle"
           id="path394" />
        <path
           d="m 577.46237,-58.733632 q -2.88376,0 -4.79546,-0.939651 -1.9117,-0.972052 -3.01336,-2.78655 -1.10166,-1.814498 -1.58769,-4.374236 -0.45362,-2.559738 -0.45362,-5.767511 l 6.86917,-0.648035 q 0,1.555284 0.0972,3.013362 0.12961,1.425677 0.42123,2.59214 0.32401,1.134061 0.90725,1.814498 0.61563,0.680437 1.55528,0.680437 1.55528,0 2.20332,-1.425677 0.64803,-1.458079 0.64803,-3.499389 0,-2.04131 -1.06925,-4.244629 -1.06926,-2.203319 -2.55974,-4.179826 -2.52734,-3.369781 -4.43904,-6.253537 -1.8793,-2.883756 -2.94856,-5.670306 -1.03686,-2.786551 -1.03686,-5.832315 0,-2.397729 0.61564,-4.406633 0.61563,-2.04131 1.78209,-3.5318 1.19887,-1.52288 2.88376,-2.36532 1.68489,-0.84245 3.85581,-0.84245 2.68934,0 4.53624,0.90725 1.8793,0.90725 3.01336,2.59214 1.16647,1.68489 1.68489,4.017817 0.55083,2.300524 0.55083,5.119477 l -6.86917,0.648035 q 0,-1.198865 -0.1296,-2.39773 -0.0972,-1.231266 -0.38882,-2.235721 -0.29162,-1.004454 -0.84245,-1.620088 -0.55083,-0.61563 -1.42568,-0.61563 -1.36087,0 -1.8793,1.166461 -0.51843,1.134061 -0.51843,3.240175 0,2.721746 1.45808,5.249083 1.45808,2.527336 3.92061,5.897118 2.94856,3.985415 4.79546,7.322795 1.8793,3.33738 1.8793,7.387599 0,2.559738 -0.55083,4.763057 -0.55083,2.170917 -1.74969,3.791005 -1.16646,1.620087 -3.01336,2.527336 -1.8145,0.907249 -4.40664,0.907249 z"
           style="font-family:'League Gothic';-inkscape-font-specification:'League Gothic';text-align:center;text-anchor:middle"
           id="path396" />
        <path
           d="m 598.01398,-59.25206 -6.41555,-47.63057 h 6.48035 l 2.78655,24.754936 0.12961,1.555283 h 0.51843 l 0.19441,-1.555283 2.98096,-24.754936 h 5.05467 l 2.98096,24.754936 0.19441,1.555283 h 0.51843 l 0.12961,-1.555283 2.78655,-24.754936 h 6.48035 l -6.41555,47.63057 h -5.44349 l -3.24018,-22.551617 -0.38882,-2.78655 h -0.25921 l -0.38882,2.78655 -3.24018,22.551617 z"
           style="font-family:'League Gothic';-inkscape-font-specification:'League Gothic';text-align:center;text-anchor:middle"
           id="path398" />
        <path
           d="m 637.68259,-58.733632 q -2.91616,0 -5.02227,-1.360873 -2.07372,-1.360874 -3.20778,-3.6938 -1.10166,-2.332926 -1.10166,-5.249083 v -28.059914 q 0,-2.948558 1.10166,-5.249088 1.13406,-2.33292 3.20778,-3.69379 2.10611,-1.36088 5.02227,-1.36088 2.91615,0 4.98987,1.36088 2.10611,1.36087 3.20777,3.69379 1.13406,2.33293 1.13406,5.249088 v 28.059914 q 0,2.916157 -1.13406,5.249083 -1.10166,2.332926 -3.20777,3.6938 -2.07372,1.360873 -4.98987,1.360873 z m 0,-6.804367 q 1.29607,0 1.8145,-1.069258 0.51842,-1.101659 0.51842,-2.430131 v -28.059914 q 0,-1.328472 -0.55083,-2.39773 -0.55083,-1.101658 -1.78209,-1.101658 -1.19887,0 -1.7821,1.101658 -0.55083,1.069258 -0.55083,2.39773 v 28.059914 q 0,1.328472 0.55083,2.430131 0.55083,1.069258 1.7821,1.069258 z"
           style="font-family:'League Gothic';-inkscape-font-specification:'League Gothic';text-align:center;text-anchor:middle"
           id="path400" />
        <path
           d="m 654.1516,-59.25206 v -47.63057 h 6.99878 q 6.28594,0 9.2669,3.49939 2.98096,3.466985 2.98096,10.238951 0,4.017817 -1.42568,6.966376 -1.39327,2.916157 -3.40218,4.277031 l 4.76306,22.648822 h -6.99878 l -3.95302,-20.089084 h -1.23126 v 20.089084 z m 6.99878,-26.569434 q 1.9441,0 3.07816,-0.842445 1.13407,-0.874848 1.62009,-2.462533 0.48603,-1.587686 0.48603,-3.758603 0,-3.402184 -1.13406,-5.216682 -1.10166,-1.846899 -4.05022,-1.846899 z"
           style="font-family:'League Gothic';-inkscape-font-specification:'League Gothic';text-align:center;text-anchor:middle"
           id="path402" />
        <path
           d="m 679.56354,-59.25206 v -47.63057 h 6.54516 l 6.48035,24.819739 0.58323,2.203319 h 0.38882 v -27.023058 h 6.41554 v 47.63057 h -5.89711 l -7.12839,-24.819739 -0.58323,-2.203319 h -0.38882 v 27.023058 z"
           style="font-family:'League Gothic';-inkscape-font-specification:'League Gothic';text-align:center;text-anchor:middle"
           id="path404" />
        <path
           d="m 707.43801,-59.25206 v -47.63057 h 16.00646 v 7.193188 h -9.00768 v 12.831092 h 6.48035 v 6.998778 h -6.48035 v 13.414324 h 9.00768 v 7.193188 z"
           style="font-family:'League Gothic';-inkscape-font-specification:'League Gothic';text-align:center;text-anchor:middle"
           id="path406" />
      </g>
      <g
         id="g1268"
         transform="translate(-0.42398982,-0.51755261)">
        <g
           id="g1260"
           style="opacity:1">
          <path
             style="color:#000000;font-style:normal;font-variant:normal;font-weight:normal;font-stretch:normal;font-size:medium;line-height:normal;font-family:sans-serif;font-variant-ligatures:normal;font-variant-position:normal;font-variant-caps:normal;font-variant-numeric:normal;font-variant-alternates:normal;font-variant-east-asian:normal;font-feature-settings:normal;font-variation-settings:normal;text-indent:0;text-align:start;text-decoration:none;text-decoration-line:none;text-decoration-style:solid;text-decoration-color:#000000;letter-spacing:normal;word-spacing:normal;text-transform:none;writing-mode:lr-tb;direction:ltr;text-orientation:mixed;dominant-baseline:auto;baseline-shift:baseline;text-anchor:start;white-space:normal;shape-padding:0;shape-margin:0;inline-size:0;clip-rule:nonzero;display:inline;overflow:visible;visibility:visible;isolation:auto;mix-blend-mode:normal;color-interpolation:sRGB;color-interpolation-filters:linearRGB;solid-color:#000000;solid-opacity:1;vector-effect:none;fill:#b28261;fill-opacity:1;fill-rule:nonzero;stroke:none;stroke-width:1.32292;stroke-linecap:butt;stroke-linejoin:miter;stroke-miterlimit:4;stroke-dasharray:5.29167, 2.64583;stroke-dashoffset:0;stroke-opacity:1;color-rendering:auto;image-rendering:auto;shape-rendering:auto;text-rendering:auto;enable-background:accumulate;stop-color:#000000;stop-opacity:1"
             d="m 397.40416,-114.3 h 406.4"
             id="path1256" />
          <path
             style="color:#000000;font-style:normal;font-variant:normal;font-weight:normal;font-stretch:normal;font-size:medium;line-height:normal;font-family:sans-serif;font-variant-ligatures:normal;font-variant-position:normal;font-variant-caps:normal;font-variant-numeric:normal;font-variant-alternates:normal;font-variant-east-asian:normal;font-feature-settings:normal;font-variation-settings:normal;text-indent:0;text-align:start;text-decoration:none;text-decoration-line:none;text-decoration-style:solid;text-decoration-color:#000000;letter-spacing:normal;word-spacing:normal;text-transform:none;writing-mode:lr-tb;direction:ltr;text-orientation:mixed;dominant-baseline:auto;baseline-shift:baseline;text-anchor:start;white-space:normal;shape-padding:0;shape-margin:0;inline-size:0;clip-rule:nonzero;display:inline;overflow:visible;visibility:visible;isolation:auto;mix-blend-mode:normal;color-interpolation:sRGB;color-interpolation-filters:linearRGB;solid-color:#000000;solid-opacity:1;vector-effect:none;fill:#000000;fill-opacity:1;fill-rule:nonzero;stroke:none;stroke-linecap:butt;stroke-linejoin:miter;stroke-miterlimit:4;stroke-dasharray:5.29167, 2.64583;stroke-dashoffset:0;stroke-opacity:1;color-rendering:auto;image-rendering:auto;shape-rendering:auto;text-rendering:auto;enable-background:accumulate;stop-color:#000000;stop-opacity:1"
             d="m 397.4043,-114.96094 v 1.32227 h 5.29101 v -1.32227 z m 7.9375,0 v 1.32227 h 5.29101 v -1.32227 z m 7.9375,0 v 1.32227 h 5.29101 v -1.32227 z m 7.9375,0 v 1.32227 h 5.29101 v -1.32227 z m 7.9375,0 v 1.32227 h 5.29101 v -1.32227 z m 7.9375,0 v 1.32227 h 5.29101 v -1.32227 z m 7.9375,0 v 1.32227 h 5.29101 v -1.32227 z m 7.9375,0 v 1.32227 h 5.29101 v -1.32227 z m 7.9375,0 v 1.32227 h 5.29101 v -1.32227 z m 7.9375,0 v 1.32227 h 5.29101 v -1.32227 z m 7.9375,0 v 1.32227 h 5.29101 v -1.32227 z m 7.9375,0 v 1.32227 h 5.29101 v -1.32227 z m 7.9375,0 v 1.32227 h 5.29101 v -1.32227 z m 7.9375,0 v 1.32227 h 5.29101 v -1.32227 z m 7.9375,0 v 1.32227 h 5.29101 v -1.32227 z m 7.9375,0 v 1.32227 h 5.29101 v -1.32227 z m 7.9375,0 v 1.32227 h 5.29101 v -1.32227 z m 7.9375,0 v 1.32227 h 5.29101 v -1.32227 z m 7.9375,0 v 1.32227 h 5.29101 v -1.32227 z m 7.9375,0 v 1.32227 h 5.29101 v -1.32227 z m 7.9375,0 v 1.32227 h 5.29101 v -1.32227 z m 7.9375,0 v 1.32227 h 5.29101 v -1.32227 z m 7.9375,0 v 1.32227 h 5.29101 v -1.32227 z m 7.9375,0 v 1.32227 h 5.29101 v -1.32227 z m 7.9375,0 v 1.32227 h 5.29101 v -1.32227 z m 7.9375,0 v 1.32227 h 5.29101 v -1.32227 z m 7.9375,0 v 1.32227 h 5.29101 v -1.32227 z m 7.9375,0 v 1.32227 h 5.29101 v -1.32227 z m 7.9375,0 v 1.32227 h 5.29101 v -1.32227 z m 7.9375,0 v 1.32227 h 5.29101 v -1.32227 z m 7.9375,0 v 1.32227 h 5.29101 v -1.32227 z m 7.9375,0 v 1.32227 h 5.29101 v -1.32227 z m 7.9375,0 v 1.32227 h 5.29101 v -1.32227 z m 7.9375,0 v 1.32227 h 5.29101 v -1.32227 z m 7.9375,0 v 1.32227 h 5.29101 v -1.32227 z m 7.9375,0 v 1.32227 h 5.29101 v -1.32227 z m 7.9375,0 v 1.32227 h 5.29101 v -1.32227 z m 7.9375,0 v 1.32227 h 5.29101 v -1.32227 z m 7.9375,0 v 1.32227 h 5.29101 v -1.32227 z m 7.9375,0 v 1.32227 h 5.29101 v -1.32227 z m 7.9375,0 v 1.32227 h 5.29101 v -1.32227 z m 7.9375,0 v 1.32227 h 5.29101 v -1.32227 z m 7.9375,0 v 1.32227 h 5.29101 v -1.32227 z m 7.9375,0 v 1.32227 h 5.29101 v -1.32227 z m 7.9375,0 v 1.32227 h 5.29101 v -1.32227 z m 7.9375,0 v 1.32227 h 5.29101 v -1.32227 z m 7.9375,0 v 1.32227 h 5.29101 v -1.32227 z m 7.9375,0 v 1.32227 h 5.29101 v -1.32227 z m 7.9375,0 v 1.32227 h 5.29101 v -1.32227 z m 7.9375,0 v 1.32227 h 5.29101 v -1.32227 z m 7.9375,0 v 1.32227 h 5.29101 v -1.32227 z m 7.9375,0 v 1.32227 h 1.58789 v -1.32227 z"
             id="path1258" />
        </g>
        <g
           id="g1266"
           style="opacity:1"
           transform="translate(0,63.500003)">
          <path
             style="color:#000000;font-style:normal;font-variant:normal;font-weight:normal;font-stretch:normal;font-size:medium;line-height:normal;font-family:sans-serif;font-variant-ligatures:normal;font-variant-position:normal;font-variant-caps:normal;font-variant-numeric:normal;font-variant-alternates:normal;font-variant-east-asian:normal;font-feature-settings:normal;font-variation-settings:normal;text-indent:0;text-align:start;text-decoration:none;text-decoration-line:none;text-decoration-style:solid;text-decoration-color:#000000;letter-spacing:normal;word-spacing:normal;text-transform:none;writing-mode:lr-tb;direction:ltr;text-orientation:mixed;dominant-baseline:auto;baseline-shift:baseline;text-anchor:start;white-space:normal;shape-padding:0;shape-margin:0;inline-size:0;clip-rule:nonzero;display:inline;overflow:visible;visibility:visible;isolation:auto;mix-blend-mode:normal;color-interpolation:sRGB;color-interpolation-filters:linearRGB;solid-color:#000000;solid-opacity:1;vector-effect:none;fill:#b28261;fill-opacity:1;fill-rule:nonzero;stroke:none;stroke-width:1.32292;stroke-linecap:butt;stroke-linejoin:miter;stroke-miterlimit:4;stroke-dasharray:5.29167, 2.64583;stroke-dashoffset:0;stroke-opacity:1;color-rendering:auto;image-rendering:auto;shape-rendering:auto;text-rendering:auto;enable-background:accumulate;stop-color:#000000;stop-opacity:1"
             d="m 397.40416,-114.3 h 406.4"
             id="path1262" />
          <path
             style="color:#000000;font-style:normal;font-variant:normal;font-weight:normal;font-stretch:normal;font-size:medium;line-height:normal;font-family:sans-serif;font-variant-ligatures:normal;font-variant-position:normal;font-variant-caps:normal;font-variant-numeric:normal;font-variant-alternates:normal;font-variant-east-asian:normal;font-feature-settings:normal;font-variation-settings:normal;text-indent:0;text-align:start;text-decoration:none;text-decoration-line:none;text-decoration-style:solid;text-decoration-color:#000000;letter-spacing:normal;word-spacing:normal;text-transform:none;writing-mode:lr-tb;direction:ltr;text-orientation:mixed;dominant-baseline:auto;baseline-shift:baseline;text-anchor:start;white-space:normal;shape-padding:0;shape-margin:0;inline-size:0;clip-rule:nonzero;display:inline;overflow:visible;visibility:visible;isolation:auto;mix-blend-mode:normal;color-interpolation:sRGB;color-interpolation-filters:linearRGB;solid-color:#000000;solid-opacity:1;vector-effect:none;fill:#000000;fill-opacity:1;fill-rule:nonzero;stroke:none;stroke-linecap:butt;stroke-linejoin:miter;stroke-miterlimit:4;stroke-dasharray:5.29167, 2.64583;stroke-dashoffset:0;stroke-opacity:1;color-rendering:auto;image-rendering:auto;shape-rendering:auto;text-rendering:auto;enable-background:accumulate;stop-color:#000000;stop-opacity:1"
             d="m 397.4043,-114.96094 v 1.32227 h 5.29101 v -1.32227 z m 7.9375,0 v 1.32227 h 5.29101 v -1.32227 z m 7.9375,0 v 1.32227 h 5.29101 v -1.32227 z m 7.9375,0 v 1.32227 h 5.29101 v -1.32227 z m 7.9375,0 v 1.32227 h 5.29101 v -1.32227 z m 7.9375,0 v 1.32227 h 5.29101 v -1.32227 z m 7.9375,0 v 1.32227 h 5.29101 v -1.32227 z m 7.9375,0 v 1.32227 h 5.29101 v -1.32227 z m 7.9375,0 v 1.32227 h 5.29101 v -1.32227 z m 7.9375,0 v 1.32227 h 5.29101 v -1.32227 z m 7.9375,0 v 1.32227 h 5.29101 v -1.32227 z m 7.9375,0 v 1.32227 h 5.29101 v -1.32227 z m 7.9375,0 v 1.32227 h 5.29101 v -1.32227 z m 7.9375,0 v 1.32227 h 5.29101 v -1.32227 z m 7.9375,0 v 1.32227 h 5.29101 v -1.32227 z m 7.9375,0 v 1.32227 h 5.29101 v -1.32227 z m 7.9375,0 v 1.32227 h 5.29101 v -1.32227 z m 7.9375,0 v 1.32227 h 5.29101 v -1.32227 z m 7.9375,0 v 1.32227 h 5.29101 v -1.32227 z m 7.9375,0 v 1.32227 h 5.29101 v -1.32227 z m 7.9375,0 v 1.32227 h 5.29101 v -1.32227 z m 7.9375,0 v 1.32227 h 5.29101 v -1.32227 z m 7.9375,0 v 1.32227 h 5.29101 v -1.32227 z m 7.9375,0 v 1.32227 h 5.29101 v -1.32227 z m 7.9375,0 v 1.32227 h 5.29101 v -1.32227 z m 7.9375,0 v 1.32227 h 5.29101 v -1.32227 z m 7.9375,0 v 1.32227 h 5.29101 v -1.32227 z m 7.9375,0 v 1.32227 h 5.29101 v -1.32227 z m 7.9375,0 v 1.32227 h 5.29101 v -1.32227 z m 7.9375,0 v 1.32227 h 5.29101 v -1.32227 z m 7.9375,0 v 1.32227 h 5.29101 v -1.32227 z m 7.9375,0 v 1.32227 h 5.29101 v -1.32227 z m 7.9375,0 v 1.32227 h 5.29101 v -1.32227 z m 7.9375,0 v 1.32227 h 5.29101 v -1.32227 z m 7.9375,0 v 1.32227 h 5.29101 v -1.32227 z m 7.9375,0 v 1.32227 h 5.29101 v -1.32227 z m 7.9375,0 v 1.32227 h 5.29101 v -1.32227 z m 7.9375,0 v 1.32227 h 5.29101 v -1.32227 z m 7.9375,0 v 1.32227 h 5.29101 v -1.32227 z m 7.9375,0 v 1.32227 h 5.29101 v -1.32227 z m 7.9375,0 v 1.32227 h 5.29101 v -1.32227 z m 7.9375,0 v 1.32227 h 5.29101 v -1.32227 z m 7.9375,0 v 1.32227 h 5.29101 v -1.32227 z m 7.9375,0 v 1.32227 h 5.29101 v -1.32227 z m 7.9375,0 v 1.32227 h 5.29101 v -1.32227 z m 7.9375,0 v 1.32227 h 5.29101 v -1.32227 z m 7.9375,0 v 1.32227 h 5.29101 v -1.32227 z m 7.9375,0 v 1.32227 h 5.29101 v -1.32227 z m 7.9375,0 v 1.32227 h 5.29101 v -1.32227 z m 7.9375,0 v 1.32227 h 5.29101 v -1.32227 z m 7.9375,0 v 1.32227 h 5.29101 v -1.32227 z m 7.9375,0 v 1.32227 h 1.58789 v -1.32227 z"
             id="path1264" />
        </g>
      </g>
    </g>
    <g
       id="g1280"
       transform="matrix(2.9507281,0,0,2.9507281,-10949.618,-2326.9897)">
      <g
         aria-label="EST. 2020"
         id="text1274"
         style="font-size:17.8852px;line-height:1.25;-inkscape-font-specification:sans-serif;letter-spacing:3.24046px;fill:#ffffff;stroke-width:1.21945">
        <path
           d="M 571.15797,12.314691 V -0.83093178 h 4.41765 V 1.1543255 h -2.48604 v 3.5412697 h 1.78852 v 1.9316016 h -1.78852 v 3.7022362 h 2.48604 v 1.985258 z"
           style="font-family:'League Gothic';-inkscape-font-specification:'League Gothic'"
           id="path409" />
        <path
           d="m 582.57196,12.457772 q -0.79589,0 -1.3235,-0.259335 -0.52761,-0.268278 -0.83166,-0.769064 -0.30405,-0.500785 -0.43819,-1.207251 -0.1252,-0.7064653 -0.1252,-1.5917827 l 1.89584,-0.178852 q 0,0.4292448 0.0268,0.8316618 0.0358,0.3934744 0.11626,0.715408 0.0894,0.3129909 0.25039,0.5007859 0.16991,0.187794 0.42924,0.187794 0.42925,0 0.6081,-0.393474 0.17885,-0.4024171 0.17885,-0.9658009 0,-0.5633838 -0.2951,-1.1714806 -0.29511,-0.6080968 -0.70647,-1.1535955 -0.69752,-0.9300304 -1.22513,-1.7259218 -0.51867,-0.7958914 -0.81378,-1.5649551 -0.28616,-0.7690636 -0.28616,-1.609668 0,-0.6617524 0.16991,-1.21619363 0.16991,-0.56338382 0.49184,-0.97474343 0.33088,-0.42030221 0.79589,-0.65280982 0.46502,-0.2325076 1.06417,-0.2325076 0.74224,0 1.25196,0.25039281 0.51867,0.2503928 0.83167,0.71540802 0.32193,0.46501521 0.46501,1.10888245 0.15202,0.6349246 0.15202,1.4129308 l -1.89583,0.178852 q 0,-0.3308762 -0.0358,-0.6617524 -0.0268,-0.3398188 -0.10731,-0.6170394 -0.0805,-0.2772206 -0.23251,-0.44713003 -0.15202,-0.1699094 -0.39347,-0.1699094 -0.37559,0 -0.51867,0.32193363 -0.14308,0.312991 -0.14308,0.89426 0,0.7511784 0.40241,1.4487012 0.40242,0.6975229 1.08206,1.6275533 0.81378,1.0999398 1.3235,2.0210276 0.51867,0.9210879 0.51867,2.0389129 0,0.7064654 -0.15202,1.3145619 -0.15202,0.599155 -0.4829,1.046285 -0.32193,0.44713 -0.83166,0.697522 -0.50079,0.250393 -1.2162,0.250393 z"
           style="font-family:'League Gothic';-inkscape-font-specification:'League Gothic'"
           id="path411" />
        <path
           d="M 590.82027,12.314691 V 1.1543255 h -1.82429 v -1.98525728 h 5.58018 V 1.1543255 h -1.82429 V 12.314691 Z"
           style="font-family:'League Gothic';-inkscape-font-specification:'League Gothic'"
           id="path413" />
        <path
           d="m 598.4605,12.314691 v -1.985258 h 1.87795 v 1.985258 z"
           style="font-family:'League Gothic';-inkscape-font-specification:'League Gothic'"
           id="path415" />
        <path
           d="m 610.66467,12.314691 v -1.913717 q 0.61704,-0.9479155 1.19831,-1.9941997 0.58126,-1.0462842 1.04628,-2.1015111 0.47396,-1.0641694 0.75118,-2.056798 0.27722,-0.9926287 0.27722,-1.8242905 0,-0.5902116 -0.11626,-1.0999398 -0.11625,-0.50972823 -0.52761,-0.50972823 -0.41136,0 -0.52761,0.50972823 -0.11626,0.5007856 -0.11626,1.0999398 v 0.9121452 h -1.9316 V 2.4241747 q 0,-0.7869488 0.13414,-1.4129308 0.14308,-0.63492464 0.44713,-1.07311206 0.30405,-0.44713001 0.79589,-0.67963762 0.49185,-0.2325076 1.19831,-0.2325076 0.70647,0 1.19831,0.2325076 0.49184,0.23250761 0.79589,0.66175242 0.30405,0.42924482 0.43819,1.03734163 0.14308,0.59915423 0.14308,1.34139003 0,0.8853174 -0.26828,1.9137165 -0.25933,1.0194564 -0.69752,2.101511 -0.42925,1.0731121 -0.9658,2.1193963 -0.53656,1.0373416 -1.091,1.9673719 h 3.05837 v 1.913717 z"
           style="font-family:'League Gothic';-inkscape-font-specification:'League Gothic'"
           id="path417" />
        <path
           d="m 622.93717,12.457772 q -0.82272,0 -1.40399,-0.375589 -0.57233,-0.375589 -0.87637,-1.019456 -0.29511,-0.65281 -0.29511,-1.4487017 V 1.8697335 q 0,-0.804834 0.30405,-1.44870124 0.31299,-0.64386722 0.89426,-1.01945643 0.58127,-0.37558921 1.37716,-0.37558921 0.80483,0 1.37716,0.38453181 0.58127,0.37558921 0.88532,1.01945643 0.31299,0.64386724 0.31299,1.43975864 v 7.7442918 q 0,0.7958917 -0.31299,1.4487017 -0.31299,0.643867 -0.89426,1.019456 -0.57233,0.375589 -1.36822,0.375589 z m 0,-1.877946 q 0.33982,0 0.49184,-0.286163 0.15203,-0.2951059 0.15203,-0.6796377 V 1.8697335 q 0,-0.3934744 -0.15203,-0.6796376 -0.15202,-0.28616323 -0.49184,-0.28616323 -0.33982,0 -0.49184,0.30404843 -0.15203,0.2951058 -0.15203,0.6617524 v 7.7442918 q 0,0.3845318 0.15203,0.6796377 0.15202,0.286163 0.49184,0.286163 z"
           style="font-family:'League Gothic';-inkscape-font-specification:'League Gothic'"
           id="path419" />
        <path
           d="m 629.96929,12.314691 v -1.913717 q 0.61704,-0.9479155 1.19831,-1.9941997 0.58127,-1.0462842 1.04629,-2.1015111 0.47395,-1.0641694 0.75117,-2.056798 0.27723,-0.9926287 0.27723,-1.8242905 0,-0.5902116 -0.11626,-1.0999398 -0.11625,-0.50972823 -0.52761,-0.50972823 -0.41136,0 -0.52762,0.50972823 -0.11625,0.5007856 -0.11625,1.0999398 v 0.9121452 h -1.9316 V 2.4241747 q 0,-0.7869488 0.13414,-1.4129308 0.14308,-0.63492464 0.44713,-1.07311206 0.30405,-0.44713001 0.79589,-0.67963762 0.49184,-0.2325076 1.19831,-0.2325076 0.70646,0 1.19831,0.2325076 0.49184,0.23250761 0.79589,0.66175242 0.30405,0.42924482 0.43819,1.03734163 0.14308,0.59915423 0.14308,1.34139003 0,0.8853174 -0.26828,1.9137165 -0.25934,1.0194564 -0.69752,2.101511 -0.42925,1.0731121 -0.9658,2.1193963 -0.53656,1.0373416 -1.091,1.9673719 h 3.05837 v 1.913717 z"
           style="font-family:'League Gothic';-inkscape-font-specification:'League Gothic'"
           id="path421" />
        <path
           d="m 642.24179,12.457772 q -0.82272,0 -1.40399,-0.375589 -0.57232,-0.375589 -0.87637,-1.019456 -0.29511,-0.65281 -0.29511,-1.4487017 V 1.8697335 q 0,-0.804834 0.30405,-1.44870124 0.31299,-0.64386722 0.89426,-1.01945643 0.58127,-0.37558921 1.37716,-0.37558921 0.80484,0 1.37716,0.38453181 0.58127,0.37558921 0.88532,1.01945643 0.31299,0.64386724 0.31299,1.43975864 v 7.7442918 q 0,0.7958917 -0.31299,1.4487017 -0.31299,0.643867 -0.89426,1.019456 -0.57233,0.375589 -1.36822,0.375589 z m 0,-1.877946 q 0.33982,0 0.49184,-0.286163 0.15203,-0.2951059 0.15203,-0.6796377 V 1.8697335 q 0,-0.3934744 -0.15203,-0.6796376 -0.15202,-0.28616323 -0.49184,-0.28616323 -0.33982,0 -0.49184,0.30404843 -0.15203,0.2951058 -0.15203,0.6617524 v 7.7442918 q 0,0.3845318 0.15203,0.6796377 0.15202,0.286163 0.49184,0.286163 z"
           style="font-family:'League Gothic';-inkscape-font-specification:'League Gothic'"
           id="path423" />
      </g>
      <path
         id="rect1276"
         style="opacity:1;fill:#ffffff;stroke-width:1.32292"
         d="m 555.8725,4.245172 h 8.98025 v 2.9934187 h -8.98025 z" />
      <path
         id="rect1278"
         style="fill:#ffffff;stroke-width:1.32292"
         d="m 651.12231,4.245172 h 8.98026 v 2.9934187 h -8.98026 z" />
    </g>
  </g>
</svg>
