<?xml version="1.0" encoding="UTF-8" standalone="no"?>
<svg
   sodipodi:docname="bellsworne.svg"
   inkscape:version="1.2.2 (b0a8486541, 2022-12-01)"
   id="svg8"
   version="1.1"
   viewBox="0 0 634.99999 545.22081"
   height="2060.677"
   width="2400"
   inkscape:export-filename="D:\Bellsworne\bellsworne-banner-v1.png"
   inkscape:export-xdpi="95.800003"
   inkscape:export-ydpi="95.800003"
   xmlns:inkscape="http://www.inkscape.org/namespaces/inkscape"
   xmlns:sodipodi="http://sodipodi.sourceforge.net/DTD/sodipodi-0.dtd"
   xmlns="http://www.w3.org/2000/svg"
   xmlns:svg="http://www.w3.org/2000/svg"
   xmlns:rdf="http://www.w3.org/1999/02/22-rdf-syntax-ns#"
   xmlns:cc="http://creativecommons.org/ns#"
   xmlns:dc="http://purl.org/dc/elements/1.1/">
  <defs
     id="defs2" />
  <sodipodi:namedview
     id="base"
     pagecolor="#ffffff"
     bordercolor="#666666"
     borderopacity="1.0"
     inkscape:pageopacity="0"
     inkscape:pageshadow="2"
     inkscape:zoom="0.034370457"
     inkscape:cx="-35844.737"
     inkscape:cy="-1862.0643"
     inkscape:document-units="px"
     inkscape:current-layer="layer8"
     inkscape:document-rotation="0"
     showgrid="false"
     inkscape:showpageshadow="false"
     showborder="false"
     units="px"
     inkscape:window-width="1920"
     inkscape:window-height="1016"
     inkscape:window-x="0"
     inkscape:window-y="0"
     inkscape:window-maximized="1"
     inkscape:snap-nodes="true"
     inkscape:snap-smooth-nodes="true"
     inkscape:snap-midpoints="false"
     inkscape:snap-intersection-paths="false"
     inkscape:object-paths="false"
     inkscape:snap-text-baseline="false"
     inkscape:snap-others="false"
     inkscape:object-nodes="false"
     inkscape:snap-bbox="false"
     inkscape:bbox-nodes="false"
     inkscape:snap-bbox-edge-midpoints="false"
     inkscape:snap-bbox-midpoints="false"
     inkscape:snap-global="true"
     inkscape:snap-object-midpoints="false"
     inkscape:pagecheckerboard="0"
     inkscape:deskcolor="#d1d1d1" />
  <metadata
     id="metadata5">
    <rdf:RDF>
      <cc:Work
         rdf:about="">
        <dc:format>image/svg+xml</dc:format>
        <dc:type
           rdf:resource="http://purl.org/dc/dcmitype/StillImage" />
        <dc:title />
      </cc:Work>
    </rdf:RDF>
  </metadata>
  <g
     inkscape:label="Layer 1"
     inkscape:groupmode="layer"
     id="layer1"
     transform="translate(9915.468,544.42705)">
    <rect
       style="fill:#2b2b2b;stroke-width:2.02921"
       id="rect1198"
       width="2224.6807"
       height="4715.4028"
       x="-10267.952"
       y="-2775.6255"
       ry="1.4313874" />
    <g
       id="g3670"
       transform="matrix(2.0556254,0,0,2.0556254,-13471.28,129.4245)"
       style="display:inline">
      <ellipse
         style="fill:#ff0000;fill-opacity:1;stroke:none;stroke-width:0.264583;stroke-miterlimit:4;stroke-dasharray:none;stroke-dashoffset:0;stroke-opacity:1"
         id="ellipse3609"
         cx="1885.8621"
         cy="-150.13358"
         rx="64.215721"
         ry="39.6875" />
      <path
         style="fill:#b28261;fill-opacity:1;stroke:none;stroke-width:0.264583px;stroke-linecap:butt;stroke-linejoin:miter;stroke-opacity:1"
         d="m 2038.7038,-165.0366 -49.1788,28.39343 2.6996,-40.74249 39.1584,-0.79375 z"
         id="path3611" />
      <path
         style="fill:#b28261;fill-opacity:1;stroke:none;stroke-width:0.264583px;stroke-linecap:butt;stroke-linejoin:miter;stroke-opacity:1"
         d="m 1729.7955,-225.34688 42.3846,-24.47075 -1.6763,43.3278 -34.925,-6.61458 -5.7833,-12.24247"
         id="path3613" />
      <path
         sodipodi:type="star"
         style="fill:#2b2b2b;fill-opacity:1;stroke:none;stroke-width:2.64583;stroke-miterlimit:4;stroke-dasharray:none"
         id="path3615"
         sodipodi:sides="6"
         sodipodi:cx="585.96167"
         sodipodi:cy="-88.305855"
         sodipodi:r1="123.04144"
         sodipodi:r2="106.55701"
         sodipodi:arg1="0.52359878"
         sodipodi:arg2="1.0471976"
         inkscape:flatsided="true"
         inkscape:rounded="0"
         inkscape:randomized="0"
         inkscape:transform-center-x="6.6571939e-06"
         inkscape:transform-center-y="1.7657093e-06"
         d="m 692.51868,-26.785133 -106.55701,61.520721 -106.55702,-61.520722 0,-123.041446 106.55702,-61.52072 106.55702,61.52072 z"
         transform="matrix(1.0935619,0,0,1,1243.4643,-106.88589)" />
      <path
         sodipodi:type="star"
         style="fill:#2b2b2b;fill-opacity:1;stroke:none;stroke-width:3.83878;stroke-miterlimit:4;stroke-dasharray:none"
         id="path3617"
         sodipodi:sides="6"
         sodipodi:cx="585.96167"
         sodipodi:cy="-88.305855"
         sodipodi:r1="130.40045"
         sodipodi:r2="112.93008"
         sodipodi:arg1="0.52359878"
         sodipodi:arg2="1.0471976"
         inkscape:flatsided="true"
         inkscape:rounded="0"
         inkscape:randomized="0"
         inkscape:transform-center-x="6.1697596e-06"
         inkscape:transform-center-y="1.6364255e-06"
         d="m 698.89177,-23.105628 -112.9301,65.200225 -112.9301,-65.200226 0,-130.400451 112.9301,-65.20023 112.9301,65.20023 z"
         transform="matrix(1.0935619,0,0,1,1243.4643,-106.88589)" />
      <path
         sodipodi:type="star"
         style="fill:none;stroke:#b28261;stroke-width:2.64583;stroke-miterlimit:4;stroke-dasharray:none;stroke-opacity:1"
         id="path3619"
         sodipodi:sides="6"
         sodipodi:cx="585.96167"
         sodipodi:cy="-88.305855"
         sodipodi:r1="123.04144"
         sodipodi:r2="106.55701"
         sodipodi:arg1="0.52359878"
         sodipodi:arg2="1.0471976"
         inkscape:flatsided="true"
         inkscape:rounded="0"
         inkscape:randomized="0"
         inkscape:transform-center-x="6.6571939e-06"
         inkscape:transform-center-y="1.7657093e-06"
         d="m 692.51868,-26.785133 -106.55701,61.520721 -106.55702,-61.520722 0,-123.041446 106.55702,-61.52072 106.55702,61.52072 z"
         transform="matrix(1.0935619,0,0,1,1243.4643,-106.88589)" />
      <path
         sodipodi:type="star"
         style="fill:none;stroke:#b28261;stroke-width:3.83878;stroke-miterlimit:4;stroke-dasharray:none;stroke-opacity:1"
         id="path3621"
         sodipodi:sides="6"
         sodipodi:cx="585.96167"
         sodipodi:cy="-88.305855"
         sodipodi:r1="130.40045"
         sodipodi:r2="112.93008"
         sodipodi:arg1="0.52359878"
         sodipodi:arg2="1.0471976"
         inkscape:flatsided="true"
         inkscape:rounded="0"
         inkscape:randomized="0"
         inkscape:transform-center-x="6.1697596e-06"
         inkscape:transform-center-y="1.6364255e-06"
         d="m 698.89177,-23.105628 -112.9301,65.200225 -112.9301,-65.200226 0,-130.400451 112.9301,-65.20023 112.9301,65.20023 z"
         transform="matrix(1.0935619,0,0,1,1243.4643,-106.88589)" />
      <path
         id="path3623"
         style="fill:#b28261;fill-opacity:1;stroke:none;stroke-width:0.936199"
         d="m 1882.1167,-272.64307 -2.5453,6.08342 -0.7167,4.37749 0.1333,1.64199 -6.5698,0.86486 -0.2962,-1.61999 -1.8248,-4.04288 -4.0338,-5.21859 -4.1196,1.10445 -0.8831,6.53513 0.4406,4.414 0.5522,1.55064 -6.1219,2.53607 -0.7058,-1.48838 -2.8086,-3.4321 -5.2478,-3.99531 -3.6918,2.13199 0.8375,6.54067 1.5671,4.14884 0.9361,1.35676 -5.257,4.03195 -1.066,-1.25444 -3.6022,-2.58727 -6.1018,-2.50145 -3.0152,3.01526 2.5015,6.10174 2.5873,3.60215 1.2544,1.06602 -4.0319,5.25699 -1.3567,-0.93619 -4.149,-1.56704 -6.5406,-0.83747 -2.132,3.69179 3.9953,5.24783 3.4321,2.80859 1.4884,0.70581 -2.5361,6.12188 -1.5507,-0.55403 -4.4139,-0.43883 -6.5352,0.88318 -1.1025,4.11964 5.2167,4.0337 4.0428,1.82486 1.6201,0.29617 -0.8649,6.56804 -1.642,-0.13167 -4.3774,0.71681 -6.0836,2.54526 v 4.26413 l 6.0836,2.54528 4.3774,0.7186 1.642,-0.13338 0.8649,6.56802 -1.6201,0.29793 -4.0428,1.82485 -5.2167,4.0337 1.1025,4.1178 6.5352,0.88502 4.4139,-0.44067 1.5507,-0.55223 2.5361,6.12005 -1.4884,0.70581 -3.4321,2.81043 -3.9953,5.24603 2.132,3.69359 6.5406,-0.83747 4.149,-1.56885 1.3567,-0.93438 4.0319,5.25519 -1.2544,1.06781 -2.5873,3.60219 -2.5015,6.10176 3.0152,3.0152 6.1018,-2.50139 3.6022,-2.58919 1.066,-1.25436 5.257,4.0337 -0.9361,1.35496 -1.5671,4.14887 -0.8375,6.54246 3.6918,2.13202 5.2478,-3.99711 2.8086,-3.43213 0.7058,-1.48659 6.1219,2.53434 -0.5521,1.5524 -0.4407,4.4122 0.8831,6.53694 4.1196,1.1026 4.0338,-5.21673 1.8248,-4.04286 0.2962,-1.62006 6.5698,0.86489 -0.1333,1.64199 0.7167,4.37565 2.5453,6.0853 h 4.2641 l 2.5472,-6.0853 0.7167,-4.37565 -0.1334,-1.64199 6.5681,-0.86489 0.298,1.62006 1.8248,4.04286 4.0337,5.21673 4.1197,-1.1026 0.8832,-6.53694 -0.4407,-4.4122 -0.5523,-1.5524 6.1201,-2.53434 0.7077,1.48659 2.8086,3.43213 5.246,3.99711 3.6935,-2.13202 -0.8374,-6.54246 -1.5689,-4.14887 -0.9343,-1.35496 5.2552,-4.0337 1.0678,1.25436 3.6021,2.58919 6.1018,2.50139 3.0152,-3.0152 -2.5014,-6.10176 -2.5891,-3.60219 -1.2544,-1.06781 4.0337,-5.25519 1.3549,0.93438 4.1489,1.56885 6.5425,0.83747 2.132,-3.69359 -3.9953,-5.24603 -3.4339,-2.81043 -1.4866,-0.70581 2.5343,-6.12005 1.5524,0.55223 4.4123,0.44067 6.5368,-0.88502 1.1026,-4.1178 -5.2167,-4.0337 -4.0428,-1.82485 -1.6201,-0.29793 0.8649,-6.56802 1.642,0.13338 4.3775,-0.7186 6.0834,-2.54528 v -4.26413 l -6.0834,-2.54526 -4.3775,-0.71681 -1.642,0.13167 -0.8649,-6.56804 1.6201,-0.29617 4.0428,-1.82486 5.2167,-4.0337 -1.1026,-4.11964 -6.5368,-0.88318 -4.4123,0.43883 -1.5524,0.55403 -2.5343,-6.12188 1.4866,-0.70581 3.4339,-2.80859 3.9953,-5.24783 -2.132,-3.69179 -6.5425,0.83747 -4.1489,1.56704 -1.3549,0.93619 -4.0337,-5.25699 1.2544,-1.06602 2.5891,-3.60215 2.5014,-6.10174 -3.0152,-3.01526 -6.1018,2.50145 -3.6021,2.58727 -1.0678,1.25444 -5.2552,-4.03195 0.9343,-1.35676 1.5689,-4.14884 0.8374,-6.54067 -3.6935,-2.13199 -5.246,3.99531 -2.8086,3.4321 -0.7077,1.48838 -6.1201,-2.53607 0.5523,-1.55064 0.4407,-4.414 -0.8832,-6.53513 -4.1197,-1.10445 -4.0337,5.21859 -1.8248,4.04288 -0.298,1.61999 -6.5681,-0.86486 0.1334,-1.64199 -0.7167,-4.37749 -2.5472,-6.08342 z m 1.9145,19.19941 a 58.252468,58.252468 0 0 1 0.2176,0 58.252468,58.252468 0 0 1 58.2529,58.25105 58.252468,58.252468 0 0 1 -58.2529,58.25285 58.252468,58.252468 0 0 1 -58.2511,-58.25285 58.252468,58.252468 0 0 1 58.0335,-58.25105 z m 0.2176,2.31305 a 55.938467,55.938467 0 0 0 -55.938,55.93984 55.938467,55.938467 0 0 0 55.938,55.93796 55.938467,55.938467 0 0 0 55.9398,-55.93796 55.938467,55.938467 0 0 0 -55.9398,-55.93984 z m -0.2962,2.9786 a 52.959496,52.959496 0 0 1 0.2962,0 52.959496,52.959496 0 0 1 36.4332,14.52215 l -31.6553,31.65526 a 8.1854549,8.1854549 0 0 0 -4.4524,-1.31837 8.1854549,8.1854549 0 0 0 -4.8492,1.59083 l -31.9168,-31.91858 a 52.959496,52.959496 0 0 1 36.1442,-14.53129 z m -38.1318,16.51887 31.9606,31.96065 a 8.1854549,8.1854549 0 0 0 -1.3933,4.56581 8.1854549,8.1854549 0 0 0 1.3,4.42503 l -31.8984,31.89661 a 52.959496,52.959496 0 0 1 -14.5001,-36.40573 52.959496,52.959496 0 0 1 14.5312,-36.44237 z m 76.8671,0.0107 a 52.959496,52.959496 0 0 1 14.5222,36.43318 52.959496,52.959496 0 0 1 -14.5185,36.42588 l -31.509,-31.509 a 8.1854549,8.1854549 0 0 0 1.578,-4.83277 8.1854549,8.1854549 0 0 0 -1.6566,-4.93518 z m -43.0213,43.06705 a 8.1854549,8.1854549 0 0 0 4.9077,1.63649 8.1854549,8.1854549 0 0 0 4.5494,-1.38234 l 31.5529,31.55287 a 52.959496,52.959496 0 0 1 -36.4277,14.51843 52.959496,52.959496 0 0 1 -36.4076,-14.4983 z" />
      <path
         id="path3625"
         style="fill:#b28261;fill-opacity:1;stroke:none;stroke-width:0.580838;stroke-opacity:1"
         d="m 1791.0718,-238.81278 -0.8742,1.93113 -0.067,0.68478 0.1714,1.16743 -2.0668,0.55376 -0.4353,-1.09684 -0.3998,-0.55949 -1.7228,-1.23542 -0.9937,0.57383 0.2084,2.10954 0.2847,0.62617 0.7322,0.92519 -1.5131,1.51308 -0.9252,-0.73218 -0.6261,-0.28469 -2.1096,-0.20839 -0.5738,0.99371 1.2354,1.72275 0.5595,0.39982 1.0969,0.43525 -0.5541,2.06683 -1.1671,-0.17139 -0.6848,0.0667 -1.9311,0.87413 v 1.14764 l 1.9311,0.87414 0.6848,0.0664 1.1671,-0.17139 0.5541,2.06684 -1.0969,0.43524 -0.5595,0.40008 -1.2354,1.7225 0.5738,0.99395 2.1096,-0.20863 0.6261,-0.2847 0.9252,-0.73218 1.5131,1.51307 -0.7322,0.9252 -0.2847,0.62643 -0.2084,2.10929 0.9937,0.57382 1.7228,-1.23515 0.3998,-0.55976 0.4353,-1.09658 2.0668,0.55376 -0.1714,1.16717 0.067,0.68478 0.8742,1.93113 h 1.1473 l 0.8744,-1.93113 0.066,-0.68478 -0.1713,-1.16717 2.0668,-0.55376 0.4352,1.09658 0.4001,0.55976 1.7225,1.23515 0.9937,-0.57382 -0.2084,-2.10929 -0.2847,-0.62643 -0.7321,-0.9252 1.513,-1.51307 0.9252,0.73218 0.6265,0.2847 2.1092,0.20863 0.5739,-0.99395 -1.2352,-1.7225 -0.5597,-0.40008 -1.0966,-0.43524 0.5537,-2.06684 1.1672,0.17139 0.6848,-0.0664 1.9311,-0.87414 v -1.14764 l -1.9311,-0.87413 -0.6848,-0.0667 -1.1672,0.17139 -0.5537,-2.06683 1.0966,-0.43525 0.5597,-0.39982 1.2352,-1.72275 -0.5739,-0.99371 -2.1092,0.20839 -0.6265,0.28469 -0.9252,0.73218 -1.513,-1.51308 0.7321,-0.92519 0.2847,-0.62617 0.2084,-2.10954 -0.9937,-0.57383 -1.7225,1.23542 -0.4001,0.55949 -0.4352,1.09684 -2.0668,-0.55376 0.1713,-1.16743 -0.066,-0.68478 -0.8744,-1.93113 z m 0.5217,5.79469 a 7.1348155,7.1348155 0 0 1 0.052,0 7.1348155,7.1348155 0 0 1 7.1348,7.13482 7.1348155,7.1348155 0 0 1 -7.1348,7.13482 7.1348155,7.1348155 0 0 1 -7.1348,-7.13482 7.1348155,7.1348155 0 0 1 7.0827,-7.13482 z" />
      <path
         id="path3627"
         style="fill:#b28261;fill-opacity:1;stroke:none;stroke-width:0.0324217;stroke-miterlimit:4;stroke-dasharray:none;stroke-dashoffset:0;stroke-opacity:1"
         d="m 1793.5259,-225.88341 a 1.8804565,1.8804565 0 0 1 -1.8804,1.88046 1.8804565,1.8804565 0 0 1 -1.8805,-1.88046 1.8804565,1.8804565 0 0 1 1.8805,-1.88045 1.8804565,1.8804565 0 0 1 1.8804,1.88045 z" />
      <path
         id="path3629"
         style="fill:#b28261;fill-opacity:1;stroke:none;stroke-width:0.580838;stroke-opacity:1"
         d="m 1976.2802,-238.81278 -0.8741,1.93113 -0.067,0.68478 0.1714,1.16743 -2.0669,0.55376 -0.4352,-1.09684 -0.3998,-0.55949 -1.7228,-1.23542 -0.9937,0.57383 0.2084,2.10954 0.2847,0.62617 0.7322,0.92519 -1.5131,1.51308 -0.9252,-0.73218 -0.6262,-0.28469 -2.1095,-0.20839 -0.5738,0.99371 1.2354,1.72275 0.5595,0.39982 1.0968,0.43525 -0.554,2.06683 -1.1672,-0.17139 -0.6848,0.0667 -1.9311,0.87413 v 1.14764 l 1.9311,0.87414 0.6848,0.0664 1.1672,-0.17139 0.554,2.06684 -1.0968,0.43524 -0.5595,0.40008 -1.2354,1.7225 0.5738,0.99395 2.1095,-0.20863 0.6262,-0.2847 0.9252,-0.73218 1.5131,1.51307 -0.7322,0.9252 -0.2847,0.62643 -0.2084,2.10929 0.9937,0.57382 1.7228,-1.23515 0.3998,-0.55976 0.4352,-1.09658 2.0669,0.55376 -0.1714,1.16717 0.067,0.68478 0.8741,1.93113 h 1.1474 l 0.8744,-1.93113 0.066,-0.68478 -0.1714,-1.16717 2.0668,-0.55376 0.4353,1.09658 0.4001,0.55976 1.7224,1.23515 0.9937,-0.57382 -0.2083,-2.10929 -0.2847,-0.62643 -0.7322,-0.9252 1.5131,-1.51307 0.9252,0.73218 0.6264,0.2847 2.1093,0.20863 0.5738,-0.99395 -1.2351,-1.7225 -0.5598,-0.40008 -1.0966,-0.43524 0.5538,-2.06684 1.1672,0.17139 0.6847,-0.0664 1.9312,-0.87414 v -1.14764 l -1.9312,-0.87413 -0.6847,-0.0667 -1.1672,0.17139 -0.5538,-2.06683 1.0966,-0.43525 0.5598,-0.39982 1.2351,-1.72275 -0.5738,-0.99371 -2.1093,0.20839 -0.6264,0.28469 -0.9252,0.73218 -1.5131,-1.51308 0.7322,-0.92519 0.2847,-0.62617 0.2083,-2.10954 -0.9937,-0.57383 -1.7224,1.23542 -0.4001,0.55949 -0.4353,1.09684 -2.0668,-0.55376 0.1714,-1.16743 -0.066,-0.68478 -0.8744,-1.93113 z m 0.5217,5.79469 a 7.1348155,7.1348155 0 0 1 0.052,0 7.1348155,7.1348155 0 0 1 7.1349,7.13482 7.1348155,7.1348155 0 0 1 -7.1349,7.13482 7.1348155,7.1348155 0 0 1 -7.1348,-7.13482 7.1348155,7.1348155 0 0 1 7.0828,-7.13482 z" />
      <path
         id="path3631"
         style="fill:#b28261;fill-opacity:1;stroke:none;stroke-width:0.0324217;stroke-miterlimit:4;stroke-dasharray:none;stroke-dashoffset:0;stroke-opacity:1"
         d="m 1978.7344,-225.88341 a 1.8804565,1.8804565 0 0 1 -1.8805,1.88046 1.8804565,1.8804565 0 0 1 -1.8804,-1.88046 1.8804565,1.8804565 0 0 1 1.8804,-1.88045 1.8804565,1.8804565 0 0 1 1.8805,1.88045 z" />
      <path
         id="path3633"
         style="fill:#b28261;fill-opacity:1;stroke:none;stroke-width:0.580838;stroke-opacity:1"
         d="m 1791.0718,-177.42945 -0.8742,1.93113 -0.067,0.68478 0.1714,1.16743 -2.0668,0.55376 -0.4353,-1.09684 -0.3998,-0.55949 -1.7228,-1.23542 -0.9937,0.57383 0.2084,2.10954 0.2847,0.62617 0.7322,0.92519 -1.5131,1.51308 -0.9252,-0.73218 -0.6261,-0.28469 -2.1096,-0.20839 -0.5738,0.99371 1.2354,1.72275 0.5595,0.39982 1.0969,0.43525 -0.5541,2.06683 -1.1671,-0.17139 -0.6848,0.0667 -1.9311,0.87413 v 1.14764 l 1.9311,0.87414 0.6848,0.0664 1.1671,-0.17139 0.5541,2.06684 -1.0969,0.43524 -0.5595,0.40008 -1.2354,1.7225 0.5738,0.99395 2.1096,-0.20863 0.6261,-0.2847 0.9252,-0.73218 1.5131,1.51307 -0.7322,0.9252 -0.2847,0.62643 -0.2084,2.10929 0.9937,0.57382 1.7228,-1.23515 0.3998,-0.55976 0.4353,-1.09658 2.0668,0.55376 -0.1714,1.16717 0.067,0.68478 0.8742,1.93113 h 1.1473 l 0.8744,-1.93113 0.066,-0.68478 -0.1713,-1.16717 2.0668,-0.55376 0.4352,1.09658 0.4001,0.55976 1.7225,1.23515 0.9937,-0.57382 -0.2084,-2.10929 -0.2847,-0.62643 -0.7321,-0.9252 1.513,-1.51307 0.9252,0.73218 0.6265,0.2847 2.1092,0.20863 0.5739,-0.99395 -1.2352,-1.7225 -0.5597,-0.40008 -1.0966,-0.43524 0.5537,-2.06684 1.1672,0.17139 0.6848,-0.0664 1.9311,-0.87414 v -1.14764 l -1.9311,-0.87413 -0.6848,-0.0667 -1.1672,0.17139 -0.5537,-2.06683 1.0966,-0.43525 0.5597,-0.39982 1.2352,-1.72275 -0.5739,-0.99371 -2.1092,0.20839 -0.6265,0.28469 -0.9252,0.73218 -1.513,-1.51308 0.7321,-0.92519 0.2847,-0.62617 0.2084,-2.10954 -0.9937,-0.57383 -1.7225,1.23542 -0.4001,0.55949 -0.4352,1.09684 -2.0668,-0.55376 0.1713,-1.16743 -0.066,-0.68478 -0.8744,-1.93113 z m 0.5217,5.79469 a 7.1348155,7.1348155 0 0 1 0.052,0 7.1348155,7.1348155 0 0 1 7.1348,7.13482 7.1348155,7.1348155 0 0 1 -7.1348,7.13482 7.1348155,7.1348155 0 0 1 -7.1348,-7.13482 7.1348155,7.1348155 0 0 1 7.0827,-7.13482 z" />
      <path
         id="path3635"
         style="fill:#b28261;fill-opacity:1;stroke:none;stroke-width:0.0324217;stroke-miterlimit:4;stroke-dasharray:none;stroke-dashoffset:0;stroke-opacity:1"
         d="m 1793.5259,-164.50008 a 1.8804565,1.8804565 0 0 1 -1.8804,1.88046 1.8804565,1.8804565 0 0 1 -1.8805,-1.88046 1.8804565,1.8804565 0 0 1 1.8805,-1.88045 1.8804565,1.8804565 0 0 1 1.8804,1.88045 z" />
      <path
         id="path3637"
         style="fill:#b28261;fill-opacity:1;stroke:none;stroke-width:0.580838;stroke-opacity:1"
         d="m 1976.2802,-177.42945 -0.8741,1.93113 -0.067,0.68478 0.1714,1.16743 -2.0669,0.55376 -0.4352,-1.09684 -0.3998,-0.55949 -1.7228,-1.23542 -0.9937,0.57383 0.2084,2.10954 0.2847,0.62617 0.7322,0.92519 -1.5131,1.51308 -0.9252,-0.73218 -0.6262,-0.28469 -2.1095,-0.20839 -0.5738,0.99371 1.2354,1.72275 0.5595,0.39982 1.0968,0.43525 -0.554,2.06683 -1.1672,-0.17139 -0.6848,0.0667 -1.9311,0.87413 v 1.14764 l 1.9311,0.87414 0.6848,0.0664 1.1672,-0.17139 0.554,2.06684 -1.0968,0.43524 -0.5595,0.40008 -1.2354,1.7225 0.5738,0.99395 2.1095,-0.20863 0.6262,-0.2847 0.9252,-0.73218 1.5131,1.51307 -0.7322,0.9252 -0.2847,0.62643 -0.2084,2.10929 0.9937,0.57382 1.7228,-1.23515 0.3998,-0.55976 0.4352,-1.09658 2.0669,0.55376 -0.1714,1.16717 0.067,0.68478 0.8741,1.93113 h 1.1474 l 0.8744,-1.93113 0.066,-0.68478 -0.1714,-1.16717 2.0668,-0.55376 0.4353,1.09658 0.4001,0.55976 1.7224,1.23515 0.9937,-0.57382 -0.2083,-2.10929 -0.2847,-0.62643 -0.7322,-0.9252 1.5131,-1.51307 0.9252,0.73218 0.6264,0.2847 2.1093,0.20863 0.5738,-0.99395 -1.2351,-1.7225 -0.5598,-0.40008 -1.0966,-0.43524 0.5538,-2.06684 1.1672,0.17139 0.6847,-0.0664 1.9312,-0.87414 v -1.14764 l -1.9312,-0.87413 -0.6847,-0.0667 -1.1672,0.17139 -0.5538,-2.06683 1.0966,-0.43525 0.5598,-0.39982 1.2351,-1.72275 -0.5738,-0.99371 -2.1093,0.20839 -0.6264,0.28469 -0.9252,0.73218 -1.5131,-1.51308 0.7322,-0.92519 0.2847,-0.62617 0.2083,-2.10954 -0.9937,-0.57383 -1.7224,1.23542 -0.4001,0.55949 -0.4353,1.09684 -2.0668,-0.55376 0.1714,-1.16743 -0.066,-0.68478 -0.8744,-1.93113 z m 0.5217,5.79469 a 7.1348155,7.1348155 0 0 1 0.052,0 7.1348155,7.1348155 0 0 1 7.1349,7.13482 7.1348155,7.1348155 0 0 1 -7.1349,7.13482 7.1348155,7.1348155 0 0 1 -7.1348,-7.13482 7.1348155,7.1348155 0 0 1 7.0828,-7.13482 z" />
      <path
         id="path3639"
         style="fill:#b28261;fill-opacity:1;stroke:none;stroke-width:0.0324217;stroke-miterlimit:4;stroke-dasharray:none;stroke-dashoffset:0;stroke-opacity:1"
         d="m 1978.7344,-164.50008 a 1.8804565,1.8804565 0 0 1 -1.8805,1.88046 1.8804565,1.8804565 0 0 1 -1.8804,-1.88046 1.8804565,1.8804565 0 0 1 1.8804,-1.88045 1.8804565,1.8804565 0 0 1 1.8805,1.88045 z" />
      <rect
         style="fill:#b28261;fill-opacity:1;stroke:none;stroke-width:3.59691;stroke-miterlimit:4;stroke-dasharray:none"
         id="rect3641"
         width="308.90839"
         height="60.310284"
         x="1729.7955"
         y="-225.34689" />
      <text
         xml:space="preserve"
         style="font-size:49.2478px;line-height:1.25;font-family:sans-serif;-inkscape-font-specification:sans-serif;letter-spacing:1.73046px;stroke-width:0.512997"
         x="1884.2496"
         y="-177.09317"
         id="text3645"><tspan
           sodipodi:role="line"
           id="tspan3643"
           x="1885.1149"
           y="-177.09317"
           style="font-style:normal;font-variant:normal;font-weight:normal;font-stretch:normal;font-size:49.2478px;font-family:'League Gothic';-inkscape-font-specification:'League Gothic';text-align:center;text-anchor:middle;stroke-width:0.512997">BELLSWORNE</tspan></text>
      <path
         style="color:#000000;font-style:normal;font-variant:normal;font-weight:normal;font-stretch:normal;font-size:medium;line-height:normal;font-family:sans-serif;font-variant-ligatures:normal;font-variant-position:normal;font-variant-caps:normal;font-variant-numeric:normal;font-variant-alternates:normal;font-variant-east-asian:normal;font-feature-settings:normal;font-variation-settings:normal;text-indent:0;text-align:start;text-decoration:none;text-decoration-line:none;text-decoration-style:solid;text-decoration-color:#000000;letter-spacing:normal;word-spacing:normal;text-transform:none;writing-mode:lr-tb;direction:ltr;text-orientation:mixed;dominant-baseline:auto;baseline-shift:baseline;text-anchor:start;white-space:normal;shape-padding:0;shape-margin:0;inline-size:0;clip-rule:nonzero;display:inline;overflow:visible;visibility:visible;isolation:auto;mix-blend-mode:normal;color-interpolation:sRGB;color-interpolation-filters:linearRGB;solid-color:#000000;solid-opacity:1;vector-effect:none;fill:#b28261;fill-opacity:1;fill-rule:nonzero;stroke:none;stroke-width:1.00536;stroke-linecap:butt;stroke-linejoin:miter;stroke-miterlimit:4;stroke-dasharray:4.02143, 2.01071;stroke-dashoffset:0;stroke-opacity:1;color-rendering:auto;image-rendering:auto;shape-rendering:auto;text-rendering:auto;enable-background:accumulate;stop-color:#000000"
         d="m 1729.8265,-219.32048 h 308.8459"
         id="path3648" />
      <path
         style="color:#000000;font-style:normal;font-variant:normal;font-weight:normal;font-stretch:normal;font-size:medium;line-height:normal;font-family:sans-serif;font-variant-ligatures:normal;font-variant-position:normal;font-variant-caps:normal;font-variant-numeric:normal;font-variant-alternates:normal;font-variant-east-asian:normal;font-feature-settings:normal;font-variation-settings:normal;text-indent:0;text-align:start;text-decoration:none;text-decoration-line:none;text-decoration-style:solid;text-decoration-color:#000000;letter-spacing:normal;word-spacing:normal;text-transform:none;writing-mode:lr-tb;direction:ltr;text-orientation:mixed;dominant-baseline:auto;baseline-shift:baseline;text-anchor:start;white-space:normal;shape-padding:0;shape-margin:0;inline-size:0;clip-rule:nonzero;display:inline;overflow:visible;visibility:visible;isolation:auto;mix-blend-mode:normal;color-interpolation:sRGB;color-interpolation-filters:linearRGB;solid-color:#000000;solid-opacity:1;vector-effect:none;fill:#000000;fill-opacity:1;fill-rule:nonzero;stroke:none;stroke-width:0.759955;stroke-linecap:butt;stroke-linejoin:miter;stroke-miterlimit:4;stroke-dasharray:4.02143, 2.01071;stroke-dashoffset:0;stroke-opacity:1;color-rendering:auto;image-rendering:auto;shape-rendering:auto;text-rendering:auto;enable-background:accumulate;stop-color:#000000"
         d="m 1729.8266,-219.82277 v 1.00487 h 4.021 v -1.00487 z m 6.0322,0 v 1.00487 h 4.0209 v -1.00487 z m 6.0321,0 v 1.00487 h 4.021 v -1.00487 z m 6.0322,0 v 1.00487 h 4.0209 v -1.00487 z m 6.0321,0 v 1.00487 h 4.0209 v -1.00487 z m 6.0322,0 v 1.00487 h 4.0209 v -1.00487 z m 6.0321,0 v 1.00487 h 4.0209 v -1.00487 z m 6.0322,0 v 1.00487 h 4.0209 v -1.00487 z m 6.0321,0 v 1.00487 h 4.0209 v -1.00487 z m 6.0321,0 v 1.00487 h 4.021 v -1.00487 z m 6.0322,0 v 1.00487 h 4.0209 v -1.00487 z m 6.0321,0 v 1.00487 h 4.021 v -1.00487 z m 6.0322,0 v 1.00487 h 4.0209 v -1.00487 z m 6.0321,0 v 1.00487 h 4.021 v -1.00487 z m 6.0322,0 v 1.00487 h 4.0209 v -1.00487 z m 6.0321,0 v 1.00487 h 4.021 v -1.00487 z m 6.0322,0 v 1.00487 h 4.0209 v -1.00487 z m 6.0321,0 v 1.00487 h 4.021 v -1.00487 z m 6.0322,0 v 1.00487 h 4.0209 v -1.00487 z m 6.0321,0 v 1.00487 h 4.0209 v -1.00487 z m 6.0322,0 v 1.00487 h 4.0209 v -1.00487 z m 6.0321,0 v 1.00487 h 4.0209 v -1.00487 z m 6.0322,0 v 1.00487 h 4.0209 v -1.00487 z m 6.0321,0 v 1.00487 h 4.0209 v -1.00487 z m 6.0322,0 v 1.00487 h 4.0209 v -1.00487 z m 6.0321,0 v 1.00487 h 4.0209 v -1.00487 z m 6.0321,0 v 1.00487 h 4.021 v -1.00487 z m 6.0322,0 v 1.00487 h 4.0209 v -1.00487 z m 6.0321,0 v 1.00487 h 4.021 v -1.00487 z m 6.0322,0 v 1.00487 h 4.0209 v -1.00487 z m 6.0321,0 v 1.00487 h 4.021 v -1.00487 z m 6.0322,0 v 1.00487 h 4.0209 v -1.00487 z m 6.0321,0 v 1.00487 h 4.021 v -1.00487 z m 6.0322,0 v 1.00487 h 4.0209 v -1.00487 z m 6.0321,0 v 1.00487 h 4.021 v -1.00487 z m 6.0322,0 v 1.00487 h 4.0209 v -1.00487 z m 6.0321,0 v 1.00487 h 4.0209 v -1.00487 z m 6.0322,0 v 1.00487 h 4.0209 v -1.00487 z m 6.0321,0 v 1.00487 h 4.0209 v -1.00487 z m 6.0322,0 v 1.00487 h 4.0209 v -1.00487 z m 6.0321,0 v 1.00487 h 4.0209 v -1.00487 z m 6.0321,0 v 1.00487 h 4.021 v -1.00487 z m 6.0322,0 v 1.00487 h 4.0209 v -1.00487 z m 6.0321,0 v 1.00487 h 4.021 v -1.00487 z m 6.0322,0 v 1.00487 h 4.0209 v -1.00487 z m 6.0321,0 v 1.00487 h 4.021 v -1.00487 z m 6.0322,0 v 1.00487 h 4.0209 v -1.00487 z m 6.0321,0 v 1.00487 h 4.021 v -1.00487 z m 6.0322,0 v 1.00487 h 4.0209 v -1.00487 z m 6.0321,0 v 1.00487 h 4.021 v -1.00487 z m 6.0322,0 v 1.00487 h 4.0209 v -1.00487 z m 6.0321,0 v 1.00487 h 1.2067 v -1.00487 z"
         id="path3650" />
      <path
         style="color:#000000;font-style:normal;font-variant:normal;font-weight:normal;font-stretch:normal;font-size:medium;line-height:normal;font-family:sans-serif;font-variant-ligatures:normal;font-variant-position:normal;font-variant-caps:normal;font-variant-numeric:normal;font-variant-alternates:normal;font-variant-east-asian:normal;font-feature-settings:normal;font-variation-settings:normal;text-indent:0;text-align:start;text-decoration:none;text-decoration-line:none;text-decoration-style:solid;text-decoration-color:#000000;letter-spacing:normal;word-spacing:normal;text-transform:none;writing-mode:lr-tb;direction:ltr;text-orientation:mixed;dominant-baseline:auto;baseline-shift:baseline;text-anchor:start;white-space:normal;shape-padding:0;shape-margin:0;inline-size:0;clip-rule:nonzero;display:inline;overflow:visible;visibility:visible;isolation:auto;mix-blend-mode:normal;color-interpolation:sRGB;color-interpolation-filters:linearRGB;solid-color:#000000;solid-opacity:1;vector-effect:none;fill:#b28261;fill-opacity:1;fill-rule:nonzero;stroke:none;stroke-width:1.00536;stroke-linecap:butt;stroke-linejoin:miter;stroke-miterlimit:4;stroke-dasharray:4.02143, 2.01071;stroke-dashoffset:0;stroke-opacity:1;color-rendering:auto;image-rendering:auto;shape-rendering:auto;text-rendering:auto;enable-background:accumulate;stop-color:#000000"
         d="m 1729.8265,-171.0633 h 308.8459"
         id="path3652" />
      <path
         style="color:#000000;font-style:normal;font-variant:normal;font-weight:normal;font-stretch:normal;font-size:medium;line-height:normal;font-family:sans-serif;font-variant-ligatures:normal;font-variant-position:normal;font-variant-caps:normal;font-variant-numeric:normal;font-variant-alternates:normal;font-variant-east-asian:normal;font-feature-settings:normal;font-variation-settings:normal;text-indent:0;text-align:start;text-decoration:none;text-decoration-line:none;text-decoration-style:solid;text-decoration-color:#000000;letter-spacing:normal;word-spacing:normal;text-transform:none;writing-mode:lr-tb;direction:ltr;text-orientation:mixed;dominant-baseline:auto;baseline-shift:baseline;text-anchor:start;white-space:normal;shape-padding:0;shape-margin:0;inline-size:0;clip-rule:nonzero;display:inline;overflow:visible;visibility:visible;isolation:auto;mix-blend-mode:normal;color-interpolation:sRGB;color-interpolation-filters:linearRGB;solid-color:#000000;solid-opacity:1;vector-effect:none;fill:#000000;fill-opacity:1;fill-rule:nonzero;stroke:none;stroke-width:0.759955;stroke-linecap:butt;stroke-linejoin:miter;stroke-miterlimit:4;stroke-dasharray:4.02143, 2.01071;stroke-dashoffset:0;stroke-opacity:1;color-rendering:auto;image-rendering:auto;shape-rendering:auto;text-rendering:auto;enable-background:accumulate;stop-color:#000000"
         d="m 1729.8266,-171.56559 v 1.00487 h 4.021 v -1.00487 z m 6.0322,0 v 1.00487 h 4.0209 v -1.00487 z m 6.0321,0 v 1.00487 h 4.021 v -1.00487 z m 6.0322,0 v 1.00487 h 4.0209 v -1.00487 z m 6.0321,0 v 1.00487 h 4.0209 v -1.00487 z m 6.0322,0 v 1.00487 h 4.0209 v -1.00487 z m 6.0321,0 v 1.00487 h 4.0209 v -1.00487 z m 6.0322,0 v 1.00487 h 4.0209 v -1.00487 z m 6.0321,0 v 1.00487 h 4.0209 v -1.00487 z m 6.0321,0 v 1.00487 h 4.021 v -1.00487 z m 6.0322,0 v 1.00487 h 4.0209 v -1.00487 z m 6.0321,0 v 1.00487 h 4.021 v -1.00487 z m 6.0322,0 v 1.00487 h 4.0209 v -1.00487 z m 6.0321,0 v 1.00487 h 4.021 v -1.00487 z m 6.0322,0 v 1.00487 h 4.0209 v -1.00487 z m 6.0321,0 v 1.00487 h 4.021 v -1.00487 z m 6.0322,0 v 1.00487 h 4.0209 v -1.00487 z m 6.0321,0 v 1.00487 h 4.021 v -1.00487 z m 6.0322,0 v 1.00487 h 4.0209 v -1.00487 z m 6.0321,0 v 1.00487 h 4.0209 v -1.00487 z m 6.0322,0 v 1.00487 h 4.0209 v -1.00487 z m 6.0321,0 v 1.00487 h 4.0209 v -1.00487 z m 6.0322,0 v 1.00487 h 4.0209 v -1.00487 z m 6.0321,0 v 1.00487 h 4.0209 v -1.00487 z m 6.0322,0 v 1.00487 h 4.0209 v -1.00487 z m 6.0321,0 v 1.00487 h 4.0209 v -1.00487 z m 6.0321,0 v 1.00487 h 4.021 v -1.00487 z m 6.0322,0 v 1.00487 h 4.0209 v -1.00487 z m 6.0321,0 v 1.00487 h 4.021 v -1.00487 z m 6.0322,0 v 1.00487 h 4.0209 v -1.00487 z m 6.0321,0 v 1.00487 h 4.021 v -1.00487 z m 6.0322,0 v 1.00487 h 4.0209 v -1.00487 z m 6.0321,0 v 1.00487 h 4.021 v -1.00487 z m 6.0322,0 v 1.00487 h 4.0209 v -1.00487 z m 6.0321,0 v 1.00487 h 4.021 v -1.00487 z m 6.0322,0 v 1.00487 h 4.0209 v -1.00487 z m 6.0321,0 v 1.00487 h 4.0209 v -1.00487 z m 6.0322,0 v 1.00487 h 4.0209 v -1.00487 z m 6.0321,0 v 1.00487 h 4.0209 v -1.00487 z m 6.0322,0 v 1.00487 h 4.0209 v -1.00487 z m 6.0321,0 v 1.00487 h 4.0209 v -1.00487 z m 6.0321,0 v 1.00487 h 4.021 v -1.00487 z m 6.0322,0 v 1.00487 h 4.0209 v -1.00487 z m 6.0321,0 v 1.00487 h 4.021 v -1.00487 z m 6.0322,0 v 1.00487 h 4.0209 v -1.00487 z m 6.0321,0 v 1.00487 h 4.021 v -1.00487 z m 6.0322,0 v 1.00487 h 4.0209 v -1.00487 z m 6.0321,0 v 1.00487 h 4.021 v -1.00487 z m 6.0322,0 v 1.00487 h 4.0209 v -1.00487 z m 6.0321,0 v 1.00487 h 4.021 v -1.00487 z m 6.0322,0 v 1.00487 h 4.0209 v -1.00487 z m 6.0321,0 v 1.00487 h 1.2067 v -1.00487 z"
         id="path3654" />
      <text
         xml:space="preserve"
         style="font-size:17.8852px;line-height:1.25;font-family:sans-serif;-inkscape-font-specification:sans-serif;letter-spacing:3.24046px;fill:#ffffff;stroke-width:1.21945"
         id="text3658"
         x="1846.7047"
         y="-275.93143"><tspan
           id="tspan3656"
           style="font-style:normal;font-variant:normal;font-weight:normal;font-stretch:normal;font-family:'League Gothic';-inkscape-font-specification:'League Gothic';fill:#ffffff;stroke-width:1.21945">EST. 2020</tspan></text>
      <rect
         style="fill:#ffffff;fill-opacity:1;stroke:none;stroke-width:1.32292;stroke-miterlimit:4;stroke-dasharray:none;stroke-dashoffset:0;stroke-opacity:1"
         id="rect3660"
         width="8.9802551"
         height="2.9934187"
         x="1832.1346"
         y="-284.00095" />
      <rect
         style="fill:#ffffff;fill-opacity:1;stroke:none;stroke-width:1.32292;stroke-miterlimit:4;stroke-dasharray:none;stroke-dashoffset:0;stroke-opacity:1"
         id="rect3662"
         width="8.9802551"
         height="2.9934187"
         x="1927.3844"
         y="-284.00095" />
      <path
         id="path3664"
         style="fill:#4d6e8d;fill-opacity:1;stroke:none;stroke-width:1.17713;stroke-miterlimit:4;stroke-dasharray:none;stroke-dashoffset:0;stroke-opacity:1"
         d="m 1809.474,-112.66511 c -0.3097,0 -0.5591,0.24937 -0.5591,0.55913 v 8.38688 h -31.1565 l 16.193,19.78272 -14.6394,17.88468 h 36.6577 c 0.3098,0 0.5591,-0.24937 0.5591,-0.55913 v -8.38688 h 135.4417 v 8.38688 c 0,0.30976 0.2494,0.55913 0.5592,0.55913 h 36.6576 l -14.6393,-17.88468 16.193,-19.78272 h -31.1565 v -8.38688 c 0,-0.30976 -0.2494,-0.55913 -0.5592,-0.55913 z" />
      <text
         xml:space="preserve"
         style="font-size:35.5111px;line-height:1.25;font-family:sans-serif;-inkscape-font-specification:sans-serif;letter-spacing:5.16123px;stroke-width:2.4212"
         x="1839.8722"
         y="-80.541481"
         id="text3668"><tspan
           sodipodi:role="line"
           id="tspan3666"
           x="1839.8722"
           y="-80.541481"
           style="font-style:normal;font-variant:normal;font-weight:normal;font-stretch:normal;font-family:'League Gothic';-inkscape-font-specification:'League Gothic';stroke-width:2.4212">GAMES</tspan></text>
    </g>
  </g>
</svg>
