<?xml version="1.0" encoding="UTF-8"?>
<svg id="svg8" width="2400" height="2060.7" version="1.1" viewBox="0 0 635 545.22" xmlns="http://www.w3.org/2000/svg">
 <g id="layer1" transform="translate(9915.5 544.43)">
  <path id="ellipse3609" d="m-9462.7-179.19a132 81.583 0 0 1-132 81.583 132 81.583 0 0 1-132-81.583 132 81.583 0 0 1 132-81.583 132 81.583 0 0 1 132 81.583z" style="fill:#ff0000;stroke-width:.54388"/>
  <path id="path3611" d="m-9280.5-209.83-101.09 58.366 5.5494-83.751 80.495-1.6316z" style="fill:#b28261"/>
  <path id="path3613" d="m-9915.5-333.8 87.127-50.303-3.4458 89.066-71.793-13.597-11.888-25.166" style="fill:#b28261"/>
  <path id="path3615" d="m-9358.4-145.35-239.54 126.46-239.54-126.46v-252.93l239.54-126.46 239.54 126.46z" style="fill:#2b2b2b;stroke-width:5.6876"/>
  <path id="path3617" d="m-9344.1-137.79-253.86 134.03-253.86-134.03v-268.05l253.86-134.03 253.86 134.03z" style="fill:#2b2b2b;stroke-width:8.252"/>
  <path id="path3619" d="m-9358.4-145.35-239.54 126.46-239.54-126.46v-252.93l239.54-126.46 239.54 126.46z" style="fill:none;stroke-width:5.6876;stroke:#b28261"/>
  <path id="path3621" d="m-9344.1-137.79-253.86 134.03-253.86-134.03v-268.05l253.86-134.03 253.86 134.03z" style="fill:none;stroke-width:8.252;stroke:#b28261"/>
  <path id="big-gear" d="m-9602.4-431.03-5.2322 12.505-1.4733 8.9985 0.2741 3.3753-13.505 1.7778-0.6089-3.3301-3.7511-8.3106-8.292-10.727-8.4683 2.2703-1.8153 13.434 0.9057 9.0735 1.1351 3.1875-12.584 5.2132-1.4509-3.0596-5.7734-7.0551-10.788-8.2129-7.589 4.3826 1.7216 13.445 3.2214 8.5285 1.9242 2.789-10.806 8.2882-2.1913-2.5787-7.4048-5.3185-12.543-5.142-6.1981 6.1982 5.1421 12.543 5.3186 7.4047 2.5785 2.1913-8.288 10.806-2.7889-1.9244-8.5288-3.2212-13.445-1.7215-4.3826 7.5889 8.2128 10.788 7.0551 5.7734 3.0596 1.4509-5.2132 12.584-3.1877-1.1389-9.0733-0.90207-13.434 1.8155-2.2664 8.4684 10.724 8.2918 8.3105 3.7512 3.3303 0.60881-1.7779 13.501-3.3753-0.27066-8.9983 1.4735-12.506 5.2321v8.7655l12.506 5.2321 8.9983 1.4772 3.3753-0.27418 1.7779 13.501-3.3303 0.61243-8.3105 3.7512-10.724 8.2918 2.2664 8.4646 13.434 1.8193 9.0733-0.90585 3.1877-1.1352 5.2132 12.581-3.0596 1.4509-7.0551 5.7772-8.2128 10.784 4.3826 7.5926 13.445-1.7215 8.5288-3.225 2.7889-1.9207 8.288 10.803-2.5785 2.195-5.3186 7.4048-5.1421 12.543 6.1981 6.1981 12.543-5.1419 7.4048-5.3224 2.1913-2.5785 10.806 8.2918-1.9242 2.7853-3.2214 8.5285-1.7216 13.449 7.589 4.3826 10.788-8.2166 5.7734-7.0552 1.4509-3.0559 12.584 5.2096-1.1349 3.1912-0.9059 9.0698 1.8153 13.438 8.4683 2.2665 8.292-10.724 3.7511-8.3106 0.6089-3.3302 13.505 1.7779-0.2741 3.3753 1.4733 8.9947 5.2322 12.509h8.7654l5.2361-12.509 1.4732-8.9947-0.2742-3.3753 13.502-1.7779 0.6126 3.3302 3.7511 8.3106 8.2917 10.724 8.4686-2.2665 1.8155-13.438-0.9059-9.0698-1.1353-3.1912 12.581-5.2096 1.4548 3.0559 5.7734 7.0552 10.784 8.2166 7.5925-4.3826-1.7214-13.449-3.2251-8.5285-1.9205-2.7853 10.803-8.2918 2.195 2.5785 7.4045 5.3224 12.543 5.1419 6.1981-6.1981-5.142-12.543-5.3222-7.4048-2.5786-2.195 8.2918-10.803 2.7852 1.9207 8.5286 3.225 13.449 1.7215 4.3826-7.5926-8.2128-10.784-7.0589-5.7772-3.0559-1.4509 5.2096-12.581 3.1912 1.1352 9.07 0.90585 13.437-1.8193 2.2666-8.4646-10.724-8.2918-8.3105-3.7512-3.3303-0.61243 1.7779-13.501 3.3753 0.27418 8.9985-1.4772 12.505-5.2321v-8.7655l-12.505-5.2321-8.9985-1.4735-3.3753 0.27066-1.7779-13.501 3.3303-0.60881 8.3105-3.7512 10.724-8.2918-2.2666-8.4684-13.437-1.8155-9.07 0.90207-3.1912 1.1389-5.2096-12.584 3.0559-1.4509 7.0589-5.7734 8.2128-10.788-4.3826-7.5889-13.449 1.7215-8.5286 3.2212-2.7852 1.9244-8.2918-10.806 2.5786-2.1913 5.3222-7.4047 5.142-12.543-6.1981-6.1982-12.543 5.142-7.4045 5.3185-2.195 2.5787-10.803-8.2882 1.9205-2.789 3.2251-8.5285 1.7214-13.445-7.5925-4.3826-10.784 8.2129-5.7734 7.0551-1.4548 3.0596-12.581-5.2132 1.1353-3.1875 0.9059-9.0735-1.8155-13.434-8.4686-2.2703-8.2917 10.727-3.7511 8.3106-0.6126 3.3301-13.502-1.7778 0.2742-3.3753-1.4732-8.9985-5.2361-12.505zm3.9355 39.467a119.75 119.75 0 0 1 0.4473 0 119.75 119.75 0 0 1 119.75 119.74 119.75 119.75 0 0 1-119.75 119.75 119.75 119.75 0 0 1-119.74-119.75 119.75 119.75 0 0 1 119.3-119.74zm0.4473 4.7548a114.99 114.99 0 0 0-114.99 114.99 114.99 114.99 0 0 0 114.99 114.99 114.99 114.99 0 0 0 114.99-114.99 114.99 114.99 0 0 0-114.99-114.99zm-0.6089 6.1229a108.86 108.86 0 0 1 0.6089 0 108.86 108.86 0 0 1 74.893 29.852l-65.071 65.071a16.826 16.826 0 0 0-9.1525-2.7101 16.826 16.826 0 0 0-9.9681 3.2702l-65.609-65.613a108.86 108.86 0 0 1 74.299-29.871zm-78.385 33.957 65.699 65.699a16.826 16.826 0 0 0-2.8641 9.3856 16.826 16.826 0 0 0 2.6724 9.0962l-65.571 65.567a108.86 108.86 0 0 1-29.807-74.837 108.86 108.86 0 0 1 29.871-74.912zm158.01 0.022a108.86 108.86 0 0 1 29.852 74.893 108.86 108.86 0 0 1-29.845 74.878l-64.771-64.771a16.826 16.826 0 0 0 3.2438-9.9344 16.826 16.826 0 0 0-3.4054-10.145zm-88.436 88.53a16.826 16.826 0 0 0 10.088 3.364 16.826 16.826 0 0 0 9.3519-2.8416l64.861 64.861a108.86 108.86 0 0 1-74.882 29.844 108.86 108.86 0 0 1-74.84-29.803z" style="fill:#b28261"/>
  <path id="tl-gear" d="m-9789.5-361.49-1.797 3.9697-0.1378 1.4076 0.3524 2.3998-4.2486 1.1383-0.8948-2.2547-0.8219-1.1501-3.5414-2.5396-2.0427 1.1796 0.4284 4.3364 0.5853 1.2872 1.5051 1.9018-3.1104 3.1103-1.9018-1.5051-1.2871-0.58522-4.3365-0.42837-1.1795 2.0427 2.5395 3.5413 1.1501 0.82188 2.2548 0.89472-1.139 4.2486-2.3991-0.35231-1.4077 0.13711-3.9696 1.7969v2.3591l3.9696 1.7969 1.4077 0.13649 2.3991-0.35231 1.139 4.2486-2.2548 0.89469-1.1501 0.82241-2.5395 3.5408 1.1795 2.0432 4.3365-0.42886 1.2871-0.58524 1.9018-1.5051 3.1104 3.1103-1.5051 1.9019-0.5853 1.2877-0.4284 4.3359 2.0427 1.1796 3.5414-2.539 0.8219-1.1506 0.8948-2.2542 4.2486 1.1383-0.3524 2.3993 0.1378 1.4076 1.797 3.9697h2.3584l1.7974-3.9697 0.1357-1.4076-0.3521-2.3993 4.2486-1.1383 0.8946 2.2542 0.8224 1.1506 3.5408 2.539 2.0427-1.1796-0.4284-4.3359-0.5852-1.2877-1.5049-1.9019 3.1101-3.1103 1.9019 1.5051 1.2878 0.58524 4.3358 0.42886 1.1797-2.0432-2.5391-3.5408-1.1506-0.82241-2.2542-0.89469 1.1382-4.2486 2.3994 0.35231 1.4077-0.13649 3.9696-1.7969v-2.3591l-3.9696-1.7969-1.4077-0.13711-2.3994 0.35231-1.1382-4.2486 2.2542-0.89472 1.1506-0.82188 2.5391-3.5413-1.1797-2.0427-4.3358 0.42837-1.2878 0.58522-1.9019 1.5051-3.1101-3.1103 1.5049-1.9018 0.5852-1.2872 0.4284-4.3364-2.0427-1.1796-3.5408 2.5396-0.8224 1.1501-0.8946 2.2547-4.2486-1.1383 0.3521-2.3998-0.1357-1.4076-1.7974-3.9697zm1.0724 11.912a14.667 14.667 0 0 1 0.1069 0 14.667 14.667 0 0 1 14.666 14.667 14.667 14.667 0 0 1-14.666 14.667 14.667 14.667 0 0 1-14.666-14.667 14.667 14.667 0 0 1 14.559-14.667z" style="fill:#b28261"/>
  <path id="path3627" d="m-9784.5-334.91a3.8655 3.8655 0 0 1-3.8654 3.8655 3.8655 3.8655 0 0 1-3.8656-3.8655 3.8655 3.8655 0 0 1 3.8656-3.8655 3.8655 3.8655 0 0 1 3.8654 3.8655z" style="fill:#b28261"/>
  <path id="tr-gear" d="m-9408.8-361.49-1.7968 3.9697-0.1378 1.4076 0.3524 2.3998-4.2488 1.1383-0.8946-2.2547-0.8219-1.1501-3.5414-2.5396-2.0427 1.1796 0.4284 4.3364 0.5853 1.2872 1.5051 1.9018-3.1104 3.1103-1.9018-1.5051-1.2873-0.58522-4.3363-0.42837-1.1795 2.0427 2.5395 3.5413 1.1501 0.82188 2.2546 0.89472-1.1388 4.2486-2.3993-0.35231-1.4077 0.13711-3.9696 1.7969v2.3591l3.9696 1.7969 1.4077 0.13649 2.3993-0.35231 1.1388 4.2486-2.2546 0.89469-1.1501 0.82241-2.5395 3.5408 1.1795 2.0432 4.3363-0.42886 1.2873-0.58524 1.9018-1.5051 3.1104 3.1103-1.5051 1.9019-0.5853 1.2877-0.4284 4.3359 2.0427 1.1796 3.5414-2.539 0.8219-1.1506 0.8946-2.2542 4.2488 1.1383-0.3524 2.3993 0.1378 1.4076 1.7968 3.9697h2.3586l1.7974-3.9697 0.1357-1.4076-0.3523-2.3993 4.2485-1.1383 0.8949 2.2542 0.8224 1.1506 3.5406 2.539 2.0427-1.1796-0.4282-4.3359-0.5852-1.2877-1.5052-1.9019 3.1104-3.1103 1.9019 1.5051 1.2876 0.58524 4.336 0.42886 1.1795-2.0432-2.5389-3.5408-1.1508-0.82241-2.2542-0.89469 1.1384-4.2486 2.3994 0.35231 1.4074-0.13649 3.9699-1.7969v-2.3591l-3.9699-1.7969-1.4074-0.13711-2.3994 0.35231-1.1384-4.2486 2.2542-0.89472 1.1508-0.82188 2.5389-3.5413-1.1795-2.0427-4.336 0.42837-1.2876 0.58522-1.9019 1.5051-3.1104-3.1103 1.5052-1.9018 0.5852-1.2872 0.4282-4.3364-2.0427-1.1796-3.5406 2.5396-0.8224 1.1501-0.8949 2.2547-4.2485-1.1383 0.3523-2.3998-0.1357-1.4076-1.7974-3.9697zm1.0724 11.912a14.667 14.667 0 0 1 0.1069 0 14.667 14.667 0 0 1 14.667 14.667 14.667 14.667 0 0 1-14.667 14.667 14.667 14.667 0 0 1-14.666-14.667 14.667 14.667 0 0 1 14.56-14.667z" style="fill:#b28261"/>
  <path id="path3631" d="m-9403.7-334.91a3.8655 3.8655 0 0 1-3.8656 3.8655 3.8655 3.8655 0 0 1-3.8654-3.8655 3.8655 3.8655 0 0 1 3.8654-3.8655 3.8655 3.8655 0 0 1 3.8656 3.8655z" style="fill:#b28261"/>
  <path id="bl-gear" d="m-9789.5-235.3-1.797 3.9697-0.1378 1.4076 0.3524 2.3998-4.2486 1.1383-0.8948-2.2547-0.8219-1.1501-3.5414-2.5396-2.0427 1.1796 0.4284 4.3364 0.5853 1.2872 1.5051 1.9018-3.1104 3.1103-1.9018-1.5051-1.2871-0.58522-4.3365-0.42837-1.1795 2.0427 2.5395 3.5413 1.1501 0.82188 2.2548 0.89471-1.139 4.2486-2.3991-0.35232-1.4077 0.13711-3.9696 1.7969v2.3591l3.9696 1.7969 1.4077 0.13649 2.3991-0.35231 1.139 4.2486-2.2548 0.89469-1.1501 0.82241-2.5395 3.5408 1.1795 2.0432 4.3365-0.42887 1.2871-0.58524 1.9018-1.5051 3.1104 3.1103-1.5051 1.9019-0.5853 1.2877-0.4284 4.3359 2.0427 1.1796 3.5414-2.539 0.8219-1.1507 0.8948-2.2542 4.2486 1.1383-0.3524 2.3993 0.1378 1.4076 1.797 3.9697h2.3584l1.7974-3.9697 0.1357-1.4076-0.3521-2.3993 4.2486-1.1383 0.8946 2.2542 0.8224 1.1507 3.5408 2.539 2.0427-1.1796-0.4284-4.3359-0.5852-1.2877-1.5049-1.9019 3.1101-3.1103 1.9019 1.5051 1.2878 0.58524 4.3358 0.42887 1.1797-2.0432-2.5391-3.5408-1.1506-0.82241-2.2542-0.89469 1.1382-4.2486 2.3994 0.35231 1.4077-0.13649 3.9696-1.7969v-2.3591l-3.9696-1.7969-1.4077-0.13711-2.3994 0.35232-1.1382-4.2486 2.2542-0.89471 1.1506-0.82188 2.5391-3.5413-1.1797-2.0427-4.3358 0.42837-1.2878 0.58522-1.9019 1.5051-3.1101-3.1103 1.5049-1.9018 0.5852-1.2872 0.4284-4.3364-2.0427-1.1796-3.5408 2.5396-0.8224 1.1501-0.8946 2.2547-4.2486-1.1383 0.3521-2.3998-0.1357-1.4076-1.7974-3.9697zm1.0724 11.912a14.667 14.667 0 0 1 0.1069 0 14.667 14.667 0 0 1 14.666 14.667 14.667 14.667 0 0 1-14.666 14.667 14.667 14.667 0 0 1-14.666-14.667 14.667 14.667 0 0 1 14.559-14.667z" style="fill:#b28261"/>
  <path id="path3635" d="m-9784.5-208.73a3.8655 3.8655 0 0 1-3.8654 3.8655 3.8655 3.8655 0 0 1-3.8656-3.8655 3.8655 3.8655 0 0 1 3.8656-3.8655 3.8655 3.8655 0 0 1 3.8654 3.8655z" style="fill:#b28261"/>
  <path id="br-gear" d="m-9408.8-235.3-1.7968 3.9697-0.1378 1.4076 0.3524 2.3998-4.2488 1.1383-0.8946-2.2547-0.8219-1.1501-3.5414-2.5396-2.0427 1.1796 0.4284 4.3364 0.5853 1.2872 1.5051 1.9018-3.1104 3.1103-1.9018-1.5051-1.2873-0.58522-4.3363-0.42837-1.1795 2.0427 2.5395 3.5413 1.1501 0.82188 2.2546 0.89471-1.1388 4.2486-2.3993-0.35232-1.4077 0.13711-3.9696 1.7969v2.3591l3.9696 1.7969 1.4077 0.13649 2.3993-0.35231 1.1388 4.2486-2.2546 0.89469-1.1501 0.82241-2.5395 3.5408 1.1795 2.0432 4.3363-0.42887 1.2873-0.58524 1.9018-1.5051 3.1104 3.1103-1.5051 1.9019-0.5853 1.2877-0.4284 4.3359 2.0427 1.1796 3.5414-2.539 0.8219-1.1507 0.8946-2.2542 4.2488 1.1383-0.3524 2.3993 0.1378 1.4076 1.7968 3.9697h2.3586l1.7974-3.9697 0.1357-1.4076-0.3523-2.3993 4.2485-1.1383 0.8949 2.2542 0.8224 1.1507 3.5406 2.539 2.0427-1.1796-0.4282-4.3359-0.5852-1.2877-1.5052-1.9019 3.1104-3.1103 1.9019 1.5051 1.2876 0.58524 4.336 0.42887 1.1795-2.0432-2.5389-3.5408-1.1508-0.82241-2.2542-0.89469 1.1384-4.2486 2.3994 0.35231 1.4074-0.13649 3.9699-1.7969v-2.3591l-3.9699-1.7969-1.4074-0.13711-2.3994 0.35232-1.1384-4.2486 2.2542-0.89471 1.1508-0.82188 2.5389-3.5413-1.1795-2.0427-4.336 0.42837-1.2876 0.58522-1.9019 1.5051-3.1104-3.1103 1.5052-1.9018 0.5852-1.2872 0.4282-4.3364-2.0427-1.1796-3.5406 2.5396-0.8224 1.1501-0.8949 2.2547-4.2485-1.1383 0.3523-2.3998-0.1357-1.4076-1.7974-3.9697zm1.0724 11.912a14.667 14.667 0 0 1 0.1069 0 14.667 14.667 0 0 1 14.667 14.667 14.667 14.667 0 0 1-14.667 14.667 14.667 14.667 0 0 1-14.666-14.667 14.667 14.667 0 0 1 14.56-14.667z" style="fill:#b28261"/>
  <path id="path3639" d="m-9403.7-208.73a3.8655 3.8655 0 0 1-3.8656 3.8655 3.8655 3.8655 0 0 1-3.8654-3.8655 3.8655 3.8655 0 0 1 3.8654-3.8655 3.8655 3.8655 0 0 1 3.8656 3.8655z" style="fill:#b28261"/>
  <path id="rect3641" d="m-9915.5-333.8h635v123.98h-635z" style="fill:#b28261;stroke-width:7.3939"/>
  <path id="path326" d="m-9790.5-234.61v-74.408h11.136q5.6692 0 9.7691 2.0247 4.1507 1.9741 6.3778 6.226 2.2778 4.2519 2.2778 10.984 0 5.3654-1.4173 9.3642-1.3666 3.9988-5.3654 6.5296 4.0494 2.2272 5.8209 7.0865 1.7717 4.8087 1.7717 11.136 0 6.226-2.0247 10.984-1.9741 4.758-5.8717 7.4408-3.8469 2.6321-9.5161 2.6321zm10.934-10.832q4.9604 0 6.5297-2.9358 1.569-2.9864 1.569-8.5038 0-5.6185-1.569-8.5037-1.5693-2.9358-6.5297-2.9358zm0-32.901q4.6062 0 6.3272-2.5309 1.7715-2.5309 1.7715-7.4914 0-5.0112-1.8221-7.3902-1.7717-2.4296-6.2766-2.4296z" style="stroke-width:1.0545"/>
  <path id="path328" d="m-9750.1-234.61v-74.408h25.005v11.237h-14.072v20.045h10.123v10.933h-10.123v20.956h14.072v11.237z" style="stroke-width:1.0545"/>
  <path id="path330" d="m-9713.5-234.61v-74.408h10.933v64.284h14.477v10.124z" style="stroke-width:1.0545"/>
  <path id="path332" d="m-9680-234.61v-74.408h10.933v64.284h14.477v10.124z" style="stroke-width:1.0545"/>
  <path id="path334" d="m-9633.5-233.8q-4.5049 0-7.4913-1.4679-2.9864-1.5185-4.7074-4.3531-1.7212-2.8346-2.4803-6.8334-0.7086-3.9988-0.7086-9.0099l10.731-1.0123q0 2.4296 0.1521 4.7074 0.2035 2.2272 0.658 4.0494 0.5061 1.7716 1.4173 2.8346 0.9617 1.063 2.4296 1.063 2.4297 0 3.4419-2.2272 1.0124-2.2778 1.0124-5.4667 0-3.1889-1.6704-6.6309-1.6704-3.442-3.9988-6.5297-3.948-5.2642-6.9344-9.7692-2.9359-4.505-4.6063-8.8581-1.6198-4.3531-1.6198-9.1112 0-3.7457 0.9618-6.884 0.9616-3.1889 2.7839-5.5173 1.8729-2.379 4.505-3.6951 2.6322-1.316 6.0236-1.316 4.2012 0 7.0863 1.4173 2.9359 1.4173 4.7074 4.0494 1.8223 2.6321 2.6322 6.2766 0.8605 3.5938 0.8605 7.9976l-10.731 1.0123q0-1.8728-0.2035-3.7457-0.1521-1.9235-0.6074-3.4926-0.4555-1.5691-1.316-2.5309-0.8605-0.96172-2.2271-0.96172-2.1259 0-2.9358 1.8222-0.81 1.7716-0.81 5.0618 0 4.2519 2.2779 8.2 2.2778 3.9482 6.1247 9.2124 4.6061 6.226 7.4913 11.44 2.9359 5.2136 2.9359 11.541 0 3.9988-0.8605 7.4408-0.8605 3.3914-2.7334 5.9223-1.8223 2.5309-4.7074 3.9482-2.8347 1.4173-6.884 1.4173z" style="stroke-width:1.0545"/>
  <path id="path336" d="m-9601.4-234.61-10.022-74.408h10.124l4.353 38.672 0.2035 2.4296h0.8099l0.3038-2.4296 4.6568-38.672h7.8963l4.6568 38.672 0.3037 2.4296h0.8099l0.2035-2.4296 4.3532-38.672h10.123l-10.022 74.408h-8.5037l-5.0618-35.23-0.6074-4.3531h-0.405l-0.6074 4.3531-5.0618 35.23z" style="stroke-width:1.0545"/>
  <path id="path338" d="m-9539.4-233.8q-4.5555 0-7.8457-2.1259-3.2395-2.126-5.011-5.7704-1.7212-3.6445-1.7212-8.2v-43.835q0-4.6062 1.7212-8.2001 1.7715-3.6445 5.011-5.7704 3.2902-2.1259 7.8457-2.1259 4.5556 0 7.7951 2.1259 3.2902 2.1259 5.0112 5.7704 1.7715 3.6445 1.7715 8.2001v43.835q0 4.5556-1.7715 8.2-1.721 3.6445-5.0112 5.7704-3.2395 2.1259-7.7951 2.1259zm0-10.63q2.0248 0 2.8347-1.6704 0.8097-1.721 0.8097-3.7963v-43.835q0-2.0753-0.8605-3.7457-0.8605-1.721-2.7839-1.721-1.8729 0-2.784 1.721-0.8605 1.6704-0.8605 3.7457v43.835q0 2.0753 0.8605 3.7963 0.8605 1.6704 2.784 1.6704z" style="stroke-width:1.0545"/>
  <path id="path340" d="m-9513.7-234.61v-74.408h10.933q9.8197 0 14.476 5.4667 4.6569 5.4161 4.6569 15.995 0 6.2766-2.2271 10.883-2.1765 4.5556-5.3148 6.6815l7.4407 35.382h-10.933l-6.1753-31.383h-1.9235v31.383zm10.933-41.506q3.037 0 4.8087-1.3161 1.7716-1.3667 2.5309-3.8469 0.7592-2.4802 0.7592-5.8716 0-5.3148-1.7716-8.1494-1.7209-2.8852-6.3272-2.8852z" style="stroke-width:1.0545"/>
  <path id="path342" d="m-9474-234.61v-74.408h10.225l10.124 38.773 0.9111 3.442h0.6074v-42.215h10.022v74.408h-9.2123l-11.136-38.773-0.9111-3.442h-0.6074v42.215z" style="stroke-width:1.0545"/>
  <path id="path344" d="m-9430.4-234.61v-74.408h25.005v11.237h-14.072v20.045h10.124v10.933h-10.124v20.956h14.072v11.237z" style="stroke-width:1.0545"/>
  <path id="path3648" d="m-9915.4-321.42h634.87" style="color-rendering:auto;color:#000000;dominant-baseline:auto;fill:#b28261;font-feature-settings:normal;font-variant-alternates:normal;font-variant-caps:normal;font-variant-east-asian:normal;font-variant-ligatures:normal;font-variant-numeric:normal;font-variant-position:normal;font-variation-settings:normal;image-rendering:auto;inline-size:0;isolation:auto;mix-blend-mode:normal;shape-margin:0;shape-padding:0;shape-rendering:auto;solid-color:#000000;stop-color:#000000;text-decoration-color:#000000;text-decoration-line:none;text-decoration-style:solid;text-indent:0;text-orientation:mixed;text-transform:none;white-space:normal"/>
  <path id="path3650" d="m-9915.4-322.45v2.0656h8.2657v-2.0656zm12.4 0v2.0656h8.2655v-2.0656zm12.4 0v2.0656h8.2656v-2.0656zm12.4 0v2.0656h8.2655v-2.0656zm12.4 0v2.0656h8.2654v-2.0656zm12.4 0v2.0656h8.2655v-2.0656zm12.4 0v2.0656h8.2655v-2.0656zm12.4 0v2.0656h8.2654v-2.0656zm12.4 0v2.0656h8.2655v-2.0656zm12.4 0v2.0656h8.2656v-2.0656zm12.4 0v2.0656h8.2655v-2.0656zm12.4 0v2.0656h8.2657v-2.0656zm12.4 0v2.0656h8.2654v-2.0656zm12.4 0v2.0656h8.2657v-2.0656zm12.4 0v2.0656h8.2654v-2.0656zm12.4 0v2.0656h8.2657v-2.0656zm12.4 0v2.0656h8.2655v-2.0656zm12.4 0v2.0656h8.2657v-2.0656zm12.4 0v2.0656h8.2655v-2.0656zm12.4 0v2.0656h8.2654v-2.0656zm12.4 0v2.0656h8.2655v-2.0656zm12.4 0v2.0656h8.2655v-2.0656zm12.4 0v2.0656h8.2655v-2.0656zm12.4 0v2.0656h8.2655v-2.0656zm12.4 0v2.0656h8.2654v-2.0656zm12.4 0v2.0656h8.2655v-2.0656zm12.4 0v2.0656h8.2656v-2.0656zm12.4 0v2.0656h8.2655v-2.0656zm12.4 0v2.0656h8.2657v-2.0656zm12.4 0v2.0656h8.2654v-2.0656zm12.4 0v2.0656h8.2657v-2.0656zm12.4 0v2.0656h8.2654v-2.0656zm12.4 0v2.0656h8.2657v-2.0656zm12.4 0v2.0656h8.2655v-2.0656zm12.4 0v2.0656h8.2656v-2.0656zm12.4 0v2.0656h8.2655v-2.0656zm12.4 0v2.0656h8.2654v-2.0656zm12.4 0v2.0656h8.2655v-2.0656zm12.4 0v2.0656h8.2655v-2.0656zm12.4 0v2.0656h8.2654v-2.0656zm12.4 0v2.0656h8.2655v-2.0656zm12.4 0v2.0656h8.2656v-2.0656zm12.4 0v2.0656h8.2655v-2.0656zm12.4 0v2.0656h8.2657v-2.0656zm12.4 0v2.0656h8.2654v-2.0656zm12.4 0v2.0656h8.2657v-2.0656zm12.4 0v2.0656h8.2654v-2.0656zm12.4 0v2.0656h8.2657v-2.0656zm12.4 0v2.0656h8.2655v-2.0656zm12.4 0v2.0656h8.2657v-2.0656zm12.4 0v2.0656h8.2655v-2.0656zm12.4 0v2.0656h2.4805v-2.0656z" style="color-rendering:auto;color:#000000;dominant-baseline:auto;fill:#000000;font-feature-settings:normal;font-variant-alternates:normal;font-variant-caps:normal;font-variant-east-asian:normal;font-variant-ligatures:normal;font-variant-numeric:normal;font-variant-position:normal;font-variation-settings:normal;image-rendering:auto;inline-size:0;isolation:auto;mix-blend-mode:normal;shape-margin:0;shape-padding:0;shape-rendering:auto;solid-color:#000000;stop-color:#000000;text-decoration-color:#000000;text-decoration-line:none;text-decoration-style:solid;text-indent:0;text-orientation:mixed;text-transform:none;white-space:normal"/>
  <path id="path3652" d="m-9915.4-222.22h634.87" style="color-rendering:auto;color:#000000;dominant-baseline:auto;fill:#b28261;font-feature-settings:normal;font-variant-alternates:normal;font-variant-caps:normal;font-variant-east-asian:normal;font-variant-ligatures:normal;font-variant-numeric:normal;font-variant-position:normal;font-variation-settings:normal;image-rendering:auto;inline-size:0;isolation:auto;mix-blend-mode:normal;shape-margin:0;shape-padding:0;shape-rendering:auto;solid-color:#000000;stop-color:#000000;text-decoration-color:#000000;text-decoration-line:none;text-decoration-style:solid;text-indent:0;text-orientation:mixed;text-transform:none;white-space:normal"/>
  <path id="path3654" d="m-9915.4-223.25v2.0656h8.2657v-2.0656zm12.4 0v2.0656h8.2655v-2.0656zm12.4 0v2.0656h8.2656v-2.0656zm12.4 0v2.0656h8.2655v-2.0656zm12.4 0v2.0656h8.2654v-2.0656zm12.4 0v2.0656h8.2655v-2.0656zm12.4 0v2.0656h8.2655v-2.0656zm12.4 0v2.0656h8.2654v-2.0656zm12.4 0v2.0656h8.2655v-2.0656zm12.4 0v2.0656h8.2656v-2.0656zm12.4 0v2.0656h8.2655v-2.0656zm12.4 0v2.0656h8.2657v-2.0656zm12.4 0v2.0656h8.2654v-2.0656zm12.4 0v2.0656h8.2657v-2.0656zm12.4 0v2.0656h8.2654v-2.0656zm12.4 0v2.0656h8.2657v-2.0656zm12.4 0v2.0656h8.2655v-2.0656zm12.4 0v2.0656h8.2657v-2.0656zm12.4 0v2.0656h8.2655v-2.0656zm12.4 0v2.0656h8.2654v-2.0656zm12.4 0v2.0656h8.2655v-2.0656zm12.4 0v2.0656h8.2655v-2.0656zm12.4 0v2.0656h8.2655v-2.0656zm12.4 0v2.0656h8.2655v-2.0656zm12.4 0v2.0656h8.2654v-2.0656zm12.4 0v2.0656h8.2655v-2.0656zm12.4 0v2.0656h8.2656v-2.0656zm12.4 0v2.0656h8.2655v-2.0656zm12.4 0v2.0656h8.2657v-2.0656zm12.4 0v2.0656h8.2654v-2.0656zm12.4 0v2.0656h8.2657v-2.0656zm12.4 0v2.0656h8.2654v-2.0656zm12.4 0v2.0656h8.2657v-2.0656zm12.4 0v2.0656h8.2655v-2.0656zm12.4 0v2.0656h8.2656v-2.0656zm12.4 0v2.0656h8.2655v-2.0656zm12.4 0v2.0656h8.2654v-2.0656zm12.4 0v2.0656h8.2655v-2.0656zm12.4 0v2.0656h8.2655v-2.0656zm12.4 0v2.0656h8.2654v-2.0656zm12.4 0v2.0656h8.2655v-2.0656zm12.4 0v2.0656h8.2656v-2.0656zm12.4 0v2.0656h8.2655v-2.0656zm12.4 0v2.0656h8.2657v-2.0656zm12.4 0v2.0656h8.2654v-2.0656zm12.4 0v2.0656h8.2657v-2.0656zm12.4 0v2.0656h8.2654v-2.0656zm12.4 0v2.0656h8.2657v-2.0656zm12.4 0v2.0656h8.2655v-2.0656zm12.4 0v2.0656h8.2657v-2.0656zm12.4 0v2.0656h8.2655v-2.0656zm12.4 0v2.0656h2.4805v-2.0656z" style="color-rendering:auto;color:#000000;dominant-baseline:auto;fill:#000000;font-feature-settings:normal;font-variant-alternates:normal;font-variant-caps:normal;font-variant-east-asian:normal;font-variant-ligatures:normal;font-variant-numeric:normal;font-variant-position:normal;font-variation-settings:normal;image-rendering:auto;inline-size:0;isolation:auto;mix-blend-mode:normal;shape-margin:0;shape-padding:0;shape-rendering:auto;solid-color:#000000;stop-color:#000000;text-decoration-color:#000000;text-decoration-line:none;text-decoration-style:solid;text-indent:0;text-orientation:mixed;text-transform:none;white-space:normal"/>
  <path id="path347" d="m-9673.7-437.79v-27.022h9.0811v4.081h-5.1105v7.2795h3.6765v3.9706h-3.6765v7.6104h5.1105v4.0809z" style="fill:#ffffff;stroke-width:2.5067"/>
  <path id="path349" d="m-9650.2-437.49q-1.6361 0-2.7206-0.53308-1.0846-0.55149-1.7097-1.5809-0.6249-1.0294-0.9006-2.4817-0.2573-1.4522-0.2573-3.2721l3.897-0.36765q0 0.88236 0.056 1.7096 0.074 0.80885 0.2391 1.4706 0.1829 0.64339 0.5147 1.0294 0.3493 0.38603 0.8823 0.38603 0.8825 0 1.25-0.80883 0.3678-0.82722 0.3678-1.9853 0-1.1581-0.6066-2.4081-0.6069-1.25-1.4523-2.3714-1.4338-1.9118-2.5184-3.5478-1.0662-1.636-1.6729-3.217-0.5883-1.5809-0.5883-3.3089 0-1.3603 0.3493-2.5 0.3492-1.1581 1.0111-2.0037 0.68-0.864 1.6361-1.3419 0.9559-0.47796 2.1874-0.47796 1.5259 0 2.5736 0.51471 1.0663 0.51471 1.7097 1.4706 0.6617 0.9559 0.9559 2.2794 0.3124 1.3052 0.3124 2.9044l-3.897 0.36767q0-0.68016-0.074-1.3603-0.056-0.69854-0.2206-1.2684-0.1665-0.56986-0.4779-0.91913-0.3127-0.34927-0.8089-0.34927-0.7721 0-1.0663 0.66178-0.2941 0.64339-0.2941 1.8383 0 1.5441 0.8274 2.978 0.8271 1.4338 2.2241 3.3456 1.6729 2.2611 2.7207 4.1545 1.0662 1.8934 1.0662 4.1912 0 1.4522-0.3124 2.7022-0.3127 1.2316-0.9927 2.1508-0.6619 0.91914-1.7097 1.4338-1.0294 0.51471-2.5 0.51471z" style="fill:#ffffff;stroke-width:2.5067"/>
  <path id="path351" d="m-9633.3-437.79v-22.942h-3.7501v-4.081h11.471v4.081h-3.75v22.942z" style="fill:#ffffff;stroke-width:2.5067"/>
  <path id="path353" d="m-9617.6-437.79v-4.0809h3.8605v4.0809z" style="fill:#ffffff;stroke-width:2.5067"/>
  <path id="path355" d="m-9592.5-437.79v-3.9339q1.2685-1.9486 2.4632-4.0993 1.1949-2.1508 2.1508-4.3199 0.9744-2.1875 1.5442-4.228 0.5698-2.0405 0.5698-3.7501 0-1.2132-0.2388-2.2611-0.2391-1.0478-1.0848-1.0478-0.8455 0-1.0845 1.0478-0.2389 1.0294-0.2389 2.2611v1.875h-3.9707v-1.875q0-1.6177 0.2757-2.9044 0.2942-1.3052 0.9191-2.2059 0.6251-0.91913 1.636-1.3971 1.0112-0.47796 2.4633-0.47796 1.4523 0 2.4633 0.47796 1.0111 0.47793 1.636 1.3603 0.6251 0.88235 0.9008 2.1324 0.2942 1.2316 0.2942 2.7574 0 1.8199-0.5516 3.9339-0.533 2.0956-1.4338 4.3199-0.8822 2.2059-1.9853 4.3567-1.103 2.1324-2.2427 4.0442h6.287v3.9339z" style="fill:#ffffff;stroke-width:2.5067"/>
  <path id="path357" d="m-9567.2-437.49q-1.6911 0-2.8861-0.77205-1.1764-0.77207-1.8013-2.0956-0.6068-1.3419-0.6068-2.978v-15.919q0-1.6544 0.6251-2.978 0.6434-1.3235 1.8383-2.0956 1.1947-0.77208 2.8308-0.77208 1.6544 0 2.831 0.79045 1.1948 0.77208 1.8199 2.0956 0.6434 1.3235 0.6434 2.9596v15.919q0 1.636-0.6434 2.978-0.6434 1.3236-1.8384 2.0956-1.1764 0.77205-2.8125 0.77205zm0-3.8603q0.6985 0 1.0112-0.58824 0.3124-0.60663 0.3124-1.3971v-15.919q0-0.80885-0.3124-1.3971-0.3127-0.58823-1.0112-0.58823t-1.0109 0.62499q-0.3127 0.60663-0.3127 1.3603v15.919q0 0.79045 0.3127 1.3971 0.3124 0.58824 1.0109 0.58824z" style="fill:#ffffff;stroke-width:2.5067"/>
  <path id="path359" d="m-9552.8-437.79v-3.9339q1.2685-1.9486 2.4632-4.0993 1.195-2.1508 2.1508-4.3199 0.9744-2.1875 1.5442-4.228 0.5698-2.0405 0.5698-3.7501 0-1.2132-0.2388-2.2611-0.2391-1.0478-1.0846-1.0478-0.8456 0-1.0845 1.0478-0.2391 1.0294-0.2391 2.2611v1.875h-3.9706v-1.875q0-1.6177 0.2756-2.9044 0.2942-1.3052 0.9193-2.2059 0.6249-0.91913 1.6361-1.3971 1.0109-0.47796 2.4632-0.47796 1.4521 0 2.4633 0.47796 1.0109 0.47793 1.6361 1.3603 0.6249 0.88235 0.9007 2.1324 0.294 1.2316 0.294 2.7574 0 1.8199-0.5513 3.9339-0.5333 2.0956-1.434 4.3199-0.8823 2.2059-1.9854 4.3567-1.1028 2.1324-2.2426 4.0442h6.2869v3.9339z" style="fill:#ffffff;stroke-width:2.5067"/>
  <path id="path361" d="m-9527.6-437.49q-1.6911 0-2.8861-0.77205-1.1764-0.77207-1.8013-2.0956-0.6066-1.3419-0.6066-2.978v-15.919q0-1.6544 0.6249-2.978 0.6434-1.3235 1.8383-2.0956 1.1948-0.77208 2.8308-0.77208 1.6546 0 2.8311 0.79045 1.1949 0.77208 1.8198 2.0956 0.6434 1.3235 0.6434 2.9596v15.919q0 1.636-0.6434 2.978-0.6434 1.3236-1.8381 2.0956-1.1767 0.77205-2.8128 0.77205zm0-3.8603q0.6988 0 1.0112-0.58824 0.3125-0.60663 0.3125-1.3971v-15.919q0-0.80885-0.3125-1.3971-0.3124-0.58823-1.0112-0.58823-0.6985 0-1.0109 0.62499-0.3125 0.60663-0.3125 1.3603v15.919q0 0.79045 0.3125 1.3971 0.3124 0.58824 1.0109 0.58824z" style="fill:#ffffff;stroke-width:2.5067"/>
  <path id="rect3660" d="m-9705.1-454.38h18.46v6.1534h-18.46z" style="fill:#ffffff;stroke-width:2.7194"/>
  <path id="rect3662" d="m-9509.3-454.38h18.46v6.1534h-18.46z" style="fill:#ffffff;stroke-width:2.7194"/>
  <path id="path3664" d="m-9751.7-102.17c-0.6366 0-1.1493 0.51261-1.1493 1.1494v17.24h-64.046l33.287 40.666-30.093 36.764h75.354c0.6369 0 1.1493-0.51261 1.1493-1.1494v-17.24h278.42v17.24c0 0.63675 0.5127 1.1494 1.1495 1.1494h75.354l-30.093-36.764 33.287-40.666h-64.046v-17.24c0-0.63675-0.5127-1.1494-1.1495-1.1494z" style="fill:#4d6e8d"/>
  <path id="path366" d="m-9677.4-35.555q-3.2485 0-5.2924-1.5329-2.0439-1.5329-3.0294-4.1609-0.9488-2.6279-0.9488-5.9128v-31.608q0-3.2484 1.2773-5.8763 1.2776-2.6279 3.65-4.1609 2.3724-1.5694 5.5843-1.5694 2.4454 0 4.3797 0.91247 1.971 0.87596 3.3215 2.4819 1.3869 1.6059 2.0805 3.7229 0.73 2.0804 0.73 4.4894v8.2487h-7.8838v-8.2487q0-1.606-0.584-2.7739-0.584-1.1679-2.0439-1.1679-1.4235 0-2.0439 1.241-0.584 1.2045-0.584 2.7009v32.265q0 1.5694 0.6204 2.7739 0.6206 1.168 2.0075 1.168 1.4599 0 2.0439-1.168 0.584-1.2045 0.584-2.7739v-8.9787h-3.1389v-7.3727h11.023v26.717h-4.6719l-0.949-2.9199q-1.0219 1.6424-2.628 2.5914-1.5694 0.91247-3.5038 0.91247z" style="stroke-width:4.9771"/>
  <path id="path368" d="m-9650.8-36.139 8.1029-53.653h9.6355l8.1029 53.653h-7.6648l-1.4599-10.95h-7.5919l-1.4599 10.95zm10.22-19.271h5.4018l-2.2629-18.03-0.2191-2.8469h-0.4379l-0.2191 2.8469z" style="stroke-width:4.9771"/>
  <path id="path370" d="m-9610.2-36.139v-53.653h10.001l4.3067 27.812 0.3651 2.8469h0.146l0.365-2.8469 4.3068-27.812h10.001v53.653h-7.2999v-35.988h-0.4379l-0.2921 2.2629-4.6718 33.725h-4.0878l-4.6718-33.725-0.2921-2.2629h-0.4379v35.988z" style="stroke-width:4.9771"/>
  <path id="path372" d="m-9564.2-36.139v-53.653h18.03v8.1027h-10.147v14.454h7.2999v7.8837h-7.2999v15.11h10.147v8.1027z" style="stroke-width:4.9771"/>
  <path id="path374" d="m-9520.2-35.555q-3.2483 0-5.4017-1.0585-2.1535-1.095-3.3945-3.1389-1.2408-2.0439-1.7884-4.9273-0.5108-2.8834-0.5108-6.4968l7.7376-0.72998q0 1.7519 0.1089 3.3944 0.146 1.6059 0.4745 2.9199 0.365 1.2775 1.022 2.0439 0.6934 0.76648 1.7518 0.76648 1.752 0 2.482-1.6059 0.7299-1.6424 0.7299-3.9419 0-2.2994-1.2044-4.7813-1.2043-2.4819-2.8834-4.7083-2.8468-3.7959-5.0003-7.0443-2.1169-3.2484-3.3215-6.3873-1.1678-3.1389-1.1678-6.5698 0-2.7009 0.6934-4.9638 0.6936-2.2994 2.0075-3.9784 1.3504-1.7154 3.2483-2.6644 1.898-0.94898 4.3433-0.94898 3.0294 0 5.1099 1.022 2.1169 1.022 3.3945 2.9199 1.3139 1.8979 1.8979 4.5258 0.6204 2.5914 0.6204 5.7668l-7.7378 0.72997q0-1.3505-0.1459-2.7009-0.109-1.387-0.4381-2.5184-0.3285-1.1315-0.9488-1.8249-0.6206-0.69349-1.6061-0.69349-1.5329 0-2.1169 1.314-0.584 1.2774-0.584 3.6499 0 3.0659 1.6425 5.9128 1.6424 2.8469 4.4165 6.6428 3.3212 4.4893 5.4017 8.2487 2.1169 3.7594 2.1169 8.3217 0 2.8834-0.6204 5.3653-0.6206 2.4454-1.9709 4.2704-1.314 1.8249-3.3945 2.8469-2.0439 1.022-4.9639 1.022z" style="stroke-width:4.9771"/>
 </g>
</svg>
