<?xml version="1.0" encoding="UTF-8" standalone="no"?>
<svg
   sodipodi:docname="bellsworne-farm-logo-NO-BG.svg"
   inkscape:version="1.2.2 (b0a8486541, 2022-12-01)"
   id="svg8"
   version="1.1"
   viewBox="0 0 634.99999 546.60896"
   height="2065.9236"
   width="2400"
   inkscape:export-filename="D:\Bellsworne\bellsworne-banner-v1.png"
   inkscape:export-xdpi="95.800003"
   inkscape:export-ydpi="95.800003"
   xmlns:inkscape="http://www.inkscape.org/namespaces/inkscape"
   xmlns:sodipodi="http://sodipodi.sourceforge.net/DTD/sodipodi-0.dtd"
   xmlns="http://www.w3.org/2000/svg"
   xmlns:svg="http://www.w3.org/2000/svg"
   xmlns:rdf="http://www.w3.org/1999/02/22-rdf-syntax-ns#"
   xmlns:cc="http://creativecommons.org/ns#"
   xmlns:dc="http://purl.org/dc/elements/1.1/">
  <defs
     id="defs2" />
  <sodipodi:namedview
     id="base"
     pagecolor="#ffffff"
     bordercolor="#666666"
     borderopacity="1.0"
     inkscape:pageopacity="0"
     inkscape:pageshadow="2"
     inkscape:zoom="0.08"
     inkscape:cx="-112.5"
     inkscape:cy="1550"
     inkscape:document-units="px"
     inkscape:current-layer="layer4"
     inkscape:document-rotation="0"
     showgrid="false"
     inkscape:showpageshadow="false"
     showborder="false"
     units="px"
     inkscape:window-width="1920"
     inkscape:window-height="1016"
     inkscape:window-x="0"
     inkscape:window-y="0"
     inkscape:window-maximized="1"
     inkscape:snap-nodes="true"
     inkscape:snap-smooth-nodes="true"
     inkscape:snap-midpoints="false"
     inkscape:snap-intersection-paths="false"
     inkscape:object-paths="false"
     inkscape:snap-text-baseline="false"
     inkscape:snap-others="false"
     inkscape:object-nodes="false"
     inkscape:snap-bbox="false"
     inkscape:bbox-nodes="false"
     inkscape:snap-bbox-edge-midpoints="false"
     inkscape:snap-bbox-midpoints="false"
     inkscape:snap-global="true"
     inkscape:snap-object-midpoints="false"
     inkscape:pagecheckerboard="0"
     inkscape:deskcolor="#d1d1d1" />
  <metadata
     id="metadata5">
    <rdf:RDF>
      <cc:Work
         rdf:about="">
        <dc:format>image/svg+xml</dc:format>
        <dc:type
           rdf:resource="http://purl.org/dc/dcmitype/StillImage" />
        <dc:title />
      </cc:Work>
    </rdf:RDF>
  </metadata>
  <g
     inkscape:label="Layer 1"
     inkscape:groupmode="layer"
     id="layer1"
     transform="translate(9473.1116,-73.622259)" />
  <g
     inkscape:groupmode="layer"
     id="layer4"
     inkscape:label="FARM"
     style="display:inline"
     transform="translate(9473.1116,-73.622259)">
    <g
       id="g4574"
       transform="matrix(2.0556256,0,0,2.0608589,-9515.6634,-1416.473)">
      <g
         id="g4572"
         transform="translate(-432.83337,937.23318)">
        <path
           id="ellipse4482"
           style="fill:#ff0000;stroke-width:0.264583"
           d="m 673.8157,-36.512501 a 64.215721,39.6875 0 0 1 -64.21572,39.6875002 64.215721,39.6875 0 0 1 -64.21573,-39.6875002 64.215721,39.6875 0 0 1 64.21573,-39.6875 64.215721,39.6875 0 0 1 64.21572,39.6875 z" />
        <path
           style="fill:#b28261;fill-opacity:1;stroke:none;stroke-width:0.264583px;stroke-linecap:butt;stroke-linejoin:miter;stroke-opacity:1"
           d="m 762.44171,-51.415521 -49.17887,28.393436 2.69965,-40.742498 39.15833,-0.79375 z"
           id="path4484" />
        <path
           style="fill:#b28261;fill-opacity:1;stroke:none;stroke-width:0.264583px;stroke-linecap:butt;stroke-linejoin:miter;stroke-opacity:1"
           d="m 453.53335,-111.7258 42.38458,-24.47075 -1.67627,43.327801 -34.925,-6.614583 -5.78331,-12.242468"
           id="path4486" />
        <g
           id="g4500"
           transform="matrix(0.81558738,0,0,1,112.12058,0)">
          <g
             id="g4492"
             transform="matrix(1.3408274,0,0,1,-177.68592,6.7351921)"
             style="fill:#2b2b2b;fill-opacity:1;stroke:none">
            <path
               id="path4488"
               style="stroke-width:2.64583"
               inkscape:transform-center-x="6.6571939e-06"
               inkscape:transform-center-y="1.7657093e-06"
               d="m 692.51868,-26.785133 -106.55701,61.520721 -106.55702,-61.520722 0,-123.041446 106.55702,-61.52072 106.55702,61.52072 z" />
            <path
               id="path4490"
               style="stroke-width:3.83878"
               inkscape:transform-center-x="6.1697596e-06"
               inkscape:transform-center-y="1.6364255e-06"
               d="m 698.89177,-23.105628 -112.9301,65.200225 -112.9301,-65.200226 0,-130.400451 112.9301,-65.20023 112.9301,65.20023 z" />
          </g>
          <g
             id="g4498"
             transform="matrix(1.3408274,0,0,1,-177.68592,6.7351921)"
             style="stroke:#b28261;stroke-opacity:1">
            <path
               id="path4494"
               style="fill:none;stroke-width:2.64583"
               inkscape:transform-center-x="6.6571939e-06"
               inkscape:transform-center-y="1.7657093e-06"
               d="m 692.51868,-26.785133 -106.55701,61.520721 -106.55702,-61.520722 0,-123.041446 106.55702,-61.52072 106.55702,61.52072 z" />
            <path
               id="path4496"
               style="fill:none;stroke-width:3.83878"
               inkscape:transform-center-x="6.1697596e-06"
               inkscape:transform-center-y="1.6364255e-06"
               d="m 698.89177,-23.105628 -112.9301,65.200225 -112.9301,-65.200226 0,-130.400451 112.9301,-65.20023 112.9301,65.20023 z" />
          </g>
        </g>
        <path
           id="path4502"
           style="fill:#b28261;fill-opacity:1;stroke:none;stroke-width:0.936199"
           d="m 605.85458,-159.02199 -2.54534,6.08342 -0.71672,4.37749 0.13338,1.64199 -6.56988,0.86486 -0.29616,-1.61999 -1.82483,-4.04288 -4.03372,-5.21859 -4.11966,1.10445 -0.8831,6.53513 0.44067,4.414 0.55217,1.55064 -6.12193,2.53607 -0.7058,-1.48838 -2.80859,-3.4321 -5.24777,-3.99531 -3.69181,2.13199 0.83743,6.54067 1.5671,4.14884 0.93619,1.35676 -5.25705,4.03195 -1.06596,-1.25444 -3.60221,-2.58727 -6.10179,-2.50145 -3.01521,3.01526 2.50143,6.10174 2.58739,3.60215 1.25431,1.06602 -4.03186,5.25699 -1.35671,-0.93619 -4.14895,-1.56704 -6.54059,-0.83747 -2.13208,3.69179 3.99529,5.24783 3.4321,2.80859 1.48847,0.70581 -2.53614,6.12188 -1.55064,-0.55403 -4.41399,-0.43883 -6.53513,0.88318 -1.10257,4.119642 5.21679,4.033697 4.0428,1.82486 1.62009,0.29617 -0.8649,6.56804 -1.64199,-0.13167 -4.37749,0.71681 -6.08353,2.54526 v 4.26413 l 6.08353,2.54528 4.37749,0.7186 1.64199,-0.13338 0.8649,6.568018 -1.62009,0.297933 -4.0428,1.824852 -5.21679,4.033701 1.10257,4.117797 6.53513,0.885022 4.41399,-0.44067 1.55064,-0.552234 2.53614,6.120054 -1.48847,0.705803 -3.4321,2.810433 -3.99529,5.246034 2.13208,3.693589 6.54059,-0.837467 4.14895,-1.568852 1.35671,-0.934386 4.03186,5.255191 -1.25431,1.067815 -2.58739,3.602193 -2.50143,6.10175 3.01521,3.01521 6.10179,-2.501399 3.60221,-2.589184 1.06596,-1.254361 5.25705,4.033699 -0.93619,1.354958 -1.5671,4.148875 -0.83743,6.542456 3.69181,2.132025 5.24777,-3.997113 2.80859,-3.432136 0.7058,-1.486587 6.12193,2.534342 -0.55217,1.552399 -0.44067,4.412203 0.8831,6.5369372 4.11966,1.102598 4.03372,-5.2167262 1.82483,-4.042865 0.29616,-1.620053 6.56988,0.86489 -0.13338,1.641992 0.71672,4.37565 2.54534,6.0852972 h 4.26413 l 2.54712,-6.0852972 0.71676,-4.37565 -0.13338,-1.641992 6.56809,-0.86489 0.29793,1.620053 1.82485,4.042865 4.0337,5.2167262 4.11966,-1.102598 0.8832,-6.5369372 -0.44067,-4.412203 -0.55227,-1.552399 6.12004,-2.534342 0.70769,1.486587 2.80859,3.432136 5.24601,3.997113 3.69357,-2.132025 -0.83743,-6.542456 -1.56888,-4.148875 -0.9343,-1.354958 5.25517,-4.033699 1.06781,1.254361 3.60213,2.589184 6.10179,2.501399 3.01521,-3.01521 -2.50143,-6.10175 -2.58914,-3.602193 -1.25434,-1.067815 4.0337,-5.255191 1.3549,0.934386 4.14892,1.568852 6.54248,0.837467 2.13201,-3.693589 -3.99533,-5.246034 -3.43388,-2.810433 -1.48662,-0.705803 2.53431,-6.120054 1.5524,0.552234 4.41224,0.44067 6.53688,-0.885022 1.10257,-4.117797 -5.21668,-4.033701 -4.04286,-1.824852 -1.6201,-0.297933 0.86492,-6.568018 1.64204,0.13338 4.37749,-0.7186 6.08342,-2.54528 v -4.26413 l -6.08342,-2.54526 -4.37749,-0.71681 -1.64204,0.13167 -0.86492,-6.56804 1.6201,-0.29617 4.04286,-1.82486 5.21668,-4.033697 -1.10257,-4.119642 -6.53688,-0.88318 -4.41224,0.43883 -1.5524,0.55403 -2.53431,-6.12188 1.48662,-0.70581 3.43388,-2.80859 3.99533,-5.24783 -2.13201,-3.69179 -6.54248,0.83747 -4.14892,1.56704 -1.3549,0.93619 -4.0337,-5.25699 1.25434,-1.06602 2.58914,-3.60215 2.50143,-6.10174 -3.01521,-3.01526 -6.10179,2.50145 -3.60213,2.58727 -1.06781,1.25444 -5.25517,-4.03195 0.9343,-1.35676 1.56888,-4.14884 0.83743,-6.54067 -3.69357,-2.13199 -5.24601,3.99531 -2.80859,3.4321 -0.70769,1.48838 -6.12004,-2.53607 0.55227,-1.55064 0.44067,-4.414 -0.8832,-6.53513 -4.11966,-1.10445 -4.0337,5.21859 -1.82485,4.04288 -0.29793,1.61999 -6.56809,-0.86486 0.13338,-1.64199 -0.71676,-4.37749 -2.54712,-6.08342 z m 1.91445,19.19941 a 58.252468,58.252468 0 0 1 0.21763,0 58.252468,58.252468 0 0 1 58.25291,58.251049 58.252468,58.252468 0 0 1 -58.25291,58.252847 58.252468,58.252468 0 0 1 -58.25105,-58.252847 58.252468,58.252468 0 0 1 58.03346,-58.251049 z m 0.21763,2.31305 a 55.938467,55.938467 0 0 0 -55.938,55.939839 55.938467,55.938467 0 0 0 55.938,55.937957 55.938467,55.938467 0 0 0 55.93983,-55.937957 55.938467,55.938467 0 0 0 -55.93983,-55.939839 z m -0.29618,2.9786 a 52.959496,52.959496 0 0 1 0.29618,0 52.959496,52.959496 0 0 1 36.43326,14.52215 l -31.65531,31.655259 a 8.1854549,8.1854549 0 0 0 -4.45247,-1.31837 8.1854549,8.1854549 0 0 0 -4.84922,1.59083 l -31.91675,-31.918579 a 52.959496,52.959496 0 0 1 36.14424,-14.53129 z m -38.1318,16.51887 31.96056,31.960649 a 8.1854549,8.1854549 0 0 0 -1.39324,4.56581 8.1854549,8.1854549 0 0 0 1.3,4.42503 l -31.89841,31.896612 a 52.959496,52.959496 0 0 1 -14.50013,-36.405732 52.959496,52.959496 0 0 1 14.53122,-36.442369 z m 76.86711,0.0107 a 52.959496,52.959496 0 0 1 14.52214,36.433179 52.959496,52.959496 0 0 1 -14.5185,36.425882 L 614.9205,-76.651301 a 8.1854549,8.1854549 0 0 0 1.57798,-4.83277 8.1854549,8.1854549 0 0 0 -1.65662,-4.93518 z m -43.02132,43.067049 a 8.1854549,8.1854549 0 0 0 4.90774,1.63649 8.1854549,8.1854549 0 0 0 4.54939,-1.38234 l 31.55286,31.552872 a 52.959496,52.959496 0 0 1 -36.42774,14.518426 52.959496,52.959496 0 0 1 -36.40753,-14.498293 z" />
        <g
           id="g4516"
           transform="translate(-0.5906141,15.064768)">
          <g
             id="g4508"
             transform="matrix(0.50404175,0,0,0.50404175,263.25697,-0.91059354)">
            <path
               id="path4504"
               style="fill:#b28261;fill-opacity:1;stroke:none;stroke-width:4.35538;stroke-opacity:1"
               d="m 1890.6816,-1044.877 -6.5546,14.4805 -0.5,5.1348 1.2851,8.7539 -15.498,4.1523 -3.2637,-8.2246 -2.9981,-4.1953 -12.9179,-9.2637 -7.4512,4.3028 1.5625,15.8183 2.1348,4.6953 5.4902,6.9375 -11.3457,11.34575 -6.9375,-5.49024 -4.6953,-2.13476 -15.8184,-1.56255 -4.3027,7.45122 9.2637,12.91797 4.1953,2.99804 8.2246,3.26368 -4.1543,15.49804 -8.752,-1.28515 -5.1347,0.5 -14.4805,6.55468 v 8.60547 l 14.4805,6.55469 5.1347,0.49805 8.752,-1.28516 4.1543,15.49805 -8.2246,3.26367 -4.1953,3 -9.2637,12.91602 4.3027,7.45312 15.8184,-1.56445 4.6953,-2.13477 6.9375,-5.49023 11.3457,11.3457 -5.4902,6.9375 -2.1348,4.69727 -1.5625,15.8164 7.4512,4.30274 12.9179,-9.26172 2.9981,-4.19727 3.2637,-8.22265 15.498,4.15234 -1.2851,8.75195 0.5,5.13477 6.5546,14.48047 h 8.6036 l 6.5566,-14.48047 0.498,-5.13477 -1.2851,-8.75195 15.498,-4.15234 3.2637,8.22265 3,4.19727 12.916,9.26172 7.4512,-4.30274 -1.5625,-15.8164 -2.1348,-4.69727 -5.4902,-6.9375 11.3457,-11.3457 6.9375,5.49023 4.6973,2.13477 15.8164,1.56445 4.3027,-7.45312 -9.2617,-12.91602 -4.1973,-3 -8.2226,-3.26367 4.1523,-15.49805 8.752,1.28516 5.1347,-0.49805 14.4805,-6.55469 v -8.60547 l -14.4805,-6.55468 -5.1347,-0.5 -8.752,1.28515 -4.1523,-15.49804 8.2226,-3.26368 4.1973,-2.99804 9.2617,-12.91797 -4.3027,-7.45122 -15.8164,1.56255 -4.6973,2.13476 -6.9375,5.49024 -11.3457,-11.34575 5.4902,-6.9375 2.1348,-4.6953 1.5625,-15.8183 -7.4512,-4.3028 -12.916,9.2637 -3,4.1953 -3.2637,8.2246 -15.498,-4.1523 1.2851,-8.7539 -0.498,-5.1348 -6.5566,-14.4805 z m 3.9122,43.4512 a 53.499999,53.499999 0 0 1 0.3906,0 53.499999,53.499999 0 0 1 53.5,53.50002 53.499999,53.499999 0 0 1 -53.5,53.5 53.499999,53.499999 0 0 1 -53.5,-53.5 53.499999,53.499999 0 0 1 53.1094,-53.50002 z"
               transform="scale(0.26458333)" />
            <path
               id="path4506"
               style="fill:#b28261;fill-opacity:1;stroke:none;stroke-width:0.0643235;stroke-miterlimit:4;stroke-dasharray:none;stroke-dashoffset:0;stroke-opacity:1"
               d="m 505.11177,-250.80563 a 3.7307554,3.7307554 0 0 1 -3.73076,3.73076 3.7307554,3.7307554 0 0 1 -3.73075,-3.73076 3.7307554,3.7307554 0 0 1 3.73075,-3.73075 3.7307554,3.7307554 0 0 1 3.73076,3.73075 z" />
          </g>
          <g
             id="g4514"
             transform="matrix(0.50404175,0,0,0.50404175,448.46542,-0.91059354)">
            <path
               id="path4510"
               style="fill:#b28261;fill-opacity:1;stroke:none;stroke-width:4.35538;stroke-opacity:1"
               d="m 1890.6816,-1044.877 -6.5546,14.4805 -0.5,5.1348 1.2851,8.7539 -15.498,4.1523 -3.2637,-8.2246 -2.9981,-4.1953 -12.9179,-9.2637 -7.4512,4.3028 1.5625,15.8183 2.1348,4.6953 5.4902,6.9375 -11.3457,11.34575 -6.9375,-5.49024 -4.6953,-2.13476 -15.8184,-1.56255 -4.3027,7.45122 9.2637,12.91797 4.1953,2.99804 8.2246,3.26368 -4.1543,15.49804 -8.752,-1.28515 -5.1347,0.5 -14.4805,6.55468 v 8.60547 l 14.4805,6.55469 5.1347,0.49805 8.752,-1.28516 4.1543,15.49805 -8.2246,3.26367 -4.1953,3 -9.2637,12.91602 4.3027,7.45312 15.8184,-1.56445 4.6953,-2.13477 6.9375,-5.49023 11.3457,11.3457 -5.4902,6.9375 -2.1348,4.69727 -1.5625,15.8164 7.4512,4.30274 12.9179,-9.26172 2.9981,-4.19727 3.2637,-8.22265 15.498,4.15234 -1.2851,8.75195 0.5,5.13477 6.5546,14.48047 h 8.6036 l 6.5566,-14.48047 0.498,-5.13477 -1.2851,-8.75195 15.498,-4.15234 3.2637,8.22265 3,4.19727 12.916,9.26172 7.4512,-4.30274 -1.5625,-15.8164 -2.1348,-4.69727 -5.4902,-6.9375 11.3457,-11.3457 6.9375,5.49023 4.6973,2.13477 15.8164,1.56445 4.3027,-7.45312 -9.2617,-12.91602 -4.1973,-3 -8.2226,-3.26367 4.1523,-15.49805 8.752,1.28516 5.1347,-0.49805 14.4805,-6.55469 v -8.60547 l -14.4805,-6.55468 -5.1347,-0.5 -8.752,1.28515 -4.1523,-15.49804 8.2226,-3.26368 4.1973,-2.99804 9.2617,-12.91797 -4.3027,-7.45122 -15.8164,1.56255 -4.6973,2.13476 -6.9375,5.49024 -11.3457,-11.34575 5.4902,-6.9375 2.1348,-4.6953 1.5625,-15.8183 -7.4512,-4.3028 -12.916,9.2637 -3,4.1953 -3.2637,8.2246 -15.498,-4.1523 1.2851,-8.7539 -0.498,-5.1348 -6.5566,-14.4805 z m 3.9122,43.4512 a 53.499999,53.499999 0 0 1 0.3906,0 53.499999,53.499999 0 0 1 53.5,53.50002 53.499999,53.499999 0 0 1 -53.5,53.5 53.499999,53.499999 0 0 1 -53.5,-53.5 53.499999,53.499999 0 0 1 53.1094,-53.50002 z"
               transform="scale(0.26458333)" />
            <path
               id="path4512"
               style="fill:#b28261;fill-opacity:1;stroke:none;stroke-width:0.0643235;stroke-miterlimit:4;stroke-dasharray:none;stroke-dashoffset:0;stroke-opacity:1"
               d="m 505.11177,-250.80563 a 3.7307554,3.7307554 0 0 1 -3.73076,3.73076 3.7307554,3.7307554 0 0 1 -3.73075,-3.73076 3.7307554,3.7307554 0 0 1 3.73075,-3.73075 3.7307554,3.7307554 0 0 1 3.73076,3.73075 z" />
          </g>
        </g>
        <g
           id="g4530"
           transform="translate(-0.5906141,76.448104)">
          <g
             id="g4522"
             transform="matrix(0.50404175,0,0,0.50404175,263.25697,-0.91059354)">
            <path
               id="path4518"
               style="fill:#b28261;fill-opacity:1;stroke:none;stroke-width:4.35538;stroke-opacity:1"
               d="m 1890.6816,-1044.877 -6.5546,14.4805 -0.5,5.1348 1.2851,8.7539 -15.498,4.1523 -3.2637,-8.2246 -2.9981,-4.1953 -12.9179,-9.2637 -7.4512,4.3028 1.5625,15.8183 2.1348,4.6953 5.4902,6.9375 -11.3457,11.34575 -6.9375,-5.49024 -4.6953,-2.13476 -15.8184,-1.56255 -4.3027,7.45122 9.2637,12.91797 4.1953,2.99804 8.2246,3.26368 -4.1543,15.49804 -8.752,-1.28515 -5.1347,0.5 -14.4805,6.55468 v 8.60547 l 14.4805,6.55469 5.1347,0.49805 8.752,-1.28516 4.1543,15.49805 -8.2246,3.26367 -4.1953,3 -9.2637,12.91602 4.3027,7.45312 15.8184,-1.56445 4.6953,-2.13477 6.9375,-5.49023 11.3457,11.3457 -5.4902,6.9375 -2.1348,4.69727 -1.5625,15.8164 7.4512,4.30274 12.9179,-9.26172 2.9981,-4.19727 3.2637,-8.22265 15.498,4.15234 -1.2851,8.75195 0.5,5.13477 6.5546,14.48047 h 8.6036 l 6.5566,-14.48047 0.498,-5.13477 -1.2851,-8.75195 15.498,-4.15234 3.2637,8.22265 3,4.19727 12.916,9.26172 7.4512,-4.30274 -1.5625,-15.8164 -2.1348,-4.69727 -5.4902,-6.9375 11.3457,-11.3457 6.9375,5.49023 4.6973,2.13477 15.8164,1.56445 4.3027,-7.45312 -9.2617,-12.91602 -4.1973,-3 -8.2226,-3.26367 4.1523,-15.49805 8.752,1.28516 5.1347,-0.49805 14.4805,-6.55469 v -8.60547 l -14.4805,-6.55468 -5.1347,-0.5 -8.752,1.28515 -4.1523,-15.49804 8.2226,-3.26368 4.1973,-2.99804 9.2617,-12.91797 -4.3027,-7.45122 -15.8164,1.56255 -4.6973,2.13476 -6.9375,5.49024 -11.3457,-11.34575 5.4902,-6.9375 2.1348,-4.6953 1.5625,-15.8183 -7.4512,-4.3028 -12.916,9.2637 -3,4.1953 -3.2637,8.2246 -15.498,-4.1523 1.2851,-8.7539 -0.498,-5.1348 -6.5566,-14.4805 z m 3.9122,43.4512 a 53.499999,53.499999 0 0 1 0.3906,0 53.499999,53.499999 0 0 1 53.5,53.50002 53.499999,53.499999 0 0 1 -53.5,53.5 53.499999,53.499999 0 0 1 -53.5,-53.5 53.499999,53.499999 0 0 1 53.1094,-53.50002 z"
               transform="scale(0.26458333)" />
            <path
               id="path4520"
               style="fill:#b28261;fill-opacity:1;stroke:none;stroke-width:0.0643235;stroke-miterlimit:4;stroke-dasharray:none;stroke-dashoffset:0;stroke-opacity:1"
               d="m 505.11177,-250.80563 a 3.7307554,3.7307554 0 0 1 -3.73076,3.73076 3.7307554,3.7307554 0 0 1 -3.73075,-3.73076 3.7307554,3.7307554 0 0 1 3.73075,-3.73075 3.7307554,3.7307554 0 0 1 3.73076,3.73075 z" />
          </g>
          <g
             id="g4528"
             transform="matrix(0.50404175,0,0,0.50404175,448.46542,-0.91059354)">
            <path
               id="path4524"
               style="fill:#b28261;fill-opacity:1;stroke:none;stroke-width:4.35538;stroke-opacity:1"
               d="m 1890.6816,-1044.877 -6.5546,14.4805 -0.5,5.1348 1.2851,8.7539 -15.498,4.1523 -3.2637,-8.2246 -2.9981,-4.1953 -12.9179,-9.2637 -7.4512,4.3028 1.5625,15.8183 2.1348,4.6953 5.4902,6.9375 -11.3457,11.34575 -6.9375,-5.49024 -4.6953,-2.13476 -15.8184,-1.56255 -4.3027,7.45122 9.2637,12.91797 4.1953,2.99804 8.2246,3.26368 -4.1543,15.49804 -8.752,-1.28515 -5.1347,0.5 -14.4805,6.55468 v 8.60547 l 14.4805,6.55469 5.1347,0.49805 8.752,-1.28516 4.1543,15.49805 -8.2246,3.26367 -4.1953,3 -9.2637,12.91602 4.3027,7.45312 15.8184,-1.56445 4.6953,-2.13477 6.9375,-5.49023 11.3457,11.3457 -5.4902,6.9375 -2.1348,4.69727 -1.5625,15.8164 7.4512,4.30274 12.9179,-9.26172 2.9981,-4.19727 3.2637,-8.22265 15.498,4.15234 -1.2851,8.75195 0.5,5.13477 6.5546,14.48047 h 8.6036 l 6.5566,-14.48047 0.498,-5.13477 -1.2851,-8.75195 15.498,-4.15234 3.2637,8.22265 3,4.19727 12.916,9.26172 7.4512,-4.30274 -1.5625,-15.8164 -2.1348,-4.69727 -5.4902,-6.9375 11.3457,-11.3457 6.9375,5.49023 4.6973,2.13477 15.8164,1.56445 4.3027,-7.45312 -9.2617,-12.91602 -4.1973,-3 -8.2226,-3.26367 4.1523,-15.49805 8.752,1.28516 5.1347,-0.49805 14.4805,-6.55469 v -8.60547 l -14.4805,-6.55468 -5.1347,-0.5 -8.752,1.28515 -4.1523,-15.49804 8.2226,-3.26368 4.1973,-2.99804 9.2617,-12.91797 -4.3027,-7.45122 -15.8164,1.56255 -4.6973,2.13476 -6.9375,5.49024 -11.3457,-11.34575 5.4902,-6.9375 2.1348,-4.6953 1.5625,-15.8183 -7.4512,-4.3028 -12.916,9.2637 -3,4.1953 -3.2637,8.2246 -15.498,-4.1523 1.2851,-8.7539 -0.498,-5.1348 -6.5566,-14.4805 z m 3.9122,43.4512 a 53.499999,53.499999 0 0 1 0.3906,0 53.499999,53.499999 0 0 1 53.5,53.50002 53.499999,53.499999 0 0 1 -53.5,53.5 53.499999,53.499999 0 0 1 -53.5,-53.5 53.499999,53.499999 0 0 1 53.1094,-53.50002 z"
               transform="scale(0.26458333)" />
            <path
               id="path4526"
               style="fill:#b28261;fill-opacity:1;stroke:none;stroke-width:0.0643235;stroke-miterlimit:4;stroke-dasharray:none;stroke-dashoffset:0;stroke-opacity:1"
               d="m 505.11177,-250.80563 a 3.7307554,3.7307554 0 0 1 -3.73076,3.73076 3.7307554,3.7307554 0 0 1 -3.73075,-3.73076 3.7307554,3.7307554 0 0 1 3.73075,-3.73075 3.7307554,3.7307554 0 0 1 3.73076,3.73075 z" />
          </g>
        </g>
        <g
           id="g4552"
           transform="matrix(0.75995549,0,0,0.75995549,151.87713,-18.443169)">
          <path
             id="rect4532"
             style="fill:#b28261;stroke-width:4.73305"
             d="m 396.93933,-122.7475 h 406.48221 v 79.360285 H 396.93933 Z" />
          <g
             aria-label="BELLSWORNE"
             id="text4536"
             style="font-size:64.8035px;line-height:1.25;-inkscape-font-specification:sans-serif;letter-spacing:2.27706px;stroke-width:0.675035">
            <path
               d="m 476.91639,-59.25206 v -47.63057 h 7.12838 q 3.629,0 6.25354,1.29607 2.65694,1.26367 4.08262,3.98541 1.45808,2.721751 1.45808,7.031184 0,3.434585 -0.90725,5.994324 -0.87485,2.559738 -3.43459,4.179825 2.59214,1.425677 3.7262,4.536245 1.13407,3.078166 1.13407,7.128385 0,3.985415 -1.29607,7.031179 -1.26367,3.045764 -3.75861,4.763057 -2.46253,1.684891 -6.09153,1.684891 z m 6.99877,-6.933974 q 3.17538,0 4.17983,-1.879302 1.00445,-1.911703 1.00445,-5.443493 0,-3.596594 -1.00445,-5.443494 -1.00445,-1.879302 -4.17983,-1.879302 z m 0,-21.061137 q 2.94856,0 4.05022,-1.620087 1.13406,-1.620088 1.13406,-4.795459 0,-3.207773 -1.16646,-4.730655 -1.13406,-1.555284 -4.01782,-1.555284 z"
               style="font-family:'League Gothic';-inkscape-font-specification:'League Gothic';text-align:center;text-anchor:middle"
               id="path343" />
            <path
               d="m 502.78194,-59.25206 v -47.63057 h 16.00646 v 7.193188 h -9.00768 v 12.831092 h 6.48035 v 6.998778 h -6.48035 v 13.414324 h 9.00768 v 7.193188 z"
               style="font-family:'League Gothic';-inkscape-font-specification:'League Gothic';text-align:center;text-anchor:middle"
               id="path345" />
            <path
               d="m 526.24972,-59.25206 v -47.63057 h 6.99878 v 41.15022 h 9.2669 v 6.48035 z"
               style="font-family:'League Gothic';-inkscape-font-specification:'League Gothic';text-align:center;text-anchor:middle"
               id="path347" />
            <path
               d="m 547.64382,-59.25206 v -47.63057 h 6.99878 v 41.15022 h 9.2669 v 6.48035 z"
               style="font-family:'League Gothic';-inkscape-font-specification:'League Gothic';text-align:center;text-anchor:middle"
               id="path349" />
            <path
               d="m 577.46237,-58.733632 q -2.88376,0 -4.79546,-0.939651 -1.9117,-0.972052 -3.01336,-2.78655 -1.10166,-1.814498 -1.58769,-4.374236 -0.45362,-2.559738 -0.45362,-5.767511 l 6.86917,-0.648035 q 0,1.555284 0.0972,3.013362 0.12961,1.425677 0.42123,2.59214 0.32401,1.134061 0.90725,1.814498 0.61563,0.680437 1.55528,0.680437 1.55528,0 2.20332,-1.425677 0.64803,-1.458079 0.64803,-3.499389 0,-2.04131 -1.06925,-4.244629 -1.06926,-2.203319 -2.55974,-4.179826 -2.52734,-3.369781 -4.43904,-6.253537 -1.8793,-2.883756 -2.94856,-5.670306 -1.03686,-2.786551 -1.03686,-5.832315 0,-2.397729 0.61564,-4.406633 0.61563,-2.04131 1.78209,-3.5318 1.19887,-1.52288 2.88376,-2.36532 1.68489,-0.84245 3.85581,-0.84245 2.68934,0 4.53624,0.90725 1.8793,0.90725 3.01336,2.59214 1.16647,1.68489 1.68489,4.017817 0.55083,2.300524 0.55083,5.119477 l -6.86917,0.648035 q 0,-1.198865 -0.1296,-2.39773 -0.0972,-1.231266 -0.38882,-2.235721 -0.29162,-1.004454 -0.84245,-1.620088 -0.55083,-0.61563 -1.42568,-0.61563 -1.36087,0 -1.8793,1.166461 -0.51843,1.134061 -0.51843,3.240175 0,2.721746 1.45808,5.249083 1.45808,2.527336 3.92061,5.897118 2.94856,3.985415 4.79546,7.322795 1.8793,3.33738 1.8793,7.387599 0,2.559738 -0.55083,4.763057 -0.55083,2.170917 -1.74969,3.791005 -1.16646,1.620087 -3.01336,2.527336 -1.8145,0.907249 -4.40664,0.907249 z"
               style="font-family:'League Gothic';-inkscape-font-specification:'League Gothic';text-align:center;text-anchor:middle"
               id="path351" />
            <path
               d="m 598.01398,-59.25206 -6.41555,-47.63057 h 6.48035 l 2.78655,24.754936 0.12961,1.555283 h 0.51843 l 0.19441,-1.555283 2.98096,-24.754936 h 5.05467 l 2.98096,24.754936 0.19441,1.555283 h 0.51843 l 0.12961,-1.555283 2.78655,-24.754936 h 6.48035 l -6.41555,47.63057 h -5.44349 l -3.24018,-22.551617 -0.38882,-2.78655 h -0.25921 l -0.38882,2.78655 -3.24018,22.551617 z"
               style="font-family:'League Gothic';-inkscape-font-specification:'League Gothic';text-align:center;text-anchor:middle"
               id="path353" />
            <path
               d="m 637.68259,-58.733632 q -2.91616,0 -5.02227,-1.360873 -2.07372,-1.360874 -3.20778,-3.6938 -1.10166,-2.332926 -1.10166,-5.249083 v -28.059914 q 0,-2.948558 1.10166,-5.249088 1.13406,-2.33292 3.20778,-3.69379 2.10611,-1.36088 5.02227,-1.36088 2.91615,0 4.98987,1.36088 2.10611,1.36087 3.20777,3.69379 1.13406,2.33293 1.13406,5.249088 v 28.059914 q 0,2.916157 -1.13406,5.249083 -1.10166,2.332926 -3.20777,3.6938 -2.07372,1.360873 -4.98987,1.360873 z m 0,-6.804367 q 1.29607,0 1.8145,-1.069258 0.51842,-1.101659 0.51842,-2.430131 v -28.059914 q 0,-1.328472 -0.55083,-2.39773 -0.55083,-1.101658 -1.78209,-1.101658 -1.19887,0 -1.7821,1.101658 -0.55083,1.069258 -0.55083,2.39773 v 28.059914 q 0,1.328472 0.55083,2.430131 0.55083,1.069258 1.7821,1.069258 z"
               style="font-family:'League Gothic';-inkscape-font-specification:'League Gothic';text-align:center;text-anchor:middle"
               id="path355" />
            <path
               d="m 654.1516,-59.25206 v -47.63057 h 6.99878 q 6.28594,0 9.2669,3.49939 2.98096,3.466985 2.98096,10.238951 0,4.017817 -1.42568,6.966376 -1.39327,2.916157 -3.40218,4.277031 l 4.76306,22.648822 h -6.99878 l -3.95302,-20.089084 h -1.23126 v 20.089084 z m 6.99878,-26.569434 q 1.9441,0 3.07816,-0.842445 1.13407,-0.874848 1.62009,-2.462533 0.48603,-1.587686 0.48603,-3.758603 0,-3.402184 -1.13406,-5.216682 -1.10166,-1.846899 -4.05022,-1.846899 z"
               style="font-family:'League Gothic';-inkscape-font-specification:'League Gothic';text-align:center;text-anchor:middle"
               id="path357" />
            <path
               d="m 679.56354,-59.25206 v -47.63057 h 6.54516 l 6.48035,24.819739 0.58323,2.203319 h 0.38882 v -27.023058 h 6.41554 v 47.63057 h -5.89711 l -7.12839,-24.819739 -0.58323,-2.203319 h -0.38882 v 27.023058 z"
               style="font-family:'League Gothic';-inkscape-font-specification:'League Gothic';text-align:center;text-anchor:middle"
               id="path359" />
            <path
               d="m 707.43801,-59.25206 v -47.63057 h 16.00646 v 7.193188 h -9.00768 v 12.831092 h 6.48035 v 6.998778 h -6.48035 v 13.414324 h 9.00768 v 7.193188 z"
               style="font-family:'League Gothic';-inkscape-font-specification:'League Gothic';text-align:center;text-anchor:middle"
               id="path361" />
          </g>
          <g
             id="g4550"
             transform="translate(-0.42398982,-0.51755261)">
            <g
               id="g4542"
               style="opacity:1">
              <path
                 style="color:#000000;font-style:normal;font-variant:normal;font-weight:normal;font-stretch:normal;font-size:medium;line-height:normal;font-family:sans-serif;font-variant-ligatures:normal;font-variant-position:normal;font-variant-caps:normal;font-variant-numeric:normal;font-variant-alternates:normal;font-variant-east-asian:normal;font-feature-settings:normal;font-variation-settings:normal;text-indent:0;text-align:start;text-decoration:none;text-decoration-line:none;text-decoration-style:solid;text-decoration-color:#000000;letter-spacing:normal;word-spacing:normal;text-transform:none;writing-mode:lr-tb;direction:ltr;text-orientation:mixed;dominant-baseline:auto;baseline-shift:baseline;text-anchor:start;white-space:normal;shape-padding:0;shape-margin:0;inline-size:0;clip-rule:nonzero;display:inline;overflow:visible;visibility:visible;isolation:auto;mix-blend-mode:normal;color-interpolation:sRGB;color-interpolation-filters:linearRGB;solid-color:#000000;solid-opacity:1;vector-effect:none;fill:#b28261;fill-opacity:1;fill-rule:nonzero;stroke:none;stroke-width:1.32292;stroke-linecap:butt;stroke-linejoin:miter;stroke-miterlimit:4;stroke-dasharray:5.29167, 2.64583;stroke-dashoffset:0;stroke-opacity:1;color-rendering:auto;image-rendering:auto;shape-rendering:auto;text-rendering:auto;enable-background:accumulate;stop-color:#000000;stop-opacity:1"
                 d="m 397.40416,-114.3 h 406.4"
                 id="path4538" />
              <path
                 style="color:#000000;font-style:normal;font-variant:normal;font-weight:normal;font-stretch:normal;font-size:medium;line-height:normal;font-family:sans-serif;font-variant-ligatures:normal;font-variant-position:normal;font-variant-caps:normal;font-variant-numeric:normal;font-variant-alternates:normal;font-variant-east-asian:normal;font-feature-settings:normal;font-variation-settings:normal;text-indent:0;text-align:start;text-decoration:none;text-decoration-line:none;text-decoration-style:solid;text-decoration-color:#000000;letter-spacing:normal;word-spacing:normal;text-transform:none;writing-mode:lr-tb;direction:ltr;text-orientation:mixed;dominant-baseline:auto;baseline-shift:baseline;text-anchor:start;white-space:normal;shape-padding:0;shape-margin:0;inline-size:0;clip-rule:nonzero;display:inline;overflow:visible;visibility:visible;isolation:auto;mix-blend-mode:normal;color-interpolation:sRGB;color-interpolation-filters:linearRGB;solid-color:#000000;solid-opacity:1;vector-effect:none;fill:#000000;fill-opacity:1;fill-rule:nonzero;stroke:none;stroke-linecap:butt;stroke-linejoin:miter;stroke-miterlimit:4;stroke-dasharray:5.29167, 2.64583;stroke-dashoffset:0;stroke-opacity:1;color-rendering:auto;image-rendering:auto;shape-rendering:auto;text-rendering:auto;enable-background:accumulate;stop-color:#000000;stop-opacity:1"
                 d="m 397.4043,-114.96094 v 1.32227 h 5.29101 v -1.32227 z m 7.9375,0 v 1.32227 h 5.29101 v -1.32227 z m 7.9375,0 v 1.32227 h 5.29101 v -1.32227 z m 7.9375,0 v 1.32227 h 5.29101 v -1.32227 z m 7.9375,0 v 1.32227 h 5.29101 v -1.32227 z m 7.9375,0 v 1.32227 h 5.29101 v -1.32227 z m 7.9375,0 v 1.32227 h 5.29101 v -1.32227 z m 7.9375,0 v 1.32227 h 5.29101 v -1.32227 z m 7.9375,0 v 1.32227 h 5.29101 v -1.32227 z m 7.9375,0 v 1.32227 h 5.29101 v -1.32227 z m 7.9375,0 v 1.32227 h 5.29101 v -1.32227 z m 7.9375,0 v 1.32227 h 5.29101 v -1.32227 z m 7.9375,0 v 1.32227 h 5.29101 v -1.32227 z m 7.9375,0 v 1.32227 h 5.29101 v -1.32227 z m 7.9375,0 v 1.32227 h 5.29101 v -1.32227 z m 7.9375,0 v 1.32227 h 5.29101 v -1.32227 z m 7.9375,0 v 1.32227 h 5.29101 v -1.32227 z m 7.9375,0 v 1.32227 h 5.29101 v -1.32227 z m 7.9375,0 v 1.32227 h 5.29101 v -1.32227 z m 7.9375,0 v 1.32227 h 5.29101 v -1.32227 z m 7.9375,0 v 1.32227 h 5.29101 v -1.32227 z m 7.9375,0 v 1.32227 h 5.29101 v -1.32227 z m 7.9375,0 v 1.32227 h 5.29101 v -1.32227 z m 7.9375,0 v 1.32227 h 5.29101 v -1.32227 z m 7.9375,0 v 1.32227 h 5.29101 v -1.32227 z m 7.9375,0 v 1.32227 h 5.29101 v -1.32227 z m 7.9375,0 v 1.32227 h 5.29101 v -1.32227 z m 7.9375,0 v 1.32227 h 5.29101 v -1.32227 z m 7.9375,0 v 1.32227 h 5.29101 v -1.32227 z m 7.9375,0 v 1.32227 h 5.29101 v -1.32227 z m 7.9375,0 v 1.32227 h 5.29101 v -1.32227 z m 7.9375,0 v 1.32227 h 5.29101 v -1.32227 z m 7.9375,0 v 1.32227 h 5.29101 v -1.32227 z m 7.9375,0 v 1.32227 h 5.29101 v -1.32227 z m 7.9375,0 v 1.32227 h 5.29101 v -1.32227 z m 7.9375,0 v 1.32227 h 5.29101 v -1.32227 z m 7.9375,0 v 1.32227 h 5.29101 v -1.32227 z m 7.9375,0 v 1.32227 h 5.29101 v -1.32227 z m 7.9375,0 v 1.32227 h 5.29101 v -1.32227 z m 7.9375,0 v 1.32227 h 5.29101 v -1.32227 z m 7.9375,0 v 1.32227 h 5.29101 v -1.32227 z m 7.9375,0 v 1.32227 h 5.29101 v -1.32227 z m 7.9375,0 v 1.32227 h 5.29101 v -1.32227 z m 7.9375,0 v 1.32227 h 5.29101 v -1.32227 z m 7.9375,0 v 1.32227 h 5.29101 v -1.32227 z m 7.9375,0 v 1.32227 h 5.29101 v -1.32227 z m 7.9375,0 v 1.32227 h 5.29101 v -1.32227 z m 7.9375,0 v 1.32227 h 5.29101 v -1.32227 z m 7.9375,0 v 1.32227 h 5.29101 v -1.32227 z m 7.9375,0 v 1.32227 h 5.29101 v -1.32227 z m 7.9375,0 v 1.32227 h 5.29101 v -1.32227 z m 7.9375,0 v 1.32227 h 1.58789 v -1.32227 z"
                 id="path4540" />
            </g>
            <g
               id="g4548"
               style="opacity:1"
               transform="translate(0,63.500003)">
              <path
                 style="color:#000000;font-style:normal;font-variant:normal;font-weight:normal;font-stretch:normal;font-size:medium;line-height:normal;font-family:sans-serif;font-variant-ligatures:normal;font-variant-position:normal;font-variant-caps:normal;font-variant-numeric:normal;font-variant-alternates:normal;font-variant-east-asian:normal;font-feature-settings:normal;font-variation-settings:normal;text-indent:0;text-align:start;text-decoration:none;text-decoration-line:none;text-decoration-style:solid;text-decoration-color:#000000;letter-spacing:normal;word-spacing:normal;text-transform:none;writing-mode:lr-tb;direction:ltr;text-orientation:mixed;dominant-baseline:auto;baseline-shift:baseline;text-anchor:start;white-space:normal;shape-padding:0;shape-margin:0;inline-size:0;clip-rule:nonzero;display:inline;overflow:visible;visibility:visible;isolation:auto;mix-blend-mode:normal;color-interpolation:sRGB;color-interpolation-filters:linearRGB;solid-color:#000000;solid-opacity:1;vector-effect:none;fill:#b28261;fill-opacity:1;fill-rule:nonzero;stroke:none;stroke-width:1.32292;stroke-linecap:butt;stroke-linejoin:miter;stroke-miterlimit:4;stroke-dasharray:5.29167, 2.64583;stroke-dashoffset:0;stroke-opacity:1;color-rendering:auto;image-rendering:auto;shape-rendering:auto;text-rendering:auto;enable-background:accumulate;stop-color:#000000;stop-opacity:1"
                 d="m 397.40416,-114.3 h 406.4"
                 id="path4544" />
              <path
                 style="color:#000000;font-style:normal;font-variant:normal;font-weight:normal;font-stretch:normal;font-size:medium;line-height:normal;font-family:sans-serif;font-variant-ligatures:normal;font-variant-position:normal;font-variant-caps:normal;font-variant-numeric:normal;font-variant-alternates:normal;font-variant-east-asian:normal;font-feature-settings:normal;font-variation-settings:normal;text-indent:0;text-align:start;text-decoration:none;text-decoration-line:none;text-decoration-style:solid;text-decoration-color:#000000;letter-spacing:normal;word-spacing:normal;text-transform:none;writing-mode:lr-tb;direction:ltr;text-orientation:mixed;dominant-baseline:auto;baseline-shift:baseline;text-anchor:start;white-space:normal;shape-padding:0;shape-margin:0;inline-size:0;clip-rule:nonzero;display:inline;overflow:visible;visibility:visible;isolation:auto;mix-blend-mode:normal;color-interpolation:sRGB;color-interpolation-filters:linearRGB;solid-color:#000000;solid-opacity:1;vector-effect:none;fill:#000000;fill-opacity:1;fill-rule:nonzero;stroke:none;stroke-linecap:butt;stroke-linejoin:miter;stroke-miterlimit:4;stroke-dasharray:5.29167, 2.64583;stroke-dashoffset:0;stroke-opacity:1;color-rendering:auto;image-rendering:auto;shape-rendering:auto;text-rendering:auto;enable-background:accumulate;stop-color:#000000;stop-opacity:1"
                 d="m 397.4043,-114.96094 v 1.32227 h 5.29101 v -1.32227 z m 7.9375,0 v 1.32227 h 5.29101 v -1.32227 z m 7.9375,0 v 1.32227 h 5.29101 v -1.32227 z m 7.9375,0 v 1.32227 h 5.29101 v -1.32227 z m 7.9375,0 v 1.32227 h 5.29101 v -1.32227 z m 7.9375,0 v 1.32227 h 5.29101 v -1.32227 z m 7.9375,0 v 1.32227 h 5.29101 v -1.32227 z m 7.9375,0 v 1.32227 h 5.29101 v -1.32227 z m 7.9375,0 v 1.32227 h 5.29101 v -1.32227 z m 7.9375,0 v 1.32227 h 5.29101 v -1.32227 z m 7.9375,0 v 1.32227 h 5.29101 v -1.32227 z m 7.9375,0 v 1.32227 h 5.29101 v -1.32227 z m 7.9375,0 v 1.32227 h 5.29101 v -1.32227 z m 7.9375,0 v 1.32227 h 5.29101 v -1.32227 z m 7.9375,0 v 1.32227 h 5.29101 v -1.32227 z m 7.9375,0 v 1.32227 h 5.29101 v -1.32227 z m 7.9375,0 v 1.32227 h 5.29101 v -1.32227 z m 7.9375,0 v 1.32227 h 5.29101 v -1.32227 z m 7.9375,0 v 1.32227 h 5.29101 v -1.32227 z m 7.9375,0 v 1.32227 h 5.29101 v -1.32227 z m 7.9375,0 v 1.32227 h 5.29101 v -1.32227 z m 7.9375,0 v 1.32227 h 5.29101 v -1.32227 z m 7.9375,0 v 1.32227 h 5.29101 v -1.32227 z m 7.9375,0 v 1.32227 h 5.29101 v -1.32227 z m 7.9375,0 v 1.32227 h 5.29101 v -1.32227 z m 7.9375,0 v 1.32227 h 5.29101 v -1.32227 z m 7.9375,0 v 1.32227 h 5.29101 v -1.32227 z m 7.9375,0 v 1.32227 h 5.29101 v -1.32227 z m 7.9375,0 v 1.32227 h 5.29101 v -1.32227 z m 7.9375,0 v 1.32227 h 5.29101 v -1.32227 z m 7.9375,0 v 1.32227 h 5.29101 v -1.32227 z m 7.9375,0 v 1.32227 h 5.29101 v -1.32227 z m 7.9375,0 v 1.32227 h 5.29101 v -1.32227 z m 7.9375,0 v 1.32227 h 5.29101 v -1.32227 z m 7.9375,0 v 1.32227 h 5.29101 v -1.32227 z m 7.9375,0 v 1.32227 h 5.29101 v -1.32227 z m 7.9375,0 v 1.32227 h 5.29101 v -1.32227 z m 7.9375,0 v 1.32227 h 5.29101 v -1.32227 z m 7.9375,0 v 1.32227 h 5.29101 v -1.32227 z m 7.9375,0 v 1.32227 h 5.29101 v -1.32227 z m 7.9375,0 v 1.32227 h 5.29101 v -1.32227 z m 7.9375,0 v 1.32227 h 5.29101 v -1.32227 z m 7.9375,0 v 1.32227 h 5.29101 v -1.32227 z m 7.9375,0 v 1.32227 h 5.29101 v -1.32227 z m 7.9375,0 v 1.32227 h 5.29101 v -1.32227 z m 7.9375,0 v 1.32227 h 5.29101 v -1.32227 z m 7.9375,0 v 1.32227 h 5.29101 v -1.32227 z m 7.9375,0 v 1.32227 h 5.29101 v -1.32227 z m 7.9375,0 v 1.32227 h 5.29101 v -1.32227 z m 7.9375,0 v 1.32227 h 5.29101 v -1.32227 z m 7.9375,0 v 1.32227 h 5.29101 v -1.32227 z m 7.9375,0 v 1.32227 h 1.58789 v -1.32227 z"
                 id="path4546" />
            </g>
          </g>
        </g>
        <g
           id="g4562"
           transform="translate(0,-174.62505)">
          <g
             aria-label="EST. 2020"
             id="text4556"
             style="font-size:17.8852px;line-height:1.25;-inkscape-font-specification:sans-serif;letter-spacing:3.24046px;fill:#ffffff;stroke-width:1.21945">
            <path
               d="M 571.15797,12.314691 V -0.83093178 h 4.41765 V 1.1543255 h -2.48604 v 3.5412697 h 1.78852 v 1.9316016 h -1.78852 v 3.7022362 h 2.48604 v 1.985258 z"
               style="font-family:'League Gothic';-inkscape-font-specification:'League Gothic'"
               id="path364" />
            <path
               d="m 582.57196,12.457772 q -0.79589,0 -1.3235,-0.259335 -0.52761,-0.268278 -0.83166,-0.769064 -0.30405,-0.500785 -0.43819,-1.207251 -0.1252,-0.7064653 -0.1252,-1.5917827 l 1.89584,-0.178852 q 0,0.4292448 0.0268,0.8316618 0.0358,0.3934744 0.11626,0.715408 0.0894,0.3129909 0.25039,0.5007859 0.16991,0.187794 0.42924,0.187794 0.42925,0 0.6081,-0.393474 0.17885,-0.4024171 0.17885,-0.9658009 0,-0.5633838 -0.2951,-1.1714806 -0.29511,-0.6080968 -0.70647,-1.1535955 -0.69752,-0.9300304 -1.22513,-1.7259218 -0.51867,-0.7958914 -0.81378,-1.5649551 -0.28616,-0.7690636 -0.28616,-1.609668 0,-0.6617524 0.16991,-1.21619363 0.16991,-0.56338382 0.49184,-0.97474343 0.33088,-0.42030221 0.79589,-0.65280982 0.46502,-0.2325076 1.06417,-0.2325076 0.74224,0 1.25196,0.25039281 0.51867,0.2503928 0.83167,0.71540802 0.32193,0.46501521 0.46501,1.10888245 0.15202,0.6349246 0.15202,1.4129308 l -1.89583,0.178852 q 0,-0.3308762 -0.0358,-0.6617524 -0.0268,-0.3398188 -0.10731,-0.6170394 -0.0805,-0.2772206 -0.23251,-0.44713003 -0.15202,-0.1699094 -0.39347,-0.1699094 -0.37559,0 -0.51867,0.32193363 -0.14308,0.312991 -0.14308,0.89426 0,0.7511784 0.40241,1.4487012 0.40242,0.6975229 1.08206,1.6275533 0.81378,1.0999398 1.3235,2.0210276 0.51867,0.9210879 0.51867,2.0389129 0,0.7064654 -0.15202,1.3145619 -0.15202,0.599155 -0.4829,1.046285 -0.32193,0.44713 -0.83166,0.697522 -0.50079,0.250393 -1.2162,0.250393 z"
               style="font-family:'League Gothic';-inkscape-font-specification:'League Gothic'"
               id="path366" />
            <path
               d="M 590.82027,12.314691 V 1.1543255 h -1.82429 v -1.98525728 h 5.58018 V 1.1543255 h -1.82429 V 12.314691 Z"
               style="font-family:'League Gothic';-inkscape-font-specification:'League Gothic'"
               id="path368" />
            <path
               d="m 598.4605,12.314691 v -1.985258 h 1.87795 v 1.985258 z"
               style="font-family:'League Gothic';-inkscape-font-specification:'League Gothic'"
               id="path370" />
            <path
               d="m 610.66467,12.314691 v -1.913717 q 0.61704,-0.9479155 1.19831,-1.9941997 0.58126,-1.0462842 1.04628,-2.1015111 0.47396,-1.0641694 0.75118,-2.056798 0.27722,-0.9926287 0.27722,-1.8242905 0,-0.5902116 -0.11626,-1.0999398 -0.11625,-0.50972823 -0.52761,-0.50972823 -0.41136,0 -0.52761,0.50972823 -0.11626,0.5007856 -0.11626,1.0999398 v 0.9121452 h -1.9316 V 2.4241747 q 0,-0.7869488 0.13414,-1.4129308 0.14308,-0.63492464 0.44713,-1.07311206 0.30405,-0.44713001 0.79589,-0.67963762 0.49185,-0.2325076 1.19831,-0.2325076 0.70647,0 1.19831,0.2325076 0.49184,0.23250761 0.79589,0.66175242 0.30405,0.42924482 0.43819,1.03734163 0.14308,0.59915423 0.14308,1.34139003 0,0.8853174 -0.26828,1.9137165 -0.25933,1.0194564 -0.69752,2.101511 -0.42925,1.0731121 -0.9658,2.1193963 -0.53656,1.0373416 -1.091,1.9673719 h 3.05837 v 1.913717 z"
               style="font-family:'League Gothic';-inkscape-font-specification:'League Gothic'"
               id="path372" />
            <path
               d="m 622.93717,12.457772 q -0.82272,0 -1.40399,-0.375589 -0.57233,-0.375589 -0.87637,-1.019456 -0.29511,-0.65281 -0.29511,-1.4487017 V 1.8697335 q 0,-0.804834 0.30405,-1.44870124 0.31299,-0.64386722 0.89426,-1.01945643 0.58127,-0.37558921 1.37716,-0.37558921 0.80483,0 1.37716,0.38453181 0.58127,0.37558921 0.88532,1.01945643 0.31299,0.64386724 0.31299,1.43975864 v 7.7442918 q 0,0.7958917 -0.31299,1.4487017 -0.31299,0.643867 -0.89426,1.019456 -0.57233,0.375589 -1.36822,0.375589 z m 0,-1.877946 q 0.33982,0 0.49184,-0.286163 0.15203,-0.2951059 0.15203,-0.6796377 V 1.8697335 q 0,-0.3934744 -0.15203,-0.6796376 -0.15202,-0.28616323 -0.49184,-0.28616323 -0.33982,0 -0.49184,0.30404843 -0.15203,0.2951058 -0.15203,0.6617524 v 7.7442918 q 0,0.3845318 0.15203,0.6796377 0.15202,0.286163 0.49184,0.286163 z"
               style="font-family:'League Gothic';-inkscape-font-specification:'League Gothic'"
               id="path374" />
            <path
               d="m 629.96929,12.314691 v -1.913717 q 0.61704,-0.9479155 1.19831,-1.9941997 0.58127,-1.0462842 1.04629,-2.1015111 0.47395,-1.0641694 0.75117,-2.056798 0.27723,-0.9926287 0.27723,-1.8242905 0,-0.5902116 -0.11626,-1.0999398 -0.11625,-0.50972823 -0.52761,-0.50972823 -0.41136,0 -0.52762,0.50972823 -0.11625,0.5007856 -0.11625,1.0999398 v 0.9121452 h -1.9316 V 2.4241747 q 0,-0.7869488 0.13414,-1.4129308 0.14308,-0.63492464 0.44713,-1.07311206 0.30405,-0.44713001 0.79589,-0.67963762 0.49184,-0.2325076 1.19831,-0.2325076 0.70646,0 1.19831,0.2325076 0.49184,0.23250761 0.79589,0.66175242 0.30405,0.42924482 0.43819,1.03734163 0.14308,0.59915423 0.14308,1.34139003 0,0.8853174 -0.26828,1.9137165 -0.25934,1.0194564 -0.69752,2.101511 -0.42925,1.0731121 -0.9658,2.1193963 -0.53656,1.0373416 -1.091,1.9673719 h 3.05837 v 1.913717 z"
               style="font-family:'League Gothic';-inkscape-font-specification:'League Gothic'"
               id="path376" />
            <path
               d="m 642.24179,12.457772 q -0.82272,0 -1.40399,-0.375589 -0.57232,-0.375589 -0.87637,-1.019456 -0.29511,-0.65281 -0.29511,-1.4487017 V 1.8697335 q 0,-0.804834 0.30405,-1.44870124 0.31299,-0.64386722 0.89426,-1.01945643 0.58127,-0.37558921 1.37716,-0.37558921 0.80484,0 1.37716,0.38453181 0.58127,0.37558921 0.88532,1.01945643 0.31299,0.64386724 0.31299,1.43975864 v 7.7442918 q 0,0.7958917 -0.31299,1.4487017 -0.31299,0.643867 -0.89426,1.019456 -0.57233,0.375589 -1.36822,0.375589 z m 0,-1.877946 q 0.33982,0 0.49184,-0.286163 0.15203,-0.2951059 0.15203,-0.6796377 V 1.8697335 q 0,-0.3934744 -0.15203,-0.6796376 -0.15202,-0.28616323 -0.49184,-0.28616323 -0.33982,0 -0.49184,0.30404843 -0.15203,0.2951058 -0.15203,0.6617524 v 7.7442918 q 0,0.3845318 0.15203,0.6796377 0.15202,0.286163 0.49184,0.286163 z"
               style="font-family:'League Gothic';-inkscape-font-specification:'League Gothic'"
               id="path378" />
          </g>
          <path
             id="rect4558"
             style="opacity:1;fill:#ffffff;stroke-width:1.32292"
             d="m 555.8725,4.245172 h 8.98025 v 2.9934187 h -8.98025 z" />
          <path
             id="rect4560"
             style="fill:#ffffff;stroke-width:1.32292"
             d="m 651.12231,4.245172 h 8.98026 v 2.9934187 h -8.98026 z" />
        </g>
        <g
           id="g4570"
           transform="translate(-2.9934232,2.7489686)">
          <path
             id="path4564"
             style="opacity:1;fill:#69b261;fill-opacity:1;stroke:none;stroke-width:1.17711;stroke-miterlimit:4;stroke-dasharray:none;stroke-dashoffset:0;stroke-opacity:1"
             d="m 536.20529,-1.7929996 c -0.30975,0 -0.55912,0.24937 -0.55912,0.559125 v 8.386882 h -31.15653 l 16.19303,19.7827236 -14.63934,17.884677 h 36.65766 c 0.30976,0 0.55912,-0.24937 0.55912,-0.55913 v -8.386877 h 135.4417 v 8.386877 c 0,0.30976 0.24936,0.55913 0.55913,0.55913 h 36.65765 L 701.27925,26.935731 717.4723,7.1530074 h -31.15654 v -8.386882 c 0,-0.309755 -0.24936,-0.559125 -0.55913,-0.559125 z" />
          <g
             aria-label="FARM"
             id="text4568"
             style="font-size:34.6098px;line-height:1.25;-inkscape-font-specification:sans-serif;letter-spacing:5.03022px;stroke-width:2.35975">
            <path
               d="M 578.32629,30.543947 V 5.1057454 H 587.221 V 8.947433 h -5.15686 v 6.679691 h 3.46098 v 3.841688 h -3.46098 v 11.075135 z"
               style="font-family:'League Gothic';-inkscape-font-specification:'League Gothic'"
               id="path383" />
            <path
               d="m 592.99536,30.543947 3.84168,-25.4382016 h 4.5685 l 3.84168,25.4382016 h -3.63402 l -0.6922,-5.19147 h -3.59942 l -0.6922,5.19147 z m 4.84537,-9.136987 h 2.56112 l -1.0729,-8.54862 -0.10383,-1.349782 h -0.20766 l -0.10383,1.349782 z"
               style="font-family:'League Gothic';-inkscape-font-specification:'League Gothic'"
               id="path385" />
            <path
               d="M 612.26751,30.543947 V 5.1057454 h 3.73785 q 3.35715,0 4.94921,1.8689291 1.59205,1.8516242 1.59205,5.4683485 0,2.145807 -0.76142,3.720553 -0.74411,1.557441 -1.81701,2.284247 l 2.54382,12.096124 h -3.73786 l -2.1112,-10.729037 h -0.65759 v 10.729037 z m 3.73785,-14.190017 q 1.0383,0 1.64397,-0.449928 0.60567,-0.467232 0.86524,-1.315172 0.25958,-0.84794 0.25958,-2.007368 0,-1.817015 -0.60567,-2.7860889 -0.58837,-0.9863793 -2.16312,-0.9863793 z"
               style="font-family:'League Gothic';-inkscape-font-specification:'League Gothic'"
               id="path387" />
            <path
               d="M 629.65343,30.543947 V 5.1057454 h 4.74155 l 2.04198,13.1863336 0.17304,1.349782 h 0.0692 l 0.17305,-1.349782 2.04198,-13.1863336 h 4.74154 V 30.543947 h -3.46098 v -17.06263 h -0.20766 l -0.13843,1.072903 -2.21503,15.989727 h -1.93815 l -2.21503,-15.989727 -0.13844,-1.072903 h -0.20766 v 17.06263 z"
               style="font-family:'League Gothic';-inkscape-font-specification:'League Gothic'"
               id="path389" />
          </g>
        </g>
      </g>
    </g>
  </g>
</svg>
