<?xml version="1.0" encoding="UTF-8" standalone="no"?>
<svg
   sodipodi:docname="bellsworne.svg"
   inkscape:version="1.2.2 (b0a8486541, 2022-12-01)"
   id="svg8"
   version="1.1"
   viewBox="0 0 634.99999 545.22061"
   height="2060.6763"
   width="2400"
   inkscape:export-filename="D:\Bellsworne\bellsworne-banner-v1.png"
   inkscape:export-xdpi="95.800003"
   inkscape:export-ydpi="95.800003"
   xmlns:inkscape="http://www.inkscape.org/namespaces/inkscape"
   xmlns:sodipodi="http://sodipodi.sourceforge.net/DTD/sodipodi-0.dtd"
   xmlns="http://www.w3.org/2000/svg"
   xmlns:svg="http://www.w3.org/2000/svg"
   xmlns:rdf="http://www.w3.org/1999/02/22-rdf-syntax-ns#"
   xmlns:cc="http://creativecommons.org/ns#"
   xmlns:dc="http://purl.org/dc/elements/1.1/">
  <defs
     id="defs2" />
  <sodipodi:namedview
     id="base"
     pagecolor="#ffffff"
     bordercolor="#666666"
     borderopacity="1.0"
     inkscape:pageopacity="0"
     inkscape:pageshadow="2"
     inkscape:zoom="0.034370457"
     inkscape:cx="-35844.737"
     inkscape:cy="-1862.0643"
     inkscape:document-units="px"
     inkscape:current-layer="layer8"
     inkscape:document-rotation="0"
     showgrid="false"
     inkscape:showpageshadow="false"
     showborder="false"
     units="px"
     inkscape:window-width="1920"
     inkscape:window-height="1016"
     inkscape:window-x="0"
     inkscape:window-y="0"
     inkscape:window-maximized="1"
     inkscape:snap-nodes="true"
     inkscape:snap-smooth-nodes="true"
     inkscape:snap-midpoints="false"
     inkscape:snap-intersection-paths="false"
     inkscape:object-paths="false"
     inkscape:snap-text-baseline="false"
     inkscape:snap-others="false"
     inkscape:object-nodes="false"
     inkscape:snap-bbox="false"
     inkscape:bbox-nodes="false"
     inkscape:snap-bbox-edge-midpoints="false"
     inkscape:snap-bbox-midpoints="false"
     inkscape:snap-global="true"
     inkscape:snap-object-midpoints="false"
     inkscape:pagecheckerboard="0"
     inkscape:deskcolor="#d1d1d1" />
  <metadata
     id="metadata5">
    <rdf:RDF>
      <cc:Work
         rdf:about="">
        <dc:format>image/svg+xml</dc:format>
        <dc:type
           rdf:resource="http://purl.org/dc/dcmitype/StillImage" />
        <dc:title />
      </cc:Work>
    </rdf:RDF>
  </metadata>
  <g
     inkscape:label="Layer 1"
     inkscape:groupmode="layer"
     id="layer1"
     transform="translate(9030.7551,544.42699)">
    <rect
       style="fill:#2b2b2b;stroke-width:2.02921"
       id="rect1198"
       width="2224.6807"
       height="4715.4028"
       x="-10267.952"
       y="-2775.6255"
       ry="1.4313874" />
    <g
       id="g3780"
       transform="matrix(2.0556247,0,0,2.0556247,1504.2562,-1919.2277)">
      <ellipse
         style="fill:#ff0000;fill-opacity:1;stroke:none;stroke-width:0.264583;stroke-miterlimit:4;stroke-dasharray:none;stroke-dashoffset:0;stroke-opacity:1"
         id="ellipse3703"
         cx="-4968.9019"
         cy="846.47443"
         rx="64.215721"
         ry="39.6875" />
      <path
         style="fill:#b28261;fill-opacity:1;stroke:none;stroke-width:0.264583px;stroke-linecap:butt;stroke-linejoin:miter;stroke-opacity:1"
         d="m -4816.0601,831.57138 -49.1788,28.39343 2.6996,-40.74249 39.1583,-0.79375 z"
         id="path3705" />
      <path
         style="fill:#b28261;fill-opacity:1;stroke:none;stroke-width:0.264583px;stroke-linecap:butt;stroke-linejoin:miter;stroke-opacity:1"
         d="m -5124.9684,771.2611 42.3846,-24.47075 -1.6763,43.3278 -34.925,-6.61458 -5.7833,-12.24247"
         id="path3708" />
      <g
         id="g3714"
         transform="matrix(1.0935619,0,0,1,-5611.2996,889.72209)"
         style="fill:#2b2b2b;fill-opacity:1;stroke:none">
        <path
           sodipodi:type="star"
           style="fill:#2b2b2b;fill-opacity:1;stroke:none;stroke-width:2.64583;stroke-miterlimit:4;stroke-dasharray:none"
           id="path3710"
           sodipodi:sides="6"
           sodipodi:cx="585.96167"
           sodipodi:cy="-88.305855"
           sodipodi:r1="123.04144"
           sodipodi:r2="106.55701"
           sodipodi:arg1="0.52359878"
           sodipodi:arg2="1.0471976"
           inkscape:flatsided="true"
           inkscape:rounded="0"
           inkscape:randomized="0"
           inkscape:transform-center-x="6.6571939e-06"
           inkscape:transform-center-y="1.7657093e-06"
           d="m 692.51868,-26.785133 -106.55701,61.520721 -106.55702,-61.520722 0,-123.041446 106.55702,-61.52072 106.55702,61.52072 z" />
        <path
           sodipodi:type="star"
           style="fill:#2b2b2b;fill-opacity:1;stroke:none;stroke-width:3.83878;stroke-miterlimit:4;stroke-dasharray:none"
           id="path3712"
           sodipodi:sides="6"
           sodipodi:cx="585.96167"
           sodipodi:cy="-88.305855"
           sodipodi:r1="130.40045"
           sodipodi:r2="112.93008"
           sodipodi:arg1="0.52359878"
           sodipodi:arg2="1.0471976"
           inkscape:flatsided="true"
           inkscape:rounded="0"
           inkscape:randomized="0"
           inkscape:transform-center-x="6.1697596e-06"
           inkscape:transform-center-y="1.6364255e-06"
           d="m 698.89177,-23.105628 -112.9301,65.200225 -112.9301,-65.200226 0,-130.400451 112.9301,-65.20023 112.9301,65.20023 z" />
      </g>
      <g
         id="g3720"
         transform="matrix(1.0935619,0,0,1,-5611.2996,889.72209)"
         style="stroke:#b28261;stroke-opacity:1">
        <path
           sodipodi:type="star"
           style="fill:none;stroke:#b28261;stroke-width:2.64583;stroke-miterlimit:4;stroke-dasharray:none;stroke-opacity:1"
           id="path3716"
           sodipodi:sides="6"
           sodipodi:cx="585.96167"
           sodipodi:cy="-88.305855"
           sodipodi:r1="123.04144"
           sodipodi:r2="106.55701"
           sodipodi:arg1="0.52359878"
           sodipodi:arg2="1.0471976"
           inkscape:flatsided="true"
           inkscape:rounded="0"
           inkscape:randomized="0"
           inkscape:transform-center-x="6.6571939e-06"
           inkscape:transform-center-y="1.7657093e-06"
           d="m 692.51868,-26.785133 -106.55701,61.520721 -106.55702,-61.520722 0,-123.041446 106.55702,-61.52072 106.55702,61.52072 z" />
        <path
           sodipodi:type="star"
           style="fill:none;stroke:#b28261;stroke-width:3.83878;stroke-miterlimit:4;stroke-dasharray:none;stroke-opacity:1"
           id="path3718"
           sodipodi:sides="6"
           sodipodi:cx="585.96167"
           sodipodi:cy="-88.305855"
           sodipodi:r1="130.40045"
           sodipodi:r2="112.93008"
           sodipodi:arg1="0.52359878"
           sodipodi:arg2="1.0471976"
           inkscape:flatsided="true"
           inkscape:rounded="0"
           inkscape:randomized="0"
           inkscape:transform-center-x="6.1697596e-06"
           inkscape:transform-center-y="1.6364255e-06"
           d="m 698.89177,-23.105628 -112.9301,65.200225 -112.9301,-65.200226 0,-130.400451 112.9301,-65.20023 112.9301,65.20023 z" />
      </g>
      <path
         id="path3722"
         style="fill:#b28261;fill-opacity:1;stroke:none;stroke-width:0.936199"
         d="m -4972.6472,723.96491 -2.5453,6.08342 -0.7168,4.37749 0.1334,1.64199 -6.5699,0.86486 -0.2961,-1.61999 -1.8248,-4.04288 -4.0338,-5.21859 -4.1196,1.10445 -0.8831,6.53513 0.4406,4.414 0.5522,1.55064 -6.1219,2.53607 -0.7058,-1.48838 -2.8086,-3.4321 -5.2478,-3.99531 -3.6918,2.13199 0.8374,6.54067 1.5671,4.14884 0.9362,1.35676 -5.257,4.03195 -1.066,-1.25444 -3.6022,-2.58727 -6.1018,-2.50145 -3.0152,3.01526 2.5015,6.10174 2.5873,3.60215 1.2543,1.06602 -4.0318,5.25699 -1.3567,-0.93619 -4.149,-1.56704 -6.5406,-0.83747 -2.132,3.69179 3.9953,5.24783 3.4321,2.80859 1.4884,0.70581 -2.5361,6.12188 -1.5507,-0.55403 -4.414,-0.43883 -6.5351,0.88318 -1.1025,4.11964 5.2167,4.0337 4.0428,1.82486 1.6201,0.29617 -0.8649,6.56804 -1.642,-0.13167 -4.3775,0.71681 -6.0835,2.54526 v 4.26413 l 6.0835,2.54528 4.3775,0.7186 1.642,-0.13338 0.8649,6.56802 -1.6201,0.29793 -4.0428,1.82485 -5.2167,4.0337 1.1025,4.1178 6.5351,0.88502 4.414,-0.44067 1.5507,-0.55223 2.5361,6.12005 -1.4884,0.70581 -3.4321,2.81043 -3.9953,5.24603 2.132,3.69359 6.5406,-0.83747 4.149,-1.56885 1.3567,-0.93438 4.0318,5.25519 -1.2543,1.06781 -2.5873,3.60219 -2.5015,6.10176 3.0152,3.0152 6.1018,-2.50139 3.6022,-2.58919 1.066,-1.25436 5.257,4.0337 -0.9362,1.35496 -1.5671,4.14887 -0.8374,6.54246 3.6918,2.13202 5.2478,-3.99711 2.8086,-3.43213 0.7058,-1.48659 6.1219,2.53434 -0.5522,1.5524 -0.4406,4.4122 0.8831,6.53694 4.1196,1.1026 4.0338,-5.21673 1.8248,-4.04286 0.2961,-1.62006 6.5699,0.86489 -0.1334,1.64199 0.7168,4.37565 2.5453,6.0853 h 4.2641 l 2.5472,-6.0853 0.7167,-4.37565 -0.1334,-1.64199 6.5681,-0.86489 0.298,1.62006 1.8248,4.04286 4.0337,5.21673 4.1197,-1.1026 0.8832,-6.53694 -0.4407,-4.4122 -0.5523,-1.5524 6.1201,-2.53434 0.7077,1.48659 2.8085,3.43213 5.2461,3.99711 3.6935,-2.13202 -0.8374,-6.54246 -1.5689,-4.14887 -0.9343,-1.35496 5.2552,-4.0337 1.0678,1.25436 3.6021,2.58919 6.1018,2.50139 3.0152,-3.0152 -2.5014,-6.10176 -2.5891,-3.60219 -1.2544,-1.06781 4.0337,-5.25519 1.3549,0.93438 4.1489,1.56885 6.5425,0.83747 2.132,-3.69359 -3.9953,-5.24603 -3.4339,-2.81043 -1.4866,-0.70581 2.5343,-6.12005 1.5524,0.55223 4.4122,0.44067 6.5369,-0.88502 1.1026,-4.1178 -5.2167,-4.0337 -4.0428,-1.82485 -1.6201,-0.29793 0.8649,-6.56802 1.642,0.13338 4.3775,-0.7186 6.0834,-2.54528 v -4.26413 l -6.0834,-2.54526 -4.3775,-0.71681 -1.642,0.13167 -0.8649,-6.56804 1.6201,-0.29617 4.0428,-1.82486 5.2167,-4.0337 -1.1026,-4.11964 -6.5369,-0.88318 -4.4122,0.43883 -1.5524,0.55403 -2.5343,-6.12188 1.4866,-0.70581 3.4339,-2.80859 3.9953,-5.24783 -2.132,-3.69179 -6.5425,0.83747 -4.1489,1.56704 -1.3549,0.93619 -4.0337,-5.25699 1.2544,-1.06602 2.5891,-3.60215 2.5014,-6.10174 -3.0152,-3.01526 -6.1018,2.50145 -3.6021,2.58727 -1.0678,1.25444 -5.2552,-4.03195 0.9343,-1.35676 1.5689,-4.14884 0.8374,-6.54067 -3.6935,-2.13199 -5.2461,3.99531 -2.8085,3.4321 -0.7077,1.48838 -6.1201,-2.53607 0.5523,-1.55064 0.4407,-4.414 -0.8832,-6.53513 -4.1197,-1.10445 -4.0337,5.21859 -1.8248,4.04288 -0.298,1.61999 -6.5681,-0.86486 0.1334,-1.64199 -0.7167,-4.37749 -2.5472,-6.08342 z m 1.9145,19.19941 a 58.252468,58.252468 0 0 1 0.2176,0 58.252468,58.252468 0 0 1 58.2529,58.25105 58.252468,58.252468 0 0 1 -58.2529,58.25285 58.252468,58.252468 0 0 1 -58.2511,-58.25285 58.252468,58.252468 0 0 1 58.0335,-58.25105 z m 0.2176,2.31305 a 55.938467,55.938467 0 0 0 -55.938,55.93984 55.938467,55.938467 0 0 0 55.938,55.93796 55.938467,55.938467 0 0 0 55.9398,-55.93796 55.938467,55.938467 0 0 0 -55.9398,-55.93984 z m -0.2962,2.9786 a 52.959496,52.959496 0 0 1 0.2962,0 52.959496,52.959496 0 0 1 36.4332,14.52215 l -31.6553,31.65526 a 8.1854549,8.1854549 0 0 0 -4.4524,-1.31837 8.1854549,8.1854549 0 0 0 -4.8493,1.59083 l -31.9167,-31.91858 a 52.959496,52.959496 0 0 1 36.1442,-14.53129 z m -38.1318,16.51887 31.9606,31.96065 a 8.1854549,8.1854549 0 0 0 -1.3933,4.56581 8.1854549,8.1854549 0 0 0 1.3,4.42503 l -31.8984,31.89661 a 52.959496,52.959496 0 0 1 -14.5001,-36.40573 52.959496,52.959496 0 0 1 14.5312,-36.44237 z m 76.8671,0.0107 a 52.959496,52.959496 0 0 1 14.5222,36.43318 52.959496,52.959496 0 0 1 -14.5185,36.42588 l -31.509,-31.509 a 8.1854549,8.1854549 0 0 0 1.578,-4.83277 8.1854549,8.1854549 0 0 0 -1.6566,-4.93518 z m -43.0213,43.06705 a 8.1854549,8.1854549 0 0 0 4.9077,1.63649 8.1854549,8.1854549 0 0 0 4.5494,-1.38234 l 31.5529,31.55287 a 52.959496,52.959496 0 0 1 -36.4277,14.51843 52.959496,52.959496 0 0 1 -36.4076,-14.4983 z" />
      <g
         id="g3728"
         transform="matrix(0.50404175,0,0,0.50404175,-5315.8354,897.14108)">
        <path
           id="path3724"
           style="fill:#b28261;fill-opacity:1;stroke:none;stroke-width:4.35538;stroke-opacity:1"
           d="m 1890.6816,-1044.877 -6.5546,14.4805 -0.5,5.1348 1.2851,8.7539 -15.498,4.1523 -3.2637,-8.2246 -2.9981,-4.1953 -12.9179,-9.2637 -7.4512,4.3028 1.5625,15.8183 2.1348,4.6953 5.4902,6.9375 -11.3457,11.34575 -6.9375,-5.49024 -4.6953,-2.13476 -15.8184,-1.56255 -4.3027,7.45122 9.2637,12.91797 4.1953,2.99804 8.2246,3.26368 -4.1543,15.49804 -8.752,-1.28515 -5.1347,0.5 -14.4805,6.55468 v 8.60547 l 14.4805,6.55469 5.1347,0.49805 8.752,-1.28516 4.1543,15.49805 -8.2246,3.26367 -4.1953,3 -9.2637,12.91602 4.3027,7.45312 15.8184,-1.56445 4.6953,-2.13477 6.9375,-5.49023 11.3457,11.3457 -5.4902,6.9375 -2.1348,4.69727 -1.5625,15.8164 7.4512,4.30274 12.9179,-9.26172 2.9981,-4.19727 3.2637,-8.22265 15.498,4.15234 -1.2851,8.75195 0.5,5.13477 6.5546,14.48047 h 8.6036 l 6.5566,-14.48047 0.498,-5.13477 -1.2851,-8.75195 15.498,-4.15234 3.2637,8.22265 3,4.19727 12.916,9.26172 7.4512,-4.30274 -1.5625,-15.8164 -2.1348,-4.69727 -5.4902,-6.9375 11.3457,-11.3457 6.9375,5.49023 4.6973,2.13477 15.8164,1.56445 4.3027,-7.45312 -9.2617,-12.91602 -4.1973,-3 -8.2226,-3.26367 4.1523,-15.49805 8.752,1.28516 5.1347,-0.49805 14.4805,-6.55469 v -8.60547 l -14.4805,-6.55468 -5.1347,-0.5 -8.752,1.28515 -4.1523,-15.49804 8.2226,-3.26368 4.1973,-2.99804 9.2617,-12.91797 -4.3027,-7.45122 -15.8164,1.56255 -4.6973,2.13476 -6.9375,5.49024 -11.3457,-11.34575 5.4902,-6.9375 2.1348,-4.6953 1.5625,-15.8183 -7.4512,-4.3028 -12.916,9.2637 -3,4.1953 -3.2637,8.2246 -15.498,-4.1523 1.2851,-8.7539 -0.498,-5.1348 -6.5566,-14.4805 z m 3.9122,43.4512 a 53.499999,53.499999 0 0 1 0.3906,0 53.499999,53.499999 0 0 1 53.5,53.50002 53.499999,53.499999 0 0 1 -53.5,53.5 53.499999,53.499999 0 0 1 -53.5,-53.5 53.499999,53.499999 0 0 1 53.1094,-53.50002 z"
           transform="scale(0.26458333)" />
        <path
           id="path3726"
           style="fill:#b28261;fill-opacity:1;stroke:none;stroke-width:0.0643235;stroke-miterlimit:4;stroke-dasharray:none;stroke-dashoffset:0;stroke-opacity:1"
           d="m 505.11177,-250.80563 a 3.7307554,3.7307554 0 0 1 -3.73076,3.73076 3.7307554,3.7307554 0 0 1 -3.73075,-3.73076 3.7307554,3.7307554 0 0 1 3.73075,-3.73075 3.7307554,3.7307554 0 0 1 3.73076,3.73075 z" />
      </g>
      <g
         id="g3734"
         transform="matrix(0.50404175,0,0,0.50404175,-5130.627,897.14108)">
        <path
           id="path3730"
           style="fill:#b28261;fill-opacity:1;stroke:none;stroke-width:4.35538;stroke-opacity:1"
           d="m 1890.6816,-1044.877 -6.5546,14.4805 -0.5,5.1348 1.2851,8.7539 -15.498,4.1523 -3.2637,-8.2246 -2.9981,-4.1953 -12.9179,-9.2637 -7.4512,4.3028 1.5625,15.8183 2.1348,4.6953 5.4902,6.9375 -11.3457,11.34575 -6.9375,-5.49024 -4.6953,-2.13476 -15.8184,-1.56255 -4.3027,7.45122 9.2637,12.91797 4.1953,2.99804 8.2246,3.26368 -4.1543,15.49804 -8.752,-1.28515 -5.1347,0.5 -14.4805,6.55468 v 8.60547 l 14.4805,6.55469 5.1347,0.49805 8.752,-1.28516 4.1543,15.49805 -8.2246,3.26367 -4.1953,3 -9.2637,12.91602 4.3027,7.45312 15.8184,-1.56445 4.6953,-2.13477 6.9375,-5.49023 11.3457,11.3457 -5.4902,6.9375 -2.1348,4.69727 -1.5625,15.8164 7.4512,4.30274 12.9179,-9.26172 2.9981,-4.19727 3.2637,-8.22265 15.498,4.15234 -1.2851,8.75195 0.5,5.13477 6.5546,14.48047 h 8.6036 l 6.5566,-14.48047 0.498,-5.13477 -1.2851,-8.75195 15.498,-4.15234 3.2637,8.22265 3,4.19727 12.916,9.26172 7.4512,-4.30274 -1.5625,-15.8164 -2.1348,-4.69727 -5.4902,-6.9375 11.3457,-11.3457 6.9375,5.49023 4.6973,2.13477 15.8164,1.56445 4.3027,-7.45312 -9.2617,-12.91602 -4.1973,-3 -8.2226,-3.26367 4.1523,-15.49805 8.752,1.28516 5.1347,-0.49805 14.4805,-6.55469 v -8.60547 l -14.4805,-6.55468 -5.1347,-0.5 -8.752,1.28515 -4.1523,-15.49804 8.2226,-3.26368 4.1973,-2.99804 9.2617,-12.91797 -4.3027,-7.45122 -15.8164,1.56255 -4.6973,2.13476 -6.9375,5.49024 -11.3457,-11.34575 5.4902,-6.9375 2.1348,-4.6953 1.5625,-15.8183 -7.4512,-4.3028 -12.916,9.2637 -3,4.1953 -3.2637,8.2246 -15.498,-4.1523 1.2851,-8.7539 -0.498,-5.1348 -6.5566,-14.4805 z m 3.9122,43.4512 a 53.499999,53.499999 0 0 1 0.3906,0 53.499999,53.499999 0 0 1 53.5,53.50002 53.499999,53.499999 0 0 1 -53.5,53.5 53.499999,53.499999 0 0 1 -53.5,-53.5 53.499999,53.499999 0 0 1 53.1094,-53.50002 z"
           transform="scale(0.26458333)" />
        <path
           id="path3732"
           style="fill:#b28261;fill-opacity:1;stroke:none;stroke-width:0.0643235;stroke-miterlimit:4;stroke-dasharray:none;stroke-dashoffset:0;stroke-opacity:1"
           d="m 505.11177,-250.80563 a 3.7307554,3.7307554 0 0 1 -3.73076,3.73076 3.7307554,3.7307554 0 0 1 -3.73075,-3.73076 3.7307554,3.7307554 0 0 1 3.73075,-3.73075 3.7307554,3.7307554 0 0 1 3.73076,3.73075 z" />
      </g>
      <g
         id="g3740"
         transform="matrix(0.50404175,0,0,0.50404175,-5315.8354,958.52441)">
        <path
           id="path3736"
           style="fill:#b28261;fill-opacity:1;stroke:none;stroke-width:4.35538;stroke-opacity:1"
           d="m 1890.6816,-1044.877 -6.5546,14.4805 -0.5,5.1348 1.2851,8.7539 -15.498,4.1523 -3.2637,-8.2246 -2.9981,-4.1953 -12.9179,-9.2637 -7.4512,4.3028 1.5625,15.8183 2.1348,4.6953 5.4902,6.9375 -11.3457,11.34575 -6.9375,-5.49024 -4.6953,-2.13476 -15.8184,-1.56255 -4.3027,7.45122 9.2637,12.91797 4.1953,2.99804 8.2246,3.26368 -4.1543,15.49804 -8.752,-1.28515 -5.1347,0.5 -14.4805,6.55468 v 8.60547 l 14.4805,6.55469 5.1347,0.49805 8.752,-1.28516 4.1543,15.49805 -8.2246,3.26367 -4.1953,3 -9.2637,12.91602 4.3027,7.45312 15.8184,-1.56445 4.6953,-2.13477 6.9375,-5.49023 11.3457,11.3457 -5.4902,6.9375 -2.1348,4.69727 -1.5625,15.8164 7.4512,4.30274 12.9179,-9.26172 2.9981,-4.19727 3.2637,-8.22265 15.498,4.15234 -1.2851,8.75195 0.5,5.13477 6.5546,14.48047 h 8.6036 l 6.5566,-14.48047 0.498,-5.13477 -1.2851,-8.75195 15.498,-4.15234 3.2637,8.22265 3,4.19727 12.916,9.26172 7.4512,-4.30274 -1.5625,-15.8164 -2.1348,-4.69727 -5.4902,-6.9375 11.3457,-11.3457 6.9375,5.49023 4.6973,2.13477 15.8164,1.56445 4.3027,-7.45312 -9.2617,-12.91602 -4.1973,-3 -8.2226,-3.26367 4.1523,-15.49805 8.752,1.28516 5.1347,-0.49805 14.4805,-6.55469 v -8.60547 l -14.4805,-6.55468 -5.1347,-0.5 -8.752,1.28515 -4.1523,-15.49804 8.2226,-3.26368 4.1973,-2.99804 9.2617,-12.91797 -4.3027,-7.45122 -15.8164,1.56255 -4.6973,2.13476 -6.9375,5.49024 -11.3457,-11.34575 5.4902,-6.9375 2.1348,-4.6953 1.5625,-15.8183 -7.4512,-4.3028 -12.916,9.2637 -3,4.1953 -3.2637,8.2246 -15.498,-4.1523 1.2851,-8.7539 -0.498,-5.1348 -6.5566,-14.4805 z m 3.9122,43.4512 a 53.499999,53.499999 0 0 1 0.3906,0 53.499999,53.499999 0 0 1 53.5,53.50002 53.499999,53.499999 0 0 1 -53.5,53.5 53.499999,53.499999 0 0 1 -53.5,-53.5 53.499999,53.499999 0 0 1 53.1094,-53.50002 z"
           transform="scale(0.26458333)" />
        <path
           id="path3738"
           style="fill:#b28261;fill-opacity:1;stroke:none;stroke-width:0.0643235;stroke-miterlimit:4;stroke-dasharray:none;stroke-dashoffset:0;stroke-opacity:1"
           d="m 505.11177,-250.80563 a 3.7307554,3.7307554 0 0 1 -3.73076,3.73076 3.7307554,3.7307554 0 0 1 -3.73075,-3.73076 3.7307554,3.7307554 0 0 1 3.73075,-3.73075 3.7307554,3.7307554 0 0 1 3.73076,3.73075 z" />
      </g>
      <g
         id="g3746"
         transform="matrix(0.50404175,0,0,0.50404175,-5130.627,958.52441)">
        <path
           id="path3742"
           style="fill:#b28261;fill-opacity:1;stroke:none;stroke-width:4.35538;stroke-opacity:1"
           d="m 1890.6816,-1044.877 -6.5546,14.4805 -0.5,5.1348 1.2851,8.7539 -15.498,4.1523 -3.2637,-8.2246 -2.9981,-4.1953 -12.9179,-9.2637 -7.4512,4.3028 1.5625,15.8183 2.1348,4.6953 5.4902,6.9375 -11.3457,11.34575 -6.9375,-5.49024 -4.6953,-2.13476 -15.8184,-1.56255 -4.3027,7.45122 9.2637,12.91797 4.1953,2.99804 8.2246,3.26368 -4.1543,15.49804 -8.752,-1.28515 -5.1347,0.5 -14.4805,6.55468 v 8.60547 l 14.4805,6.55469 5.1347,0.49805 8.752,-1.28516 4.1543,15.49805 -8.2246,3.26367 -4.1953,3 -9.2637,12.91602 4.3027,7.45312 15.8184,-1.56445 4.6953,-2.13477 6.9375,-5.49023 11.3457,11.3457 -5.4902,6.9375 -2.1348,4.69727 -1.5625,15.8164 7.4512,4.30274 12.9179,-9.26172 2.9981,-4.19727 3.2637,-8.22265 15.498,4.15234 -1.2851,8.75195 0.5,5.13477 6.5546,14.48047 h 8.6036 l 6.5566,-14.48047 0.498,-5.13477 -1.2851,-8.75195 15.498,-4.15234 3.2637,8.22265 3,4.19727 12.916,9.26172 7.4512,-4.30274 -1.5625,-15.8164 -2.1348,-4.69727 -5.4902,-6.9375 11.3457,-11.3457 6.9375,5.49023 4.6973,2.13477 15.8164,1.56445 4.3027,-7.45312 -9.2617,-12.91602 -4.1973,-3 -8.2226,-3.26367 4.1523,-15.49805 8.752,1.28516 5.1347,-0.49805 14.4805,-6.55469 v -8.60547 l -14.4805,-6.55468 -5.1347,-0.5 -8.752,1.28515 -4.1523,-15.49804 8.2226,-3.26368 4.1973,-2.99804 9.2617,-12.91797 -4.3027,-7.45122 -15.8164,1.56255 -4.6973,2.13476 -6.9375,5.49024 -11.3457,-11.34575 5.4902,-6.9375 2.1348,-4.6953 1.5625,-15.8183 -7.4512,-4.3028 -12.916,9.2637 -3,4.1953 -3.2637,8.2246 -15.498,-4.1523 1.2851,-8.7539 -0.498,-5.1348 -6.5566,-14.4805 z m 3.9122,43.4512 a 53.499999,53.499999 0 0 1 0.3906,0 53.499999,53.499999 0 0 1 53.5,53.50002 53.499999,53.499999 0 0 1 -53.5,53.5 53.499999,53.499999 0 0 1 -53.5,-53.5 53.499999,53.499999 0 0 1 53.1094,-53.50002 z"
           transform="scale(0.26458333)" />
        <path
           id="path3744"
           style="fill:#b28261;fill-opacity:1;stroke:none;stroke-width:0.0643235;stroke-miterlimit:4;stroke-dasharray:none;stroke-dashoffset:0;stroke-opacity:1"
           d="m 505.11177,-250.80563 a 3.7307554,3.7307554 0 0 1 -3.73076,3.73076 3.7307554,3.7307554 0 0 1 -3.73075,-3.73076 3.7307554,3.7307554 0 0 1 3.73075,-3.73075 3.7307554,3.7307554 0 0 1 3.73076,3.73075 z" />
      </g>
      <rect
         style="fill:#b28261;fill-opacity:1;stroke:none;stroke-width:3.59691;stroke-miterlimit:4;stroke-dasharray:none"
         id="rect3748"
         width="308.90839"
         height="60.310284"
         x="-5124.9683"
         y="771.26111" />
      <text
         xml:space="preserve"
         style="font-size:49.2478px;line-height:1.25;font-family:sans-serif;-inkscape-font-specification:sans-serif;letter-spacing:1.73046px;stroke-width:0.512997"
         x="-4970.5142"
         y="819.51483"
         id="text3752"><tspan
           sodipodi:role="line"
           id="tspan3750"
           x="-4969.6489"
           y="819.51483"
           style="font-style:normal;font-variant:normal;font-weight:normal;font-stretch:normal;font-size:49.2478px;font-family:'League Gothic';-inkscape-font-specification:'League Gothic';text-align:center;text-anchor:middle;stroke-width:0.512997">BELLSWORNE</tspan></text>
      <g
         id="g3758"
         transform="matrix(0.75995549,0,0,0.75995549,-5426.9468,864.15041)">
        <path
           style="color:#000000;font-style:normal;font-variant:normal;font-weight:normal;font-stretch:normal;font-size:medium;line-height:normal;font-family:sans-serif;font-variant-ligatures:normal;font-variant-position:normal;font-variant-caps:normal;font-variant-numeric:normal;font-variant-alternates:normal;font-variant-east-asian:normal;font-feature-settings:normal;font-variation-settings:normal;text-indent:0;text-align:start;text-decoration:none;text-decoration-line:none;text-decoration-style:solid;text-decoration-color:#000000;letter-spacing:normal;word-spacing:normal;text-transform:none;writing-mode:lr-tb;direction:ltr;text-orientation:mixed;dominant-baseline:auto;baseline-shift:baseline;text-anchor:start;white-space:normal;shape-padding:0;shape-margin:0;inline-size:0;clip-rule:nonzero;display:inline;overflow:visible;visibility:visible;isolation:auto;mix-blend-mode:normal;color-interpolation:sRGB;color-interpolation-filters:linearRGB;solid-color:#000000;solid-opacity:1;vector-effect:none;fill:#b28261;fill-opacity:1;fill-rule:nonzero;stroke:none;stroke-width:1.32292;stroke-linecap:butt;stroke-linejoin:miter;stroke-miterlimit:4;stroke-dasharray:5.29167, 2.64583;stroke-dashoffset:0;stroke-opacity:1;color-rendering:auto;image-rendering:auto;shape-rendering:auto;text-rendering:auto;enable-background:accumulate;stop-color:#000000;stop-opacity:1"
           d="m 397.40416,-114.3 h 406.4"
           id="path3754" />
        <path
           style="color:#000000;font-style:normal;font-variant:normal;font-weight:normal;font-stretch:normal;font-size:medium;line-height:normal;font-family:sans-serif;font-variant-ligatures:normal;font-variant-position:normal;font-variant-caps:normal;font-variant-numeric:normal;font-variant-alternates:normal;font-variant-east-asian:normal;font-feature-settings:normal;font-variation-settings:normal;text-indent:0;text-align:start;text-decoration:none;text-decoration-line:none;text-decoration-style:solid;text-decoration-color:#000000;letter-spacing:normal;word-spacing:normal;text-transform:none;writing-mode:lr-tb;direction:ltr;text-orientation:mixed;dominant-baseline:auto;baseline-shift:baseline;text-anchor:start;white-space:normal;shape-padding:0;shape-margin:0;inline-size:0;clip-rule:nonzero;display:inline;overflow:visible;visibility:visible;isolation:auto;mix-blend-mode:normal;color-interpolation:sRGB;color-interpolation-filters:linearRGB;solid-color:#000000;solid-opacity:1;vector-effect:none;fill:#000000;fill-opacity:1;fill-rule:nonzero;stroke:none;stroke-linecap:butt;stroke-linejoin:miter;stroke-miterlimit:4;stroke-dasharray:5.29167, 2.64583;stroke-dashoffset:0;stroke-opacity:1;color-rendering:auto;image-rendering:auto;shape-rendering:auto;text-rendering:auto;enable-background:accumulate;stop-color:#000000;stop-opacity:1"
           d="m 397.4043,-114.96094 v 1.32227 h 5.29101 v -1.32227 z m 7.9375,0 v 1.32227 h 5.29101 v -1.32227 z m 7.9375,0 v 1.32227 h 5.29101 v -1.32227 z m 7.9375,0 v 1.32227 h 5.29101 v -1.32227 z m 7.9375,0 v 1.32227 h 5.29101 v -1.32227 z m 7.9375,0 v 1.32227 h 5.29101 v -1.32227 z m 7.9375,0 v 1.32227 h 5.29101 v -1.32227 z m 7.9375,0 v 1.32227 h 5.29101 v -1.32227 z m 7.9375,0 v 1.32227 h 5.29101 v -1.32227 z m 7.9375,0 v 1.32227 h 5.29101 v -1.32227 z m 7.9375,0 v 1.32227 h 5.29101 v -1.32227 z m 7.9375,0 v 1.32227 h 5.29101 v -1.32227 z m 7.9375,0 v 1.32227 h 5.29101 v -1.32227 z m 7.9375,0 v 1.32227 h 5.29101 v -1.32227 z m 7.9375,0 v 1.32227 h 5.29101 v -1.32227 z m 7.9375,0 v 1.32227 h 5.29101 v -1.32227 z m 7.9375,0 v 1.32227 h 5.29101 v -1.32227 z m 7.9375,0 v 1.32227 h 5.29101 v -1.32227 z m 7.9375,0 v 1.32227 h 5.29101 v -1.32227 z m 7.9375,0 v 1.32227 h 5.29101 v -1.32227 z m 7.9375,0 v 1.32227 h 5.29101 v -1.32227 z m 7.9375,0 v 1.32227 h 5.29101 v -1.32227 z m 7.9375,0 v 1.32227 h 5.29101 v -1.32227 z m 7.9375,0 v 1.32227 h 5.29101 v -1.32227 z m 7.9375,0 v 1.32227 h 5.29101 v -1.32227 z m 7.9375,0 v 1.32227 h 5.29101 v -1.32227 z m 7.9375,0 v 1.32227 h 5.29101 v -1.32227 z m 7.9375,0 v 1.32227 h 5.29101 v -1.32227 z m 7.9375,0 v 1.32227 h 5.29101 v -1.32227 z m 7.9375,0 v 1.32227 h 5.29101 v -1.32227 z m 7.9375,0 v 1.32227 h 5.29101 v -1.32227 z m 7.9375,0 v 1.32227 h 5.29101 v -1.32227 z m 7.9375,0 v 1.32227 h 5.29101 v -1.32227 z m 7.9375,0 v 1.32227 h 5.29101 v -1.32227 z m 7.9375,0 v 1.32227 h 5.29101 v -1.32227 z m 7.9375,0 v 1.32227 h 5.29101 v -1.32227 z m 7.9375,0 v 1.32227 h 5.29101 v -1.32227 z m 7.9375,0 v 1.32227 h 5.29101 v -1.32227 z m 7.9375,0 v 1.32227 h 5.29101 v -1.32227 z m 7.9375,0 v 1.32227 h 5.29101 v -1.32227 z m 7.9375,0 v 1.32227 h 5.29101 v -1.32227 z m 7.9375,0 v 1.32227 h 5.29101 v -1.32227 z m 7.9375,0 v 1.32227 h 5.29101 v -1.32227 z m 7.9375,0 v 1.32227 h 5.29101 v -1.32227 z m 7.9375,0 v 1.32227 h 5.29101 v -1.32227 z m 7.9375,0 v 1.32227 h 5.29101 v -1.32227 z m 7.9375,0 v 1.32227 h 5.29101 v -1.32227 z m 7.9375,0 v 1.32227 h 5.29101 v -1.32227 z m 7.9375,0 v 1.32227 h 5.29101 v -1.32227 z m 7.9375,0 v 1.32227 h 5.29101 v -1.32227 z m 7.9375,0 v 1.32227 h 5.29101 v -1.32227 z m 7.9375,0 v 1.32227 h 1.58789 v -1.32227 z"
           id="path3756" />
      </g>
      <g
         id="g3764"
         transform="matrix(0.75995549,0,0,0.75995549,-5426.9468,912.40759)">
        <path
           style="color:#000000;font-style:normal;font-variant:normal;font-weight:normal;font-stretch:normal;font-size:medium;line-height:normal;font-family:sans-serif;font-variant-ligatures:normal;font-variant-position:normal;font-variant-caps:normal;font-variant-numeric:normal;font-variant-alternates:normal;font-variant-east-asian:normal;font-feature-settings:normal;font-variation-settings:normal;text-indent:0;text-align:start;text-decoration:none;text-decoration-line:none;text-decoration-style:solid;text-decoration-color:#000000;letter-spacing:normal;word-spacing:normal;text-transform:none;writing-mode:lr-tb;direction:ltr;text-orientation:mixed;dominant-baseline:auto;baseline-shift:baseline;text-anchor:start;white-space:normal;shape-padding:0;shape-margin:0;inline-size:0;clip-rule:nonzero;display:inline;overflow:visible;visibility:visible;isolation:auto;mix-blend-mode:normal;color-interpolation:sRGB;color-interpolation-filters:linearRGB;solid-color:#000000;solid-opacity:1;vector-effect:none;fill:#b28261;fill-opacity:1;fill-rule:nonzero;stroke:none;stroke-width:1.32292;stroke-linecap:butt;stroke-linejoin:miter;stroke-miterlimit:4;stroke-dasharray:5.29167, 2.64583;stroke-dashoffset:0;stroke-opacity:1;color-rendering:auto;image-rendering:auto;shape-rendering:auto;text-rendering:auto;enable-background:accumulate;stop-color:#000000;stop-opacity:1"
           d="m 397.40416,-114.3 h 406.4"
           id="path3760" />
        <path
           style="color:#000000;font-style:normal;font-variant:normal;font-weight:normal;font-stretch:normal;font-size:medium;line-height:normal;font-family:sans-serif;font-variant-ligatures:normal;font-variant-position:normal;font-variant-caps:normal;font-variant-numeric:normal;font-variant-alternates:normal;font-variant-east-asian:normal;font-feature-settings:normal;font-variation-settings:normal;text-indent:0;text-align:start;text-decoration:none;text-decoration-line:none;text-decoration-style:solid;text-decoration-color:#000000;letter-spacing:normal;word-spacing:normal;text-transform:none;writing-mode:lr-tb;direction:ltr;text-orientation:mixed;dominant-baseline:auto;baseline-shift:baseline;text-anchor:start;white-space:normal;shape-padding:0;shape-margin:0;inline-size:0;clip-rule:nonzero;display:inline;overflow:visible;visibility:visible;isolation:auto;mix-blend-mode:normal;color-interpolation:sRGB;color-interpolation-filters:linearRGB;solid-color:#000000;solid-opacity:1;vector-effect:none;fill:#000000;fill-opacity:1;fill-rule:nonzero;stroke:none;stroke-linecap:butt;stroke-linejoin:miter;stroke-miterlimit:4;stroke-dasharray:5.29167, 2.64583;stroke-dashoffset:0;stroke-opacity:1;color-rendering:auto;image-rendering:auto;shape-rendering:auto;text-rendering:auto;enable-background:accumulate;stop-color:#000000;stop-opacity:1"
           d="m 397.4043,-114.96094 v 1.32227 h 5.29101 v -1.32227 z m 7.9375,0 v 1.32227 h 5.29101 v -1.32227 z m 7.9375,0 v 1.32227 h 5.29101 v -1.32227 z m 7.9375,0 v 1.32227 h 5.29101 v -1.32227 z m 7.9375,0 v 1.32227 h 5.29101 v -1.32227 z m 7.9375,0 v 1.32227 h 5.29101 v -1.32227 z m 7.9375,0 v 1.32227 h 5.29101 v -1.32227 z m 7.9375,0 v 1.32227 h 5.29101 v -1.32227 z m 7.9375,0 v 1.32227 h 5.29101 v -1.32227 z m 7.9375,0 v 1.32227 h 5.29101 v -1.32227 z m 7.9375,0 v 1.32227 h 5.29101 v -1.32227 z m 7.9375,0 v 1.32227 h 5.29101 v -1.32227 z m 7.9375,0 v 1.32227 h 5.29101 v -1.32227 z m 7.9375,0 v 1.32227 h 5.29101 v -1.32227 z m 7.9375,0 v 1.32227 h 5.29101 v -1.32227 z m 7.9375,0 v 1.32227 h 5.29101 v -1.32227 z m 7.9375,0 v 1.32227 h 5.29101 v -1.32227 z m 7.9375,0 v 1.32227 h 5.29101 v -1.32227 z m 7.9375,0 v 1.32227 h 5.29101 v -1.32227 z m 7.9375,0 v 1.32227 h 5.29101 v -1.32227 z m 7.9375,0 v 1.32227 h 5.29101 v -1.32227 z m 7.9375,0 v 1.32227 h 5.29101 v -1.32227 z m 7.9375,0 v 1.32227 h 5.29101 v -1.32227 z m 7.9375,0 v 1.32227 h 5.29101 v -1.32227 z m 7.9375,0 v 1.32227 h 5.29101 v -1.32227 z m 7.9375,0 v 1.32227 h 5.29101 v -1.32227 z m 7.9375,0 v 1.32227 h 5.29101 v -1.32227 z m 7.9375,0 v 1.32227 h 5.29101 v -1.32227 z m 7.9375,0 v 1.32227 h 5.29101 v -1.32227 z m 7.9375,0 v 1.32227 h 5.29101 v -1.32227 z m 7.9375,0 v 1.32227 h 5.29101 v -1.32227 z m 7.9375,0 v 1.32227 h 5.29101 v -1.32227 z m 7.9375,0 v 1.32227 h 5.29101 v -1.32227 z m 7.9375,0 v 1.32227 h 5.29101 v -1.32227 z m 7.9375,0 v 1.32227 h 5.29101 v -1.32227 z m 7.9375,0 v 1.32227 h 5.29101 v -1.32227 z m 7.9375,0 v 1.32227 h 5.29101 v -1.32227 z m 7.9375,0 v 1.32227 h 5.29101 v -1.32227 z m 7.9375,0 v 1.32227 h 5.29101 v -1.32227 z m 7.9375,0 v 1.32227 h 5.29101 v -1.32227 z m 7.9375,0 v 1.32227 h 5.29101 v -1.32227 z m 7.9375,0 v 1.32227 h 5.29101 v -1.32227 z m 7.9375,0 v 1.32227 h 5.29101 v -1.32227 z m 7.9375,0 v 1.32227 h 5.29101 v -1.32227 z m 7.9375,0 v 1.32227 h 5.29101 v -1.32227 z m 7.9375,0 v 1.32227 h 5.29101 v -1.32227 z m 7.9375,0 v 1.32227 h 5.29101 v -1.32227 z m 7.9375,0 v 1.32227 h 5.29101 v -1.32227 z m 7.9375,0 v 1.32227 h 5.29101 v -1.32227 z m 7.9375,0 v 1.32227 h 5.29101 v -1.32227 z m 7.9375,0 v 1.32227 h 5.29101 v -1.32227 z m 7.9375,0 v 1.32227 h 1.58789 v -1.32227 z"
           id="path3762" />
      </g>
      <text
         xml:space="preserve"
         style="font-size:17.8852px;line-height:1.25;font-family:sans-serif;-inkscape-font-specification:sans-serif;letter-spacing:3.24046px;fill:#ffffff;stroke-width:1.21945"
         id="text3768"
         x="-5008.0591"
         y="720.67657"><tspan
           id="tspan3766"
           style="font-style:normal;font-variant:normal;font-weight:normal;font-stretch:normal;font-family:'League Gothic';-inkscape-font-specification:'League Gothic';fill:#ffffff;stroke-width:1.21945">EST. 2020</tspan></text>
      <rect
         style="fill:#ffffff;fill-opacity:1;stroke:none;stroke-width:1.32292;stroke-miterlimit:4;stroke-dasharray:none;stroke-dashoffset:0;stroke-opacity:1"
         id="rect3770"
         width="8.9802551"
         height="2.9934187"
         x="-5022.6294"
         y="712.60706" />
      <rect
         style="fill:#ffffff;fill-opacity:1;stroke:none;stroke-width:1.32292;stroke-miterlimit:4;stroke-dasharray:none;stroke-dashoffset:0;stroke-opacity:1"
         id="rect3772"
         width="8.9802551"
         height="2.9934187"
         x="-4927.3794"
         y="712.60706" />
      <path
         id="path3774"
         style="fill:#8f4040;fill-opacity:1;stroke:none;stroke-width:1.17713;stroke-miterlimit:4;stroke-dasharray:none;stroke-dashoffset:0;stroke-opacity:1"
         d="m -5045.2899,883.94287 c -0.3097,0 -0.5591,0.24937 -0.5591,0.55913 v 8.38688 h -31.1566 l 16.1931,19.78272 -14.6394,17.88468 h 36.6577 c 0.3098,0 0.5591,-0.24937 0.5591,-0.55913 v -8.38688 h 135.4417 v 8.38688 c 0,0.30976 0.2494,0.55913 0.5591,0.55913 h 36.6577 l -14.6393,-17.88468 16.193,-19.78272 h -31.1565 V 884.502 c 0,-0.30976 -0.2494,-0.55913 -0.5592,-0.55913 z" />
      <text
         xml:space="preserve"
         style="font-size:25.8124px;line-height:1.25;font-family:sans-serif;-inkscape-font-specification:sans-serif;letter-spacing:3.75161px;stroke-width:1.75993"
         x="-5042.915"
         y="913.56067"
         id="text3778"><tspan
           sodipodi:role="line"
           id="tspan3776"
           x="-5042.915"
           y="913.56067"
           style="font-style:normal;font-variant:normal;font-weight:normal;font-stretch:normal;font-family:'League Gothic';-inkscape-font-specification:'League Gothic';stroke-width:1.75993">TECHNOLOGIES</tspan></text>
    </g>
  </g>
</svg>
