<?xml version="1.0" encoding="UTF-8"?>
<svg id="svg8" width="2400" height="2060.7" version="1.1" viewBox="0 0 635 545.22" xmlns="http://www.w3.org/2000/svg">
 <g id="layer1" transform="translate(9030.8 544.43)">
  <path id="ellipse3703" d="m-8577.9-179.19a132 81.583 0 0 1-132 81.583 132 81.583 0 0 1-132-81.583 132 81.583 0 0 1 132-81.583 132 81.583 0 0 1 132 81.583z" style="fill:#ff0000;stroke-width:.54388"/>
  <path id="path3705" d="m-8395.8-209.83-101.09 58.366 5.5494-83.751 80.495-1.6317z" style="fill:#b28261"/>
  <path id="path3708" d="m-9030.8-333.8 87.127-50.303-3.4458 89.066-71.793-13.597-11.888-25.166" style="fill:#b28261"/>
  <path id="path3710" d="m-8473.7-145.35-239.54 126.46-239.54-126.46v-252.93l239.54-126.46 239.54 126.46z" style="fill:#2b2b2b"/>
  <path id="path3712" d="m-8459.4-137.79-253.86 134.03-253.86-134.03v-268.05l253.86-134.03 253.86 134.03z" style="fill:#2b2b2b"/>
  <path id="path3716" d="m-8473.7-145.35-239.54 126.46-239.54-126.46v-252.93l239.54-126.46 239.54 126.46z" style="fill:none;stroke-width:5.6876;stroke:#b28261"/>
  <path id="path3718" d="m-8459.4-137.79-253.86 134.03-253.86-134.03v-268.05l253.86-134.03 253.86 134.03z" style="fill:none;stroke-width:8.252;stroke:#b28261"/>
  <path id="big-gear" d="m-8717.6-431.03-5.2322 12.505-1.4735 8.9985 0.2743 3.3753-13.505 1.7778-0.6087-3.3301-3.7511-8.3106-8.2919-10.727-8.4684 2.2703-1.8153 13.434 0.9057 9.0735 1.1351 3.1875-12.584 5.2132-1.4509-3.0596-5.7734-7.0551-10.788-8.2129-7.589 4.3826 1.7214 13.445 3.2214 8.5284 1.9245 2.789-10.806 8.2882-2.1913-2.5787-7.4047-5.3185-12.543-5.142-6.1982 6.1982 5.1422 12.543 5.3185 7.4047 2.5784 2.1913-8.2879 10.806-2.7889-1.9245-8.5288-3.2212-13.445-1.7215-4.3826 7.5889 8.2129 10.788 7.0551 5.7734 3.0596 1.4509-5.2133 12.584-3.1876-1.1389-9.0736-0.90207-13.434 1.8155-2.2663 8.4684 10.724 8.2918 8.3104 3.7512 3.3304 0.60882-1.778 13.501-3.3753-0.27066-8.9985 1.4735-12.505 5.2321v8.7654l12.505 5.2321 8.9985 1.4772 3.3753-0.27417 1.778 13.501-3.3304 0.61243-8.3104 3.7512-10.724 8.2918 2.2663 8.4646 13.434 1.8193 9.0736-0.90585 3.1876-1.1352 5.2133 12.581-3.0596 1.4509-7.0551 5.7772-8.2129 10.784 4.3826 7.5926 13.445-1.7215 8.5288-3.225 2.7889-1.9207 8.2879 10.803-2.5784 2.195-5.3185 7.4048-5.1422 12.543 6.1982 6.1981 12.543-5.1419 7.4047-5.3224 2.1913-2.5785 10.806 8.2918-1.9245 2.7853-3.2214 8.5285-1.7214 13.449 7.589 4.3826 10.788-8.2166 5.7734-7.0552 1.4509-3.0559 12.584 5.2096-1.1351 3.1912-0.9057 9.0698 1.8153 13.438 8.4684 2.2665 8.2919-10.724 3.7511-8.3106 0.6087-3.3302 13.505 1.7779-0.2743 3.3753 1.4735 8.9947 5.2322 12.509h8.7654l5.2361-12.509 1.4732-8.9947-0.2742-3.3753 13.502-1.7779 0.6125 3.3302 3.7511 8.3106 8.2918 10.724 8.4686-2.2665 1.8155-13.438-0.9059-9.0698-1.1353-3.1912 12.581-5.2096 1.4548 3.0559 5.7732 7.0552 10.784 8.2166 7.5924-4.3826-1.7213-13.449-3.2251-8.5285-1.9206-2.7853 10.803-8.2918 2.195 2.5785 7.4046 5.3224 12.543 5.1419 6.1981-6.1981-5.1419-12.543-5.3222-7.4048-2.5786-2.195 8.2918-10.803 2.7851 1.9207 8.5286 3.225 13.449 1.7215 4.3826-7.5926-8.2128-10.784-7.0588-5.7772-3.0559-1.4509 5.2096-12.581 3.1911 1.1352 9.0698 0.90585 13.438-1.8193 2.2665-8.4646-10.724-8.2918-8.3105-3.7512-3.3303-0.61243 1.7779-13.501 3.3754 0.27417 8.9985-1.4772 12.505-5.2321v-8.7654l-12.505-5.2321-8.9985-1.4735-3.3754 0.27066-1.7779-13.501 3.3303-0.60882 8.3105-3.7512 10.724-8.2918-2.2665-8.4684-13.438-1.8155-9.0698 0.90207-3.1911 1.1389-5.2096-12.584 3.0559-1.4509 7.0588-5.7734 8.2128-10.788-4.3826-7.5889-13.449 1.7215-8.5286 3.2212-2.7851 1.9245-8.2918-10.806 2.5786-2.1913 5.3222-7.4047 5.1419-12.543-6.1981-6.1982-12.543 5.142-7.4046 5.3185-2.195 2.5787-10.803-8.2882 1.9206-2.789 3.2251-8.5284 1.7213-13.445-7.5924-4.3826-10.784 8.2129-5.7732 7.0551-1.4548 3.0596-12.581-5.2132 1.1353-3.1875 0.9059-9.0735-1.8155-13.434-8.4686-2.2703-8.2918 10.727-3.7511 8.3106-0.6125 3.3301-13.502-1.7778 0.2742-3.3753-1.4732-8.9985-5.2361-12.505zm3.9355 39.467a119.75 119.75 0 0 1 0.4473 0 119.75 119.75 0 0 1 119.75 119.74 119.75 119.75 0 0 1-119.75 119.75 119.75 119.75 0 0 1-119.74-119.75 119.75 119.75 0 0 1 119.3-119.74zm0.4473 4.7548a114.99 114.99 0 0 0-114.99 114.99 114.99 114.99 0 0 0 114.99 114.99 114.99 114.99 0 0 0 114.99-114.99 114.99 114.99 0 0 0-114.99-114.99zm-0.6089 6.1229a108.86 108.86 0 0 1 0.6089 0 108.86 108.86 0 0 1 74.893 29.852l-65.071 65.071a16.826 16.826 0 0 0-9.1525-2.7101 16.826 16.826 0 0 0-9.9683 3.2702l-65.609-65.613a108.86 108.86 0 0 1 74.299-29.871zm-78.385 33.957 65.699 65.699a16.826 16.826 0 0 0-2.8641 9.3856 16.826 16.826 0 0 0 2.6724 9.0962l-65.571 65.567a108.86 108.86 0 0 1-29.807-74.837 108.86 108.86 0 0 1 29.871-74.912zm158.01 0.022a108.86 108.86 0 0 1 29.852 74.893 108.86 108.86 0 0 1-29.844 74.878l-64.771-64.771a16.826 16.826 0 0 0 3.2438-9.9344 16.826 16.826 0 0 0-3.4054-10.145zm-88.436 88.53a16.826 16.826 0 0 0 10.088 3.364 16.826 16.826 0 0 0 9.3519-2.8416l64.861 64.861a108.86 108.86 0 0 1-74.882 29.844 108.86 108.86 0 0 1-74.84-29.803z" style="fill:#b28261"/>
  <path id="tl-gear" d="m-8904.8-361.49-1.7969 3.9697-0.1371 1.4076 0.3523 2.3998-4.2486 1.1383-0.8947-2.2547-0.8219-1.1501-3.5413-2.5396-2.0427 1.1796 0.4283 4.3364 0.5853 1.2872 1.505 1.9018-3.1103 3.1103-1.9018-1.5051-1.2872-0.58522-4.3364-0.42836-1.1796 2.0427 2.5396 3.5413 1.1501 0.82189 2.2547 0.8947-1.1389 4.2486-2.3993-0.35231-1.4076 0.13707-3.9697 1.7969v2.3591l3.9697 1.7969 1.4076 0.13654 2.3993-0.35232 1.1389 4.2486-2.2547 0.8947-1.1501 0.82243-2.5396 3.5408 1.1796 2.0432 4.3364-0.42888 1.2872-0.58523 1.9018-1.5051 3.1103 3.1103-1.505 1.9018-0.5853 1.2877-0.4283 4.3359 2.0427 1.1796 3.5413-2.539 0.8219-1.1506 0.8947-2.2542 4.2486 1.1383-0.3523 2.3993 0.1371 1.4076 1.7969 3.9697h2.3586l1.7974-3.9697 0.1365-1.4076-0.3523-2.3993 4.2486-1.1383 0.8947 2.2542 0.8225 1.1506 3.5408 2.539 2.0426-1.1796-0.4283-4.3359-0.5852-1.2877-1.5051-1.9018 3.1103-3.1103 1.9018 1.5051 1.2878 0.58523 4.3359 0.42888 1.1795-2.0432-2.539-3.5408-1.1506-0.82243-2.2542-0.8947 1.1383-4.2486 2.3993 0.35232 1.4076-0.13654 3.9697-1.7969v-2.3591l-3.9697-1.7969-1.4076-0.13707-2.3993 0.35231-1.1383-4.2486 2.2542-0.8947 1.1506-0.82189 2.539-3.5413-1.1795-2.0427-4.3359 0.42836-1.2878 0.58522-1.9018 1.5051-3.1103-3.1103 1.5051-1.9018 0.5852-1.2872 0.4283-4.3364-2.0426-1.1796-3.5408 2.5396-0.8225 1.1501-0.8947 2.2547-4.2486-1.1383 0.3523-2.3998-0.1365-1.4076-1.7974-3.9697zm1.0725 11.912a14.667 14.667 0 0 1 0.107 0 14.667 14.667 0 0 1 14.666 14.667 14.667 14.667 0 0 1-14.666 14.667 14.667 14.667 0 0 1-14.666-14.667 14.667 14.667 0 0 1 14.56-14.667z" style="fill:#b28261"/>
  <path id="path3726" d="m-8899.7-334.91a3.8655 3.8655 0 0 1-3.8656 3.8655 3.8655 3.8655 0 0 1-3.8655-3.8655 3.8655 3.8655 0 0 1 3.8655-3.8655 3.8655 3.8655 0 0 1 3.8656 3.8655z" style="fill:#b28261"/>
  <path id="tr-gear" d="m-8524.1-361.49-1.7969 3.9697-0.1371 1.4076 0.3523 2.3998-4.2486 1.1383-0.8947-2.2547-0.8219-1.1501-3.5413-2.5396-2.0427 1.1796 0.4283 4.3364 0.5853 1.2872 1.505 1.9018-3.1103 3.1103-1.9018-1.5051-1.2872-0.58522-4.3364-0.42836-1.1796 2.0427 2.5396 3.5413 1.1501 0.82189 2.2547 0.8947-1.1389 4.2486-2.3993-0.35231-1.4076 0.13707-3.9697 1.7969v2.3591l3.9697 1.7969 1.4076 0.13654 2.3993-0.35232 1.1389 4.2486-2.2547 0.8947-1.1501 0.82243-2.5396 3.5408 1.1796 2.0432 4.3364-0.42888 1.2872-0.58523 1.9018-1.5051 3.1103 3.1103-1.505 1.9018-0.5853 1.2877-0.4283 4.3359 2.0427 1.1796 3.5413-2.539 0.8219-1.1506 0.8947-2.2542 4.2486 1.1383-0.3523 2.3993 0.1371 1.4076 1.7969 3.9697h2.3586l1.7974-3.9697 0.1365-1.4076-0.3523-2.3993 4.2486-1.1383 0.8947 2.2542 0.8225 1.1506 3.5408 2.539 2.0426-1.1796-0.4283-4.3359-0.5852-1.2877-1.5051-1.9018 3.1103-3.1103 1.9018 1.5051 1.2878 0.58523 4.3359 0.42888 1.1795-2.0432-2.539-3.5408-1.1506-0.82243-2.2542-0.8947 1.1383-4.2486 2.3993 0.35232 1.4076-0.13654 3.9697-1.7969v-2.3591l-3.9697-1.7969-1.4076-0.13707-2.3993 0.35231-1.1383-4.2486 2.2542-0.8947 1.1506-0.82189 2.539-3.5413-1.1795-2.0427-4.3359 0.42836-1.2878 0.58522-1.9018 1.5051-3.1103-3.1103 1.5051-1.9018 0.5852-1.2872 0.4283-4.3364-2.0426-1.1796-3.5408 2.5396-0.8225 1.1501-0.8947 2.2547-4.2486-1.1383 0.3523-2.3998-0.1365-1.4076-1.7974-3.9697zm1.0725 11.912a14.667 14.667 0 0 1 0.107 0 14.667 14.667 0 0 1 14.666 14.667 14.667 14.667 0 0 1-14.666 14.667 14.667 14.667 0 0 1-14.666-14.667 14.667 14.667 0 0 1 14.56-14.667z" style="fill:#b28261"/>
  <path id="path3732" d="m-8519-334.91a3.8655 3.8655 0 0 1-3.8656 3.8655 3.8655 3.8655 0 0 1-3.8655-3.8655 3.8655 3.8655 0 0 1 3.8655-3.8655 3.8655 3.8655 0 0 1 3.8656 3.8655z" style="fill:#b28261"/>
  <path id="bl-gear" d="m-8904.8-235.3-1.7969 3.9697-0.1371 1.4076 0.3523 2.3998-4.2486 1.1383-0.8947-2.2547-0.8219-1.1501-3.5413-2.5396-2.0427 1.1796 0.4283 4.3364 0.5853 1.2872 1.505 1.9018-3.1103 3.1103-1.9018-1.5051-1.2872-0.58522-4.3364-0.42836-1.1796 2.0427 2.5396 3.5413 1.1501 0.82189 2.2547 0.8947-1.1389 4.2486-2.3993-0.35231-1.4076 0.13707-3.9697 1.7969v2.3591l3.9697 1.7969 1.4076 0.13654 2.3993-0.35232 1.1389 4.2486-2.2547 0.8947-1.1501 0.82243-2.5396 3.5408 1.1796 2.0432 4.3364-0.42888 1.2872-0.58523 1.9018-1.5051 3.1103 3.1103-1.505 1.9018-0.5853 1.2877-0.4283 4.3359 2.0427 1.1796 3.5413-2.539 0.8219-1.1506 0.8947-2.2542 4.2486 1.1383-0.3523 2.3993 0.1371 1.4076 1.7969 3.9697h2.3586l1.7974-3.9697 0.1365-1.4076-0.3523-2.3993 4.2486-1.1383 0.8947 2.2542 0.8225 1.1506 3.5408 2.539 2.0426-1.1796-0.4283-4.3359-0.5852-1.2877-1.5051-1.9018 3.1103-3.1103 1.9018 1.5051 1.2878 0.58523 4.3359 0.42888 1.1795-2.0432-2.539-3.5408-1.1506-0.82243-2.2542-0.8947 1.1383-4.2486 2.3993 0.35232 1.4076-0.13654 3.9697-1.7969v-2.3591l-3.9697-1.7969-1.4076-0.13707-2.3993 0.35231-1.1383-4.2486 2.2542-0.8947 1.1506-0.82189 2.539-3.5413-1.1795-2.0427-4.3359 0.42836-1.2878 0.58522-1.9018 1.5051-3.1103-3.1103 1.5051-1.9018 0.5852-1.2872 0.4283-4.3364-2.0426-1.1796-3.5408 2.5396-0.8225 1.1501-0.8947 2.2547-4.2486-1.1383 0.3523-2.3998-0.1365-1.4076-1.7974-3.9697zm1.0725 11.912a14.667 14.667 0 0 1 0.107 0 14.667 14.667 0 0 1 14.666 14.667 14.667 14.667 0 0 1-14.666 14.667 14.667 14.667 0 0 1-14.666-14.667 14.667 14.667 0 0 1 14.56-14.667z" style="fill:#b28261"/>
  <path id="path3738" d="m-8899.7-208.73a3.8655 3.8655 0 0 1-3.8656 3.8655 3.8655 3.8655 0 0 1-3.8655-3.8655 3.8655 3.8655 0 0 1 3.8655-3.8655 3.8655 3.8655 0 0 1 3.8656 3.8655z" style="fill:#b28261"/>
  <path id="br-gear" d="m-8524.1-235.3-1.7969 3.9697-0.1371 1.4076 0.3523 2.3998-4.2486 1.1383-0.8947-2.2547-0.8219-1.1501-3.5413-2.5396-2.0427 1.1796 0.4283 4.3364 0.5853 1.2872 1.505 1.9018-3.1103 3.1103-1.9018-1.5051-1.2872-0.58522-4.3364-0.42836-1.1796 2.0427 2.5396 3.5413 1.1501 0.82189 2.2547 0.8947-1.1389 4.2486-2.3993-0.35231-1.4076 0.13707-3.9697 1.7969v2.3591l3.9697 1.7969 1.4076 0.13654 2.3993-0.35232 1.1389 4.2486-2.2547 0.8947-1.1501 0.82243-2.5396 3.5408 1.1796 2.0432 4.3364-0.42888 1.2872-0.58523 1.9018-1.5051 3.1103 3.1103-1.505 1.9018-0.5853 1.2877-0.4283 4.3359 2.0427 1.1796 3.5413-2.539 0.8219-1.1506 0.8947-2.2542 4.2486 1.1383-0.3523 2.3993 0.1371 1.4076 1.7969 3.9697h2.3586l1.7974-3.9697 0.1365-1.4076-0.3523-2.3993 4.2486-1.1383 0.8947 2.2542 0.8225 1.1506 3.5408 2.539 2.0426-1.1796-0.4283-4.3359-0.5852-1.2877-1.5051-1.9018 3.1103-3.1103 1.9018 1.5051 1.2878 0.58523 4.3359 0.42888 1.1795-2.0432-2.539-3.5408-1.1506-0.82243-2.2542-0.8947 1.1383-4.2486 2.3993 0.35232 1.4076-0.13654 3.9697-1.7969v-2.3591l-3.9697-1.7969-1.4076-0.13707-2.3993 0.35231-1.1383-4.2486 2.2542-0.8947 1.1506-0.82189 2.539-3.5413-1.1795-2.0427-4.3359 0.42836-1.2878 0.58522-1.9018 1.5051-3.1103-3.1103 1.5051-1.9018 0.5852-1.2872 0.4283-4.3364-2.0426-1.1796-3.5408 2.5396-0.8225 1.1501-0.8947 2.2547-4.2486-1.1383 0.3523-2.3998-0.1365-1.4076-1.7974-3.9697zm1.0725 11.912a14.667 14.667 0 0 1 0.107 0 14.667 14.667 0 0 1 14.666 14.667 14.667 14.667 0 0 1-14.666 14.667 14.667 14.667 0 0 1-14.666-14.667 14.667 14.667 0 0 1 14.56-14.667z" style="fill:#b28261"/>
  <path id="path3744" d="m-8519-208.73a3.8655 3.8655 0 0 1-3.8656 3.8655 3.8655 3.8655 0 0 1-3.8655-3.8655 3.8655 3.8655 0 0 1 3.8655-3.8655 3.8655 3.8655 0 0 1 3.8656 3.8655z" style="fill:#b28261"/>
  <path id="rect3748" d="m-9030.8-333.8h635v123.98h-635z" style="fill:#b28261;stroke-width:7.3939"/>
  <path id="path334" d="m-8905.8-234.61v-74.408h11.136q5.6692 0 9.7692 2.0247 4.1507 1.9741 6.3778 6.2259 2.2778 4.2519 2.2778 10.984 0 5.3654-1.4174 9.3642-1.3665 3.9988-5.3653 6.5297 4.0493 2.2272 5.8209 7.0864 1.7717 4.8087 1.7717 11.136 0 6.226-2.0248 10.984-1.974 4.758-5.8717 7.4408-3.8469 2.6321-9.5159 2.6321zm10.933-10.832q4.9605 0 6.5297-2.9358 1.5691-2.9864 1.5691-8.5037 0-5.6186-1.5691-8.5038-1.5692-2.9358-6.5297-2.9358zm0-32.901q4.6063 0 6.3273-2.5309 1.7715-2.5309 1.7715-7.4914 0-5.0111-1.8221-7.3902-1.7718-2.4296-6.2767-2.4296z" style="stroke-width:1.0545"/>
  <path id="path336" d="m-8865.4-234.61v-74.408h25.005v11.237h-14.072v20.045h10.124v10.933h-10.124v20.956h14.072v11.237z" style="stroke-width:1.0545"/>
  <path id="path338" d="m-8828.7-234.61v-74.408h10.933v64.284h14.477v10.124z" style="stroke-width:1.0545"/>
  <path id="path340" d="m-8795.3-234.61v-74.408h10.934v64.284h14.476v10.124z" style="stroke-width:1.0545"/>
  <path id="path342" d="m-8748.7-233.8q-4.5049 0-7.4913-1.4679-2.9864-1.5185-4.7074-4.3531-1.721-2.8346-2.4803-6.8334-0.7086-3.9988-0.7086-9.0099l10.731-1.0123q0 2.4296 0.1521 4.7074 0.2035 2.2272 0.658 4.0494 0.5063 1.7716 1.4174 2.8346 0.9616 1.063 2.4295 1.063 2.4297 0 3.4421-2.2272 1.0122-2.2778 1.0122-5.4667 0-3.1889-1.6704-6.6309-1.6702-3.442-3.9986-6.5296-3.9482-5.2642-6.9346-9.7692-2.9359-4.5049-4.6063-8.858-1.6198-4.3531-1.6198-9.1112 0-3.7457 0.9618-6.884 0.9617-3.1889 2.784-5.5173 1.8728-2.379 4.5049-3.6951 2.6322-1.316 6.0236-1.316 4.2012 0 7.0863 1.4173 2.9359 1.4173 4.7074 4.0494 1.8223 2.6321 2.6322 6.2766 0.8605 3.5938 0.8605 7.9976l-10.731 1.0124q0-1.8729-0.2035-3.7457-0.1521-1.9235-0.6074-3.4926-0.4555-1.5691-1.316-2.5309-0.8605-0.96172-2.2271-0.96172-2.1259 0-2.9358 1.8222-0.8099 1.7716-0.8099 5.0618 0 4.2519 2.2778 8.2 2.2778 3.9482 6.1247 9.2124 4.6061 6.226 7.4913 11.44 2.9359 5.2136 2.9359 11.541 0 3.9988-0.8605 7.4408-0.8605 3.3914-2.7334 5.9222-1.8223 2.5309-4.7073 3.9482-2.8348 1.4173-6.8841 1.4173z" style="stroke-width:1.0545"/>
  <path id="path344" d="m-8716.6-234.61-10.022-74.408h10.124l4.353 38.672 0.2035 2.4296h0.8099l0.3038-2.4296 4.6568-38.672h7.8963l4.6568 38.672 0.3036 2.4296h0.81l0.2035-2.4296 4.3532-38.672h10.123l-10.022 74.408h-8.5037l-5.0618-35.23-0.6074-4.3531h-0.405l-0.6074 4.3531-5.0618 35.23z" style="stroke-width:1.0545"/>
  <path id="path346" d="m-8654.7-233.8q-4.5554 0-7.8457-2.1259-3.2394-2.1259-5.011-5.7704-1.7211-3.6445-1.7211-8.2v-43.835q0-4.6062 1.7211-8.2 1.7716-3.6445 5.011-5.7704 3.2903-2.1259 7.8457-2.1259 4.5557 0 7.7952 2.1259 3.2902 2.1259 5.0112 5.7704 1.7715 3.6445 1.7715 8.2v43.835q0 4.5556-1.7715 8.2-1.721 3.6445-5.0112 5.7704-3.2395 2.1259-7.7952 2.1259zm0-10.63q2.0248 0 2.8347-1.6704 0.81-1.721 0.81-3.7963v-43.835q0-2.0753-0.8607-3.7457-0.8605-1.721-2.784-1.721-1.8728 0-2.7839 1.721-0.8605 1.6704-0.8605 3.7457v43.835q0 2.0753 0.8605 3.7963 0.8605 1.6704 2.7839 1.6704z" style="stroke-width:1.0545"/>
  <path id="path348" d="m-8628.9-234.61v-74.408h10.933q9.8199 0 14.477 5.4667 4.6566 5.4161 4.6566 15.995 0 6.2766-2.227 10.883-2.1765 4.5556-5.3149 6.6815l7.4408 35.382h-10.934l-6.1753-31.383h-1.9234v31.383zm10.933-41.506q3.037 0 4.8087-1.316 1.7715-1.3667 2.5309-3.8469 0.7591-2.4803 0.7591-5.8716 0-5.3148-1.7715-8.1494-1.721-2.8852-6.3272-2.8852z" style="stroke-width:1.0545"/>
  <path id="path350" d="m-8589.2-234.61v-74.408h10.225l10.124 38.773 0.911 3.442h0.6075v-42.215h10.022v74.408h-9.2123l-11.136-38.773-0.911-3.442h-0.6075v42.215z" style="stroke-width:1.0545"/>
  <path id="path352" d="m-8545.7-234.61v-74.408h25.005v11.237h-14.072v20.045h10.124v10.933h-10.124v20.956h14.072v11.237z" style="stroke-width:1.0545"/>
  <path id="path3754" d="m-9030.7-321.42h634.87" style="color-rendering:auto;color:#000000;dominant-baseline:auto;fill:#b28261;font-feature-settings:normal;font-variant-alternates:normal;font-variant-caps:normal;font-variant-east-asian:normal;font-variant-ligatures:normal;font-variant-numeric:normal;font-variant-position:normal;font-variation-settings:normal;image-rendering:auto;inline-size:0;isolation:auto;mix-blend-mode:normal;shape-margin:0;shape-padding:0;shape-rendering:auto;solid-color:#000000;stop-color:#000000;text-decoration-color:#000000;text-decoration-line:none;text-decoration-style:solid;text-indent:0;text-orientation:mixed;text-transform:none;white-space:normal"/>
  <path id="path3756" d="m-9030.7-322.45v2.0656h8.2655v-2.0656zm12.4 0v2.0656h8.2655v-2.0656zm12.4 0v2.0656h8.2655v-2.0656zm12.4 0v2.0656h8.2655v-2.0656zm12.4 0v2.0656h8.2655v-2.0656zm12.4 0v2.0656h8.2655v-2.0656zm12.4 0v2.0656h8.2656v-2.0656zm12.4 0v2.0656h8.2655v-2.0656zm12.4 0v2.0656h8.2655v-2.0656zm12.4 0v2.0656h8.2656v-2.0656zm12.4 0v2.0656h8.2655v-2.0656zm12.4 0v2.0656h8.2655v-2.0656zm12.4 0v2.0656h8.2655v-2.0656zm12.4 0v2.0656h8.2655v-2.0656zm12.4 0v2.0656h8.2655v-2.0656zm12.4 0v2.0656h8.2655v-2.0656zm12.4 0v2.0656h8.2656v-2.0656zm12.4 0v2.0656h8.2655v-2.0656zm12.4 0v2.0656h8.2655v-2.0656zm12.4 0v2.0656h8.2656v-2.0656zm12.4 0v2.0656h8.2655v-2.0656zm12.4 0v2.0656h8.2655v-2.0656zm12.4 0v2.0656h8.2655v-2.0656zm12.4 0v2.0656h8.2656v-2.0656zm12.4 0v2.0656h8.2655v-2.0656zm12.4 0v2.0656h8.2655v-2.0656zm12.4 0v2.0656h8.2656v-2.0656zm12.4 0v2.0656h8.2655v-2.0656zm12.4 0v2.0656h8.2655v-2.0656zm12.4 0v2.0656h8.2656v-2.0656zm12.4 0v2.0656h8.2655v-2.0656zm12.4 0v2.0656h8.2655v-2.0656zm12.4 0v2.0656h8.2655v-2.0656zm12.4 0v2.0656h8.2656v-2.0656zm12.4 0v2.0656h8.2655v-2.0656zm12.4 0v2.0656h8.2655v-2.0656zm12.4 0v2.0656h8.2656v-2.0656zm12.4 0v2.0656h8.2655v-2.0656zm12.4 0v2.0656h8.2655v-2.0656zm12.4 0v2.0656h8.2656v-2.0656zm12.4 0v2.0656h8.2655v-2.0656zm12.4 0v2.0656h8.2655v-2.0656zm12.4 0v2.0656h8.2655v-2.0656zm12.4 0v2.0656h8.2656v-2.0656zm12.4 0v2.0656h8.2655v-2.0656zm12.4 0v2.0656h8.2655v-2.0656zm12.4 0v2.0656h8.2656v-2.0656zm12.4 0v2.0656h8.2655v-2.0656zm12.4 0v2.0656h8.2655v-2.0656zm12.4 0v2.0656h8.2656v-2.0656zm12.4 0v2.0656h8.2655v-2.0656zm12.4 0v2.0656h2.4806v-2.0656z" style="color-rendering:auto;color:#000000;dominant-baseline:auto;fill:#000000;font-feature-settings:normal;font-variant-alternates:normal;font-variant-caps:normal;font-variant-east-asian:normal;font-variant-ligatures:normal;font-variant-numeric:normal;font-variant-position:normal;font-variation-settings:normal;image-rendering:auto;inline-size:0;isolation:auto;mix-blend-mode:normal;shape-margin:0;shape-padding:0;shape-rendering:auto;solid-color:#000000;stop-color:#000000;text-decoration-color:#000000;text-decoration-line:none;text-decoration-style:solid;text-indent:0;text-orientation:mixed;text-transform:none;white-space:normal"/>
  <path id="path3760" d="m-9030.7-222.22h634.87" style="color-rendering:auto;color:#000000;dominant-baseline:auto;fill:#b28261;font-feature-settings:normal;font-variant-alternates:normal;font-variant-caps:normal;font-variant-east-asian:normal;font-variant-ligatures:normal;font-variant-numeric:normal;font-variant-position:normal;font-variation-settings:normal;image-rendering:auto;inline-size:0;isolation:auto;mix-blend-mode:normal;shape-margin:0;shape-padding:0;shape-rendering:auto;solid-color:#000000;stop-color:#000000;text-decoration-color:#000000;text-decoration-line:none;text-decoration-style:solid;text-indent:0;text-orientation:mixed;text-transform:none;white-space:normal"/>
  <path id="path3762" d="m-9030.7-223.25v2.0656h8.2655v-2.0656zm12.4 0v2.0656h8.2655v-2.0656zm12.4 0v2.0656h8.2655v-2.0656zm12.4 0v2.0656h8.2655v-2.0656zm12.4 0v2.0656h8.2655v-2.0656zm12.4 0v2.0656h8.2655v-2.0656zm12.4 0v2.0656h8.2656v-2.0656zm12.4 0v2.0656h8.2655v-2.0656zm12.4 0v2.0656h8.2655v-2.0656zm12.4 0v2.0656h8.2656v-2.0656zm12.4 0v2.0656h8.2655v-2.0656zm12.4 0v2.0656h8.2655v-2.0656zm12.4 0v2.0656h8.2655v-2.0656zm12.4 0v2.0656h8.2655v-2.0656zm12.4 0v2.0656h8.2655v-2.0656zm12.4 0v2.0656h8.2655v-2.0656zm12.4 0v2.0656h8.2656v-2.0656zm12.4 0v2.0656h8.2655v-2.0656zm12.4 0v2.0656h8.2655v-2.0656zm12.4 0v2.0656h8.2656v-2.0656zm12.4 0v2.0656h8.2655v-2.0656zm12.4 0v2.0656h8.2655v-2.0656zm12.4 0v2.0656h8.2655v-2.0656zm12.4 0v2.0656h8.2656v-2.0656zm12.4 0v2.0656h8.2655v-2.0656zm12.4 0v2.0656h8.2655v-2.0656zm12.4 0v2.0656h8.2656v-2.0656zm12.4 0v2.0656h8.2655v-2.0656zm12.4 0v2.0656h8.2655v-2.0656zm12.4 0v2.0656h8.2656v-2.0656zm12.4 0v2.0656h8.2655v-2.0656zm12.4 0v2.0656h8.2655v-2.0656zm12.4 0v2.0656h8.2655v-2.0656zm12.4 0v2.0656h8.2656v-2.0656zm12.4 0v2.0656h8.2655v-2.0656zm12.4 0v2.0656h8.2655v-2.0656zm12.4 0v2.0656h8.2656v-2.0656zm12.4 0v2.0656h8.2655v-2.0656zm12.4 0v2.0656h8.2655v-2.0656zm12.4 0v2.0656h8.2656v-2.0656zm12.4 0v2.0656h8.2655v-2.0656zm12.4 0v2.0656h8.2655v-2.0656zm12.4 0v2.0656h8.2655v-2.0656zm12.4 0v2.0656h8.2656v-2.0656zm12.4 0v2.0656h8.2655v-2.0656zm12.4 0v2.0656h8.2655v-2.0656zm12.4 0v2.0656h8.2656v-2.0656zm12.4 0v2.0656h8.2655v-2.0656zm12.4 0v2.0656h8.2655v-2.0656zm12.4 0v2.0656h8.2656v-2.0656zm12.4 0v2.0656h8.2655v-2.0656zm12.4 0v2.0656h2.4806v-2.0656z" style="color-rendering:auto;color:#000000;dominant-baseline:auto;fill:#000000;font-feature-settings:normal;font-variant-alternates:normal;font-variant-caps:normal;font-variant-east-asian:normal;font-variant-ligatures:normal;font-variant-numeric:normal;font-variant-position:normal;font-variation-settings:normal;image-rendering:auto;inline-size:0;isolation:auto;mix-blend-mode:normal;shape-margin:0;shape-padding:0;shape-rendering:auto;solid-color:#000000;stop-color:#000000;text-decoration-color:#000000;text-decoration-line:none;text-decoration-style:solid;text-indent:0;text-orientation:mixed;text-transform:none;white-space:normal"/>
  <path id="path355" d="m-8789-437.79v-27.022h9.0811v4.081h-5.1104v7.2795h3.6764v3.9706h-3.6764v7.6104h5.1104v4.0809z" style="fill:#ffffff;stroke-width:2.5067"/>
  <path id="path357" d="m-8765.5-437.49q-1.6361 0-2.7206-0.53311-1.0846-0.55148-1.7095-1.5809-0.6251-1.0294-0.9007-2.4816-0.2574-1.4522-0.2574-3.2721l3.897-0.36765q0 0.88238 0.056 1.7096 0.074 0.80885 0.2391 1.4706 0.183 0.64339 0.5147 1.0294 0.3493 0.38603 0.8823 0.38603 0.8825 0 1.25-0.80883 0.3678-0.82723 0.3678-1.9853 0-1.1581-0.6066-2.4081-0.6066-1.25-1.4523-2.3714-1.4338-1.9118-2.5184-3.5478-1.0662-1.636-1.6728-3.217-0.5883-1.5809-0.5883-3.3089 0-1.3603 0.3492-2.5 0.3493-1.1581 1.0112-2.0037 0.68-0.86398 1.636-1.3419 0.9559-0.47795 2.1874-0.47795 1.5259 0 2.5737 0.51471 1.0662 0.51472 1.7096 1.4706 0.6617 0.95591 0.9559 2.2794 0.3125 1.3052 0.3125 2.9045l-3.8971 0.36766q0-0.68016-0.074-1.3603-0.056-0.69852-0.2206-1.2684-0.1665-0.56988-0.4779-0.91915-0.3125-0.34925-0.8089-0.34925-0.7721 0-1.0662 0.66177-0.2942 0.64339-0.2942 1.8383 0 1.5441 0.8274 2.978 0.8272 1.4338 2.2242 3.3456 1.6728 2.2611 2.7206 4.1545 1.0662 1.8934 1.0662 4.1912 0 1.4522-0.3124 2.7023-0.3127 1.2316-0.9927 2.1508-0.6619 0.91913-1.7096 1.4338-1.0295 0.51473-2.5001 0.51473z" style="fill:#ffffff;stroke-width:2.5067"/>
  <path id="path359" d="m-8748.5-437.79v-22.942h-3.7501v-4.081h11.471v4.081h-3.75v22.942z" style="fill:#ffffff;stroke-width:2.5067"/>
  <path id="path361" d="m-8732.8-437.79v-4.0809h3.8603v4.0809z" style="fill:#ffffff;stroke-width:2.5067"/>
  <path id="path363" d="m-8707.8-437.79v-3.9339q1.2685-1.9486 2.4632-4.0993 1.1949-2.1508 2.1508-4.3199 0.9744-2.1875 1.5442-4.228 0.5698-2.0405 0.5698-3.7501 0-1.2132-0.2388-2.2611-0.2391-1.0478-1.0848-1.0478-0.8455 0-1.0845 1.0478-0.2389 1.0294-0.2389 2.2611v1.875h-3.9707v-1.875q0-1.6177 0.2757-2.9044 0.2942-1.3052 0.9191-2.2059 0.6251-0.91914 1.636-1.3971 1.0112-0.47795 2.4633-0.47795 1.4523 0 2.4635 0.47795 1.0109 0.47795 1.6358 1.3603 0.6251 0.88238 0.9008 2.1324 0.2942 1.2316 0.2942 2.7574 0 1.8199-0.5516 3.9339-0.533 2.0956-1.4338 4.3199-0.8822 2.2059-1.9853 4.3567-1.1028 2.1324-2.2427 4.0442h6.287v3.9339z" style="fill:#ffffff;stroke-width:2.5067"/>
  <path id="path365" d="m-8682.5-437.49q-1.6912 0-2.8861-0.77207-1.1764-0.77208-1.8013-2.0956-0.6066-1.3419-0.6066-2.978v-15.919q0-1.6544 0.6249-2.978 0.6434-1.3236 1.8383-2.0956 1.1947-0.77207 2.8308-0.77207 1.6546 0 2.831 0.79045 1.195 0.77207 1.8199 2.0956 0.6434 1.3236 0.6434 2.9596v15.919q0 1.6361-0.6434 2.978-0.6434 1.3236-1.8384 2.0956-1.1764 0.77207-2.8125 0.77207zm0-3.8604q0.6985 0 1.0112-0.58824 0.3124-0.60664 0.3124-1.3971v-15.919q0-0.80885-0.3124-1.3971-0.3127-0.58824-1.0112-0.58824t-1.0109 0.62501q-0.3125 0.60662-0.3125 1.3603v15.919q0 0.79045 0.3125 1.3971 0.3124 0.58824 1.0109 0.58824z" style="fill:#ffffff;stroke-width:2.5067"/>
  <path id="path367" d="m-8668.1-437.79v-3.9339q1.2685-1.9486 2.4634-4.0993 1.1948-2.1508 2.1506-4.3199 0.9744-2.1875 1.5442-4.228 0.5698-2.0405 0.5698-3.7501 0-1.2132-0.2388-2.2611-0.2391-1.0478-1.0846-1.0478-0.8457 0-1.0845 1.0478-0.2391 1.0294-0.2391 2.2611v1.875h-3.9706v-1.875q0-1.6177 0.2756-2.9044 0.2942-1.3052 0.9193-2.2059 0.6249-0.91914 1.6361-1.3971 1.0109-0.47795 2.4632-0.47795 1.4521 0 2.4633 0.47795 1.0109 0.47795 1.636 1.3603 0.625 0.88238 0.9008 2.1324 0.294 1.2316 0.294 2.7574 0 1.8199-0.5513 3.9339-0.5333 2.0956-1.434 4.3199-0.8823 2.2059-1.9854 4.3567-1.1028 2.1324-2.2427 4.0442h6.287v3.9339z" style="fill:#ffffff;stroke-width:2.5067"/>
  <path id="path369" d="m-8642.8-437.49q-1.6911 0-2.8859-0.77207-1.1766-0.77208-1.8015-2.0956-0.6066-1.3419-0.6066-2.978v-15.919q0-1.6544 0.6249-2.978 0.6434-1.3236 1.8383-2.0956 1.195-0.77207 2.8308-0.77207 1.6546 0 2.831 0.79045 1.195 0.77207 1.8199 2.0956 0.6434 1.3236 0.6434 2.9596v15.919q0 1.6361-0.6434 2.978-0.6434 1.3236-1.8382 2.0956-1.1766 0.77207-2.8127 0.77207zm0-3.8604q0.6987 0 1.0112-0.58824 0.3124-0.60664 0.3124-1.3971v-15.919q0-0.80885-0.3124-1.3971-0.3125-0.58824-1.0112-0.58824-0.6985 0-1.0109 0.62501-0.3125 0.60662-0.3125 1.3603v15.919q0 0.79045 0.3125 1.3971 0.3124 0.58824 1.0109 0.58824z" style="fill:#ffffff;stroke-width:2.5067"/>
  <path id="rect3770" d="m-8820.4-454.38h18.46v6.1533h-18.46z" style="fill:#ffffff;stroke-width:2.7194"/>
  <path id="rect3772" d="m-8624.6-454.38h18.46v6.1533h-18.46z" style="fill:#ffffff;stroke-width:2.7194"/>
  <path id="path3774" d="m-8867-102.17c-0.6367 0-1.1493 0.51261-1.1493 1.1494v17.24h-64.046l33.287 40.666-30.093 36.764h75.354c0.6368 0 1.1493-0.51261 1.1493-1.1494v-17.24h278.42v17.24c0 0.63675 0.5127 1.1494 1.1493 1.1494h75.354l-30.093-36.764 33.287-40.666h-64.046v-17.24c0-0.63675-0.5127-1.1494-1.1495-1.1494z" style="fill:#8f4040"/>
  <path id="path374" d="m-8848.1-42.387v-31.247h-5.1076v-5.5584h15.624v5.5584h-5.1076v31.247z" style="stroke-width:3.4142"/>
  <path id="path376" d="m-8827.8-42.387v-36.806h12.369v5.5584h-6.9605v9.915h5.0077v5.4082h-5.0077v10.366h6.9605v5.5584z" style="stroke-width:3.4142"/>
  <path id="path378" d="m-8797.2-41.986q-2.3035 0-3.9309-1.0266-1.6026-1.0516-2.4538-2.8543-0.8262-1.8027-0.8262-4.0812v-21.683q0-2.2534 0.8512-4.0562 0.8763-1.8027 2.5038-2.8543 1.6274-1.0516 3.8559-1.0516 1.6774 0 3.0045 0.62594 1.3271 0.62594 2.2534 1.7276 0.9513 1.0766 1.4521 2.5288 0.501 1.4272 0.501 3.0797v5.0576h-5.0579v-5.0576q0-1.1518-0.4757-1.9279t-1.5773-0.77616q-1.0015 0-1.4523 0.8012-0.4506 0.8012-0.4506 1.9029v21.683q0 1.1017 0.4759 1.9029 0.5006 0.8012 1.427 0.8012 1.1267 0 1.5773-0.77618 0.4757-0.77616 0.4757-1.9279v-5.0577h5.0579v5.0577q0 2.2534-0.8764 4.0561-0.8765 1.8027-2.5039 2.8543-1.6024 1.0516-3.8307 1.0516z" style="stroke-width:3.4142"/>
  <path id="path380" d="m-8778.9-42.387v-36.806h5.4082v15.223h4.2064v-15.223h5.4081v36.806h-5.4081v-16.024h-4.2064v16.024z" style="stroke-width:3.4142"/>
  <path id="path382" d="m-8752.6-42.387v-36.806h5.0576l5.0075 19.179 0.4508 1.7026h0.3004v-20.882h4.9575v36.806h-4.5569l-5.5082-19.179-0.4508-1.7026h-0.3006v20.882z" style="stroke-width:3.4142"/>
  <path id="path384" d="m-8718.6-41.986q-2.2534 0-3.8808-1.0516-1.6026-1.0516-2.4789-2.8543-0.8512-1.8027-0.8512-4.0561v-21.683q0-2.2785 0.8512-4.0562 0.8763-1.8027 2.4789-2.8543 1.6274-1.0516 3.8808-1.0516t3.8557 1.0516q1.6275 1.0516 2.4787 2.8543 0.8763 1.8027 0.8763 4.0562v21.683q0 2.2534-0.8763 4.0561-0.8512 1.8027-2.4787 2.8543-1.6023 1.0516-3.8557 1.0516zm0-5.2579q1.0015 0 1.4021-0.82626 0.4007-0.85128 0.4007-1.8778v-21.683q0-1.0266-0.4257-1.8528-0.4257-0.85128-1.3771-0.85128-0.9265 0-1.3771 0.85128-0.4257 0.82624-0.4257 1.8528v21.683q0 1.0266 0.4257 1.8778 0.4256 0.82626 1.3771 0.82626z" style="stroke-width:3.4142"/>
  <path id="path386" d="m-8700.4-42.387v-36.806h5.4081v31.798h7.1608v5.0076z" style="stroke-width:3.4142"/>
  <path id="path388" d="m-8671.4-41.986q-2.2533 0-3.8808-1.0516-1.6025-1.0516-2.4789-2.8543-0.8512-1.8027-0.8512-4.0561v-21.683q0-2.2785 0.8512-4.0562 0.8764-1.8027 2.4789-2.8543 1.6275-1.0516 3.8808-1.0516 2.2534 0 3.8558 1.0516 1.6274 1.0516 2.4786 2.8543 0.8764 1.8027 0.8764 4.0562v21.683q0 2.2534-0.8764 4.0561-0.8512 1.8027-2.4786 2.8543-1.6024 1.0516-3.8558 1.0516zm0-5.2579q1.0015 0 1.4022-0.82626 0.4006-0.85128 0.4006-1.8778v-21.683q0-1.0266-0.4257-1.8528-0.4257-0.85128-1.3771-0.85128-0.9264 0-1.377 0.85128-0.4258 0.82624-0.4258 1.8528v21.683q0 1.0266 0.4258 1.8778 0.4255 0.82626 1.377 0.82626z" style="stroke-width:3.4142"/>
  <path id="path390" d="m-8647-41.986q-2.2285 0-3.6304-1.0516-1.4021-1.0516-2.078-2.8543-0.6513-1.8027-0.6513-4.0561v-21.683q0-2.2284 0.8764-4.0311 0.8765-1.8027 2.5039-2.8543 1.6275-1.0766 3.8307-1.0766 1.6776 0 3.0047 0.62594 1.352 0.6009 2.2782 1.7026 0.9516 1.1016 1.4275 2.5538 0.5005 1.4272 0.5005 3.0797v5.6585h-5.4079v-5.6585q0-1.1017-0.4007-1.9029-0.4006-0.8012-1.4023-0.8012-0.9764 0-1.402 0.85128-0.4006 0.82624-0.4006 1.8528v22.133q0 1.0766 0.4257 1.9029 0.4255 0.8012 1.3769 0.8012 1.0017 0 1.4023-0.8012 0.4007-0.82626 0.4007-1.9029v-6.1593h-2.1535v-5.0576h7.5614v18.328h-3.2047l-0.6512-2.003q-0.7008 1.1267-1.8026 1.7777-1.0768 0.62596-2.4037 0.62596z" style="stroke-width:3.4142"/>
  <path id="path392" d="m-8627.7-42.387v-36.806h5.4084v36.806z" style="stroke-width:3.4142"/>
  <path id="path394" d="m-8611-42.387v-36.806h12.368v5.5584h-6.9603v9.915h5.0073v5.4082h-5.0073v10.366h6.9603v5.5584z" style="stroke-width:3.4142"/>
  <path id="path396" d="m-8580.8-41.986q-2.2283 0-3.7054-0.72609-1.4774-0.75115-2.3287-2.1532-0.8512-1.4021-1.2268-3.3801-0.3506-1.978-0.3506-4.4567l5.3082-0.50075q0 1.2018 0.076 2.3285 0.1007 1.1017 0.3256 2.003 0.2501 0.87633 0.7009 1.4021 0.4757 0.52579 1.2018 0.52579 1.2019 0 1.7024-1.1016 0.501-1.1267 0.501-2.7041t-0.8262-3.28q-0.8263-1.7026-1.9781-3.2299-1.9528-2.6039-3.4302-4.8323-1.4521-2.2284-2.2783-4.3816-0.8013-2.1532-0.8013-4.5068 0-1.8528 0.4757-3.4052 0.4757-1.5774 1.3771-2.7291 0.9264-1.1768 2.2285-1.8278 1.3018-0.65098 2.9794-0.65098 2.078 0 3.5053 0.70105 1.452 0.70105 2.3286 2.003 0.9014 1.302 1.3018 3.1047 0.4257 1.7777 0.4257 3.956l-5.308 0.50077q0-0.92641-0.1007-1.8528-0.076-0.95144-0.3002-1.7276-0.2255-0.77616-0.6512-1.2519-0.4255-0.47573-1.1016-0.47573-1.0515 0-1.4521 0.90137-0.4006 0.87631-0.4006 2.5038 0 2.1032 1.1267 4.0561 1.1266 1.9529 3.0295 4.5569 2.2785 3.0797 3.7055 5.6586 1.4523 2.5789 1.4523 5.7086 0 1.978-0.4255 3.6806-0.4257 1.6775-1.3522 2.9294-0.9014 1.2519-2.3284 1.9529-1.4024 0.70107-3.4054 0.70107z" style="stroke-width:3.4142"/>
 </g>
</svg>
