<?xml version="1.0" encoding="UTF-8" standalone="no"?>
<svg
   sodipodi:docname="bellsworne.svg"
   inkscape:version="1.2.2 (b0a8486541, 2022-12-01)"
   id="svg8"
   version="1.1"
   viewBox="0 0 634.99999 546.60896"
   height="2065.9236"
   width="2400"
   inkscape:export-filename="D:\Bellsworne\bellsworne-banner-v1.png"
   inkscape:export-xdpi="95.800003"
   inkscape:export-ydpi="95.800003"
   xmlns:inkscape="http://www.inkscape.org/namespaces/inkscape"
   xmlns:sodipodi="http://sodipodi.sourceforge.net/DTD/sodipodi-0.dtd"
   xmlns="http://www.w3.org/2000/svg"
   xmlns:svg="http://www.w3.org/2000/svg"
   xmlns:rdf="http://www.w3.org/1999/02/22-rdf-syntax-ns#"
   xmlns:cc="http://creativecommons.org/ns#"
   xmlns:dc="http://purl.org/dc/elements/1.1/">
  <defs
     id="defs2" />
  <sodipodi:namedview
     id="base"
     pagecolor="#ffffff"
     bordercolor="#666666"
     borderopacity="1.0"
     inkscape:pageopacity="0"
     inkscape:pageshadow="2"
     inkscape:zoom="0.034370457"
     inkscape:cx="-35844.737"
     inkscape:cy="-1862.0643"
     inkscape:document-units="px"
     inkscape:current-layer="layer8"
     inkscape:document-rotation="0"
     showgrid="false"
     inkscape:showpageshadow="false"
     showborder="false"
     units="px"
     inkscape:window-width="1920"
     inkscape:window-height="1016"
     inkscape:window-x="0"
     inkscape:window-y="0"
     inkscape:window-maximized="1"
     inkscape:snap-nodes="true"
     inkscape:snap-smooth-nodes="true"
     inkscape:snap-midpoints="false"
     inkscape:snap-intersection-paths="false"
     inkscape:object-paths="false"
     inkscape:snap-text-baseline="false"
     inkscape:snap-others="false"
     inkscape:object-nodes="false"
     inkscape:snap-bbox="false"
     inkscape:bbox-nodes="false"
     inkscape:snap-bbox-edge-midpoints="false"
     inkscape:snap-bbox-midpoints="false"
     inkscape:snap-global="true"
     inkscape:snap-object-midpoints="false"
     inkscape:pagecheckerboard="0"
     inkscape:deskcolor="#d1d1d1" />
  <metadata
     id="metadata5">
    <rdf:RDF>
      <cc:Work
         rdf:about="">
        <dc:format>image/svg+xml</dc:format>
        <dc:type
           rdf:resource="http://purl.org/dc/dcmitype/StillImage" />
        <dc:title />
      </cc:Work>
    </rdf:RDF>
  </metadata>
  <g
     inkscape:label="Layer 1"
     inkscape:groupmode="layer"
     id="layer1"
     transform="translate(9473.1116,-73.622259)">
    <rect
       style="fill:#2b2b2b;stroke-width:2.02921"
       id="rect1198"
       width="2224.6807"
       height="4715.4028"
       x="-10267.952"
       y="-2775.6255"
       ry="1.4313874" />
  </g>
  <g
     inkscape:groupmode="layer"
     id="layer4"
     inkscape:label="FARM"
     style="display:inline"
     transform="translate(9473.1116,-73.622259)">
    <g
       id="g4574"
       transform="matrix(2.0556256,0,0,2.0608589,-9515.6634,-1416.473)">
      <g
         id="g4572"
         transform="translate(-432.83337,937.23318)">
        <ellipse
           style="fill:#ff0000;fill-opacity:1;stroke:none;stroke-width:0.264583;stroke-miterlimit:4;stroke-dasharray:none;stroke-dashoffset:0;stroke-opacity:1"
           id="ellipse4482"
           cx="609.59998"
           cy="-36.512501"
           rx="64.215721"
           ry="39.6875" />
        <path
           style="fill:#b28261;fill-opacity:1;stroke:none;stroke-width:0.264583px;stroke-linecap:butt;stroke-linejoin:miter;stroke-opacity:1"
           d="m 762.44171,-51.415521 -49.17887,28.393436 2.69965,-40.742498 39.15833,-0.79375 z"
           id="path4484" />
        <path
           style="fill:#b28261;fill-opacity:1;stroke:none;stroke-width:0.264583px;stroke-linecap:butt;stroke-linejoin:miter;stroke-opacity:1"
           d="m 453.53335,-111.7258 42.38458,-24.47075 -1.67627,43.327801 -34.925,-6.614583 -5.78331,-12.242468"
           id="path4486" />
        <g
           id="g4500"
           transform="matrix(0.81558738,0,0,1,112.12058,0)">
          <g
             id="g4492"
             transform="matrix(1.3408274,0,0,1,-177.68592,6.7351921)"
             style="fill:#2b2b2b;fill-opacity:1;stroke:none">
            <path
               sodipodi:type="star"
               style="fill:#2b2b2b;fill-opacity:1;stroke:none;stroke-width:2.64583;stroke-miterlimit:4;stroke-dasharray:none"
               id="path4488"
               sodipodi:sides="6"
               sodipodi:cx="585.96167"
               sodipodi:cy="-88.305855"
               sodipodi:r1="123.04144"
               sodipodi:r2="106.55701"
               sodipodi:arg1="0.52359878"
               sodipodi:arg2="1.0471976"
               inkscape:flatsided="true"
               inkscape:rounded="0"
               inkscape:randomized="0"
               d="m 692.51868,-26.785133 -106.55701,61.520721 -106.55702,-61.520722 0,-123.041446 106.55702,-61.52072 106.55702,61.52072 z"
               inkscape:transform-center-x="6.6571939e-06"
               inkscape:transform-center-y="1.7657093e-06" />
            <path
               sodipodi:type="star"
               style="fill:#2b2b2b;fill-opacity:1;stroke:none;stroke-width:3.83878;stroke-miterlimit:4;stroke-dasharray:none"
               id="path4490"
               sodipodi:sides="6"
               sodipodi:cx="585.96167"
               sodipodi:cy="-88.305855"
               sodipodi:r1="130.40045"
               sodipodi:r2="112.93008"
               sodipodi:arg1="0.52359878"
               sodipodi:arg2="1.0471976"
               inkscape:flatsided="true"
               inkscape:rounded="0"
               inkscape:randomized="0"
               d="m 698.89177,-23.105628 -112.9301,65.200225 -112.9301,-65.200226 0,-130.400451 112.9301,-65.20023 112.9301,65.20023 z"
               inkscape:transform-center-x="6.1697596e-06"
               inkscape:transform-center-y="1.6364255e-06" />
          </g>
          <g
             id="g4498"
             transform="matrix(1.3408274,0,0,1,-177.68592,6.7351921)"
             style="stroke:#b28261;stroke-opacity:1">
            <path
               sodipodi:type="star"
               style="fill:none;stroke:#b28261;stroke-width:2.64583;stroke-miterlimit:4;stroke-dasharray:none;stroke-opacity:1"
               id="path4494"
               sodipodi:sides="6"
               sodipodi:cx="585.96167"
               sodipodi:cy="-88.305855"
               sodipodi:r1="123.04144"
               sodipodi:r2="106.55701"
               sodipodi:arg1="0.52359878"
               sodipodi:arg2="1.0471976"
               inkscape:flatsided="true"
               inkscape:rounded="0"
               inkscape:randomized="0"
               d="m 692.51868,-26.785133 -106.55701,61.520721 -106.55702,-61.520722 0,-123.041446 106.55702,-61.52072 106.55702,61.52072 z"
               inkscape:transform-center-x="6.6571939e-06"
               inkscape:transform-center-y="1.7657093e-06" />
            <path
               sodipodi:type="star"
               style="fill:none;stroke:#b28261;stroke-width:3.83878;stroke-miterlimit:4;stroke-dasharray:none;stroke-opacity:1"
               id="path4496"
               sodipodi:sides="6"
               sodipodi:cx="585.96167"
               sodipodi:cy="-88.305855"
               sodipodi:r1="130.40045"
               sodipodi:r2="112.93008"
               sodipodi:arg1="0.52359878"
               sodipodi:arg2="1.0471976"
               inkscape:flatsided="true"
               inkscape:rounded="0"
               inkscape:randomized="0"
               d="m 698.89177,-23.105628 -112.9301,65.200225 -112.9301,-65.200226 0,-130.400451 112.9301,-65.20023 112.9301,65.20023 z"
               inkscape:transform-center-x="6.1697596e-06"
               inkscape:transform-center-y="1.6364255e-06" />
          </g>
        </g>
        <path
           id="path4502"
           style="fill:#b28261;fill-opacity:1;stroke:none;stroke-width:0.936199"
           d="m 605.85458,-159.02199 -2.54534,6.08342 -0.71672,4.37749 0.13338,1.64199 -6.56988,0.86486 -0.29616,-1.61999 -1.82483,-4.04288 -4.03372,-5.21859 -4.11966,1.10445 -0.8831,6.53513 0.44067,4.414 0.55217,1.55064 -6.12193,2.53607 -0.7058,-1.48838 -2.80859,-3.4321 -5.24777,-3.99531 -3.69181,2.13199 0.83743,6.54067 1.5671,4.14884 0.93619,1.35676 -5.25705,4.03195 -1.06596,-1.25444 -3.60221,-2.58727 -6.10179,-2.50145 -3.01521,3.01526 2.50143,6.10174 2.58739,3.60215 1.25431,1.06602 -4.03186,5.25699 -1.35671,-0.93619 -4.14895,-1.56704 -6.54059,-0.83747 -2.13208,3.69179 3.99529,5.24783 3.4321,2.80859 1.48847,0.70581 -2.53614,6.12188 -1.55064,-0.55403 -4.41399,-0.43883 -6.53513,0.88318 -1.10257,4.119642 5.21679,4.033697 4.0428,1.82486 1.62009,0.29617 -0.8649,6.56804 -1.64199,-0.13167 -4.37749,0.71681 -6.08353,2.54526 v 4.26413 l 6.08353,2.54528 4.37749,0.7186 1.64199,-0.13338 0.8649,6.568018 -1.62009,0.297933 -4.0428,1.824852 -5.21679,4.033701 1.10257,4.117797 6.53513,0.885022 4.41399,-0.44067 1.55064,-0.552234 2.53614,6.120054 -1.48847,0.705803 -3.4321,2.810433 -3.99529,5.246034 2.13208,3.693589 6.54059,-0.837467 4.14895,-1.568852 1.35671,-0.934386 4.03186,5.255191 -1.25431,1.067815 -2.58739,3.602193 -2.50143,6.10175 3.01521,3.01521 6.10179,-2.501399 3.60221,-2.589184 1.06596,-1.254361 5.25705,4.033699 -0.93619,1.354958 -1.5671,4.148875 -0.83743,6.542456 3.69181,2.132025 5.24777,-3.997113 2.80859,-3.432136 0.7058,-1.486587 6.12193,2.534342 -0.55217,1.552399 -0.44067,4.412203 0.8831,6.5369372 4.11966,1.102598 4.03372,-5.2167262 1.82483,-4.042865 0.29616,-1.620053 6.56988,0.86489 -0.13338,1.641992 0.71672,4.37565 2.54534,6.0852972 h 4.26413 l 2.54712,-6.0852972 0.71676,-4.37565 -0.13338,-1.641992 6.56809,-0.86489 0.29793,1.620053 1.82485,4.042865 4.0337,5.2167262 4.11966,-1.102598 0.8832,-6.5369372 -0.44067,-4.412203 -0.55227,-1.552399 6.12004,-2.534342 0.70769,1.486587 2.80859,3.432136 5.24601,3.997113 3.69357,-2.132025 -0.83743,-6.542456 -1.56888,-4.148875 -0.9343,-1.354958 5.25517,-4.033699 1.06781,1.254361 3.60213,2.589184 6.10179,2.501399 3.01521,-3.01521 -2.50143,-6.10175 -2.58914,-3.602193 -1.25434,-1.067815 4.0337,-5.255191 1.3549,0.934386 4.14892,1.568852 6.54248,0.837467 2.13201,-3.693589 -3.99533,-5.246034 -3.43388,-2.810433 -1.48662,-0.705803 2.53431,-6.120054 1.5524,0.552234 4.41224,0.44067 6.53688,-0.885022 1.10257,-4.117797 -5.21668,-4.033701 -4.04286,-1.824852 -1.6201,-0.297933 0.86492,-6.568018 1.64204,0.13338 4.37749,-0.7186 6.08342,-2.54528 v -4.26413 l -6.08342,-2.54526 -4.37749,-0.71681 -1.64204,0.13167 -0.86492,-6.56804 1.6201,-0.29617 4.04286,-1.82486 5.21668,-4.033697 -1.10257,-4.119642 -6.53688,-0.88318 -4.41224,0.43883 -1.5524,0.55403 -2.53431,-6.12188 1.48662,-0.70581 3.43388,-2.80859 3.99533,-5.24783 -2.13201,-3.69179 -6.54248,0.83747 -4.14892,1.56704 -1.3549,0.93619 -4.0337,-5.25699 1.25434,-1.06602 2.58914,-3.60215 2.50143,-6.10174 -3.01521,-3.01526 -6.10179,2.50145 -3.60213,2.58727 -1.06781,1.25444 -5.25517,-4.03195 0.9343,-1.35676 1.56888,-4.14884 0.83743,-6.54067 -3.69357,-2.13199 -5.24601,3.99531 -2.80859,3.4321 -0.70769,1.48838 -6.12004,-2.53607 0.55227,-1.55064 0.44067,-4.414 -0.8832,-6.53513 -4.11966,-1.10445 -4.0337,5.21859 -1.82485,4.04288 -0.29793,1.61999 -6.56809,-0.86486 0.13338,-1.64199 -0.71676,-4.37749 -2.54712,-6.08342 z m 1.91445,19.19941 a 58.252468,58.252468 0 0 1 0.21763,0 58.252468,58.252468 0 0 1 58.25291,58.251049 58.252468,58.252468 0 0 1 -58.25291,58.252847 58.252468,58.252468 0 0 1 -58.25105,-58.252847 58.252468,58.252468 0 0 1 58.03346,-58.251049 z m 0.21763,2.31305 a 55.938467,55.938467 0 0 0 -55.938,55.939839 55.938467,55.938467 0 0 0 55.938,55.937957 55.938467,55.938467 0 0 0 55.93983,-55.937957 55.938467,55.938467 0 0 0 -55.93983,-55.939839 z m -0.29618,2.9786 a 52.959496,52.959496 0 0 1 0.29618,0 52.959496,52.959496 0 0 1 36.43326,14.52215 l -31.65531,31.655259 a 8.1854549,8.1854549 0 0 0 -4.45247,-1.31837 8.1854549,8.1854549 0 0 0 -4.84922,1.59083 l -31.91675,-31.918579 a 52.959496,52.959496 0 0 1 36.14424,-14.53129 z m -38.1318,16.51887 31.96056,31.960649 a 8.1854549,8.1854549 0 0 0 -1.39324,4.56581 8.1854549,8.1854549 0 0 0 1.3,4.42503 l -31.89841,31.896612 a 52.959496,52.959496 0 0 1 -14.50013,-36.405732 52.959496,52.959496 0 0 1 14.53122,-36.442369 z m 76.86711,0.0107 a 52.959496,52.959496 0 0 1 14.52214,36.433179 52.959496,52.959496 0 0 1 -14.5185,36.425882 L 614.9205,-76.651301 a 8.1854549,8.1854549 0 0 0 1.57798,-4.83277 8.1854549,8.1854549 0 0 0 -1.65662,-4.93518 z m -43.02132,43.067049 a 8.1854549,8.1854549 0 0 0 4.90774,1.63649 8.1854549,8.1854549 0 0 0 4.54939,-1.38234 l 31.55286,31.552872 a 52.959496,52.959496 0 0 1 -36.42774,14.518426 52.959496,52.959496 0 0 1 -36.40753,-14.498293 z" />
        <g
           id="g4516"
           transform="translate(-0.5906141,15.064768)">
          <g
             id="g4508"
             transform="matrix(0.50404175,0,0,0.50404175,263.25697,-0.91059354)">
            <path
               id="path4504"
               style="fill:#b28261;fill-opacity:1;stroke:none;stroke-width:4.35538;stroke-opacity:1"
               d="m 1890.6816,-1044.877 -6.5546,14.4805 -0.5,5.1348 1.2851,8.7539 -15.498,4.1523 -3.2637,-8.2246 -2.9981,-4.1953 -12.9179,-9.2637 -7.4512,4.3028 1.5625,15.8183 2.1348,4.6953 5.4902,6.9375 -11.3457,11.34575 -6.9375,-5.49024 -4.6953,-2.13476 -15.8184,-1.56255 -4.3027,7.45122 9.2637,12.91797 4.1953,2.99804 8.2246,3.26368 -4.1543,15.49804 -8.752,-1.28515 -5.1347,0.5 -14.4805,6.55468 v 8.60547 l 14.4805,6.55469 5.1347,0.49805 8.752,-1.28516 4.1543,15.49805 -8.2246,3.26367 -4.1953,3 -9.2637,12.91602 4.3027,7.45312 15.8184,-1.56445 4.6953,-2.13477 6.9375,-5.49023 11.3457,11.3457 -5.4902,6.9375 -2.1348,4.69727 -1.5625,15.8164 7.4512,4.30274 12.9179,-9.26172 2.9981,-4.19727 3.2637,-8.22265 15.498,4.15234 -1.2851,8.75195 0.5,5.13477 6.5546,14.48047 h 8.6036 l 6.5566,-14.48047 0.498,-5.13477 -1.2851,-8.75195 15.498,-4.15234 3.2637,8.22265 3,4.19727 12.916,9.26172 7.4512,-4.30274 -1.5625,-15.8164 -2.1348,-4.69727 -5.4902,-6.9375 11.3457,-11.3457 6.9375,5.49023 4.6973,2.13477 15.8164,1.56445 4.3027,-7.45312 -9.2617,-12.91602 -4.1973,-3 -8.2226,-3.26367 4.1523,-15.49805 8.752,1.28516 5.1347,-0.49805 14.4805,-6.55469 v -8.60547 l -14.4805,-6.55468 -5.1347,-0.5 -8.752,1.28515 -4.1523,-15.49804 8.2226,-3.26368 4.1973,-2.99804 9.2617,-12.91797 -4.3027,-7.45122 -15.8164,1.56255 -4.6973,2.13476 -6.9375,5.49024 -11.3457,-11.34575 5.4902,-6.9375 2.1348,-4.6953 1.5625,-15.8183 -7.4512,-4.3028 -12.916,9.2637 -3,4.1953 -3.2637,8.2246 -15.498,-4.1523 1.2851,-8.7539 -0.498,-5.1348 -6.5566,-14.4805 z m 3.9122,43.4512 a 53.499999,53.499999 0 0 1 0.3906,0 53.499999,53.499999 0 0 1 53.5,53.50002 53.499999,53.499999 0 0 1 -53.5,53.5 53.499999,53.499999 0 0 1 -53.5,-53.5 53.499999,53.499999 0 0 1 53.1094,-53.50002 z"
               transform="scale(0.26458333)" />
            <path
               id="path4506"
               style="fill:#b28261;fill-opacity:1;stroke:none;stroke-width:0.0643235;stroke-miterlimit:4;stroke-dasharray:none;stroke-dashoffset:0;stroke-opacity:1"
               d="m 505.11177,-250.80563 a 3.7307554,3.7307554 0 0 1 -3.73076,3.73076 3.7307554,3.7307554 0 0 1 -3.73075,-3.73076 3.7307554,3.7307554 0 0 1 3.73075,-3.73075 3.7307554,3.7307554 0 0 1 3.73076,3.73075 z" />
          </g>
          <g
             id="g4514"
             transform="matrix(0.50404175,0,0,0.50404175,448.46542,-0.91059354)">
            <path
               id="path4510"
               style="fill:#b28261;fill-opacity:1;stroke:none;stroke-width:4.35538;stroke-opacity:1"
               d="m 1890.6816,-1044.877 -6.5546,14.4805 -0.5,5.1348 1.2851,8.7539 -15.498,4.1523 -3.2637,-8.2246 -2.9981,-4.1953 -12.9179,-9.2637 -7.4512,4.3028 1.5625,15.8183 2.1348,4.6953 5.4902,6.9375 -11.3457,11.34575 -6.9375,-5.49024 -4.6953,-2.13476 -15.8184,-1.56255 -4.3027,7.45122 9.2637,12.91797 4.1953,2.99804 8.2246,3.26368 -4.1543,15.49804 -8.752,-1.28515 -5.1347,0.5 -14.4805,6.55468 v 8.60547 l 14.4805,6.55469 5.1347,0.49805 8.752,-1.28516 4.1543,15.49805 -8.2246,3.26367 -4.1953,3 -9.2637,12.91602 4.3027,7.45312 15.8184,-1.56445 4.6953,-2.13477 6.9375,-5.49023 11.3457,11.3457 -5.4902,6.9375 -2.1348,4.69727 -1.5625,15.8164 7.4512,4.30274 12.9179,-9.26172 2.9981,-4.19727 3.2637,-8.22265 15.498,4.15234 -1.2851,8.75195 0.5,5.13477 6.5546,14.48047 h 8.6036 l 6.5566,-14.48047 0.498,-5.13477 -1.2851,-8.75195 15.498,-4.15234 3.2637,8.22265 3,4.19727 12.916,9.26172 7.4512,-4.30274 -1.5625,-15.8164 -2.1348,-4.69727 -5.4902,-6.9375 11.3457,-11.3457 6.9375,5.49023 4.6973,2.13477 15.8164,1.56445 4.3027,-7.45312 -9.2617,-12.91602 -4.1973,-3 -8.2226,-3.26367 4.1523,-15.49805 8.752,1.28516 5.1347,-0.49805 14.4805,-6.55469 v -8.60547 l -14.4805,-6.55468 -5.1347,-0.5 -8.752,1.28515 -4.1523,-15.49804 8.2226,-3.26368 4.1973,-2.99804 9.2617,-12.91797 -4.3027,-7.45122 -15.8164,1.56255 -4.6973,2.13476 -6.9375,5.49024 -11.3457,-11.34575 5.4902,-6.9375 2.1348,-4.6953 1.5625,-15.8183 -7.4512,-4.3028 -12.916,9.2637 -3,4.1953 -3.2637,8.2246 -15.498,-4.1523 1.2851,-8.7539 -0.498,-5.1348 -6.5566,-14.4805 z m 3.9122,43.4512 a 53.499999,53.499999 0 0 1 0.3906,0 53.499999,53.499999 0 0 1 53.5,53.50002 53.499999,53.499999 0 0 1 -53.5,53.5 53.499999,53.499999 0 0 1 -53.5,-53.5 53.499999,53.499999 0 0 1 53.1094,-53.50002 z"
               transform="scale(0.26458333)" />
            <path
               id="path4512"
               style="fill:#b28261;fill-opacity:1;stroke:none;stroke-width:0.0643235;stroke-miterlimit:4;stroke-dasharray:none;stroke-dashoffset:0;stroke-opacity:1"
               d="m 505.11177,-250.80563 a 3.7307554,3.7307554 0 0 1 -3.73076,3.73076 3.7307554,3.7307554 0 0 1 -3.73075,-3.73076 3.7307554,3.7307554 0 0 1 3.73075,-3.73075 3.7307554,3.7307554 0 0 1 3.73076,3.73075 z" />
          </g>
        </g>
        <g
           id="g4530"
           transform="translate(-0.5906141,76.448104)">
          <g
             id="g4522"
             transform="matrix(0.50404175,0,0,0.50404175,263.25697,-0.91059354)">
            <path
               id="path4518"
               style="fill:#b28261;fill-opacity:1;stroke:none;stroke-width:4.35538;stroke-opacity:1"
               d="m 1890.6816,-1044.877 -6.5546,14.4805 -0.5,5.1348 1.2851,8.7539 -15.498,4.1523 -3.2637,-8.2246 -2.9981,-4.1953 -12.9179,-9.2637 -7.4512,4.3028 1.5625,15.8183 2.1348,4.6953 5.4902,6.9375 -11.3457,11.34575 -6.9375,-5.49024 -4.6953,-2.13476 -15.8184,-1.56255 -4.3027,7.45122 9.2637,12.91797 4.1953,2.99804 8.2246,3.26368 -4.1543,15.49804 -8.752,-1.28515 -5.1347,0.5 -14.4805,6.55468 v 8.60547 l 14.4805,6.55469 5.1347,0.49805 8.752,-1.28516 4.1543,15.49805 -8.2246,3.26367 -4.1953,3 -9.2637,12.91602 4.3027,7.45312 15.8184,-1.56445 4.6953,-2.13477 6.9375,-5.49023 11.3457,11.3457 -5.4902,6.9375 -2.1348,4.69727 -1.5625,15.8164 7.4512,4.30274 12.9179,-9.26172 2.9981,-4.19727 3.2637,-8.22265 15.498,4.15234 -1.2851,8.75195 0.5,5.13477 6.5546,14.48047 h 8.6036 l 6.5566,-14.48047 0.498,-5.13477 -1.2851,-8.75195 15.498,-4.15234 3.2637,8.22265 3,4.19727 12.916,9.26172 7.4512,-4.30274 -1.5625,-15.8164 -2.1348,-4.69727 -5.4902,-6.9375 11.3457,-11.3457 6.9375,5.49023 4.6973,2.13477 15.8164,1.56445 4.3027,-7.45312 -9.2617,-12.91602 -4.1973,-3 -8.2226,-3.26367 4.1523,-15.49805 8.752,1.28516 5.1347,-0.49805 14.4805,-6.55469 v -8.60547 l -14.4805,-6.55468 -5.1347,-0.5 -8.752,1.28515 -4.1523,-15.49804 8.2226,-3.26368 4.1973,-2.99804 9.2617,-12.91797 -4.3027,-7.45122 -15.8164,1.56255 -4.6973,2.13476 -6.9375,5.49024 -11.3457,-11.34575 5.4902,-6.9375 2.1348,-4.6953 1.5625,-15.8183 -7.4512,-4.3028 -12.916,9.2637 -3,4.1953 -3.2637,8.2246 -15.498,-4.1523 1.2851,-8.7539 -0.498,-5.1348 -6.5566,-14.4805 z m 3.9122,43.4512 a 53.499999,53.499999 0 0 1 0.3906,0 53.499999,53.499999 0 0 1 53.5,53.50002 53.499999,53.499999 0 0 1 -53.5,53.5 53.499999,53.499999 0 0 1 -53.5,-53.5 53.499999,53.499999 0 0 1 53.1094,-53.50002 z"
               transform="scale(0.26458333)" />
            <path
               id="path4520"
               style="fill:#b28261;fill-opacity:1;stroke:none;stroke-width:0.0643235;stroke-miterlimit:4;stroke-dasharray:none;stroke-dashoffset:0;stroke-opacity:1"
               d="m 505.11177,-250.80563 a 3.7307554,3.7307554 0 0 1 -3.73076,3.73076 3.7307554,3.7307554 0 0 1 -3.73075,-3.73076 3.7307554,3.7307554 0 0 1 3.73075,-3.73075 3.7307554,3.7307554 0 0 1 3.73076,3.73075 z" />
          </g>
          <g
             id="g4528"
             transform="matrix(0.50404175,0,0,0.50404175,448.46542,-0.91059354)">
            <path
               id="path4524"
               style="fill:#b28261;fill-opacity:1;stroke:none;stroke-width:4.35538;stroke-opacity:1"
               d="m 1890.6816,-1044.877 -6.5546,14.4805 -0.5,5.1348 1.2851,8.7539 -15.498,4.1523 -3.2637,-8.2246 -2.9981,-4.1953 -12.9179,-9.2637 -7.4512,4.3028 1.5625,15.8183 2.1348,4.6953 5.4902,6.9375 -11.3457,11.34575 -6.9375,-5.49024 -4.6953,-2.13476 -15.8184,-1.56255 -4.3027,7.45122 9.2637,12.91797 4.1953,2.99804 8.2246,3.26368 -4.1543,15.49804 -8.752,-1.28515 -5.1347,0.5 -14.4805,6.55468 v 8.60547 l 14.4805,6.55469 5.1347,0.49805 8.752,-1.28516 4.1543,15.49805 -8.2246,3.26367 -4.1953,3 -9.2637,12.91602 4.3027,7.45312 15.8184,-1.56445 4.6953,-2.13477 6.9375,-5.49023 11.3457,11.3457 -5.4902,6.9375 -2.1348,4.69727 -1.5625,15.8164 7.4512,4.30274 12.9179,-9.26172 2.9981,-4.19727 3.2637,-8.22265 15.498,4.15234 -1.2851,8.75195 0.5,5.13477 6.5546,14.48047 h 8.6036 l 6.5566,-14.48047 0.498,-5.13477 -1.2851,-8.75195 15.498,-4.15234 3.2637,8.22265 3,4.19727 12.916,9.26172 7.4512,-4.30274 -1.5625,-15.8164 -2.1348,-4.69727 -5.4902,-6.9375 11.3457,-11.3457 6.9375,5.49023 4.6973,2.13477 15.8164,1.56445 4.3027,-7.45312 -9.2617,-12.91602 -4.1973,-3 -8.2226,-3.26367 4.1523,-15.49805 8.752,1.28516 5.1347,-0.49805 14.4805,-6.55469 v -8.60547 l -14.4805,-6.55468 -5.1347,-0.5 -8.752,1.28515 -4.1523,-15.49804 8.2226,-3.26368 4.1973,-2.99804 9.2617,-12.91797 -4.3027,-7.45122 -15.8164,1.56255 -4.6973,2.13476 -6.9375,5.49024 -11.3457,-11.34575 5.4902,-6.9375 2.1348,-4.6953 1.5625,-15.8183 -7.4512,-4.3028 -12.916,9.2637 -3,4.1953 -3.2637,8.2246 -15.498,-4.1523 1.2851,-8.7539 -0.498,-5.1348 -6.5566,-14.4805 z m 3.9122,43.4512 a 53.499999,53.499999 0 0 1 0.3906,0 53.499999,53.499999 0 0 1 53.5,53.50002 53.499999,53.499999 0 0 1 -53.5,53.5 53.499999,53.499999 0 0 1 -53.5,-53.5 53.499999,53.499999 0 0 1 53.1094,-53.50002 z"
               transform="scale(0.26458333)" />
            <path
               id="path4526"
               style="fill:#b28261;fill-opacity:1;stroke:none;stroke-width:0.0643235;stroke-miterlimit:4;stroke-dasharray:none;stroke-dashoffset:0;stroke-opacity:1"
               d="m 505.11177,-250.80563 a 3.7307554,3.7307554 0 0 1 -3.73076,3.73076 3.7307554,3.7307554 0 0 1 -3.73075,-3.73076 3.7307554,3.7307554 0 0 1 3.73075,-3.73075 3.7307554,3.7307554 0 0 1 3.73076,3.73075 z" />
          </g>
        </g>
        <g
           id="g4552"
           transform="matrix(0.75995549,0,0,0.75995549,151.87713,-18.443169)">
          <rect
             style="fill:#b28261;fill-opacity:1;stroke:none;stroke-width:4.73305;stroke-miterlimit:4;stroke-dasharray:none"
             id="rect4532"
             width="406.48221"
             height="79.360283"
             x="396.93933"
             y="-122.7475" />
          <text
             xml:space="preserve"
             style="font-size:64.8035px;line-height:1.25;font-family:sans-serif;-inkscape-font-specification:sans-serif;letter-spacing:2.27706px;stroke-width:0.675035"
             x="600.18042"
             y="-59.25206"
             id="text4536"><tspan
               sodipodi:role="line"
               id="tspan4534"
               x="601.31897"
               y="-59.25206"
               style="font-style:normal;font-variant:normal;font-weight:normal;font-stretch:normal;font-size:64.8035px;font-family:'League Gothic';-inkscape-font-specification:'League Gothic';text-align:center;text-anchor:middle;stroke-width:0.675035">BELLSWORNE</tspan></text>
          <g
             id="g4550"
             transform="translate(-0.42398982,-0.51755261)">
            <g
               id="g4542"
               style="opacity:1">
              <path
                 style="color:#000000;font-style:normal;font-variant:normal;font-weight:normal;font-stretch:normal;font-size:medium;line-height:normal;font-family:sans-serif;font-variant-ligatures:normal;font-variant-position:normal;font-variant-caps:normal;font-variant-numeric:normal;font-variant-alternates:normal;font-variant-east-asian:normal;font-feature-settings:normal;font-variation-settings:normal;text-indent:0;text-align:start;text-decoration:none;text-decoration-line:none;text-decoration-style:solid;text-decoration-color:#000000;letter-spacing:normal;word-spacing:normal;text-transform:none;writing-mode:lr-tb;direction:ltr;text-orientation:mixed;dominant-baseline:auto;baseline-shift:baseline;text-anchor:start;white-space:normal;shape-padding:0;shape-margin:0;inline-size:0;clip-rule:nonzero;display:inline;overflow:visible;visibility:visible;isolation:auto;mix-blend-mode:normal;color-interpolation:sRGB;color-interpolation-filters:linearRGB;solid-color:#000000;solid-opacity:1;vector-effect:none;fill:#b28261;fill-opacity:1;fill-rule:nonzero;stroke:none;stroke-width:1.32292;stroke-linecap:butt;stroke-linejoin:miter;stroke-miterlimit:4;stroke-dasharray:5.29167, 2.64583;stroke-dashoffset:0;stroke-opacity:1;color-rendering:auto;image-rendering:auto;shape-rendering:auto;text-rendering:auto;enable-background:accumulate;stop-color:#000000;stop-opacity:1"
                 d="m 397.40416,-114.3 h 406.4"
                 id="path4538" />
              <path
                 style="color:#000000;font-style:normal;font-variant:normal;font-weight:normal;font-stretch:normal;font-size:medium;line-height:normal;font-family:sans-serif;font-variant-ligatures:normal;font-variant-position:normal;font-variant-caps:normal;font-variant-numeric:normal;font-variant-alternates:normal;font-variant-east-asian:normal;font-feature-settings:normal;font-variation-settings:normal;text-indent:0;text-align:start;text-decoration:none;text-decoration-line:none;text-decoration-style:solid;text-decoration-color:#000000;letter-spacing:normal;word-spacing:normal;text-transform:none;writing-mode:lr-tb;direction:ltr;text-orientation:mixed;dominant-baseline:auto;baseline-shift:baseline;text-anchor:start;white-space:normal;shape-padding:0;shape-margin:0;inline-size:0;clip-rule:nonzero;display:inline;overflow:visible;visibility:visible;isolation:auto;mix-blend-mode:normal;color-interpolation:sRGB;color-interpolation-filters:linearRGB;solid-color:#000000;solid-opacity:1;vector-effect:none;fill:#000000;fill-opacity:1;fill-rule:nonzero;stroke:none;stroke-linecap:butt;stroke-linejoin:miter;stroke-miterlimit:4;stroke-dasharray:5.29167, 2.64583;stroke-dashoffset:0;stroke-opacity:1;color-rendering:auto;image-rendering:auto;shape-rendering:auto;text-rendering:auto;enable-background:accumulate;stop-color:#000000;stop-opacity:1"
                 d="m 397.4043,-114.96094 v 1.32227 h 5.29101 v -1.32227 z m 7.9375,0 v 1.32227 h 5.29101 v -1.32227 z m 7.9375,0 v 1.32227 h 5.29101 v -1.32227 z m 7.9375,0 v 1.32227 h 5.29101 v -1.32227 z m 7.9375,0 v 1.32227 h 5.29101 v -1.32227 z m 7.9375,0 v 1.32227 h 5.29101 v -1.32227 z m 7.9375,0 v 1.32227 h 5.29101 v -1.32227 z m 7.9375,0 v 1.32227 h 5.29101 v -1.32227 z m 7.9375,0 v 1.32227 h 5.29101 v -1.32227 z m 7.9375,0 v 1.32227 h 5.29101 v -1.32227 z m 7.9375,0 v 1.32227 h 5.29101 v -1.32227 z m 7.9375,0 v 1.32227 h 5.29101 v -1.32227 z m 7.9375,0 v 1.32227 h 5.29101 v -1.32227 z m 7.9375,0 v 1.32227 h 5.29101 v -1.32227 z m 7.9375,0 v 1.32227 h 5.29101 v -1.32227 z m 7.9375,0 v 1.32227 h 5.29101 v -1.32227 z m 7.9375,0 v 1.32227 h 5.29101 v -1.32227 z m 7.9375,0 v 1.32227 h 5.29101 v -1.32227 z m 7.9375,0 v 1.32227 h 5.29101 v -1.32227 z m 7.9375,0 v 1.32227 h 5.29101 v -1.32227 z m 7.9375,0 v 1.32227 h 5.29101 v -1.32227 z m 7.9375,0 v 1.32227 h 5.29101 v -1.32227 z m 7.9375,0 v 1.32227 h 5.29101 v -1.32227 z m 7.9375,0 v 1.32227 h 5.29101 v -1.32227 z m 7.9375,0 v 1.32227 h 5.29101 v -1.32227 z m 7.9375,0 v 1.32227 h 5.29101 v -1.32227 z m 7.9375,0 v 1.32227 h 5.29101 v -1.32227 z m 7.9375,0 v 1.32227 h 5.29101 v -1.32227 z m 7.9375,0 v 1.32227 h 5.29101 v -1.32227 z m 7.9375,0 v 1.32227 h 5.29101 v -1.32227 z m 7.9375,0 v 1.32227 h 5.29101 v -1.32227 z m 7.9375,0 v 1.32227 h 5.29101 v -1.32227 z m 7.9375,0 v 1.32227 h 5.29101 v -1.32227 z m 7.9375,0 v 1.32227 h 5.29101 v -1.32227 z m 7.9375,0 v 1.32227 h 5.29101 v -1.32227 z m 7.9375,0 v 1.32227 h 5.29101 v -1.32227 z m 7.9375,0 v 1.32227 h 5.29101 v -1.32227 z m 7.9375,0 v 1.32227 h 5.29101 v -1.32227 z m 7.9375,0 v 1.32227 h 5.29101 v -1.32227 z m 7.9375,0 v 1.32227 h 5.29101 v -1.32227 z m 7.9375,0 v 1.32227 h 5.29101 v -1.32227 z m 7.9375,0 v 1.32227 h 5.29101 v -1.32227 z m 7.9375,0 v 1.32227 h 5.29101 v -1.32227 z m 7.9375,0 v 1.32227 h 5.29101 v -1.32227 z m 7.9375,0 v 1.32227 h 5.29101 v -1.32227 z m 7.9375,0 v 1.32227 h 5.29101 v -1.32227 z m 7.9375,0 v 1.32227 h 5.29101 v -1.32227 z m 7.9375,0 v 1.32227 h 5.29101 v -1.32227 z m 7.9375,0 v 1.32227 h 5.29101 v -1.32227 z m 7.9375,0 v 1.32227 h 5.29101 v -1.32227 z m 7.9375,0 v 1.32227 h 5.29101 v -1.32227 z m 7.9375,0 v 1.32227 h 1.58789 v -1.32227 z"
                 id="path4540" />
            </g>
            <g
               id="g4548"
               style="opacity:1"
               transform="translate(0,63.500003)">
              <path
                 style="color:#000000;font-style:normal;font-variant:normal;font-weight:normal;font-stretch:normal;font-size:medium;line-height:normal;font-family:sans-serif;font-variant-ligatures:normal;font-variant-position:normal;font-variant-caps:normal;font-variant-numeric:normal;font-variant-alternates:normal;font-variant-east-asian:normal;font-feature-settings:normal;font-variation-settings:normal;text-indent:0;text-align:start;text-decoration:none;text-decoration-line:none;text-decoration-style:solid;text-decoration-color:#000000;letter-spacing:normal;word-spacing:normal;text-transform:none;writing-mode:lr-tb;direction:ltr;text-orientation:mixed;dominant-baseline:auto;baseline-shift:baseline;text-anchor:start;white-space:normal;shape-padding:0;shape-margin:0;inline-size:0;clip-rule:nonzero;display:inline;overflow:visible;visibility:visible;isolation:auto;mix-blend-mode:normal;color-interpolation:sRGB;color-interpolation-filters:linearRGB;solid-color:#000000;solid-opacity:1;vector-effect:none;fill:#b28261;fill-opacity:1;fill-rule:nonzero;stroke:none;stroke-width:1.32292;stroke-linecap:butt;stroke-linejoin:miter;stroke-miterlimit:4;stroke-dasharray:5.29167, 2.64583;stroke-dashoffset:0;stroke-opacity:1;color-rendering:auto;image-rendering:auto;shape-rendering:auto;text-rendering:auto;enable-background:accumulate;stop-color:#000000;stop-opacity:1"
                 d="m 397.40416,-114.3 h 406.4"
                 id="path4544" />
              <path
                 style="color:#000000;font-style:normal;font-variant:normal;font-weight:normal;font-stretch:normal;font-size:medium;line-height:normal;font-family:sans-serif;font-variant-ligatures:normal;font-variant-position:normal;font-variant-caps:normal;font-variant-numeric:normal;font-variant-alternates:normal;font-variant-east-asian:normal;font-feature-settings:normal;font-variation-settings:normal;text-indent:0;text-align:start;text-decoration:none;text-decoration-line:none;text-decoration-style:solid;text-decoration-color:#000000;letter-spacing:normal;word-spacing:normal;text-transform:none;writing-mode:lr-tb;direction:ltr;text-orientation:mixed;dominant-baseline:auto;baseline-shift:baseline;text-anchor:start;white-space:normal;shape-padding:0;shape-margin:0;inline-size:0;clip-rule:nonzero;display:inline;overflow:visible;visibility:visible;isolation:auto;mix-blend-mode:normal;color-interpolation:sRGB;color-interpolation-filters:linearRGB;solid-color:#000000;solid-opacity:1;vector-effect:none;fill:#000000;fill-opacity:1;fill-rule:nonzero;stroke:none;stroke-linecap:butt;stroke-linejoin:miter;stroke-miterlimit:4;stroke-dasharray:5.29167, 2.64583;stroke-dashoffset:0;stroke-opacity:1;color-rendering:auto;image-rendering:auto;shape-rendering:auto;text-rendering:auto;enable-background:accumulate;stop-color:#000000;stop-opacity:1"
                 d="m 397.4043,-114.96094 v 1.32227 h 5.29101 v -1.32227 z m 7.9375,0 v 1.32227 h 5.29101 v -1.32227 z m 7.9375,0 v 1.32227 h 5.29101 v -1.32227 z m 7.9375,0 v 1.32227 h 5.29101 v -1.32227 z m 7.9375,0 v 1.32227 h 5.29101 v -1.32227 z m 7.9375,0 v 1.32227 h 5.29101 v -1.32227 z m 7.9375,0 v 1.32227 h 5.29101 v -1.32227 z m 7.9375,0 v 1.32227 h 5.29101 v -1.32227 z m 7.9375,0 v 1.32227 h 5.29101 v -1.32227 z m 7.9375,0 v 1.32227 h 5.29101 v -1.32227 z m 7.9375,0 v 1.32227 h 5.29101 v -1.32227 z m 7.9375,0 v 1.32227 h 5.29101 v -1.32227 z m 7.9375,0 v 1.32227 h 5.29101 v -1.32227 z m 7.9375,0 v 1.32227 h 5.29101 v -1.32227 z m 7.9375,0 v 1.32227 h 5.29101 v -1.32227 z m 7.9375,0 v 1.32227 h 5.29101 v -1.32227 z m 7.9375,0 v 1.32227 h 5.29101 v -1.32227 z m 7.9375,0 v 1.32227 h 5.29101 v -1.32227 z m 7.9375,0 v 1.32227 h 5.29101 v -1.32227 z m 7.9375,0 v 1.32227 h 5.29101 v -1.32227 z m 7.9375,0 v 1.32227 h 5.29101 v -1.32227 z m 7.9375,0 v 1.32227 h 5.29101 v -1.32227 z m 7.9375,0 v 1.32227 h 5.29101 v -1.32227 z m 7.9375,0 v 1.32227 h 5.29101 v -1.32227 z m 7.9375,0 v 1.32227 h 5.29101 v -1.32227 z m 7.9375,0 v 1.32227 h 5.29101 v -1.32227 z m 7.9375,0 v 1.32227 h 5.29101 v -1.32227 z m 7.9375,0 v 1.32227 h 5.29101 v -1.32227 z m 7.9375,0 v 1.32227 h 5.29101 v -1.32227 z m 7.9375,0 v 1.32227 h 5.29101 v -1.32227 z m 7.9375,0 v 1.32227 h 5.29101 v -1.32227 z m 7.9375,0 v 1.32227 h 5.29101 v -1.32227 z m 7.9375,0 v 1.32227 h 5.29101 v -1.32227 z m 7.9375,0 v 1.32227 h 5.29101 v -1.32227 z m 7.9375,0 v 1.32227 h 5.29101 v -1.32227 z m 7.9375,0 v 1.32227 h 5.29101 v -1.32227 z m 7.9375,0 v 1.32227 h 5.29101 v -1.32227 z m 7.9375,0 v 1.32227 h 5.29101 v -1.32227 z m 7.9375,0 v 1.32227 h 5.29101 v -1.32227 z m 7.9375,0 v 1.32227 h 5.29101 v -1.32227 z m 7.9375,0 v 1.32227 h 5.29101 v -1.32227 z m 7.9375,0 v 1.32227 h 5.29101 v -1.32227 z m 7.9375,0 v 1.32227 h 5.29101 v -1.32227 z m 7.9375,0 v 1.32227 h 5.29101 v -1.32227 z m 7.9375,0 v 1.32227 h 5.29101 v -1.32227 z m 7.9375,0 v 1.32227 h 5.29101 v -1.32227 z m 7.9375,0 v 1.32227 h 5.29101 v -1.32227 z m 7.9375,0 v 1.32227 h 5.29101 v -1.32227 z m 7.9375,0 v 1.32227 h 5.29101 v -1.32227 z m 7.9375,0 v 1.32227 h 5.29101 v -1.32227 z m 7.9375,0 v 1.32227 h 5.29101 v -1.32227 z m 7.9375,0 v 1.32227 h 1.58789 v -1.32227 z"
                 id="path4546" />
            </g>
          </g>
        </g>
        <g
           id="g4562"
           transform="translate(0,-174.62505)">
          <text
             xml:space="preserve"
             style="font-size:17.8852px;line-height:1.25;font-family:sans-serif;-inkscape-font-specification:sans-serif;letter-spacing:3.24046px;fill:#ffffff;stroke-width:1.21945"
             id="text4556"
             x="570.44257"
             y="12.314691"><tspan
               id="tspan4554"
               style="font-style:normal;font-variant:normal;font-weight:normal;font-stretch:normal;font-family:'League Gothic';-inkscape-font-specification:'League Gothic';fill:#ffffff;stroke-width:1.21945">EST. 2020</tspan></text>
          <rect
             style="opacity:1;fill:#ffffff;fill-opacity:1;stroke:none;stroke-width:1.32292;stroke-miterlimit:4;stroke-dasharray:none;stroke-dashoffset:0;stroke-opacity:1"
             id="rect4558"
             width="8.9802551"
             height="2.9934187"
             x="555.8725"
             y="4.245172" />
          <rect
             style="fill:#ffffff;fill-opacity:1;stroke:none;stroke-width:1.32292;stroke-miterlimit:4;stroke-dasharray:none;stroke-dashoffset:0;stroke-opacity:1"
             id="rect4560"
             width="8.9802551"
             height="2.9934187"
             x="651.12231"
             y="4.245172" />
        </g>
        <g
           id="g4570"
           transform="translate(-2.9934232,2.7489686)">
          <path
             id="path4564"
             style="opacity:1;fill:#69b261;fill-opacity:1;stroke:none;stroke-width:1.17711;stroke-miterlimit:4;stroke-dasharray:none;stroke-dashoffset:0;stroke-opacity:1"
             d="m 536.20529,-1.7929996 c -0.30975,0 -0.55912,0.24937 -0.55912,0.559125 v 8.386882 h -31.15653 l 16.19303,19.7827236 -14.63934,17.884677 h 36.65766 c 0.30976,0 0.55912,-0.24937 0.55912,-0.55913 v -8.386877 h 135.4417 v 8.386877 c 0,0.30976 0.24936,0.55913 0.55913,0.55913 h 36.65765 L 701.27925,26.935731 717.4723,7.1530074 h -31.15654 v -8.386882 c 0,-0.309755 -0.24936,-0.559125 -0.55913,-0.559125 z" />
          <text
             xml:space="preserve"
             style="font-size:34.6098px;line-height:1.25;font-family:sans-serif;-inkscape-font-specification:sans-serif;letter-spacing:5.03022px;stroke-width:2.35975"
             x="576.94189"
             y="30.543947"
             id="text4568"><tspan
               sodipodi:role="line"
               id="tspan4566"
               x="576.94189"
               y="30.543947"
               style="font-style:normal;font-variant:normal;font-weight:normal;font-stretch:normal;font-family:'League Gothic';-inkscape-font-specification:'League Gothic';stroke-width:2.35975">FARM</tspan></text>
        </g>
      </g>
    </g>
  </g>
</svg>
