<?xml version="1.0" encoding="UTF-8"?>
<svg id="svg8" width="2400" height="2065.9" version="1.1" viewBox="0 0 635 546.61" xmlns="http://www.w3.org/2000/svg">
 <g id="layer4" transform="translate(9473.1 -73.622)">
  <path id="ellipse4482" d="m-9020.3 439.79a132 81.79 0 0 1-132 81.79 132 81.79 0 0 1-132-81.79 132 81.79 0 0 1 132-81.79 132 81.79 0 0 1 132 81.79z" style="fill:#ff0000;stroke-width:.54458"/>
  <path id="path4484" d="m-8838.1 409.07-101.09 58.515 5.5494-83.965 80.495-1.6358z" style="fill:#b28261"/>
  <path id="path4486" d="m-9473.1 284.78 87.127-50.431-3.4458 89.292-71.793-13.632-11.888-25.23" style="fill:#b28261"/>
  <path id="path4488" d="m-8916.1 473.71-239.54 126.79-239.54-126.79v-253.57l239.54-126.79 239.54 126.79z" style="fill:#2b2b2b"/>
  <path id="path4490" d="m-8901.8 481.3-253.86 134.37-253.86-134.37v-268.74l253.86-134.37 253.86 134.37z" style="fill:#2b2b2b"/>
  <path id="path4494" d="m-8916.1 473.71-239.54 126.79-239.54-126.79v-253.57l239.54-126.79 239.54 126.79z" style="fill:none;stroke-width:5.6948;stroke:#b28261"/>
  <path id="path4496" d="m-8901.8 481.3-253.86 134.37-253.86-134.37v-268.74l253.86-134.37 253.86 134.37z" style="fill:none;stroke-width:8.2625;stroke:#b28261"/>
  <path id="big-gear" d="m-9160 187.31-5.2323 12.537-1.4733 9.0214 0.2742 3.3839-13.505 1.7824-0.6088-3.3386-3.7512-8.3318-8.2918-10.755-8.4685 2.2761-1.8153 13.468 0.9058 9.0966 1.1351 3.1956-12.584 5.2265-1.4509-3.0673-5.7734-7.0731-10.787-8.2338-7.589 4.3937 1.7214 13.479 3.2214 8.5502 1.9245 2.7961-10.806 8.3093-2.1913-2.5852-7.4048-5.332-12.543-5.1551-6.1981 6.214 5.142 12.575 5.3187 7.4235 2.5784 2.1969-8.288 10.834-2.7889-1.9294-8.5287-3.2294-13.445-1.7259-4.3827 7.6083 8.2128 10.815 7.0551 5.7881 3.0597 1.4546-5.2133 12.616-3.1876-1.1418-9.0735-0.90436-13.434 1.8201-2.2665 8.49 10.724 8.3129 8.3104 3.7608 3.3303 0.61037-1.7779 13.536-3.3753-0.27135-8.9985 1.4772-12.505 5.2454v8.7878l12.505 5.2455 8.9985 1.4809 3.3753-0.27488 1.7779 13.536-3.3303 0.614-8.3104 3.7608-10.724 8.3129 2.2665 8.4862 13.434 1.8239 9.0735-0.90816 3.1876-1.1381 5.2133 12.613-3.0597 1.4546-7.0551 5.7919-8.2128 10.811 4.3827 7.612 13.445-1.7259 8.5287-3.2332 2.7889-1.9256 8.288 10.83-2.5784 2.2006-5.3187 7.4236-5.142 12.575 6.1981 6.2139 12.543-5.155 7.4048-5.336 2.1913-2.5851 10.806 8.3129-1.9245 2.7924-3.2214 8.5502-1.7214 13.483 7.589 4.3938 10.787-8.2375 5.7734-7.0732 1.4509-3.0636 12.584 5.2229-1.1351 3.1993-0.9058 9.0929 1.8153 13.472 8.4685 2.2723 8.2918-10.751 3.7512-8.3318 0.6088-3.3387 13.505 1.7824-0.2742 3.3839 1.4733 9.0176 5.2323 12.541h8.7654l5.236-12.541 1.4734-9.0176-0.2742-3.3839 13.502-1.7824 0.6124 3.3387 3.7513 8.3318 8.2917 10.751 8.4685-2.2723 1.8155-13.472-0.9058-9.0929-1.1353-3.1993 12.58-5.2229 1.4548 3.0636 5.7734 7.0732 10.784 8.2375 7.5926-4.3938-1.7214-13.483-3.2251-8.5502-1.9205-2.7924 10.803-8.3129 2.1951 2.5851 7.4046 5.336 12.543 5.155 6.1981-6.2139-5.142-12.575-5.3223-7.4236-2.5784-2.2006 8.2917-10.83 2.7852 1.9256 8.5286 3.2332 13.449 1.7259 4.3826-7.612-8.2129-10.811-7.0587-5.7919-3.056-1.4546 5.2096-12.613 3.1912 1.1381 9.0699 0.90816 13.437-1.8239 2.2664-8.4862-10.724-8.3129-8.3106-3.7608-3.3303-0.614 1.7779-13.536 3.3754 0.27488 8.9985-1.4809 12.505-5.2455v-8.7878l-12.505-5.2454-8.9985-1.4772-3.3754 0.27135-1.7779-13.536 3.3303-0.61037 8.3106-3.7608 10.724-8.3129-2.2664-8.49-13.437-1.8201-9.0699 0.90436-3.1912 1.1418-5.2096-12.616 3.056-1.4546 7.0587-5.7881 8.2129-10.815-4.3826-7.6083-13.449 1.7259-8.5286 3.2294-2.7852 1.9294-8.2917-10.834 2.5784-2.1969 5.3223-7.4235 5.142-12.575-6.1981-6.214-12.543 5.1551-7.4046 5.332-2.1951 2.5852-10.803-8.3093 1.9205-2.7961 3.2251-8.5502 1.7214-13.479-7.5926-4.3937-10.784 8.2338-5.7734 7.0731-1.4548 3.0673-12.58-5.2265 1.1353-3.1956 0.9058-9.0966-1.8155-13.468-8.4685-2.2761-8.2917 10.755-3.7513 8.3318-0.6124 3.3386-13.502-1.7824 0.2742-3.3839-1.4734-9.0214-5.236-12.537zm3.9354 39.567a119.75 120.05 0 0 1 0.4473 0 119.75 120.05 0 0 1 119.75 120.05 119.75 120.05 0 0 1-119.75 120.05 119.75 120.05 0 0 1-119.74-120.05 119.75 120.05 0 0 1 119.3-120.05zm0.4473 4.7669a114.99 115.28 0 0 0-114.99 115.28 114.99 115.28 0 0 0 114.99 115.28 114.99 115.28 0 0 0 114.99-115.28 114.99 115.28 0 0 0-114.99-115.28zm-0.6088 6.1385a108.86 109.14 0 0 1 0.6088 0 108.86 109.14 0 0 1 74.893 29.928l-65.072 65.237a16.826 16.869 0 0 0-9.1526-2.717 16.826 16.869 0 0 0-9.9682 3.2785l-65.609-65.78a108.86 109.14 0 0 1 74.299-29.947zm-78.385 34.043 65.699 65.866a16.826 16.869 0 0 0-2.8639 9.4095 16.826 16.869 0 0 0 2.6723 9.1194l-65.571 65.734a108.86 109.14 0 0 1-29.807-75.027 108.86 109.14 0 0 1 29.871-75.103zm158.01 0.022a108.86 109.14 0 0 1 29.852 75.084 108.86 109.14 0 0 1-29.845 75.069l-64.771-64.936a16.826 16.869 0 0 0 3.2438-9.9596 16.826 16.869 0 0 0-3.4054-10.171zm-88.436 88.755a16.826 16.869 0 0 0 10.088 3.3726 16.826 16.869 0 0 0 9.3518-2.8488l64.861 65.026a108.86 109.14 0 0 1-74.882 29.92 108.86 109.14 0 0 1-74.84-29.879z" style="fill:#b28261"/>
  <path id="tl-gear" d="m-9347.2 257.03-1.7969 3.9798-0.1371 1.4112 0.3523 2.4059-4.2486 1.1412-0.8947-2.2604-0.8219-1.153-3.5414-2.546-2.0426 1.1826 0.4283 4.3475 0.5852 1.2904 1.5051 1.9067-3.1103 3.1182-1.9018-1.5089-1.2872-0.58672-4.3365-0.42944-1.1795 2.0479 2.5395 3.5504 1.1501 0.82398 2.2547 0.89698-1.1388 4.2594-2.3993-0.3532-1.4076 0.13741-3.9697 1.8015v2.3651l3.9697 1.8015 1.4076 0.13689 2.3993-0.35321 1.1388 4.2594-2.2547 0.89699-1.1501 0.82451-2.5395 3.5498 1.1795 2.0484 4.3365-0.42997 1.2872-0.58672 1.9018-1.5089 3.1103 3.1182-1.5051 1.9067-0.5852 1.291-0.4283 4.347 2.0426 1.1826 3.5414-2.5455 0.8219-1.1536 0.8947-2.2599 4.2486 1.1412-0.3523 2.4054 0.1371 1.4112 1.7969 3.9798h2.3585l1.7975-3.9798 0.1365-1.4112-0.3523-2.4054 4.2486-1.1412 0.8947 2.2599 0.8225 1.1536 3.5408 2.5455 2.0426-1.1826-0.4283-4.347-0.5852-1.291-1.5051-1.9067 3.1103-3.1182 1.9018 1.5089 1.2878 0.58672 4.3359 0.42997 1.1795-2.0484-2.539-3.5498-1.1506-0.82451-2.2542-0.89699 1.1383-4.2594 2.3993 0.35321 1.4076-0.13689 3.9697-1.8015v-2.3651l-3.9697-1.8015-1.4076-0.13741-2.3993 0.3532-1.1383-4.2594 2.2542-0.89698 1.1506-0.82398 2.539-3.5504-1.1795-2.0479-4.3359 0.42944-1.2878 0.58672-1.9018 1.5089-3.1103-3.1182 1.5051-1.9067 0.5852-1.2904 0.4283-4.3475-2.0426-1.1826-3.5408 2.546-0.8225 1.153-0.8947 2.2604-4.2486-1.1412 0.3523-2.4059-0.1365-1.4112-1.7975-3.9798zm1.0724 11.942a14.667 14.704 0 0 1 0.1071 0 14.667 14.704 0 0 1 14.666 14.704 14.667 14.704 0 0 1-14.666 14.704 14.667 14.704 0 0 1-14.666-14.704 14.667 14.704 0 0 1 14.559-14.704z" style="fill:#b28261"/>
  <path id="path4506" d="m-9342.1 283.68a3.8655 3.8754 0 0 1-3.8656 3.8754 3.8655 3.8754 0 0 1-3.8655-3.8754 3.8655 3.8754 0 0 1 3.8655-3.8754 3.8655 3.8754 0 0 1 3.8656 3.8754z" style="fill:#b28261"/>
  <path id="tr-gear" d="m-8966.4 257.03-1.7969 3.9798-0.1371 1.4112 0.3523 2.4059-4.2486 1.1412-0.8947-2.2604-0.8219-1.153-3.5414-2.546-2.0426 1.1826 0.4283 4.3475 0.5852 1.2904 1.5051 1.9067-3.1103 3.1182-1.9018-1.5089-1.2872-0.58672-4.3365-0.42944-1.1795 2.0479 2.5395 3.5504 1.1501 0.82398 2.2547 0.89698-1.1388 4.2594-2.3993-0.3532-1.4076 0.13741-3.9697 1.8015v2.3651l3.9697 1.8015 1.4076 0.13689 2.3993-0.35321 1.1388 4.2594-2.2547 0.89699-1.1501 0.82451-2.5395 3.5498 1.1795 2.0484 4.3365-0.42997 1.2872-0.58672 1.9018-1.5089 3.1103 3.1182-1.5051 1.9067-0.5852 1.291-0.4283 4.347 2.0426 1.1826 3.5414-2.5455 0.8219-1.1536 0.8947-2.2599 4.2486 1.1412-0.3523 2.4054 0.1371 1.4112 1.7969 3.9798h2.3585l1.7975-3.9798 0.1365-1.4112-0.3523-2.4054 4.2486-1.1412 0.8947 2.2599 0.8225 1.1536 3.5408 2.5455 2.0426-1.1826-0.4283-4.347-0.5852-1.291-1.5051-1.9067 3.1103-3.1182 1.9018 1.5089 1.2878 0.58672 4.3359 0.42997 1.1795-2.0484-2.539-3.5498-1.1506-0.82451-2.2542-0.89699 1.1383-4.2594 2.3993 0.35321 1.4076-0.13689 3.9697-1.8015v-2.3651l-3.9697-1.8015-1.4076-0.13741-2.3993 0.3532-1.1383-4.2594 2.2542-0.89698 1.1506-0.82398 2.539-3.5504-1.1795-2.0479-4.3359 0.42944-1.2878 0.58672-1.9018 1.5089-3.1103-3.1182 1.5051-1.9067 0.5852-1.2904 0.4283-4.3475-2.0426-1.1826-3.5408 2.546-0.8225 1.153-0.8947 2.2604-4.2486-1.1412 0.3523-2.4059-0.1365-1.4112-1.7975-3.9798zm1.0724 11.942a14.667 14.704 0 0 1 0.1071 0 14.667 14.704 0 0 1 14.666 14.704 14.667 14.704 0 0 1-14.666 14.704 14.667 14.704 0 0 1-14.666-14.704 14.667 14.704 0 0 1 14.559-14.704z" style="fill:#b28261"/>
  <path id="path4512" d="m-8961.4 283.68a3.8655 3.8754 0 0 1-3.8656 3.8754 3.8655 3.8754 0 0 1-3.8655-3.8754 3.8655 3.8754 0 0 1 3.8655-3.8754 3.8655 3.8754 0 0 1 3.8656 3.8754z" style="fill:#b28261"/>
  <path id="bl-gear" d="m-9347.2 383.53-1.7969 3.9798-0.1371 1.4112 0.3523 2.4059-4.2486 1.1412-0.8947-2.2604-0.8219-1.153-3.5414-2.546-2.0426 1.1826 0.4283 4.3475 0.5852 1.2904 1.5051 1.9067-3.1103 3.1182-1.9018-1.5089-1.2872-0.58672-4.3365-0.42944-1.1795 2.0479 2.5395 3.5504 1.1501 0.82398 2.2547 0.89698-1.1388 4.2594-2.3993-0.3532-1.4076 0.13741-3.9697 1.8015v2.3651l3.9697 1.8015 1.4076 0.13689 2.3993-0.35321 1.1388 4.2594-2.2547 0.89699-1.1501 0.82451-2.5395 3.5498 1.1795 2.0484 4.3365-0.42997 1.2872-0.58672 1.9018-1.5089 3.1103 3.1182-1.5051 1.9067-0.5852 1.291-0.4283 4.347 2.0426 1.1826 3.5414-2.5455 0.8219-1.1536 0.8947-2.2599 4.2486 1.1412-0.3523 2.4054 0.1371 1.4112 1.7969 3.9798h2.3585l1.7975-3.9798 0.1365-1.4112-0.3523-2.4054 4.2486-1.1412 0.8947 2.2599 0.8225 1.1536 3.5408 2.5455 2.0426-1.1826-0.4283-4.347-0.5852-1.291-1.5051-1.9067 3.1103-3.1182 1.9018 1.5089 1.2878 0.58672 4.3359 0.42997 1.1795-2.0484-2.539-3.5498-1.1506-0.82451-2.2542-0.89699 1.1383-4.2594 2.3993 0.35321 1.4076-0.13689 3.9697-1.8015v-2.3651l-3.9697-1.8015-1.4076-0.13741-2.3993 0.3532-1.1383-4.2594 2.2542-0.89698 1.1506-0.82398 2.539-3.5504-1.1795-2.0479-4.3359 0.42944-1.2878 0.58672-1.9018 1.5089-3.1103-3.1182 1.5051-1.9067 0.5852-1.2904 0.4283-4.3475-2.0426-1.1826-3.5408 2.546-0.8225 1.153-0.8947 2.2604-4.2486-1.1412 0.3523-2.4059-0.1365-1.4112-1.7975-3.9798zm1.0724 11.942a14.667 14.704 0 0 1 0.1071 0 14.667 14.704 0 0 1 14.666 14.704 14.667 14.704 0 0 1-14.666 14.704 14.667 14.704 0 0 1-14.666-14.704 14.667 14.704 0 0 1 14.559-14.704z" style="fill:#b28261"/>
  <path id="path4520" d="m-9342.1 410.18a3.8655 3.8754 0 0 1-3.8656 3.8754 3.8655 3.8754 0 0 1-3.8655-3.8754 3.8655 3.8754 0 0 1 3.8655-3.8754 3.8655 3.8754 0 0 1 3.8656 3.8754z" style="fill:#b28261"/>
  <path id="br-gear" d="m-8966.4 383.53-1.7969 3.9798-0.1371 1.4112 0.3523 2.4059-4.2486 1.1412-0.8947-2.2604-0.8219-1.153-3.5414-2.546-2.0426 1.1826 0.4283 4.3475 0.5852 1.2904 1.5051 1.9067-3.1103 3.1182-1.9018-1.5089-1.2872-0.58672-4.3365-0.42944-1.1795 2.0479 2.5395 3.5504 1.1501 0.82398 2.2547 0.89698-1.1388 4.2594-2.3993-0.3532-1.4076 0.13741-3.9697 1.8015v2.3651l3.9697 1.8015 1.4076 0.13689 2.3993-0.35321 1.1388 4.2594-2.2547 0.89699-1.1501 0.82451-2.5395 3.5498 1.1795 2.0484 4.3365-0.42997 1.2872-0.58672 1.9018-1.5089 3.1103 3.1182-1.5051 1.9067-0.5852 1.291-0.4283 4.347 2.0426 1.1826 3.5414-2.5455 0.8219-1.1536 0.8947-2.2599 4.2486 1.1412-0.3523 2.4054 0.1371 1.4112 1.7969 3.9798h2.3585l1.7975-3.9798 0.1365-1.4112-0.3523-2.4054 4.2486-1.1412 0.8947 2.2599 0.8225 1.1536 3.5408 2.5455 2.0426-1.1826-0.4283-4.347-0.5852-1.291-1.5051-1.9067 3.1103-3.1182 1.9018 1.5089 1.2878 0.58672 4.3359 0.42997 1.1795-2.0484-2.539-3.5498-1.1506-0.82451-2.2542-0.89699 1.1383-4.2594 2.3993 0.35321 1.4076-0.13689 3.9697-1.8015v-2.3651l-3.9697-1.8015-1.4076-0.13741-2.3993 0.3532-1.1383-4.2594 2.2542-0.89698 1.1506-0.82398 2.539-3.5504-1.1795-2.0479-4.3359 0.42944-1.2878 0.58672-1.9018 1.5089-3.1103-3.1182 1.5051-1.9067 0.5852-1.2904 0.4283-4.3475-2.0426-1.1826-3.5408 2.546-0.8225 1.153-0.8947 2.2604-4.2486-1.1412 0.3523-2.4059-0.1365-1.4112-1.7975-3.9798zm1.0724 11.942a14.667 14.704 0 0 1 0.1071 0 14.667 14.704 0 0 1 14.666 14.704 14.667 14.704 0 0 1-14.666 14.704 14.667 14.704 0 0 1-14.666-14.704 14.667 14.704 0 0 1 14.559-14.704z" style="fill:#b28261"/>
  <path id="path4526" d="m-8961.4 410.18a3.8655 3.8754 0 0 1-3.8656 3.8754 3.8655 3.8754 0 0 1-3.8655-3.8754 3.8655 3.8754 0 0 1 3.8655-3.8754 3.8655 3.8754 0 0 1 3.8656 3.8754z" style="fill:#b28261"/>
  <path id="rect4532" d="m-9473.1 284.78h635v124.29h-635z" style="fill:#b28261;stroke-width:7.4033"/>
  <path id="path343" d="m-9348.2 384.23v-74.597h11.136q5.6692 0 9.7692 2.0299 4.1506 1.9791 6.3778 6.2418 2.2778 4.2627 2.2778 11.012 0 5.3791-1.4173 9.3881-1.3667 4.009-5.3655 6.5463 4.0494 2.2328 5.821 7.1045 1.7717 4.8209 1.7717 11.164 0 6.2418-2.0247 11.012-1.9741 4.7702-5.8717 7.4597-3.8469 2.6388-9.5161 2.6388zm10.933-10.86q4.9605 0 6.5297-2.9433 1.5691-2.994 1.5691-8.5254 0-5.6328-1.5691-8.5254-1.5692-2.9433-6.5297-2.9433zm0-32.985q4.6062 0 6.3272-2.5373 1.7716-2.5373 1.7716-7.5105 0-5.0239-1.8222-7.409-1.7716-2.4358-6.2766-2.4358z" style="stroke-width:1.0559"/>
  <path id="path345" d="m-9307.8 384.23v-74.597h25.005v11.266h-14.072v20.096h10.124v10.961h-10.124v21.009h14.072v11.266z" style="stroke-width:1.0559"/>
  <path id="path347" d="m-9271.1 384.23v-74.597h10.933v64.448h14.477v10.149z" style="stroke-width:1.0559"/>
  <path id="path349" d="m-9237.7 384.23v-74.597h10.933v64.448h14.477v10.149z" style="stroke-width:1.0559"/>
  <path id="path351" d="m-9191.1 385.04q-4.505 0-7.4914-1.4716-2.9864-1.5224-4.7074-4.3642-1.721-2.8418-2.4803-6.8508-0.7086-4.009-0.7086-9.0328l10.731-1.0149q0 2.4358 0.1518 4.7194 0.2025 2.2328 0.6581 4.0597 0.5061 1.7761 1.4172 2.8418 0.9618 1.0657 2.4297 1.0657 2.4296 0 3.442-2.2328 1.0123-2.2836 1.0123-5.4806t-1.6704-6.6478q-1.6703-3.4508-3.9987-6.5463-3.9482-5.2776-6.9346-9.794-2.9359-4.5164-4.6062-8.8806-1.6198-4.3642-1.6198-9.1343 0-3.7552 0.9617-6.9015 0.9618-3.197 2.784-5.5314 1.8729-2.3851 4.505-3.7045 2.6321-1.3194 6.0234-1.3194 4.2013 0 7.0865 1.4209 2.9358 1.4209 4.7074 4.0597 1.8223 2.6388 2.6321 6.2925 0.8605 3.603 0.8605 8.0179l-10.731 1.0149q0-1.8776-0.2025-3.7552-0.1518-1.9284-0.6074-3.5015-0.4555-1.5731-1.316-2.5373t-2.2272-0.96418q-2.1259 0-2.9358 1.8269-0.8099 1.7761-0.8099 5.0746 0 4.2627 2.2778 8.2209 2.2778 3.9582 6.1247 9.2358 4.6062 6.2418 7.4914 11.469 2.9358 5.2269 2.9358 11.57 0 4.009-0.8605 7.4597-0.8605 3.4-2.7333 5.9373-1.8222 2.5373-4.7074 3.9582-2.8346 1.4209-6.884 1.4209z" style="stroke-width:1.0559"/>
  <path id="path353" d="m-9159 384.23-10.022-74.597h10.124l4.3531 38.77 0.2025 2.4358h0.8099l0.3037-2.4358 4.6568-38.77h7.8963l4.6568 38.77 0.3037 2.4358h0.8099l0.2025-2.4358 4.3531-38.77h10.124l-10.022 74.597h-8.5037l-5.0618-35.319-0.6074-4.3642h-0.4049l-0.6074 4.3642-5.0618 35.319z" style="stroke-width:1.0559"/>
  <path id="path355" d="m-9097 385.04q-4.5555 0-7.8457-2.1314-3.2395-2.1314-5.0111-5.7851-1.721-3.6537-1.721-8.2209v-43.946q0-4.6179 1.721-8.2209 1.7716-3.6537 5.0111-5.7851 3.2902-2.1314 7.8457-2.1314 4.5556 0 7.7951 2.1314 3.2902 2.1313 5.0112 5.7851 1.7716 3.6537 1.7716 8.2209v43.946q0 4.5672-1.7716 8.2209-1.721 3.6537-5.0112 5.7851-3.2395 2.1314-7.7951 2.1314zm0-10.657q2.0247 0 2.8346-1.6746 0.8099-1.7254 0.8099-3.806v-43.946q0-2.0806-0.8605-3.7552-0.8605-1.7254-2.784-1.7254-1.8728 0-2.7839 1.7254-0.8605 1.6746-0.8605 3.7552v43.946q0 2.0806 0.8605 3.806 0.8605 1.6746 2.7839 1.6746z" style="stroke-width:1.0559"/>
  <path id="path357" d="m-9071.3 384.23v-74.597h10.933q9.8198 0 14.477 5.4806 4.6569 5.4299 4.6569 16.036 0 6.2926-2.2272 10.91-2.1766 4.5672-5.3148 6.6985l7.4407 35.472h-10.933l-6.1753-31.463h-1.9235v31.463zm10.933-41.612q3.0371 0 4.8087-1.3194 1.7716-1.3702 2.5309-3.8567 0.7592-2.4866 0.7592-5.8866 0-5.3284-1.7716-8.1702-1.721-2.8925-6.3272-2.8925z" style="stroke-width:1.0559"/>
  <path id="path359" d="m-9031.6 384.23v-74.597h10.225l10.124 38.872 0.9111 3.4508h0.6075v-42.322h10.022v74.597h-9.2124l-11.136-38.872-0.9111-3.4508h-0.6074v42.322z" style="stroke-width:1.0559"/>
  <path id="path361" d="m-8988.1 384.23v-74.597h25.005v11.266h-14.072v20.096h10.124v10.961h-10.124v21.009h14.072v11.266z" style="stroke-width:1.0559"/>
  <path id="path4538" d="m-9473 297.2h634.87" style="color-rendering:auto;color:#000000;dominant-baseline:auto;fill:#b28261;font-feature-settings:normal;font-variant-alternates:normal;font-variant-caps:normal;font-variant-east-asian:normal;font-variant-ligatures:normal;font-variant-numeric:normal;font-variant-position:normal;font-variation-settings:normal;image-rendering:auto;inline-size:0;isolation:auto;mix-blend-mode:normal;shape-margin:0;shape-padding:0;shape-rendering:auto;solid-color:#000000;stop-color:#000000;text-decoration-color:#000000;text-decoration-line:none;text-decoration-style:solid;text-indent:0;text-orientation:mixed;text-transform:none;white-space:normal"/>
  <path id="path4540" d="m-9473 296.17v2.0709h8.2656v-2.0709zm12.4 0v2.0709h8.2655v-2.0709zm12.4 0v2.0709h8.2655v-2.0709zm12.4 0v2.0709h8.2656v-2.0709zm12.4 0v2.0709h8.2655v-2.0709zm12.4 0v2.0709h8.2655v-2.0709zm12.4 0v2.0709h8.2655v-2.0709zm12.4 0v2.0709h8.2655v-2.0709zm12.4 0v2.0709h8.2656v-2.0709zm12.4 0v2.0709h8.2655v-2.0709zm12.4 0v2.0709h8.2655v-2.0709zm12.4 0v2.0709h8.2656v-2.0709zm12.4 0v2.0709h8.2655v-2.0709zm12.4 0v2.0709h8.2655v-2.0709zm12.4 0v2.0709h8.2656v-2.0709zm12.4 0v2.0709h8.2655v-2.0709zm12.4 0v2.0709h8.2655v-2.0709zm12.4 0v2.0709h8.2656v-2.0709zm12.4 0v2.0709h8.2655v-2.0709zm12.4 0v2.0709h8.2655v-2.0709zm12.4 0v2.0709h8.2656v-2.0709zm12.4 0v2.0709h8.2655v-2.0709zm12.4 0v2.0709h8.2656v-2.0709zm12.4 0v2.0709h8.2655v-2.0709zm12.4 0v2.0709h8.2655v-2.0709zm12.4 0v2.0709h8.2656v-2.0709zm12.4 0v2.0709h8.2655v-2.0709zm12.4 0v2.0709h8.2655v-2.0709zm12.4 0v2.0709h8.2656v-2.0709zm12.4 0v2.0709h8.2655v-2.0709zm12.4 0v2.0709h8.2655v-2.0709zm12.4 0v2.0709h8.2656v-2.0709zm12.4 0v2.0709h8.2655v-2.0709zm12.4 0v2.0709h8.2655v-2.0709zm12.4 0v2.0709h8.2656v-2.0709zm12.4 0v2.0709h8.2655v-2.0709zm12.4 0v2.0709h8.2655v-2.0709zm12.4 0v2.0709h8.2655v-2.0709zm12.4 0v2.0709h8.2655v-2.0709zm12.4 0v2.0709h8.2656v-2.0709zm12.4 0v2.0709h8.2655v-2.0709zm12.4 0v2.0709h8.2655v-2.0709zm12.4 0v2.0709h8.2656v-2.0709zm12.4 0v2.0709h8.2655v-2.0709zm12.4 0v2.0709h8.2655v-2.0709zm12.4 0v2.0709h8.2656v-2.0709zm12.4 0v2.0709h8.2655v-2.0709zm12.4 0v2.0709h8.2655v-2.0709zm12.4 0v2.0709h8.2656v-2.0709zm12.4 0v2.0709h8.2655v-2.0709zm12.4 0v2.0709h8.2655v-2.0709zm12.4 0v2.0709h2.4806v-2.0709z" style="color-rendering:auto;color:#000000;dominant-baseline:auto;fill:#000000;font-feature-settings:normal;font-variant-alternates:normal;font-variant-caps:normal;font-variant-east-asian:normal;font-variant-ligatures:normal;font-variant-numeric:normal;font-variant-position:normal;font-variation-settings:normal;image-rendering:auto;inline-size:0;isolation:auto;mix-blend-mode:normal;shape-margin:0;shape-padding:0;shape-rendering:auto;solid-color:#000000;stop-color:#000000;text-decoration-color:#000000;text-decoration-line:none;text-decoration-style:solid;text-indent:0;text-orientation:mixed;text-transform:none;white-space:normal"/>
  <path id="path4544" d="m-9473 396.65h634.87" style="color-rendering:auto;color:#000000;dominant-baseline:auto;fill:#b28261;font-feature-settings:normal;font-variant-alternates:normal;font-variant-caps:normal;font-variant-east-asian:normal;font-variant-ligatures:normal;font-variant-numeric:normal;font-variant-position:normal;font-variation-settings:normal;image-rendering:auto;inline-size:0;isolation:auto;mix-blend-mode:normal;shape-margin:0;shape-padding:0;shape-rendering:auto;solid-color:#000000;stop-color:#000000;text-decoration-color:#000000;text-decoration-line:none;text-decoration-style:solid;text-indent:0;text-orientation:mixed;text-transform:none;white-space:normal"/>
  <path id="path4546" d="m-9473 395.62v2.0709h8.2656v-2.0709zm12.4 0v2.0709h8.2655v-2.0709zm12.4 0v2.0709h8.2655v-2.0709zm12.4 0v2.0709h8.2656v-2.0709zm12.4 0v2.0709h8.2655v-2.0709zm12.4 0v2.0709h8.2655v-2.0709zm12.4 0v2.0709h8.2655v-2.0709zm12.4 0v2.0709h8.2655v-2.0709zm12.4 0v2.0709h8.2656v-2.0709zm12.4 0v2.0709h8.2655v-2.0709zm12.4 0v2.0709h8.2655v-2.0709zm12.4 0v2.0709h8.2656v-2.0709zm12.4 0v2.0709h8.2655v-2.0709zm12.4 0v2.0709h8.2655v-2.0709zm12.4 0v2.0709h8.2656v-2.0709zm12.4 0v2.0709h8.2655v-2.0709zm12.4 0v2.0709h8.2655v-2.0709zm12.4 0v2.0709h8.2656v-2.0709zm12.4 0v2.0709h8.2655v-2.0709zm12.4 0v2.0709h8.2655v-2.0709zm12.4 0v2.0709h8.2656v-2.0709zm12.4 0v2.0709h8.2655v-2.0709zm12.4 0v2.0709h8.2656v-2.0709zm12.4 0v2.0709h8.2655v-2.0709zm12.4 0v2.0709h8.2655v-2.0709zm12.4 0v2.0709h8.2656v-2.0709zm12.4 0v2.0709h8.2655v-2.0709zm12.4 0v2.0709h8.2655v-2.0709zm12.4 0v2.0709h8.2656v-2.0709zm12.4 0v2.0709h8.2655v-2.0709zm12.4 0v2.0709h8.2655v-2.0709zm12.4 0v2.0709h8.2656v-2.0709zm12.4 0v2.0709h8.2655v-2.0709zm12.4 0v2.0709h8.2655v-2.0709zm12.4 0v2.0709h8.2656v-2.0709zm12.4 0v2.0709h8.2655v-2.0709zm12.4 0v2.0709h8.2655v-2.0709zm12.4 0v2.0709h8.2655v-2.0709zm12.4 0v2.0709h8.2655v-2.0709zm12.4 0v2.0709h8.2656v-2.0709zm12.4 0v2.0709h8.2655v-2.0709zm12.4 0v2.0709h8.2655v-2.0709zm12.4 0v2.0709h8.2656v-2.0709zm12.4 0v2.0709h8.2655v-2.0709zm12.4 0v2.0709h8.2655v-2.0709zm12.4 0v2.0709h8.2656v-2.0709zm12.4 0v2.0709h8.2655v-2.0709zm12.4 0v2.0709h8.2655v-2.0709zm12.4 0v2.0709h8.2656v-2.0709zm12.4 0v2.0709h8.2655v-2.0709zm12.4 0v2.0709h8.2655v-2.0709zm12.4 0v2.0709h2.4806v-2.0709z" style="color-rendering:auto;color:#000000;dominant-baseline:auto;fill:#000000;font-feature-settings:normal;font-variant-alternates:normal;font-variant-caps:normal;font-variant-east-asian:normal;font-variant-ligatures:normal;font-variant-numeric:normal;font-variant-position:normal;font-variation-settings:normal;image-rendering:auto;inline-size:0;isolation:auto;mix-blend-mode:normal;shape-margin:0;shape-padding:0;shape-rendering:auto;solid-color:#000000;stop-color:#000000;text-decoration-color:#000000;text-decoration-line:none;text-decoration-style:solid;text-indent:0;text-orientation:mixed;text-transform:none;white-space:normal"/>
  <path id="path364" d="m-9231.3 180.53v-27.091h9.0811v4.0913h-5.1104v7.2981h3.6765v3.9808h-3.6765v7.6298h5.1104v4.0913z" style="fill:#ffffff;stroke-width:2.5099"/>
  <path id="path366" d="m-9207.9 180.83q-1.636 0-2.7206-0.53445-1.0846-0.55289-1.7096-1.5849-0.625-1.032-0.9007-2.488-0.2574-1.4559-0.2574-3.2804l3.8972-0.36859q0 0.88462 0.055 1.7139 0.074 0.8109 0.239 1.4744 0.1838 0.64503 0.5147 1.032 0.3493 0.38702 0.8824 0.38702 0.8824 0 1.25-0.81089 0.3677-0.82933 0.3677-1.9904 0-1.1611-0.6066-2.4143-0.6067-1.2532-1.4523-2.3774-1.4338-1.9167-2.5184-3.5569-1.0662-1.6402-1.6728-3.2252-0.5883-1.5849-0.5883-3.3173 0-1.3638 0.3493-2.5064 0.3493-1.1611 1.0111-2.0088 0.6801-0.86618 1.636-1.3454 0.9559-0.47916 2.1875-0.47916 1.5258 0 2.5736 0.51602 1.0662 0.51602 1.7096 1.4744 0.6618 0.95833 0.9559 2.2852 0.3125 1.3085 0.3125 2.9118l-3.8971 0.36859q0-0.68189-0.074-1.3638-0.055-0.70032-0.2206-1.2716-0.1655-0.57132-0.478-0.92148t-0.8088-0.35016q-0.7721 0-1.0662 0.66346-0.2941 0.64503-0.2941 1.843 0 1.5481 0.8272 2.9856 0.8272 1.4375 2.2243 3.3542 1.6728 2.2668 2.7206 4.1651 1.0662 1.8982 1.0662 4.2019 0 1.4559-0.3125 2.7091-0.3125 1.2348-0.9926 2.1562-0.6618 0.92147-1.7096 1.4375-1.0295 0.51602-2.5001 0.51602z" style="fill:#ffffff;stroke-width:2.5099"/>
  <path id="path368" d="m-9190.9 180.53v-23h-3.7501v-4.0913h11.471v4.0913h-3.7501v23z" style="fill:#ffffff;stroke-width:2.5099"/>
  <path id="path370" d="m-9175.2 180.53v-4.0913h3.8604v4.0913z" style="fill:#ffffff;stroke-width:2.5099"/>
  <path id="path372" d="m-9150.1 180.53v-3.9439q1.2684-1.9535 2.4633-4.1098 1.1949-2.1562 2.1508-4.3309 0.9742-2.1931 1.5441-4.2388 0.5699-2.0457 0.5699-3.7596 0-1.2163-0.239-2.2668t-1.0846-1.0505-1.0846 1.0505q-0.2389 1.032-0.2389 2.2668v1.8798h-3.9707v-1.8798q0-1.6218 0.2758-2.9118 0.2941-1.3085 0.9191-2.2115 0.625-0.92147 1.636-1.4006 1.0111-0.47916 2.4633-0.47916 1.4523 0 2.4633 0.47916 1.011 0.47917 1.636 1.3638 0.6251 0.88461 0.9008 2.1378 0.2941 1.2348 0.2941 2.7644 0 1.8245-0.5515 3.9439-0.5331 2.101-1.4338 4.3309-0.8824 2.2115-1.9853 4.3678-1.103 2.1378-2.2427 4.0545h6.2868v3.9439z" style="fill:#ffffff;stroke-width:2.5099"/>
  <path id="path374" d="m-9124.9 180.83q-1.6912 0-2.8861-0.77404-1.1765-0.77403-1.8015-2.101-0.6066-1.3454-0.6066-2.9856v-15.96q0-1.6586 0.625-2.9856 0.6434-1.3269 1.8383-2.101 1.1948-0.77403 2.8309-0.77403 1.6544 0 2.8309 0.79246 1.1949 0.77404 1.8199 2.101 0.6434 1.3269 0.6434 2.9671v15.96q0 1.6402-0.6434 2.9856-0.6434 1.3269-1.8383 2.101-1.1765 0.77404-2.8125 0.77404zm0-3.8702q0.6985 0 1.011-0.58974 0.3125-0.60817 0.3125-1.4006v-15.96q0-0.8109-0.3125-1.4006t-1.011-0.58974-1.011 0.6266q-0.3126 0.60817-0.3126 1.3638v15.96q0 0.79247 0.3126 1.4006 0.3125 0.58974 1.011 0.58974z" style="fill:#ffffff;stroke-width:2.5099"/>
  <path id="path376" d="m-9110.4 180.53v-3.9439q1.2684-1.9535 2.4633-4.1098 1.1948-2.1562 2.1508-4.3309 0.9742-2.1931 1.5441-4.2388 0.5699-2.0457 0.5699-3.7596 0-1.2163-0.239-2.2668t-1.0846-1.0505-1.0846 1.0505q-0.2389 1.032-0.2389 2.2668v1.8798h-3.9707v-1.8798q0-1.6218 0.2757-2.9118 0.2942-1.3085 0.9192-2.2115 0.625-0.92147 1.636-1.4006 1.0111-0.47916 2.4633-0.47916t2.4633 0.47916q1.011 0.47917 1.636 1.3638t0.9008 2.1378q0.2941 1.2348 0.2941 2.7644 0 1.8245-0.5515 3.9439-0.5331 2.101-1.4338 4.3309-0.8824 2.2115-1.9853 4.3678-1.103 2.1378-2.2427 4.0545h6.2868v3.9439z" style="fill:#ffffff;stroke-width:2.5099"/>
  <path id="path378" d="m-9085.2 180.83q-1.6912 0-2.8861-0.77404-1.1765-0.77403-1.8015-2.101-0.6066-1.3454-0.6066-2.9856v-15.96q0-1.6586 0.625-2.9856 0.6434-1.3269 1.8382-2.101 1.1949-0.77403 2.831-0.77403 1.6544 0 2.8309 0.79246 1.1949 0.77404 1.8199 2.101 0.6434 1.3269 0.6434 2.9671v15.96q0 1.6402-0.6434 2.9856-0.6434 1.3269-1.8383 2.101-1.1765 0.77404-2.8125 0.77404zm0-3.8702q0.6985 0 1.011-0.58974 0.3125-0.60817 0.3125-1.4006v-15.96q0-0.8109-0.3125-1.4006t-1.011-0.58974q-0.6986 0-1.0111 0.6266-0.3125 0.60817-0.3125 1.3638v15.96q0 0.79247 0.3125 1.4006 0.3125 0.58974 1.0111 0.58974z" style="fill:#ffffff;stroke-width:2.5099"/>
  <path id="rect4558" d="m-9262.7 163.9h18.46v6.169h-18.46z" style="fill:#ffffff;stroke-width:2.7229"/>
  <path id="rect4560" d="m-9066.9 163.9h18.46v6.169h-18.46z" style="fill:#ffffff;stroke-width:2.7229"/>
  <path id="path4564" d="m-9309.3 517c-0.6367 0-1.1493 0.51392-1.1493 1.1523v17.284h-64.046l33.287 40.769-30.093 36.858h75.354c0.6368 0 1.1494-0.51392 1.1494-1.1523v-17.284h278.42v17.284c0 0.63837 0.5126 1.1523 1.1494 1.1523h75.354l-30.093-36.858 33.287-40.769h-64.046v-17.284c0-0.63836-0.5125-1.1523-1.1493-1.1523z" style="fill:#69b261"/>
  <path id="path383" d="m-9222.7 583.64v-52.425h18.284v7.9172h-10.601v13.766h7.1145v7.9172h-7.1145v22.824z" style="stroke-width:4.8569"/>
  <path id="path385" d="m-9192.6 583.64 7.8971-52.425h9.3911l7.8971 52.425h-7.4702l-1.4229-10.699h-7.3991l-1.4229 10.699zm9.9603-18.83h5.2647l-2.2055-17.618-0.2134-2.7817h-0.4269l-0.2134 2.7817z" style="stroke-width:4.8569"/>
  <path id="path387" d="m-9153 583.64v-52.425h7.6836q6.901 0 10.174 3.8516 3.2727 3.8159 3.2727 11.269 0 4.4222-1.5652 7.6675-1.5296 3.2097-3.7351 4.7075l5.2291 24.928h-7.6836l-4.3399-22.111h-1.3517v22.111zm7.6836-29.244q2.1343 0 3.3794-0.92724 1.245-0.9629 1.7786-2.7104t0.5336-4.1369q0-3.7446-1.245-5.7417-1.2095-2.0328-4.4466-2.0328z" style="stroke-width:4.8569"/>
  <path id="path389" d="m-9117.2 583.64v-52.425h9.7469l4.1975 27.175 0.3557 2.7817h0.1423l0.3557-2.7817 4.1975-27.175h9.7469v52.425h-7.1145v-35.164h-0.4269l-0.2845 2.2111-4.5533 32.953h-3.9841l-4.5533-32.953-0.2846-2.2111h-0.4269v35.164z" style="stroke-width:4.8569"/>
 </g>
</svg>
