<?xml version="1.0" encoding="UTF-8" standalone="no"?>
<svg
   sodipodi:docname="bellsworne-tech-logo-NO-BG.svg"
   inkscape:version="1.2.2 (b0a8486541, 2022-12-01)"
   id="svg8"
   version="1.1"
   viewBox="0 0 634.99999 545.22061"
   height="2060.6763"
   width="2400"
   inkscape:export-filename="D:\Bellsworne\bellsworne-banner-v1.png"
   inkscape:export-xdpi="95.800003"
   inkscape:export-ydpi="95.800003"
   xmlns:inkscape="http://www.inkscape.org/namespaces/inkscape"
   xmlns:sodipodi="http://sodipodi.sourceforge.net/DTD/sodipodi-0.dtd"
   xmlns="http://www.w3.org/2000/svg"
   xmlns:svg="http://www.w3.org/2000/svg"
   xmlns:rdf="http://www.w3.org/1999/02/22-rdf-syntax-ns#"
   xmlns:cc="http://creativecommons.org/ns#"
   xmlns:dc="http://purl.org/dc/elements/1.1/">
  <defs
     id="defs2" />
  <sodipodi:namedview
     id="base"
     pagecolor="#ffffff"
     bordercolor="#666666"
     borderopacity="1.0"
     inkscape:pageopacity="0"
     inkscape:pageshadow="2"
     inkscape:zoom="0.16"
     inkscape:cx="1331.25"
     inkscape:cy="1006.25"
     inkscape:document-units="px"
     inkscape:current-layer="layer1"
     inkscape:document-rotation="0"
     showgrid="false"
     inkscape:showpageshadow="false"
     showborder="false"
     units="px"
     inkscape:window-width="1920"
     inkscape:window-height="1016"
     inkscape:window-x="0"
     inkscape:window-y="0"
     inkscape:window-maximized="1"
     inkscape:snap-nodes="true"
     inkscape:snap-smooth-nodes="true"
     inkscape:snap-midpoints="false"
     inkscape:snap-intersection-paths="false"
     inkscape:object-paths="false"
     inkscape:snap-text-baseline="false"
     inkscape:snap-others="false"
     inkscape:object-nodes="false"
     inkscape:snap-bbox="false"
     inkscape:bbox-nodes="false"
     inkscape:snap-bbox-edge-midpoints="false"
     inkscape:snap-bbox-midpoints="false"
     inkscape:snap-global="true"
     inkscape:snap-object-midpoints="false"
     inkscape:pagecheckerboard="0"
     inkscape:deskcolor="#d1d1d1" />
  <metadata
     id="metadata5">
    <rdf:RDF>
      <cc:Work
         rdf:about="">
        <dc:format>image/svg+xml</dc:format>
        <dc:type
           rdf:resource="http://purl.org/dc/dcmitype/StillImage" />
        <dc:title />
      </cc:Work>
    </rdf:RDF>
  </metadata>
  <g
     inkscape:label="Layer 1"
     inkscape:groupmode="layer"
     id="layer1"
     transform="translate(9030.7551,544.42699)">
    <g
       id="g3780"
       transform="matrix(2.0556247,0,0,2.0556247,1504.2562,-1919.2277)">
      <path
         id="ellipse3703"
         style="fill:#ff0000;stroke-width:0.264583"
         d="m -4904.6861,846.47443 a 64.215721,39.6875 0 0 1 -64.2158,39.6875 64.215721,39.6875 0 0 1 -64.2157,-39.6875 64.215721,39.6875 0 0 1 64.2157,-39.6875 64.215721,39.6875 0 0 1 64.2158,39.6875 z" />
      <path
         style="fill:#b28261;fill-opacity:1;stroke:none;stroke-width:0.264583px;stroke-linecap:butt;stroke-linejoin:miter;stroke-opacity:1"
         d="m -4816.0601,831.57138 -49.1788,28.39343 2.6996,-40.74249 39.1583,-0.79375 z"
         id="path3705" />
      <path
         style="fill:#b28261;fill-opacity:1;stroke:none;stroke-width:0.264583px;stroke-linecap:butt;stroke-linejoin:miter;stroke-opacity:1"
         d="m -5124.9684,771.2611 42.3846,-24.47075 -1.6763,43.3278 -34.925,-6.61458 -5.7833,-12.24247"
         id="path3708" />
      <g
         id="g3714"
         transform="matrix(1.0935619,0,0,1,-5611.2996,889.72209)"
         style="fill:#2b2b2b;fill-opacity:1;stroke:none">
        <path
           id="path3710"
           style="stroke-width:2.64583"
           inkscape:transform-center-x="6.6571939e-06"
           inkscape:transform-center-y="1.7657093e-06"
           d="m 692.51868,-26.785133 -106.55701,61.520721 -106.55702,-61.520722 0,-123.041446 106.55702,-61.52072 106.55702,61.52072 z" />
        <path
           id="path3712"
           style="stroke-width:3.83878"
           inkscape:transform-center-x="6.1697596e-06"
           inkscape:transform-center-y="1.6364255e-06"
           d="m 698.89177,-23.105628 -112.9301,65.200225 -112.9301,-65.200226 0,-130.400451 112.9301,-65.20023 112.9301,65.20023 z" />
      </g>
      <g
         id="g3720"
         transform="matrix(1.0935619,0,0,1,-5611.2996,889.72209)"
         style="stroke:#b28261;stroke-opacity:1">
        <path
           id="path3716"
           style="fill:none;stroke-width:2.64583"
           inkscape:transform-center-x="6.6571939e-06"
           inkscape:transform-center-y="1.7657093e-06"
           d="m 692.51868,-26.785133 -106.55701,61.520721 -106.55702,-61.520722 0,-123.041446 106.55702,-61.52072 106.55702,61.52072 z" />
        <path
           id="path3718"
           style="fill:none;stroke-width:3.83878"
           inkscape:transform-center-x="6.1697596e-06"
           inkscape:transform-center-y="1.6364255e-06"
           d="m 698.89177,-23.105628 -112.9301,65.200225 -112.9301,-65.200226 0,-130.400451 112.9301,-65.20023 112.9301,65.20023 z" />
      </g>
      <path
         id="path3722"
         style="fill:#b28261;fill-opacity:1;stroke:none;stroke-width:0.936199"
         d="m -4972.6472,723.96491 -2.5453,6.08342 -0.7168,4.37749 0.1334,1.64199 -6.5699,0.86486 -0.2961,-1.61999 -1.8248,-4.04288 -4.0338,-5.21859 -4.1196,1.10445 -0.8831,6.53513 0.4406,4.414 0.5522,1.55064 -6.1219,2.53607 -0.7058,-1.48838 -2.8086,-3.4321 -5.2478,-3.99531 -3.6918,2.13199 0.8374,6.54067 1.5671,4.14884 0.9362,1.35676 -5.257,4.03195 -1.066,-1.25444 -3.6022,-2.58727 -6.1018,-2.50145 -3.0152,3.01526 2.5015,6.10174 2.5873,3.60215 1.2543,1.06602 -4.0318,5.25699 -1.3567,-0.93619 -4.149,-1.56704 -6.5406,-0.83747 -2.132,3.69179 3.9953,5.24783 3.4321,2.80859 1.4884,0.70581 -2.5361,6.12188 -1.5507,-0.55403 -4.414,-0.43883 -6.5351,0.88318 -1.1025,4.11964 5.2167,4.0337 4.0428,1.82486 1.6201,0.29617 -0.8649,6.56804 -1.642,-0.13167 -4.3775,0.71681 -6.0835,2.54526 v 4.26413 l 6.0835,2.54528 4.3775,0.7186 1.642,-0.13338 0.8649,6.56802 -1.6201,0.29793 -4.0428,1.82485 -5.2167,4.0337 1.1025,4.1178 6.5351,0.88502 4.414,-0.44067 1.5507,-0.55223 2.5361,6.12005 -1.4884,0.70581 -3.4321,2.81043 -3.9953,5.24603 2.132,3.69359 6.5406,-0.83747 4.149,-1.56885 1.3567,-0.93438 4.0318,5.25519 -1.2543,1.06781 -2.5873,3.60219 -2.5015,6.10176 3.0152,3.0152 6.1018,-2.50139 3.6022,-2.58919 1.066,-1.25436 5.257,4.0337 -0.9362,1.35496 -1.5671,4.14887 -0.8374,6.54246 3.6918,2.13202 5.2478,-3.99711 2.8086,-3.43213 0.7058,-1.48659 6.1219,2.53434 -0.5522,1.5524 -0.4406,4.4122 0.8831,6.53694 4.1196,1.1026 4.0338,-5.21673 1.8248,-4.04286 0.2961,-1.62006 6.5699,0.86489 -0.1334,1.64199 0.7168,4.37565 2.5453,6.0853 h 4.2641 l 2.5472,-6.0853 0.7167,-4.37565 -0.1334,-1.64199 6.5681,-0.86489 0.298,1.62006 1.8248,4.04286 4.0337,5.21673 4.1197,-1.1026 0.8832,-6.53694 -0.4407,-4.4122 -0.5523,-1.5524 6.1201,-2.53434 0.7077,1.48659 2.8085,3.43213 5.2461,3.99711 3.6935,-2.13202 -0.8374,-6.54246 -1.5689,-4.14887 -0.9343,-1.35496 5.2552,-4.0337 1.0678,1.25436 3.6021,2.58919 6.1018,2.50139 3.0152,-3.0152 -2.5014,-6.10176 -2.5891,-3.60219 -1.2544,-1.06781 4.0337,-5.25519 1.3549,0.93438 4.1489,1.56885 6.5425,0.83747 2.132,-3.69359 -3.9953,-5.24603 -3.4339,-2.81043 -1.4866,-0.70581 2.5343,-6.12005 1.5524,0.55223 4.4122,0.44067 6.5369,-0.88502 1.1026,-4.1178 -5.2167,-4.0337 -4.0428,-1.82485 -1.6201,-0.29793 0.8649,-6.56802 1.642,0.13338 4.3775,-0.7186 6.0834,-2.54528 v -4.26413 l -6.0834,-2.54526 -4.3775,-0.71681 -1.642,0.13167 -0.8649,-6.56804 1.6201,-0.29617 4.0428,-1.82486 5.2167,-4.0337 -1.1026,-4.11964 -6.5369,-0.88318 -4.4122,0.43883 -1.5524,0.55403 -2.5343,-6.12188 1.4866,-0.70581 3.4339,-2.80859 3.9953,-5.24783 -2.132,-3.69179 -6.5425,0.83747 -4.1489,1.56704 -1.3549,0.93619 -4.0337,-5.25699 1.2544,-1.06602 2.5891,-3.60215 2.5014,-6.10174 -3.0152,-3.01526 -6.1018,2.50145 -3.6021,2.58727 -1.0678,1.25444 -5.2552,-4.03195 0.9343,-1.35676 1.5689,-4.14884 0.8374,-6.54067 -3.6935,-2.13199 -5.2461,3.99531 -2.8085,3.4321 -0.7077,1.48838 -6.1201,-2.53607 0.5523,-1.55064 0.4407,-4.414 -0.8832,-6.53513 -4.1197,-1.10445 -4.0337,5.21859 -1.8248,4.04288 -0.298,1.61999 -6.5681,-0.86486 0.1334,-1.64199 -0.7167,-4.37749 -2.5472,-6.08342 z m 1.9145,19.19941 a 58.252468,58.252468 0 0 1 0.2176,0 58.252468,58.252468 0 0 1 58.2529,58.25105 58.252468,58.252468 0 0 1 -58.2529,58.25285 58.252468,58.252468 0 0 1 -58.2511,-58.25285 58.252468,58.252468 0 0 1 58.0335,-58.25105 z m 0.2176,2.31305 a 55.938467,55.938467 0 0 0 -55.938,55.93984 55.938467,55.938467 0 0 0 55.938,55.93796 55.938467,55.938467 0 0 0 55.9398,-55.93796 55.938467,55.938467 0 0 0 -55.9398,-55.93984 z m -0.2962,2.9786 a 52.959496,52.959496 0 0 1 0.2962,0 52.959496,52.959496 0 0 1 36.4332,14.52215 l -31.6553,31.65526 a 8.1854549,8.1854549 0 0 0 -4.4524,-1.31837 8.1854549,8.1854549 0 0 0 -4.8493,1.59083 l -31.9167,-31.91858 a 52.959496,52.959496 0 0 1 36.1442,-14.53129 z m -38.1318,16.51887 31.9606,31.96065 a 8.1854549,8.1854549 0 0 0 -1.3933,4.56581 8.1854549,8.1854549 0 0 0 1.3,4.42503 l -31.8984,31.89661 a 52.959496,52.959496 0 0 1 -14.5001,-36.40573 52.959496,52.959496 0 0 1 14.5312,-36.44237 z m 76.8671,0.0107 a 52.959496,52.959496 0 0 1 14.5222,36.43318 52.959496,52.959496 0 0 1 -14.5185,36.42588 l -31.509,-31.509 a 8.1854549,8.1854549 0 0 0 1.578,-4.83277 8.1854549,8.1854549 0 0 0 -1.6566,-4.93518 z m -43.0213,43.06705 a 8.1854549,8.1854549 0 0 0 4.9077,1.63649 8.1854549,8.1854549 0 0 0 4.5494,-1.38234 l 31.5529,31.55287 a 52.959496,52.959496 0 0 1 -36.4277,14.51843 52.959496,52.959496 0 0 1 -36.4076,-14.4983 z" />
      <g
         id="g3728"
         transform="matrix(0.50404175,0,0,0.50404175,-5315.8354,897.14108)">
        <path
           id="path3724"
           style="fill:#b28261;fill-opacity:1;stroke:none;stroke-width:4.35538;stroke-opacity:1"
           d="m 1890.6816,-1044.877 -6.5546,14.4805 -0.5,5.1348 1.2851,8.7539 -15.498,4.1523 -3.2637,-8.2246 -2.9981,-4.1953 -12.9179,-9.2637 -7.4512,4.3028 1.5625,15.8183 2.1348,4.6953 5.4902,6.9375 -11.3457,11.34575 -6.9375,-5.49024 -4.6953,-2.13476 -15.8184,-1.56255 -4.3027,7.45122 9.2637,12.91797 4.1953,2.99804 8.2246,3.26368 -4.1543,15.49804 -8.752,-1.28515 -5.1347,0.5 -14.4805,6.55468 v 8.60547 l 14.4805,6.55469 5.1347,0.49805 8.752,-1.28516 4.1543,15.49805 -8.2246,3.26367 -4.1953,3 -9.2637,12.91602 4.3027,7.45312 15.8184,-1.56445 4.6953,-2.13477 6.9375,-5.49023 11.3457,11.3457 -5.4902,6.9375 -2.1348,4.69727 -1.5625,15.8164 7.4512,4.30274 12.9179,-9.26172 2.9981,-4.19727 3.2637,-8.22265 15.498,4.15234 -1.2851,8.75195 0.5,5.13477 6.5546,14.48047 h 8.6036 l 6.5566,-14.48047 0.498,-5.13477 -1.2851,-8.75195 15.498,-4.15234 3.2637,8.22265 3,4.19727 12.916,9.26172 7.4512,-4.30274 -1.5625,-15.8164 -2.1348,-4.69727 -5.4902,-6.9375 11.3457,-11.3457 6.9375,5.49023 4.6973,2.13477 15.8164,1.56445 4.3027,-7.45312 -9.2617,-12.91602 -4.1973,-3 -8.2226,-3.26367 4.1523,-15.49805 8.752,1.28516 5.1347,-0.49805 14.4805,-6.55469 v -8.60547 l -14.4805,-6.55468 -5.1347,-0.5 -8.752,1.28515 -4.1523,-15.49804 8.2226,-3.26368 4.1973,-2.99804 9.2617,-12.91797 -4.3027,-7.45122 -15.8164,1.56255 -4.6973,2.13476 -6.9375,5.49024 -11.3457,-11.34575 5.4902,-6.9375 2.1348,-4.6953 1.5625,-15.8183 -7.4512,-4.3028 -12.916,9.2637 -3,4.1953 -3.2637,8.2246 -15.498,-4.1523 1.2851,-8.7539 -0.498,-5.1348 -6.5566,-14.4805 z m 3.9122,43.4512 a 53.499999,53.499999 0 0 1 0.3906,0 53.499999,53.499999 0 0 1 53.5,53.50002 53.499999,53.499999 0 0 1 -53.5,53.5 53.499999,53.499999 0 0 1 -53.5,-53.5 53.499999,53.499999 0 0 1 53.1094,-53.50002 z"
           transform="scale(0.26458333)" />
        <path
           id="path3726"
           style="fill:#b28261;fill-opacity:1;stroke:none;stroke-width:0.0643235;stroke-miterlimit:4;stroke-dasharray:none;stroke-dashoffset:0;stroke-opacity:1"
           d="m 505.11177,-250.80563 a 3.7307554,3.7307554 0 0 1 -3.73076,3.73076 3.7307554,3.7307554 0 0 1 -3.73075,-3.73076 3.7307554,3.7307554 0 0 1 3.73075,-3.73075 3.7307554,3.7307554 0 0 1 3.73076,3.73075 z" />
      </g>
      <g
         id="g3734"
         transform="matrix(0.50404175,0,0,0.50404175,-5130.627,897.14108)">
        <path
           id="path3730"
           style="fill:#b28261;fill-opacity:1;stroke:none;stroke-width:4.35538;stroke-opacity:1"
           d="m 1890.6816,-1044.877 -6.5546,14.4805 -0.5,5.1348 1.2851,8.7539 -15.498,4.1523 -3.2637,-8.2246 -2.9981,-4.1953 -12.9179,-9.2637 -7.4512,4.3028 1.5625,15.8183 2.1348,4.6953 5.4902,6.9375 -11.3457,11.34575 -6.9375,-5.49024 -4.6953,-2.13476 -15.8184,-1.56255 -4.3027,7.45122 9.2637,12.91797 4.1953,2.99804 8.2246,3.26368 -4.1543,15.49804 -8.752,-1.28515 -5.1347,0.5 -14.4805,6.55468 v 8.60547 l 14.4805,6.55469 5.1347,0.49805 8.752,-1.28516 4.1543,15.49805 -8.2246,3.26367 -4.1953,3 -9.2637,12.91602 4.3027,7.45312 15.8184,-1.56445 4.6953,-2.13477 6.9375,-5.49023 11.3457,11.3457 -5.4902,6.9375 -2.1348,4.69727 -1.5625,15.8164 7.4512,4.30274 12.9179,-9.26172 2.9981,-4.19727 3.2637,-8.22265 15.498,4.15234 -1.2851,8.75195 0.5,5.13477 6.5546,14.48047 h 8.6036 l 6.5566,-14.48047 0.498,-5.13477 -1.2851,-8.75195 15.498,-4.15234 3.2637,8.22265 3,4.19727 12.916,9.26172 7.4512,-4.30274 -1.5625,-15.8164 -2.1348,-4.69727 -5.4902,-6.9375 11.3457,-11.3457 6.9375,5.49023 4.6973,2.13477 15.8164,1.56445 4.3027,-7.45312 -9.2617,-12.91602 -4.1973,-3 -8.2226,-3.26367 4.1523,-15.49805 8.752,1.28516 5.1347,-0.49805 14.4805,-6.55469 v -8.60547 l -14.4805,-6.55468 -5.1347,-0.5 -8.752,1.28515 -4.1523,-15.49804 8.2226,-3.26368 4.1973,-2.99804 9.2617,-12.91797 -4.3027,-7.45122 -15.8164,1.56255 -4.6973,2.13476 -6.9375,5.49024 -11.3457,-11.34575 5.4902,-6.9375 2.1348,-4.6953 1.5625,-15.8183 -7.4512,-4.3028 -12.916,9.2637 -3,4.1953 -3.2637,8.2246 -15.498,-4.1523 1.2851,-8.7539 -0.498,-5.1348 -6.5566,-14.4805 z m 3.9122,43.4512 a 53.499999,53.499999 0 0 1 0.3906,0 53.499999,53.499999 0 0 1 53.5,53.50002 53.499999,53.499999 0 0 1 -53.5,53.5 53.499999,53.499999 0 0 1 -53.5,-53.5 53.499999,53.499999 0 0 1 53.1094,-53.50002 z"
           transform="scale(0.26458333)" />
        <path
           id="path3732"
           style="fill:#b28261;fill-opacity:1;stroke:none;stroke-width:0.0643235;stroke-miterlimit:4;stroke-dasharray:none;stroke-dashoffset:0;stroke-opacity:1"
           d="m 505.11177,-250.80563 a 3.7307554,3.7307554 0 0 1 -3.73076,3.73076 3.7307554,3.7307554 0 0 1 -3.73075,-3.73076 3.7307554,3.7307554 0 0 1 3.73075,-3.73075 3.7307554,3.7307554 0 0 1 3.73076,3.73075 z" />
      </g>
      <g
         id="g3740"
         transform="matrix(0.50404175,0,0,0.50404175,-5315.8354,958.52441)">
        <path
           id="path3736"
           style="fill:#b28261;fill-opacity:1;stroke:none;stroke-width:4.35538;stroke-opacity:1"
           d="m 1890.6816,-1044.877 -6.5546,14.4805 -0.5,5.1348 1.2851,8.7539 -15.498,4.1523 -3.2637,-8.2246 -2.9981,-4.1953 -12.9179,-9.2637 -7.4512,4.3028 1.5625,15.8183 2.1348,4.6953 5.4902,6.9375 -11.3457,11.34575 -6.9375,-5.49024 -4.6953,-2.13476 -15.8184,-1.56255 -4.3027,7.45122 9.2637,12.91797 4.1953,2.99804 8.2246,3.26368 -4.1543,15.49804 -8.752,-1.28515 -5.1347,0.5 -14.4805,6.55468 v 8.60547 l 14.4805,6.55469 5.1347,0.49805 8.752,-1.28516 4.1543,15.49805 -8.2246,3.26367 -4.1953,3 -9.2637,12.91602 4.3027,7.45312 15.8184,-1.56445 4.6953,-2.13477 6.9375,-5.49023 11.3457,11.3457 -5.4902,6.9375 -2.1348,4.69727 -1.5625,15.8164 7.4512,4.30274 12.9179,-9.26172 2.9981,-4.19727 3.2637,-8.22265 15.498,4.15234 -1.2851,8.75195 0.5,5.13477 6.5546,14.48047 h 8.6036 l 6.5566,-14.48047 0.498,-5.13477 -1.2851,-8.75195 15.498,-4.15234 3.2637,8.22265 3,4.19727 12.916,9.26172 7.4512,-4.30274 -1.5625,-15.8164 -2.1348,-4.69727 -5.4902,-6.9375 11.3457,-11.3457 6.9375,5.49023 4.6973,2.13477 15.8164,1.56445 4.3027,-7.45312 -9.2617,-12.91602 -4.1973,-3 -8.2226,-3.26367 4.1523,-15.49805 8.752,1.28516 5.1347,-0.49805 14.4805,-6.55469 v -8.60547 l -14.4805,-6.55468 -5.1347,-0.5 -8.752,1.28515 -4.1523,-15.49804 8.2226,-3.26368 4.1973,-2.99804 9.2617,-12.91797 -4.3027,-7.45122 -15.8164,1.56255 -4.6973,2.13476 -6.9375,5.49024 -11.3457,-11.34575 5.4902,-6.9375 2.1348,-4.6953 1.5625,-15.8183 -7.4512,-4.3028 -12.916,9.2637 -3,4.1953 -3.2637,8.2246 -15.498,-4.1523 1.2851,-8.7539 -0.498,-5.1348 -6.5566,-14.4805 z m 3.9122,43.4512 a 53.499999,53.499999 0 0 1 0.3906,0 53.499999,53.499999 0 0 1 53.5,53.50002 53.499999,53.499999 0 0 1 -53.5,53.5 53.499999,53.499999 0 0 1 -53.5,-53.5 53.499999,53.499999 0 0 1 53.1094,-53.50002 z"
           transform="scale(0.26458333)" />
        <path
           id="path3738"
           style="fill:#b28261;fill-opacity:1;stroke:none;stroke-width:0.0643235;stroke-miterlimit:4;stroke-dasharray:none;stroke-dashoffset:0;stroke-opacity:1"
           d="m 505.11177,-250.80563 a 3.7307554,3.7307554 0 0 1 -3.73076,3.73076 3.7307554,3.7307554 0 0 1 -3.73075,-3.73076 3.7307554,3.7307554 0 0 1 3.73075,-3.73075 3.7307554,3.7307554 0 0 1 3.73076,3.73075 z" />
      </g>
      <g
         id="g3746"
         transform="matrix(0.50404175,0,0,0.50404175,-5130.627,958.52441)">
        <path
           id="path3742"
           style="fill:#b28261;fill-opacity:1;stroke:none;stroke-width:4.35538;stroke-opacity:1"
           d="m 1890.6816,-1044.877 -6.5546,14.4805 -0.5,5.1348 1.2851,8.7539 -15.498,4.1523 -3.2637,-8.2246 -2.9981,-4.1953 -12.9179,-9.2637 -7.4512,4.3028 1.5625,15.8183 2.1348,4.6953 5.4902,6.9375 -11.3457,11.34575 -6.9375,-5.49024 -4.6953,-2.13476 -15.8184,-1.56255 -4.3027,7.45122 9.2637,12.91797 4.1953,2.99804 8.2246,3.26368 -4.1543,15.49804 -8.752,-1.28515 -5.1347,0.5 -14.4805,6.55468 v 8.60547 l 14.4805,6.55469 5.1347,0.49805 8.752,-1.28516 4.1543,15.49805 -8.2246,3.26367 -4.1953,3 -9.2637,12.91602 4.3027,7.45312 15.8184,-1.56445 4.6953,-2.13477 6.9375,-5.49023 11.3457,11.3457 -5.4902,6.9375 -2.1348,4.69727 -1.5625,15.8164 7.4512,4.30274 12.9179,-9.26172 2.9981,-4.19727 3.2637,-8.22265 15.498,4.15234 -1.2851,8.75195 0.5,5.13477 6.5546,14.48047 h 8.6036 l 6.5566,-14.48047 0.498,-5.13477 -1.2851,-8.75195 15.498,-4.15234 3.2637,8.22265 3,4.19727 12.916,9.26172 7.4512,-4.30274 -1.5625,-15.8164 -2.1348,-4.69727 -5.4902,-6.9375 11.3457,-11.3457 6.9375,5.49023 4.6973,2.13477 15.8164,1.56445 4.3027,-7.45312 -9.2617,-12.91602 -4.1973,-3 -8.2226,-3.26367 4.1523,-15.49805 8.752,1.28516 5.1347,-0.49805 14.4805,-6.55469 v -8.60547 l -14.4805,-6.55468 -5.1347,-0.5 -8.752,1.28515 -4.1523,-15.49804 8.2226,-3.26368 4.1973,-2.99804 9.2617,-12.91797 -4.3027,-7.45122 -15.8164,1.56255 -4.6973,2.13476 -6.9375,5.49024 -11.3457,-11.34575 5.4902,-6.9375 2.1348,-4.6953 1.5625,-15.8183 -7.4512,-4.3028 -12.916,9.2637 -3,4.1953 -3.2637,8.2246 -15.498,-4.1523 1.2851,-8.7539 -0.498,-5.1348 -6.5566,-14.4805 z m 3.9122,43.4512 a 53.499999,53.499999 0 0 1 0.3906,0 53.499999,53.499999 0 0 1 53.5,53.50002 53.499999,53.499999 0 0 1 -53.5,53.5 53.499999,53.499999 0 0 1 -53.5,-53.5 53.499999,53.499999 0 0 1 53.1094,-53.50002 z"
           transform="scale(0.26458333)" />
        <path
           id="path3744"
           style="fill:#b28261;fill-opacity:1;stroke:none;stroke-width:0.0643235;stroke-miterlimit:4;stroke-dasharray:none;stroke-dashoffset:0;stroke-opacity:1"
           d="m 505.11177,-250.80563 a 3.7307554,3.7307554 0 0 1 -3.73076,3.73076 3.7307554,3.7307554 0 0 1 -3.73075,-3.73076 3.7307554,3.7307554 0 0 1 3.73075,-3.73075 3.7307554,3.7307554 0 0 1 3.73076,3.73075 z" />
      </g>
      <path
         id="rect3748"
         style="fill:#b28261;stroke-width:3.59691"
         d="m -5124.9683,771.26111 h 308.9084 v 60.31028 h -308.9084 z" />
      <g
         aria-label="BELLSWORNE"
         id="text3752"
         style="font-size:49.2478px;line-height:1.25;-inkscape-font-specification:sans-serif;letter-spacing:1.73046px;stroke-width:0.512997">
        <path
           d="M -5064.1894,819.51483 V 783.3177 h 5.4173 q 2.7579,0 4.7524,0.98496 2.0192,0.96033 3.1026,3.02873 1.1081,2.06841 1.1081,5.34339 0,2.61013 -0.6895,4.55542 -0.6648,1.94529 -2.6101,3.17649 1.9699,1.08345 2.8317,3.44734 0.8619,2.33927 0.8619,5.41726 0,3.02874 -0.985,5.34339 -0.9603,2.31464 -2.8564,3.61971 -1.8714,1.28044 -4.6292,1.28044 z m 5.3188,-5.26951 q 2.4131,0 3.1765,-1.42819 0.7633,-1.45281 0.7633,-4.13681 0,-2.73326 -0.7633,-4.13682 -0.7634,-1.42819 -3.1765,-1.42819 z m 0,-16.00554 q 2.2408,0 3.078,-1.23119 0.8618,-1.2312 0.8618,-3.64434 0,-2.43777 -0.8864,-3.59509 -0.8619,-1.18195 -3.0534,-1.18195 z"
           style="font-family:'League Gothic';-inkscape-font-specification:'League Gothic';text-align:center;text-anchor:middle"
           id="path334" />
        <path
           d="M -5044.5327,819.51483 V 783.3177 h 12.1642 v 5.46651 h -6.8454 v 9.75106 h 4.9248 v 5.31876 h -4.9248 v 10.1943 h 6.8454 v 5.4665 z"
           style="font-family:'League Gothic';-inkscape-font-specification:'League Gothic';text-align:center;text-anchor:middle"
           id="path336" />
        <path
           d="M -5026.6982,819.51483 V 783.3177 h 5.3187 v 31.27235 h 7.0425 v 4.92478 z"
           style="font-family:'League Gothic';-inkscape-font-specification:'League Gothic';text-align:center;text-anchor:middle"
           id="path338" />
        <path
           d="M -5010.4397,819.51483 V 783.3177 h 5.3188 v 31.27235 h 7.0424 v 4.92478 z"
           style="font-family:'League Gothic';-inkscape-font-specification:'League Gothic';text-align:center;text-anchor:middle"
           id="path340" />
        <path
           d="m -4987.7789,819.90881 q -2.1915,0 -3.6443,-0.71409 -1.4528,-0.73872 -2.29,-2.11765 -0.8372,-1.37894 -1.2066,-3.32423 -0.3447,-1.94529 -0.3447,-4.38306 l 5.2202,-0.49247 q 0,1.18194 0.074,2.29002 0.099,1.08345 0.3201,1.96991 0.2463,0.86184 0.6895,1.37894 0.4678,0.5171 1.1819,0.5171 1.182,0 1.6745,-1.08345 0.4924,-1.10808 0.4924,-2.65938 0,-1.55131 -0.8126,-3.22573 -0.8125,-1.67443 -1.9452,-3.17648 -1.9207,-2.56089 -3.3735,-4.75242 -1.4282,-2.19152 -2.2408,-4.30918 -0.788,-2.11766 -0.788,-4.4323 0,-1.82217 0.4679,-3.34885 0.4678,-1.55131 1.3543,-2.68401 0.9111,-1.15732 2.1915,-1.79754 1.2805,-0.64022 2.9303,-0.64022 2.0438,0 3.4473,0.68947 1.4282,0.68947 2.29,1.96991 0.8865,1.28044 1.2805,3.05336 0.4186,1.7483 0.4186,3.89058 l -5.2203,0.49248 q 0,-0.91109 -0.099,-1.82217 -0.074,-0.93571 -0.2955,-1.69905 -0.2216,-0.76334 -0.6402,-1.2312 -0.4186,-0.46785 -1.0834,-0.46785 -1.0342,0 -1.4282,0.88646 -0.394,0.86184 -0.394,2.46239 0,2.06841 1.1081,3.98907 1.1081,1.92067 2.9795,4.48155 2.2407,3.02874 3.6443,5.565 1.4282,2.53626 1.4282,5.61425 0,1.94529 -0.4186,3.61971 -0.4186,1.64981 -1.3297,2.881 -0.8865,1.2312 -2.29,1.92066 -1.379,0.68947 -3.3489,0.68947 z"
           style="font-family:'League Gothic';-inkscape-font-specification:'League Gothic';text-align:center;text-anchor:middle"
           id="path342" />
        <path
           d="m -4972.1606,819.51483 -4.8755,-36.19713 h 4.9248 l 2.1176,18.81266 0.099,1.18195 h 0.394 l 0.1478,-1.18195 2.2654,-18.81266 h 3.8413 l 2.2654,18.81266 0.1477,1.18195 h 0.394 l 0.099,-1.18195 2.1177,-18.81266 h 4.9247 l -4.8755,36.19713 h -4.1368 l -2.4624,-17.13823 -0.2955,-2.11766 h -0.197 l -0.2955,2.11766 -2.4624,17.13823 z"
           style="font-family:'League Gothic';-inkscape-font-specification:'League Gothic';text-align:center;text-anchor:middle"
           id="path344" />
        <path
           d="m -4942.0142,819.90881 q -2.2161,0 -3.8167,-1.0342 -1.5759,-1.0342 -2.4377,-2.80712 -0.8373,-1.77293 -0.8373,-3.98908 v -21.32429 q 0,-2.24078 0.8373,-3.98907 0.8618,-1.77293 2.4377,-2.80713 1.6006,-1.0342 3.8167,-1.0342 2.2162,0 3.7921,1.0342 1.6006,1.0342 2.4378,2.80713 0.8618,1.77292 0.8618,3.98907 v 21.32429 q 0,2.21615 -0.8618,3.98908 -0.8372,1.77292 -2.4378,2.80712 -1.5759,1.0342 -3.7921,1.0342 z m 0,-5.17101 q 0.985,0 1.379,-0.81259 0.394,-0.83722 0.394,-1.8468 v -21.32429 q 0,-1.00958 -0.4187,-1.82217 -0.4186,-0.83721 -1.3543,-0.83721 -0.9111,0 -1.3543,0.83721 -0.4186,0.81259 -0.4186,1.82217 v 21.32429 q 0,1.00958 0.4186,1.8468 0.4186,0.81259 1.3543,0.81259 z"
           style="font-family:'League Gothic';-inkscape-font-specification:'League Gothic';text-align:center;text-anchor:middle"
           id="path346" />
        <path
           d="M -4929.4984,819.51483 V 783.3177 h 5.3187 q 4.7771,0 7.0425,2.65938 2.2653,2.63476 2.2653,7.78115 0,3.05337 -1.0834,5.29414 -1.0588,2.21615 -2.5855,3.25036 l 3.6197,17.2121 h -5.3188 l -3.0041,-15.26682 h -0.9357 v 15.26682 z m 5.3187,-20.1916 q 1.4774,0 2.3393,-0.64022 0.8618,-0.66484 1.2312,-1.87141 0.3693,-1.20657 0.3693,-2.85638 0,-2.58551 -0.8618,-3.96444 -0.8372,-1.40357 -3.078,-1.40357 z"
           style="font-family:'League Gothic';-inkscape-font-specification:'League Gothic';text-align:center;text-anchor:middle"
           id="path348" />
        <path
           d="M -4910.1865,819.51483 V 783.3177 h 4.974 l 4.9248,18.86191 0.4432,1.67442 h 0.2955 V 783.3177 h 4.8755 v 36.19713 h -4.4815 l -5.4173,-18.86191 -0.4432,-1.67442 h -0.2955 v 20.53633 z"
           style="font-family:'League Gothic';-inkscape-font-specification:'League Gothic';text-align:center;text-anchor:middle"
           id="path350" />
        <path
           d="M -4889.0031,819.51483 V 783.3177 h 12.1642 v 5.46651 h -6.8455 v 9.75106 h 4.9248 v 5.31876 h -4.9248 v 10.1943 h 6.8455 v 5.4665 z"
           style="font-family:'League Gothic';-inkscape-font-specification:'League Gothic';text-align:center;text-anchor:middle"
           id="path352" />
      </g>
      <g
         id="g3758"
         transform="matrix(0.75995549,0,0,0.75995549,-5426.9468,864.15041)">
        <path
           style="color:#000000;font-style:normal;font-variant:normal;font-weight:normal;font-stretch:normal;font-size:medium;line-height:normal;font-family:sans-serif;font-variant-ligatures:normal;font-variant-position:normal;font-variant-caps:normal;font-variant-numeric:normal;font-variant-alternates:normal;font-variant-east-asian:normal;font-feature-settings:normal;font-variation-settings:normal;text-indent:0;text-align:start;text-decoration:none;text-decoration-line:none;text-decoration-style:solid;text-decoration-color:#000000;letter-spacing:normal;word-spacing:normal;text-transform:none;writing-mode:lr-tb;direction:ltr;text-orientation:mixed;dominant-baseline:auto;baseline-shift:baseline;text-anchor:start;white-space:normal;shape-padding:0;shape-margin:0;inline-size:0;clip-rule:nonzero;display:inline;overflow:visible;visibility:visible;isolation:auto;mix-blend-mode:normal;color-interpolation:sRGB;color-interpolation-filters:linearRGB;solid-color:#000000;solid-opacity:1;vector-effect:none;fill:#b28261;fill-opacity:1;fill-rule:nonzero;stroke:none;stroke-width:1.32292;stroke-linecap:butt;stroke-linejoin:miter;stroke-miterlimit:4;stroke-dasharray:5.29167, 2.64583;stroke-dashoffset:0;stroke-opacity:1;color-rendering:auto;image-rendering:auto;shape-rendering:auto;text-rendering:auto;enable-background:accumulate;stop-color:#000000;stop-opacity:1"
           d="m 397.40416,-114.3 h 406.4"
           id="path3754" />
        <path
           style="color:#000000;font-style:normal;font-variant:normal;font-weight:normal;font-stretch:normal;font-size:medium;line-height:normal;font-family:sans-serif;font-variant-ligatures:normal;font-variant-position:normal;font-variant-caps:normal;font-variant-numeric:normal;font-variant-alternates:normal;font-variant-east-asian:normal;font-feature-settings:normal;font-variation-settings:normal;text-indent:0;text-align:start;text-decoration:none;text-decoration-line:none;text-decoration-style:solid;text-decoration-color:#000000;letter-spacing:normal;word-spacing:normal;text-transform:none;writing-mode:lr-tb;direction:ltr;text-orientation:mixed;dominant-baseline:auto;baseline-shift:baseline;text-anchor:start;white-space:normal;shape-padding:0;shape-margin:0;inline-size:0;clip-rule:nonzero;display:inline;overflow:visible;visibility:visible;isolation:auto;mix-blend-mode:normal;color-interpolation:sRGB;color-interpolation-filters:linearRGB;solid-color:#000000;solid-opacity:1;vector-effect:none;fill:#000000;fill-opacity:1;fill-rule:nonzero;stroke:none;stroke-linecap:butt;stroke-linejoin:miter;stroke-miterlimit:4;stroke-dasharray:5.29167, 2.64583;stroke-dashoffset:0;stroke-opacity:1;color-rendering:auto;image-rendering:auto;shape-rendering:auto;text-rendering:auto;enable-background:accumulate;stop-color:#000000;stop-opacity:1"
           d="m 397.4043,-114.96094 v 1.32227 h 5.29101 v -1.32227 z m 7.9375,0 v 1.32227 h 5.29101 v -1.32227 z m 7.9375,0 v 1.32227 h 5.29101 v -1.32227 z m 7.9375,0 v 1.32227 h 5.29101 v -1.32227 z m 7.9375,0 v 1.32227 h 5.29101 v -1.32227 z m 7.9375,0 v 1.32227 h 5.29101 v -1.32227 z m 7.9375,0 v 1.32227 h 5.29101 v -1.32227 z m 7.9375,0 v 1.32227 h 5.29101 v -1.32227 z m 7.9375,0 v 1.32227 h 5.29101 v -1.32227 z m 7.9375,0 v 1.32227 h 5.29101 v -1.32227 z m 7.9375,0 v 1.32227 h 5.29101 v -1.32227 z m 7.9375,0 v 1.32227 h 5.29101 v -1.32227 z m 7.9375,0 v 1.32227 h 5.29101 v -1.32227 z m 7.9375,0 v 1.32227 h 5.29101 v -1.32227 z m 7.9375,0 v 1.32227 h 5.29101 v -1.32227 z m 7.9375,0 v 1.32227 h 5.29101 v -1.32227 z m 7.9375,0 v 1.32227 h 5.29101 v -1.32227 z m 7.9375,0 v 1.32227 h 5.29101 v -1.32227 z m 7.9375,0 v 1.32227 h 5.29101 v -1.32227 z m 7.9375,0 v 1.32227 h 5.29101 v -1.32227 z m 7.9375,0 v 1.32227 h 5.29101 v -1.32227 z m 7.9375,0 v 1.32227 h 5.29101 v -1.32227 z m 7.9375,0 v 1.32227 h 5.29101 v -1.32227 z m 7.9375,0 v 1.32227 h 5.29101 v -1.32227 z m 7.9375,0 v 1.32227 h 5.29101 v -1.32227 z m 7.9375,0 v 1.32227 h 5.29101 v -1.32227 z m 7.9375,0 v 1.32227 h 5.29101 v -1.32227 z m 7.9375,0 v 1.32227 h 5.29101 v -1.32227 z m 7.9375,0 v 1.32227 h 5.29101 v -1.32227 z m 7.9375,0 v 1.32227 h 5.29101 v -1.32227 z m 7.9375,0 v 1.32227 h 5.29101 v -1.32227 z m 7.9375,0 v 1.32227 h 5.29101 v -1.32227 z m 7.9375,0 v 1.32227 h 5.29101 v -1.32227 z m 7.9375,0 v 1.32227 h 5.29101 v -1.32227 z m 7.9375,0 v 1.32227 h 5.29101 v -1.32227 z m 7.9375,0 v 1.32227 h 5.29101 v -1.32227 z m 7.9375,0 v 1.32227 h 5.29101 v -1.32227 z m 7.9375,0 v 1.32227 h 5.29101 v -1.32227 z m 7.9375,0 v 1.32227 h 5.29101 v -1.32227 z m 7.9375,0 v 1.32227 h 5.29101 v -1.32227 z m 7.9375,0 v 1.32227 h 5.29101 v -1.32227 z m 7.9375,0 v 1.32227 h 5.29101 v -1.32227 z m 7.9375,0 v 1.32227 h 5.29101 v -1.32227 z m 7.9375,0 v 1.32227 h 5.29101 v -1.32227 z m 7.9375,0 v 1.32227 h 5.29101 v -1.32227 z m 7.9375,0 v 1.32227 h 5.29101 v -1.32227 z m 7.9375,0 v 1.32227 h 5.29101 v -1.32227 z m 7.9375,0 v 1.32227 h 5.29101 v -1.32227 z m 7.9375,0 v 1.32227 h 5.29101 v -1.32227 z m 7.9375,0 v 1.32227 h 5.29101 v -1.32227 z m 7.9375,0 v 1.32227 h 5.29101 v -1.32227 z m 7.9375,0 v 1.32227 h 1.58789 v -1.32227 z"
           id="path3756" />
      </g>
      <g
         id="g3764"
         transform="matrix(0.75995549,0,0,0.75995549,-5426.9468,912.40759)">
        <path
           style="color:#000000;font-style:normal;font-variant:normal;font-weight:normal;font-stretch:normal;font-size:medium;line-height:normal;font-family:sans-serif;font-variant-ligatures:normal;font-variant-position:normal;font-variant-caps:normal;font-variant-numeric:normal;font-variant-alternates:normal;font-variant-east-asian:normal;font-feature-settings:normal;font-variation-settings:normal;text-indent:0;text-align:start;text-decoration:none;text-decoration-line:none;text-decoration-style:solid;text-decoration-color:#000000;letter-spacing:normal;word-spacing:normal;text-transform:none;writing-mode:lr-tb;direction:ltr;text-orientation:mixed;dominant-baseline:auto;baseline-shift:baseline;text-anchor:start;white-space:normal;shape-padding:0;shape-margin:0;inline-size:0;clip-rule:nonzero;display:inline;overflow:visible;visibility:visible;isolation:auto;mix-blend-mode:normal;color-interpolation:sRGB;color-interpolation-filters:linearRGB;solid-color:#000000;solid-opacity:1;vector-effect:none;fill:#b28261;fill-opacity:1;fill-rule:nonzero;stroke:none;stroke-width:1.32292;stroke-linecap:butt;stroke-linejoin:miter;stroke-miterlimit:4;stroke-dasharray:5.29167, 2.64583;stroke-dashoffset:0;stroke-opacity:1;color-rendering:auto;image-rendering:auto;shape-rendering:auto;text-rendering:auto;enable-background:accumulate;stop-color:#000000;stop-opacity:1"
           d="m 397.40416,-114.3 h 406.4"
           id="path3760" />
        <path
           style="color:#000000;font-style:normal;font-variant:normal;font-weight:normal;font-stretch:normal;font-size:medium;line-height:normal;font-family:sans-serif;font-variant-ligatures:normal;font-variant-position:normal;font-variant-caps:normal;font-variant-numeric:normal;font-variant-alternates:normal;font-variant-east-asian:normal;font-feature-settings:normal;font-variation-settings:normal;text-indent:0;text-align:start;text-decoration:none;text-decoration-line:none;text-decoration-style:solid;text-decoration-color:#000000;letter-spacing:normal;word-spacing:normal;text-transform:none;writing-mode:lr-tb;direction:ltr;text-orientation:mixed;dominant-baseline:auto;baseline-shift:baseline;text-anchor:start;white-space:normal;shape-padding:0;shape-margin:0;inline-size:0;clip-rule:nonzero;display:inline;overflow:visible;visibility:visible;isolation:auto;mix-blend-mode:normal;color-interpolation:sRGB;color-interpolation-filters:linearRGB;solid-color:#000000;solid-opacity:1;vector-effect:none;fill:#000000;fill-opacity:1;fill-rule:nonzero;stroke:none;stroke-linecap:butt;stroke-linejoin:miter;stroke-miterlimit:4;stroke-dasharray:5.29167, 2.64583;stroke-dashoffset:0;stroke-opacity:1;color-rendering:auto;image-rendering:auto;shape-rendering:auto;text-rendering:auto;enable-background:accumulate;stop-color:#000000;stop-opacity:1"
           d="m 397.4043,-114.96094 v 1.32227 h 5.29101 v -1.32227 z m 7.9375,0 v 1.32227 h 5.29101 v -1.32227 z m 7.9375,0 v 1.32227 h 5.29101 v -1.32227 z m 7.9375,0 v 1.32227 h 5.29101 v -1.32227 z m 7.9375,0 v 1.32227 h 5.29101 v -1.32227 z m 7.9375,0 v 1.32227 h 5.29101 v -1.32227 z m 7.9375,0 v 1.32227 h 5.29101 v -1.32227 z m 7.9375,0 v 1.32227 h 5.29101 v -1.32227 z m 7.9375,0 v 1.32227 h 5.29101 v -1.32227 z m 7.9375,0 v 1.32227 h 5.29101 v -1.32227 z m 7.9375,0 v 1.32227 h 5.29101 v -1.32227 z m 7.9375,0 v 1.32227 h 5.29101 v -1.32227 z m 7.9375,0 v 1.32227 h 5.29101 v -1.32227 z m 7.9375,0 v 1.32227 h 5.29101 v -1.32227 z m 7.9375,0 v 1.32227 h 5.29101 v -1.32227 z m 7.9375,0 v 1.32227 h 5.29101 v -1.32227 z m 7.9375,0 v 1.32227 h 5.29101 v -1.32227 z m 7.9375,0 v 1.32227 h 5.29101 v -1.32227 z m 7.9375,0 v 1.32227 h 5.29101 v -1.32227 z m 7.9375,0 v 1.32227 h 5.29101 v -1.32227 z m 7.9375,0 v 1.32227 h 5.29101 v -1.32227 z m 7.9375,0 v 1.32227 h 5.29101 v -1.32227 z m 7.9375,0 v 1.32227 h 5.29101 v -1.32227 z m 7.9375,0 v 1.32227 h 5.29101 v -1.32227 z m 7.9375,0 v 1.32227 h 5.29101 v -1.32227 z m 7.9375,0 v 1.32227 h 5.29101 v -1.32227 z m 7.9375,0 v 1.32227 h 5.29101 v -1.32227 z m 7.9375,0 v 1.32227 h 5.29101 v -1.32227 z m 7.9375,0 v 1.32227 h 5.29101 v -1.32227 z m 7.9375,0 v 1.32227 h 5.29101 v -1.32227 z m 7.9375,0 v 1.32227 h 5.29101 v -1.32227 z m 7.9375,0 v 1.32227 h 5.29101 v -1.32227 z m 7.9375,0 v 1.32227 h 5.29101 v -1.32227 z m 7.9375,0 v 1.32227 h 5.29101 v -1.32227 z m 7.9375,0 v 1.32227 h 5.29101 v -1.32227 z m 7.9375,0 v 1.32227 h 5.29101 v -1.32227 z m 7.9375,0 v 1.32227 h 5.29101 v -1.32227 z m 7.9375,0 v 1.32227 h 5.29101 v -1.32227 z m 7.9375,0 v 1.32227 h 5.29101 v -1.32227 z m 7.9375,0 v 1.32227 h 5.29101 v -1.32227 z m 7.9375,0 v 1.32227 h 5.29101 v -1.32227 z m 7.9375,0 v 1.32227 h 5.29101 v -1.32227 z m 7.9375,0 v 1.32227 h 5.29101 v -1.32227 z m 7.9375,0 v 1.32227 h 5.29101 v -1.32227 z m 7.9375,0 v 1.32227 h 5.29101 v -1.32227 z m 7.9375,0 v 1.32227 h 5.29101 v -1.32227 z m 7.9375,0 v 1.32227 h 5.29101 v -1.32227 z m 7.9375,0 v 1.32227 h 5.29101 v -1.32227 z m 7.9375,0 v 1.32227 h 5.29101 v -1.32227 z m 7.9375,0 v 1.32227 h 5.29101 v -1.32227 z m 7.9375,0 v 1.32227 h 5.29101 v -1.32227 z m 7.9375,0 v 1.32227 h 1.58789 v -1.32227 z"
           id="path3762" />
      </g>
      <g
         aria-label="EST. 2020"
         id="text3768"
         style="font-size:17.8852px;line-height:1.25;-inkscape-font-specification:sans-serif;letter-spacing:3.24046px;fill:#ffffff;stroke-width:1.21945">
        <path
           d="m -5007.3437,720.67657 v -13.14562 h 4.4177 v 1.98526 h -2.4861 v 3.54127 h 1.7885 v 1.9316 h -1.7885 v 3.70224 h 2.4861 v 1.98525 z"
           style="font-family:'League Gothic';-inkscape-font-specification:'League Gothic'"
           id="path355" />
        <path
           d="m -4995.9297,720.81966 q -0.7959,0 -1.3235,-0.25934 -0.5276,-0.26828 -0.8316,-0.76906 -0.3041,-0.50079 -0.4382,-1.20725 -0.1252,-0.70647 -0.1252,-1.59179 l 1.8958,-0.17885 q 0,0.42925 0.027,0.83166 0.036,0.39348 0.1163,0.71541 0.089,0.31299 0.2504,0.50079 0.1699,0.18779 0.4292,0.18779 0.4293,0 0.6081,-0.39347 0.1789,-0.40242 0.1789,-0.9658 0,-0.56339 -0.2951,-1.17148 -0.2951,-0.6081 -0.7065,-1.1536 -0.6975,-0.93003 -1.2251,-1.72592 -0.5187,-0.79589 -0.8138,-1.56496 -0.2862,-0.76906 -0.2862,-1.60966 0,-0.66176 0.1699,-1.2162 0.1699,-0.56338 0.4919,-0.97474 0.3308,-0.4203 0.7959,-0.65281 0.465,-0.23251 1.0641,-0.23251 0.7423,0 1.252,0.25039 0.5187,0.2504 0.8317,0.71541 0.3219,0.46502 0.465,1.10888 0.152,0.63493 0.152,1.41293 l -1.8958,0.17886 q 0,-0.33088 -0.036,-0.66176 -0.027,-0.33981 -0.1073,-0.61703 -0.081,-0.27723 -0.2325,-0.44714 -0.152,-0.1699 -0.3935,-0.1699 -0.3756,0 -0.5187,0.32193 -0.1431,0.31299 -0.1431,0.89426 0,0.75118 0.4025,1.4487 0.4024,0.69752 1.082,1.62755 0.8138,1.09994 1.3235,2.02103 0.5187,0.92109 0.5187,2.03891 0,0.70647 -0.152,1.31457 -0.1521,0.59915 -0.4829,1.04628 -0.322,0.44713 -0.8317,0.69752 -0.5008,0.2504 -1.2162,0.2504 z"
           style="font-family:'League Gothic';-inkscape-font-specification:'League Gothic'"
           id="path357" />
        <path
           d="m -4987.6814,720.67657 v -11.16036 h -1.8243 v -1.98526 h 5.5802 v 1.98526 h -1.8243 v 11.16036 z"
           style="font-family:'League Gothic';-inkscape-font-specification:'League Gothic'"
           id="path359" />
        <path
           d="m -4980.0411,720.67657 v -1.98525 h 1.8779 v 1.98525 z"
           style="font-family:'League Gothic';-inkscape-font-specification:'League Gothic'"
           id="path361" />
        <path
           d="m -4967.837,720.67657 v -1.91371 q 0.6171,-0.94792 1.1983,-1.9942 0.5813,-1.04629 1.0463,-2.10151 0.474,-1.06417 0.7512,-2.0568 0.2772,-0.99263 0.2772,-1.82429 0,-0.59021 -0.1162,-1.09994 -0.1163,-0.50973 -0.5277,-0.50973 -0.4113,0 -0.5276,0.50973 -0.1162,0.50078 -0.1162,1.09994 v 0.91214 h -1.9316 v -0.91214 q 0,-0.78695 0.1341,-1.41293 0.1431,-0.63493 0.4471,-1.07311 0.3041,-0.44713 0.7959,-0.67964 0.4919,-0.23251 1.1983,-0.23251 0.7065,0 1.1984,0.23251 0.4918,0.23251 0.7958,0.66175 0.3041,0.42925 0.4382,1.03734 0.1431,0.59916 0.1431,1.34139 0,0.88532 -0.2683,1.91372 -0.2593,1.01946 -0.6975,2.10151 -0.4292,1.07311 -0.9658,2.1194 -0.5365,1.03734 -1.091,1.96737 h 3.0584 v 1.91371 z"
           style="font-family:'League Gothic';-inkscape-font-specification:'League Gothic'"
           id="path363" />
        <path
           d="m -4955.5645,720.81966 q -0.8227,0 -1.404,-0.37559 -0.5723,-0.37559 -0.8763,-1.01946 -0.2951,-0.65281 -0.2951,-1.4487 v -7.74429 q 0,-0.80484 0.304,-1.4487 0.313,-0.64387 0.8943,-1.01946 0.5812,-0.37559 1.3771,-0.37559 0.8049,0 1.3772,0.38453 0.5813,0.37559 0.8853,1.01946 0.313,0.64387 0.313,1.43976 v 7.74429 q 0,0.79589 -0.313,1.4487 -0.313,0.64387 -0.8943,1.01946 -0.5723,0.37559 -1.3682,0.37559 z m 0,-1.87795 q 0.3398,0 0.4919,-0.28616 0.152,-0.29511 0.152,-0.67964 v -7.74429 q 0,-0.39348 -0.152,-0.67964 -0.1521,-0.28616 -0.4919,-0.28616 -0.3398,0 -0.4918,0.30405 -0.152,0.2951 -0.152,0.66175 v 7.74429 q 0,0.38453 0.152,0.67964 0.152,0.28616 0.4918,0.28616 z"
           style="font-family:'League Gothic';-inkscape-font-specification:'League Gothic'"
           id="path365" />
        <path
           d="m -4948.5324,720.67657 v -1.91371 q 0.6171,-0.94792 1.1984,-1.9942 0.5812,-1.04629 1.0462,-2.10151 0.474,-1.06417 0.7512,-2.0568 0.2772,-0.99263 0.2772,-1.82429 0,-0.59021 -0.1162,-1.09994 -0.1163,-0.50973 -0.5276,-0.50973 -0.4114,0 -0.5276,0.50973 -0.1163,0.50078 -0.1163,1.09994 v 0.91214 h -1.9316 v -0.91214 q 0,-0.78695 0.1341,-1.41293 0.1431,-0.63493 0.4472,-1.07311 0.304,-0.44713 0.7959,-0.67964 0.4918,-0.23251 1.1983,-0.23251 0.7064,0 1.1983,0.23251 0.4918,0.23251 0.7959,0.66175 0.304,0.42925 0.4382,1.03734 0.143,0.59916 0.143,1.34139 0,0.88532 -0.2682,1.91372 -0.2594,1.01946 -0.6976,2.10151 -0.4292,1.07311 -0.9658,2.1194 -0.5365,1.03734 -1.091,1.96737 h 3.0584 v 1.91371 z"
           style="font-family:'League Gothic';-inkscape-font-specification:'League Gothic'"
           id="path367" />
        <path
           d="m -4936.2599,720.81966 q -0.8227,0 -1.4039,-0.37559 -0.5724,-0.37559 -0.8764,-1.01946 -0.2951,-0.65281 -0.2951,-1.4487 v -7.74429 q 0,-0.80484 0.304,-1.4487 0.313,-0.64387 0.8943,-1.01946 0.5813,-0.37559 1.3771,-0.37559 0.8049,0 1.3772,0.38453 0.5813,0.37559 0.8853,1.01946 0.313,0.64387 0.313,1.43976 v 7.74429 q 0,0.79589 -0.313,1.4487 -0.313,0.64387 -0.8942,1.01946 -0.5724,0.37559 -1.3683,0.37559 z m 0,-1.87795 q 0.3399,0 0.4919,-0.28616 0.152,-0.29511 0.152,-0.67964 v -7.74429 q 0,-0.39348 -0.152,-0.67964 -0.152,-0.28616 -0.4919,-0.28616 -0.3398,0 -0.4918,0.30405 -0.152,0.2951 -0.152,0.66175 v 7.74429 q 0,0.38453 0.152,0.67964 0.152,0.28616 0.4918,0.28616 z"
           style="font-family:'League Gothic';-inkscape-font-specification:'League Gothic'"
           id="path369" />
      </g>
      <path
         id="rect3770"
         style="fill:#ffffff;stroke-width:1.32292"
         d="m -5022.6294,712.60706 h 8.9803 v 2.99341 h -8.9803 z" />
      <path
         id="rect3772"
         style="fill:#ffffff;stroke-width:1.32292"
         d="m -4927.3794,712.60706 h 8.9803 v 2.99341 h -8.9803 z" />
      <path
         id="path3774"
         style="fill:#8f4040;fill-opacity:1;stroke:none;stroke-width:1.17713;stroke-miterlimit:4;stroke-dasharray:none;stroke-dashoffset:0;stroke-opacity:1"
         d="m -5045.2899,883.94287 c -0.3097,0 -0.5591,0.24937 -0.5591,0.55913 v 8.38688 h -31.1566 l 16.1931,19.78272 -14.6394,17.88468 h 36.6577 c 0.3098,0 0.5591,-0.24937 0.5591,-0.55913 v -8.38688 h 135.4417 v 8.38688 c 0,0.30976 0.2494,0.55913 0.5591,0.55913 h 36.6577 l -14.6393,-17.88468 16.193,-19.78272 h -31.1565 V 884.502 c 0,-0.30976 -0.2494,-0.55913 -0.5592,-0.55913 z" />
      <g
         aria-label="TECHNOLOGIES"
         id="text3778"
         style="font-size:25.8124px;line-height:1.25;-inkscape-font-specification:sans-serif;letter-spacing:3.75161px;stroke-width:1.75993">
        <path
           d="m -5040.0241,913.56067 v -16.10694 h -2.6328 v -2.86518 h 8.0535 v 2.86518 h -2.6329 v 16.10694 z"
           style="font-family:'League Gothic';-inkscape-font-specification:'League Gothic'"
           id="path374" />
        <path
           d="m -5029.5612,913.56067 v -18.97212 h 6.3757 v 2.86518 h -3.588 v 5.11086 h 2.5813 v 2.78774 h -2.5813 v 5.34316 h 3.588 v 2.86518 z"
           style="font-family:'League Gothic';-inkscape-font-specification:'League Gothic'"
           id="path376" />
        <path
           d="m -5013.781,913.76717 q -1.1874,0 -2.0263,-0.52916 -0.826,-0.54206 -1.2648,-1.4713 -0.4259,-0.92925 -0.4259,-2.10371 v -11.17677 q 0,-1.16156 0.4388,-2.09081 0.4517,-0.92924 1.2906,-1.4713 0.8389,-0.54206 1.9876,-0.54206 0.8647,0 1.5487,0.32265 0.6841,0.32266 1.1616,0.89053 0.4904,0.55496 0.7485,1.30352 0.2582,0.73566 0.2582,1.58747 v 2.60705 h -2.6071 v -2.60705 q 0,-0.59369 -0.2452,-0.99378 -0.2452,-0.40009 -0.8131,-0.40009 -0.5162,0 -0.7486,0.413 -0.2323,0.41299 -0.2323,0.98087 V 909.663 q 0,0.56787 0.2453,0.98087 0.2581,0.413 0.7356,0.413 0.5808,0 0.8131,-0.4001 0.2452,-0.40009 0.2452,-0.99377 v -2.60706 h 2.6071 v 2.60706 q 0,1.16155 -0.4517,2.0908 -0.4518,0.92925 -1.2907,1.47131 -0.826,0.54206 -1.9746,0.54206 z"
           style="font-family:'League Gothic';-inkscape-font-specification:'League Gothic'"
           id="path378" />
        <path
           d="m -5004.3765,913.56067 v -18.97212 h 2.7877 v 7.84697 h 2.1683 v -7.84697 h 2.7877 v 18.97212 h -2.7877 v -8.25997 h -2.1683 v 8.25997 z"
           style="font-family:'League Gothic';-inkscape-font-specification:'League Gothic'"
           id="path380" />
        <path
           d="m -4990.8162,913.56067 v -18.97212 h 2.6071 l 2.5812,9.88615 0.2323,0.87763 h 0.1549 v -10.76378 h 2.5554 v 18.97212 h -2.3489 l -2.8394,-9.88615 -0.2323,-0.87762 h -0.1549 v 10.76377 z"
           style="font-family:'League Gothic';-inkscape-font-specification:'League Gothic'"
           id="path382" />
        <path
           d="m -4973.2807,913.76717 q -1.1616,0 -2.0005,-0.54206 -0.826,-0.54206 -1.2777,-1.47131 -0.4388,-0.92925 -0.4388,-2.0908 v -11.17677 q 0,-1.17447 0.4388,-2.09081 0.4517,-0.92924 1.2777,-1.4713 0.8389,-0.54206 2.0005,-0.54206 1.1615,0 1.9875,0.54206 0.8389,0.54206 1.2777,1.4713 0.4517,0.92925 0.4517,2.09081 V 909.663 q 0,1.16155 -0.4517,2.0908 -0.4388,0.92925 -1.2777,1.47131 -0.826,0.54206 -1.9875,0.54206 z m 0,-2.7103 q 0.5162,0 0.7227,-0.42591 0.2065,-0.43881 0.2065,-0.96796 v -11.17677 q 0,-0.52916 -0.2194,-0.95506 -0.2194,-0.43881 -0.7098,-0.43881 -0.4776,0 -0.7099,0.43881 -0.2194,0.4259 -0.2194,0.95506 V 909.663 q 0,0.52915 0.2194,0.96796 0.2194,0.42591 0.7099,0.42591 z"
           style="font-family:'League Gothic';-inkscape-font-specification:'League Gothic'"
           id="path384" />
        <path
           d="m -4963.8762,913.56067 v -18.97212 h 2.7877 v 16.39088 h 3.6912 v 2.58124 z"
           style="font-family:'League Gothic';-inkscape-font-specification:'League Gothic'"
           id="path386" />
        <path
           d="m -4948.922,913.76717 q -1.1616,0 -2.0005,-0.54206 -0.826,-0.54206 -1.2777,-1.47131 -0.4388,-0.92925 -0.4388,-2.0908 v -11.17677 q 0,-1.17447 0.4388,-2.09081 0.4517,-0.92924 1.2777,-1.4713 0.8389,-0.54206 2.0005,-0.54206 1.1615,0 1.9875,0.54206 0.8389,0.54206 1.2777,1.4713 0.4517,0.92925 0.4517,2.09081 V 909.663 q 0,1.16155 -0.4517,2.0908 -0.4388,0.92925 -1.2777,1.47131 -0.826,0.54206 -1.9875,0.54206 z m 0,-2.7103 q 0.5162,0 0.7227,-0.42591 0.2065,-0.43881 0.2065,-0.96796 v -11.17677 q 0,-0.52916 -0.2194,-0.95506 -0.2194,-0.43881 -0.7098,-0.43881 -0.4776,0 -0.7099,0.43881 -0.2194,0.4259 -0.2194,0.95506 V 909.663 q 0,0.52915 0.2194,0.96796 0.2194,0.42591 0.7099,0.42591 z"
           style="font-family:'League Gothic';-inkscape-font-specification:'League Gothic'"
           id="path388" />
        <path
           d="m -4936.3684,913.76717 q -1.1487,0 -1.8714,-0.54206 -0.7227,-0.54206 -1.0712,-1.47131 -0.3356,-0.92925 -0.3356,-2.0908 v -11.17677 q 0,-1.14865 0.4517,-2.0779 0.4518,-0.92925 1.2907,-1.47131 0.8389,-0.55496 1.9746,-0.55496 0.8647,0 1.5488,0.32265 0.6969,0.30975 1.1744,0.87762 0.4905,0.56787 0.7357,1.31643 0.2581,0.73566 0.2581,1.58747 v 2.9168 h -2.7877 v -2.9168 q 0,-0.56788 -0.2065,-0.98087 -0.2065,-0.413 -0.7228,-0.413 -0.5033,0 -0.7227,0.43881 -0.2065,0.4259 -0.2065,0.95506 v 11.40908 q 0,0.55496 0.2194,0.98087 0.2194,0.413 0.7098,0.413 0.5163,0 0.7228,-0.413 0.2065,-0.42591 0.2065,-0.98087 v -3.17493 h -1.11 v -2.60705 h 3.8977 v 9.44734 h -1.652 l -0.3356,-1.0325 q -0.3613,0.58078 -0.9292,0.91634 -0.555,0.32266 -1.239,0.32266 z"
           style="font-family:'League Gothic';-inkscape-font-specification:'League Gothic'"
           id="path390" />
        <path
           d="m -4926.396,913.56067 v -18.97212 h 2.7878 v 18.97212 z"
           style="font-family:'League Gothic';-inkscape-font-specification:'League Gothic'"
           id="path392" />
        <path
           d="m -4917.7916,913.56067 v -18.97212 h 6.3756 v 2.86518 h -3.5879 v 5.11086 h 2.5812 v 2.78774 h -2.5812 v 5.34316 h 3.5879 v 2.86518 z"
           style="font-family:'League Gothic';-inkscape-font-specification:'League Gothic'"
           id="path394" />
        <path
           d="m -4902.2438,913.76717 q -1.1486,0 -1.9101,-0.37428 -0.7615,-0.38719 -1.2003,-1.10993 -0.4388,-0.72275 -0.6324,-1.74234 -0.1807,-1.01959 -0.1807,-2.29731 l 2.7362,-0.25812 q 0,0.6195 0.039,1.20028 0.052,0.56787 0.1678,1.03249 0.129,0.45172 0.3613,0.72275 0.2452,0.27103 0.6195,0.27103 0.6195,0 0.8776,-0.56787 0.2582,-0.58078 0.2582,-1.39387 0,-0.81309 -0.4259,-1.69071 -0.4259,-0.87763 -1.0196,-1.6649 -1.0067,-1.34225 -1.7682,-2.4909 -0.7485,-1.14865 -1.1744,-2.25859 -0.413,-1.10993 -0.413,-2.32311 0,-0.95506 0.2452,-1.75525 0.2452,-0.81309 0.7098,-1.40677 0.4776,-0.60659 1.1487,-0.94215 0.6711,-0.33556 1.5358,-0.33556 1.0712,0 1.8069,0.36137 0.7485,0.36137 1.2003,1.03249 0.4646,0.67113 0.6711,1.60037 0.2194,0.91634 0.2194,2.03918 l -2.7361,0.25813 q 0,-0.47753 -0.052,-0.95506 -0.039,-0.49044 -0.1548,-0.89053 -0.1162,-0.40009 -0.3356,-0.64531 -0.2194,-0.24522 -0.5679,-0.24522 -0.542,0 -0.7485,0.46463 -0.2065,0.45171 -0.2065,1.29062 0,1.08412 0.5808,2.0908 0.5807,1.00668 1.5616,2.34893 1.1745,1.58746 1.9101,2.9168 0.7486,1.32934 0.7486,2.94261 0,1.01959 -0.2194,1.89722 -0.2194,0.86471 -0.697,1.51002 -0.4646,0.64531 -1.2002,1.00668 -0.7228,0.36138 -1.7553,0.36138 z"
           style="font-family:'League Gothic';-inkscape-font-specification:'League Gothic'"
           id="path396" />
      </g>
    </g>
  </g>
</svg>
